<svg width="101" height="101" viewBox="0 0 101 101" fill="none" xmlns="http://www.w3.org/2000/svg">
<g clip-path="url(#clip0_46_83)">
<path d="M46.7674 99.8717C33.405 97.8294 21.1363 90.5281 12.3112 80.6934C0.260408 67.2638 -2.89443 48.5726 4.26778 33.0389C8.55458 23.7416 18.4598 13.0055 27.3246 8.048C45.1469 -1.9188 65.5619 -2.01363 78.8897 7.80848C92.9283 18.1545 100.506 35.8997 100.477 58.364C100.459 72.0773 97.5555 80.8512 90.5998 88.2059C84.0396 95.1423 75.7283 99.0957 63.172 100.181C54.7289 100.911 53.224 100.858 46.7674 99.8717Z" fill="#D33D34"/>
<path d="M27.375 76V23.6172H40.4531L55.3242 47.418C55.8867 48.2852 56.5781 49.4453 57.3984 50.8984C58.2188 52.3516 59.0859 53.9102 60 55.5742C60.9141 57.2383 61.7695 58.8203 62.5664 60.3203L61.0898 63.7305C60.9961 61.9961 60.9141 60.0156 60.8438 57.7891C60.7734 55.5391 60.7148 53.3711 60.668 51.2852C60.6445 49.1992 60.6328 47.5469 60.6328 46.3281V23.6172H73.2891V76H60.1758L46.5352 54.2031C45.8789 53.125 45.0469 51.7305 44.0391 50.0195C43.0312 48.3086 41.9297 46.3867 40.7344 44.2539C39.5625 42.1211 38.3555 39.9062 37.1133 37.6094L39.5039 36.5547C39.668 39.0625 39.7852 41.4766 39.8555 43.7969C39.9258 46.1172 39.9727 48.1797 39.9961 49.9844C40.0195 51.7656 40.0312 53.1602 40.0312 54.168V76H27.375Z" fill="white"/>
<mask id="path-3-outside-1_46_83" maskUnits="userSpaceOnUse" x="67" y="55" width="17" height="30" fill="black">
<rect fill="white" x="67" y="55" width="17" height="30"/>
<path d="M80.25 58.7188V82H76.2656V62.625H76.2344L70.6562 66.2344V62.4531L76.4375 58.7188H80.25Z"/>
</mask>
<path d="M80.25 58.7188V82H76.2656V62.625H76.2344L70.6562 66.2344V62.4531L76.4375 58.7188H80.25Z" fill="white"/>
<path d="M80.25 58.7188H83.25V55.7188H80.25V58.7188ZM80.25 82V85H83.25V82H80.25ZM76.2656 82H73.2656V85H76.2656V82ZM76.2656 62.625H79.2656V59.625H76.2656V62.625ZM76.2344 62.625V59.625H75.3484L74.6046 60.1063L76.2344 62.625ZM70.6562 66.2344H67.6562V71.7488L72.286 68.7531L70.6562 66.2344ZM70.6562 62.4531L69.0285 59.9331L67.6562 60.8195V62.4531H70.6562ZM76.4375 58.7188V55.7188H75.5528L74.8097 56.1988L76.4375 58.7188ZM77.25 58.7188V82H83.25V58.7188H77.25ZM80.25 79H76.2656V85H80.25V79ZM79.2656 82V62.625H73.2656V82H79.2656ZM76.2656 59.625H76.2344V65.625H76.2656V59.625ZM74.6046 60.1063L69.0265 63.7157L72.286 68.7531L77.8641 65.1437L74.6046 60.1063ZM73.6562 66.2344V62.4531H67.6562V66.2344H73.6562ZM72.284 64.9731L78.0653 61.2387L74.8097 56.1988L69.0285 59.9331L72.284 64.9731ZM76.4375 61.7188H80.25V55.7188H76.4375V61.7188Z" fill="#D33D34" mask="url(#path-3-outside-1_46_83)"/>
</g>
<defs>
<clipPath id="clip0_46_83">
<rect width="101" height="101" fill="white"/>
</clipPath>
</defs>
</svg>
