<svg width="358" height="200" viewBox="0 0 358 200" fill="none" xmlns="http://www.w3.org/2000/svg">
<g clip-path="url(#clip0_225_1717)">
<path fill-rule="evenodd" clip-rule="evenodd" d="M57.1428 0C25.5837 0 0 25.5837 0 57.1429C0 74.2099 7.4822 89.5294 19.3453 100C7.4822 110.471 0 125.79 0 142.857C0 174.416 25.5837 200 57.1428 200H300.304C331.863 200 357.447 174.416 357.447 142.857C357.447 125.79 349.965 110.471 338.101 100C349.965 89.5293 357.447 74.2099 357.447 57.1429C357.447 25.5837 331.863 0 300.304 0H57.1428Z" fill="url(#paint0_linear_225_1717)"/>
<path fill-rule="evenodd" clip-rule="evenodd" d="M58.3586 18.2371H299.088C320.575 18.2371 337.994 35.6558 337.994 57.1429C337.994 78.6299 320.575 96.0486 299.088 96.0486H58.3586C36.8716 96.0486 19.4529 78.6299 19.4529 57.1429C19.4529 35.6558 36.8716 18.2371 58.3586 18.2371ZM41.189 99.3921C24.5186 92.6106 12.7659 76.2492 12.7659 57.1429C12.7659 31.9627 33.1785 11.5502 58.3586 11.5502H299.088C324.268 11.5502 344.681 31.9627 344.681 57.1429C344.681 76.2492 332.928 92.6106 316.258 99.3921C332.928 106.174 344.681 122.535 344.681 141.641C344.681 166.822 324.268 187.234 299.088 187.234H58.3586C33.1785 187.234 12.7659 166.822 12.7659 141.641C12.7659 122.535 24.5186 106.174 41.189 99.3921ZM58.3405 102.736C36.8618 102.745 19.4529 120.16 19.4529 141.641C19.4529 163.128 36.8716 180.547 58.3586 180.547H299.088C320.575 180.547 337.994 163.128 337.994 141.641C337.994 120.16 320.585 102.745 299.106 102.736C299.1 102.736 299.094 102.736 299.088 102.736H58.3586C58.3526 102.736 58.3466 102.736 58.3405 102.736Z" fill="url(#paint1_linear_225_1717)"/>
<path fill-rule="evenodd" clip-rule="evenodd" d="M87.6502 62.2788L88.3392 38.2979H81.8736L82.6155 62.2788H87.6502ZM69.1279 75.051L73.2616 71.5268L67.1405 64.8227C66.3279 63.9394 65.5683 63.1709 64.8617 62.5173C64.155 61.8637 63.4219 61.2896 62.6623 60.7949H76.8124V55.7603H62.6358C63.4661 55.2479 64.1815 54.7136 64.7822 54.1571C65.3828 53.6006 66.1689 52.7924 67.1405 51.7325L73.2616 45.0284L69.1279 41.5042L54.1033 58.2776L69.1279 75.051ZM94.1423 55.8397H174.3V60.7154H94.1423V55.8397ZM85.1594 75.581C85.9013 75.581 86.5814 75.3999 87.1997 75.0378C87.818 74.6756 88.3038 74.1854 88.6571 73.5671C89.0105 72.9488 89.1871 72.2775 89.1871 71.5532C89.1871 70.829 89.0105 70.1621 88.6571 69.5526C88.3038 68.9432 87.818 68.4574 87.1997 68.0952C86.5814 67.7331 85.9013 67.552 85.1594 67.552C84.4174 67.552 83.7417 67.7331 83.1322 68.0952C82.5228 68.4574 82.0414 68.9432 81.6881 69.5526C81.3348 70.1621 81.1581 70.829 81.1581 71.5532C81.1581 72.2775 81.3348 72.9488 81.6881 73.5671C82.0414 74.1854 82.5228 74.6756 83.1322 75.0378C83.7417 75.3999 84.4174 75.581 85.1594 75.581ZM201.699 60.7419V71.3943H196.479V60.7419H186.038V55.9722H196.479V45.2934H201.699V55.9722H222.977V45.2934H228.197V55.9722H238.717V60.7419H228.197V71.3943H222.977V60.7419H201.699ZM260.393 56.6347C261.276 56.6347 262.08 56.4183 262.804 55.9855C263.528 55.5527 264.103 54.9697 264.527 54.2366C264.95 53.5035 265.162 52.7129 265.162 51.865C265.162 51.017 264.95 50.2265 264.527 49.4934C264.103 48.7603 263.528 48.1773 262.804 47.7445C262.08 47.3117 261.276 47.0953 260.393 47.0953C259.509 47.0953 258.706 47.3117 257.981 47.7445C257.257 48.1773 256.683 48.7603 256.259 49.4934C255.835 50.2265 255.623 51.017 255.623 51.865C255.623 52.7129 255.835 53.5035 256.259 54.2366C256.683 54.9697 257.257 55.5527 257.981 55.9855C258.706 56.4183 259.509 56.6347 260.393 56.6347ZM302.843 50.7256V55.5748H272.847V50.7256H302.843ZM260.393 69.6984C261.276 69.6984 262.084 69.482 262.817 69.0492C263.55 68.6164 264.125 68.0334 264.54 67.3003C264.955 66.5671 265.162 65.7678 265.162 64.9022C265.162 64.0542 264.95 63.2681 264.527 62.5438C264.103 61.8195 263.528 61.2454 262.804 60.8214C262.08 60.3975 261.276 60.1855 260.393 60.1855C259.509 60.1855 258.706 60.3975 257.981 60.8214C257.257 61.2454 256.683 61.8195 256.259 62.5438C255.835 63.2681 255.623 64.0542 255.623 64.9022C255.623 65.7678 255.831 66.5671 256.246 67.3003C256.661 68.0334 257.235 68.6164 257.968 69.0492C258.701 69.482 259.509 69.6984 260.393 69.6984ZM302.843 61.1924V66.0416H272.847V61.1924H302.843Z" fill="#80CBC4"/>
<path fill-rule="evenodd" clip-rule="evenodd" d="M81.6024 150.669L75.2163 161.428L70.6851 159.175L75.7728 150.669H56.535V145.82H78.6611L82.0264 140.203H56.535V135.353H84.9147L91.6982 124.012L96.1235 126.212L90.6913 135.353H110.274V140.203H87.8295L84.4907 145.82H110.274V150.669H81.6024ZM186.721 142.905L171.723 159.679L167.563 156.155L173.684 149.451C175.327 147.666 176.82 146.324 178.162 145.423H121.482V140.388H178.215C177.385 139.876 176.674 139.35 176.082 138.811C175.49 138.273 174.691 137.456 173.684 136.36L167.563 129.656L171.723 126.132L186.721 142.905ZM189.557 159.679L204.581 142.905L189.557 126.132L185.423 129.656L197.533 142.905L185.423 156.155L189.557 159.679ZM301.061 130.054V134.903H215.525V130.054H301.061ZM301.061 145.37V140.494H215.525V145.37H301.061ZM301.061 150.961V155.837H215.525V150.961H301.061Z" fill="#233957"/>
<rect x="90.2735" y="82.3708" width="176.9" height="34.0426" rx="17.0213" fill="#233957" stroke="#80CBC4" stroke-width="3.03951"/>
<path d="M116.513 108.297C114.888 108.297 113.452 107.922 112.206 107.173C110.96 106.423 109.982 105.366 109.272 104.002C108.562 102.637 108.207 101.04 108.207 99.2097C108.207 97.3639 108.562 95.7586 109.272 94.394C109.982 93.0293 110.96 91.9723 112.206 91.2229C113.452 90.4736 114.888 90.0989 116.513 90.0989C117.838 90.0989 119.037 90.3592 120.11 90.8798C121.183 91.4004 122.066 92.134 122.76 93.0806C123.462 94.0272 123.912 95.1434 124.109 96.4291H120.926C120.69 95.309 120.181 94.4413 119.4 93.826C118.619 93.2108 117.665 92.9031 116.537 92.9031C115.464 92.9031 114.537 93.1634 113.756 93.6841C112.983 94.2047 112.387 94.9383 111.969 95.8849C111.559 96.8314 111.354 97.9397 111.354 99.2097C111.354 100.472 111.559 101.576 111.969 102.523C112.387 103.461 112.983 104.191 113.756 104.712C114.529 105.232 115.456 105.493 116.537 105.493C117.657 105.493 118.607 105.189 119.388 104.582C120.169 103.974 120.686 103.11 120.938 101.99H124.109C123.912 103.276 123.462 104.392 122.76 105.339C122.066 106.278 121.183 107.007 120.11 107.528C119.037 108.041 117.838 108.297 116.513 108.297Z" fill="#80CBC4"/>
<path d="M130.636 108.013H124.685V90.3829H130.767C132.518 90.3829 134.028 90.7418 135.298 91.4596C136.568 92.1695 137.546 93.1832 138.233 94.5005C138.919 95.8099 139.262 97.3678 139.262 99.1742C139.262 100.996 138.919 102.57 138.233 103.895C137.546 105.213 136.556 106.23 135.263 106.948C133.977 107.658 132.435 108.013 130.636 108.013ZM127.808 105.339H130.471C132.388 105.339 133.803 104.802 134.719 103.73C135.641 102.649 136.103 101.13 136.103 99.1742C136.103 97.2337 135.645 95.731 134.73 94.6661C133.815 93.5933 132.427 93.0569 130.565 93.0569H127.808V105.339Z" fill="#80CBC4"/>
<path d="M139.885 108.013V90.3829H152.131V93.0924H143.009V97.7307H151.445V100.393H143.009V105.303H152.131V108.013H139.885Z" fill="#80CBC4"/>
<path d="M156.489 108.013V90.3829H159.613V105.303H167.789V108.013H156.489Z" fill="#80CBC4"/>
<path d="M171.482 90.3829V108.013H168.358V90.3829H171.482Z" fill="#80CBC4"/>
<path d="M180.375 108.297C178.75 108.297 177.315 107.914 176.068 107.149C174.822 106.384 173.848 105.319 173.146 103.954C172.452 102.59 172.105 101.008 172.105 99.2097C172.105 97.3639 172.46 95.7586 173.17 94.394C173.887 93.0293 174.866 91.9723 176.104 91.2229C177.35 90.4736 178.762 90.0989 180.34 90.0989C181.657 90.0989 182.86 90.3592 183.949 90.8798C185.037 91.3925 185.933 92.1104 186.635 93.0333C187.345 93.9483 187.786 95.0132 187.96 96.228H184.777C184.556 95.2341 184.055 94.4334 183.274 93.826C182.501 93.2108 181.551 92.9031 180.423 92.9031C179.366 92.9031 178.451 93.1634 177.678 93.6841C176.905 94.2047 176.305 94.9383 175.879 95.8849C175.461 96.8235 175.252 97.9318 175.252 99.2097C175.252 100.48 175.465 101.588 175.891 102.535C176.317 103.473 176.916 104.203 177.69 104.724C178.47 105.236 179.389 105.493 180.446 105.493C181.314 105.493 182.087 105.319 182.766 104.972C183.452 104.617 183.992 104.124 184.387 103.493C184.781 102.862 184.982 102.132 184.99 101.304H180.896V98.8311H188.078V100.961C188.078 102.389 187.743 103.655 187.073 104.759C186.41 105.863 185.499 106.731 184.339 107.362C183.18 107.985 181.858 108.297 180.375 108.297Z" fill="#80CBC4"/>
<path d="M198.31 93.0924V90.3829H206.936V108.013H203.8V93.0924H198.31Z" fill="#80CBC4"/>
<path d="M214.327 108.297C212.884 108.297 211.626 108.029 210.432 107.492C209.367 106.948 208.539 106.199 207.947 105.244C207.363 104.282 207.193 103.174 207.193 101.919V90.3829H210.281V101.671C210.281 102.791 210.644 103.714 211.369 104.44C212.103 105.165 213.089 105.528 214.327 105.528C215.566 105.528 216.548 105.165 217.274 104.44C217.999 103.714 218.362 102.791 218.362 101.671V90.3829H221.45V101.919C221.45 103.174 221.155 104.282 220.563 105.244C219.979 106.199 219.151 106.948 218.078 107.492C217.013 108.029 215.763 108.297 214.327 108.297Z" fill="#80CBC4"/>
<path d="M221.856 108.013V90.3829H228.73C230.024 90.3829 231.14 90.6116 232.079 91.0691C233.025 91.5266 233.755 92.1774 234.268 93.0214C234.78 93.8655 235.037 94.8633 235.037 96.015C235.037 97.214 234.741 98.2434 234.149 99.1032C233.558 99.963 232.737 100.606 231.688 101.032L235.368 108.013H231.925L228.612 101.6C228.588 101.6 228.561 101.6 228.529 101.6H224.979V108.013H221.856ZM224.979 99.0204H228.576C229.618 99.0204 230.442 98.7522 231.049 98.2158C231.657 97.6715 231.96 96.9379 231.96 96.015C231.96 95.1 231.653 94.3743 231.037 93.8379C230.43 93.3015 229.602 93.0333 228.553 93.0333H224.979V99.0204Z" fill="#80CBC4"/>
<path d="M235.778 108.013V90.3829H248.024V93.0924H238.902V97.7307H247.338V100.393H238.902V105.303H248.024V108.013H235.778Z" fill="#80CBC4"/>
<path d="M208.344 93.0924V90.3829H213.834V93.0924H208.344Z" fill="#80CBC4"/>
<path d="M187.08 101.228H194.955V103.772H187.08V101.228Z" fill="#80CBC4"/>
<path d="M194.592 90.3232H197.637V107.953H194.194L194.592 90.3232Z" fill="#80CBC4"/>
<path d="M182.536 106.014L193.92 90.3232L197.229 90.3232L186.656 105.347L182.536 106.014Z" fill="#80CBC4"/>
<path d="M116.381 104.136C115.623 104.136 114.935 103.944 114.318 103.561C113.705 103.178 113.219 102.618 112.861 101.881C112.502 101.141 112.322 100.238 112.322 99.1746C112.322 98.1022 112.502 97.1957 112.861 96.4549C113.219 95.7142 113.705 95.1544 114.318 94.7754C114.935 94.3921 115.623 94.2004 116.381 94.2004C117.14 94.2004 117.826 94.3921 118.439 94.7754C119.052 95.1544 119.538 95.7142 119.896 96.4549C120.259 97.1957 120.44 98.1022 120.44 99.1746C120.44 100.243 120.259 101.147 119.896 101.888C119.538 102.624 119.052 103.184 118.439 103.567C117.826 103.946 117.14 104.136 116.381 104.136ZM116.381 101.81C116.931 101.81 117.351 101.58 117.643 101.119C117.938 100.654 118.086 100.006 118.086 99.1746C118.086 98.3391 117.938 97.6888 117.643 97.2237C117.351 96.7586 116.931 96.526 116.381 96.526C115.836 96.526 115.415 96.7586 115.12 97.2237C114.825 97.6888 114.677 98.3391 114.677 99.1746C114.677 100.006 114.825 100.654 115.12 101.119C115.415 101.58 115.836 101.81 116.381 101.81Z" fill="#80CBC4"/>
</g>
<defs>
<linearGradient id="paint0_linear_225_1717" x1="178.723" y1="0" x2="178.723" y2="200" gradientUnits="userSpaceOnUse">
<stop offset="0.5" stop-color="#233957"/>
<stop offset="0.5" stop-color="#80CBC4"/>
</linearGradient>
<linearGradient id="paint1_linear_225_1717" x1="178.723" y1="11.5502" x2="178.723" y2="187.234" gradientUnits="userSpaceOnUse">
<stop offset="0.5" stop-color="#80CBC4"/>
<stop offset="0.5" stop-color="#233957"/>
</linearGradient>
<clipPath id="clip0_225_1717">
<rect width="357.447" height="200" fill="white"/>
</clipPath>
</defs>
</svg>
