<svg width="182" height="100" viewBox="0 0 182 100" fill="none" xmlns="http://www.w3.org/2000/svg">
<g clip-path="url(#clip0_94_339)">
<path d="M13.2976 0C9.76451 0 5.64775 1.62123 3.2198 4.58414C0.831717 7.49841 0 11.1322 0 14.5187V21.6056C0 24.3082 0.504841 27.1206 1.99447 29.6882C2.61108 30.7511 3.47115 31.7134 4.42946 32.5773C5.01067 35.1325 6.21374 37.6594 8.80403 39.4745C9.32332 39.8384 9.85169 40.1338 10.3836 40.3955L7.11251 56.5472C6.19764 61.0688 9.65393 65.2947 14.2671 65.295H15.7055C15.6358 65.5133 15.5763 65.7347 15.5273 65.9586V69.038C15.5337 71.6633 16.9493 74.0829 19.2347 75.3749L16.3963 80.6612C15.8261 81.7228 15.5276 82.9091 15.5273 84.1141V87.1928C15.5277 91.2239 18.7955 94.4916 22.8266 94.492H34.8241C35.3244 94.4125 35.8151 94.2811 36.2882 94.1C36.7928 94.2879 37.3165 94.4194 37.85 94.492H41.7256C42.6158 94.39 43.4797 94.1249 44.2739 93.7101C45.0761 94.1279 45.9489 94.3931 46.8479 94.492H50.7763C52.0495 94.4816 53.2978 94.1383 54.3974 93.4962C56.3157 94.3282 58.3739 94.7579 60.2789 94.7579C62.7783 94.7579 65.6134 94.0539 67.978 92.5097C69.2611 93.7191 70.9386 94.4233 72.7004 94.492H78.1157C79.312 94.4751 80.4857 94.1645 81.5337 93.5875C82.5694 94.158 83.7281 94.4684 84.9103 94.492H91.1482C92.9283 94.492 94.8509 94.1392 96.6797 93.405C97.8101 94.1025 99.1094 94.4783 100.438 94.492H104.526C105.356 94.4163 106.167 94.1988 106.924 93.8491C107.576 94.1643 108.27 94.381 108.985 94.492H113.603C114.083 94.4714 114.559 94.4036 115.025 94.2896C115.273 94.3705 115.525 94.4381 115.78 94.492H119.363C120.374 94.4888 121.374 94.2754 122.298 93.8655C123.023 94.1982 123.798 94.4099 124.592 94.492H127.269C128.322 97.2885 130.974 99.1605 133.962 99.2173H136.536C139.493 99.2171 142.157 97.4335 143.285 94.7002L144.841 90.9265C145.258 91.4867 145.721 92.0155 146.263 92.4548C148.318 94.1183 150.927 94.7579 153.046 94.7579C153.991 94.7579 155.025 94.5978 156.055 94.3103C156.867 97.4859 159.696 99.7313 162.973 99.8011H166.211C169.434 99.8008 172.276 97.6864 173.202 94.599L181.165 68.0564C182.57 63.3732 179.063 58.66 174.174 58.6593H172.425C173.639 56.2813 174.108 53.6436 174.108 51.1476V43.7158C174.108 40.3388 173.291 36.7218 170.921 33.8047C168.872 31.2836 165.628 29.8118 162.54 29.3867C162.846 28.3974 163.052 27.4182 163.052 26.5696V25.2424C163.052 23.8612 162.616 22.1661 161.811 20.5998C162.603 19.0643 163.052 17.4001 163.052 16.032V14.7048C163.052 12.4099 161.994 9.19223 159.702 7.26862C157.699 5.58751 155.103 4.93699 153.046 4.93699C152.478 4.93699 151.869 4.99978 151.245 5.10592C150.216 2.22794 147.502 0.296096 144.446 0.265169H140.411C139.385 0.371391 138.394 0.693773 137.501 1.21108C136.611 0.69473 135.622 0.37238 134.599 0.265169H130.564C130.112 0.33207 129.666 0.441374 129.234 0.59164C128.838 0.447877 128.431 0.338647 128.016 0.265169H123.929C123.262 0.34834 122.61 0.523208 121.99 0.784814C121.372 0.52327 120.72 0.348406 120.053 0.265169H115.966C113.943 0.355957 112.049 1.28251 110.736 2.82348C109.424 1.28269 107.53 0.356151 105.508 0.265169H101.446C100.596 0.339468 99.7649 0.562394 98.9914 0.923814C98.2179 0.562394 97.3869 0.339468 96.5364 0.265169H87.8564C86.109 0.35126 84.4506 1.06208 83.1832 2.26819C80.7997 0.661578 77.9197 0 75.4084 0C72.8734 0 70.0535 0.856948 67.7542 2.42216C65.3594 0.879116 62.5876 0.265169 60.0928 0.265169H53.8556C53.3289 0.346129 52.8126 0.484526 52.3159 0.677891C51.8193 0.484526 51.303 0.346129 50.7763 0.265169H39.3633C38.8545 0.345344 38.3556 0.479151 37.8749 0.664348C37.1491 0.413519 36.3882 0.2788 35.6203 0.265169H32.1966C31.0142 0.279731 29.853 0.58136 28.8129 1.14408C27.7724 0.581133 26.6106 0.279512 25.4277 0.265169H22.004C20.8673 0.316519 19.7584 0.632873 18.7657 1.18898C16.987 0.409118 15.0692 0 13.2976 0ZM16.8575 59.1733C16.9324 59.3772 17.0163 59.5777 17.1091 59.7742H16.9558L16.8575 59.1733Z" fill="#F9F9F9"/>
<path d="M12.9927 33.497C14.2048 34.3464 16.023 34.5499 18.4472 34.1075L18.0226 30.8958C16.8547 31.1789 15.9522 31.1789 15.3152 30.8958C14.6781 30.6127 14.3243 29.8606 14.2535 28.6397C15.8637 28.4273 17.1068 27.7062 17.9827 26.4764C18.8586 25.2466 19.2966 23.6231 19.2966 21.6058V14.5189C19.2966 12.2539 18.7746 10.4844 17.7306 9.21034C16.6866 7.93628 15.209 7.29926 13.2979 7.29926C11.3868 7.29926 9.90929 7.93628 8.86527 9.21034C7.82126 10.4844 7.29926 12.2539 7.29926 14.5189V21.6058C7.29926 23.393 7.63545 24.8662 8.30787 26.0252C8.98029 27.1842 9.95353 27.9584 11.2276 28.3477C11.1922 30.9312 11.7806 32.6476 12.9927 33.497ZM13.2979 25.6669C12.5547 25.6669 12.046 25.3705 11.7717 24.7777C11.4974 24.1849 11.3603 23.0657 11.3603 21.42V14.7047C11.3603 13.0767 11.4974 11.9575 11.7717 11.347C12.046 10.7365 12.5547 10.4313 13.2979 10.4313C14.0234 10.4313 14.5278 10.7365 14.8109 11.347C15.094 11.9575 15.2355 13.0767 15.2355 14.7047V21.42C15.2355 23.0657 15.094 24.1849 14.8109 24.7777C14.5278 25.3705 14.0234 25.6669 13.2979 25.6669ZM27.6045 28.7989L28.852 18.7923L30.1261 28.7989H33.5766L35.6204 7.56468H32.1964L31.4798 22.986L30.1261 12.8732H27.4452L26.1712 23.278L25.428 7.56468H22.004L24.0478 28.7989H27.6045ZM43.424 28.7989V20.6768H49.3696V17.5979H43.424V10.6436H50.7764V7.56468H39.363V28.7989H43.424ZM57.9429 28.7989V21.8182H60.1194C62.0305 21.8182 63.4683 21.3846 64.4326 20.5176C65.397 19.6505 65.8792 18.2703 65.8792 16.3769V13.1652C65.8792 11.2718 65.3837 9.86506 64.3928 8.94491C63.4019 8.02476 61.9686 7.56468 60.0929 7.56468H53.8553V28.7989H57.9429ZM59.854 18.7923H57.9429V10.6436H59.854C60.5441 10.6436 61.0484 10.8516 61.3669 11.2674C61.6855 11.6832 61.8447 12.4132 61.8447 13.4572V16.0318C61.8447 17.0582 61.6855 17.7748 61.3669 18.1818C61.0484 18.5888 60.5441 18.7923 59.854 18.7923ZM75.4877 29.0643C77.3811 29.0643 78.8586 28.4406 79.9204 27.1931C80.9821 25.9456 81.5129 24.1362 81.5129 21.7651V18.2349H75.5143V21.3404H77.4253C77.443 22.8268 77.328 23.9726 77.0803 24.7777C76.8325 25.5828 76.3017 25.9854 75.4877 25.9854C74.6206 25.9854 74.0677 25.6138 73.8288 24.8706C73.5899 24.1274 73.4705 23.0657 73.4705 21.6855V14.7047C73.4705 13.3245 73.5943 12.2583 73.8421 11.5063C74.0898 10.7542 74.6206 10.3782 75.4346 10.3782C76.0893 10.3782 76.5494 10.6481 76.8148 11.1878C77.0803 11.7275 77.2572 12.7405 77.3457 14.2269L81.4068 13.9615C81.3006 11.6965 80.7697 10.0199 79.8142 8.93163C78.8586 7.84338 77.3899 7.29926 75.4081 7.29926C73.497 7.29926 72.0194 7.93186 70.9754 9.19707C69.9314 10.4623 69.4094 12.2274 69.4094 14.4923V21.8978C69.4094 24.1097 69.9226 25.8571 70.9489 27.14C71.9752 28.4229 73.4882 29.0643 75.4877 29.0643ZM90.6967 29.0643C92.6963 29.0643 94.1694 28.4671 95.1161 27.2727C96.0628 26.0783 96.5362 24.4017 96.5362 22.2429V7.56468H87.8567V10.6436H92.4751V22.4021C92.4751 23.6585 92.3203 24.5698 92.0106 25.136C91.7009 25.7023 91.2187 25.9854 90.564 25.9854C89.9093 25.9854 89.4404 25.6757 89.1572 25.0564C88.8741 24.4371 88.6883 23.1984 88.5998 21.3404L84.5388 21.6324C84.6273 24.3397 85.1316 26.2552 86.0517 27.3789C86.9719 28.5025 88.5202 29.0643 90.6967 29.0643ZM112.488 28.7989V25.72H105.508V7.56468H101.447V28.7989H112.488ZM121.991 29.0643C124.043 29.0643 125.561 28.4539 126.543 27.2329C127.525 26.0119 128.016 24.1362 128.016 21.6058V7.56468H123.928V21.6589C123.928 23.2515 123.791 24.3486 123.517 24.9502C123.243 25.5519 122.734 25.8527 121.991 25.8527C121.248 25.8527 120.739 25.5519 120.464 24.9502C120.19 24.3486 120.053 23.2515 120.053 21.6589V7.56468H115.965V21.6058C115.965 24.1362 116.457 26.0119 117.439 27.2329C118.421 28.4539 119.938 29.0643 121.991 29.0643ZM139.562 28.7989V20.8361L144.446 7.56468H140.411L137.492 16.5627L134.599 7.56468H130.564L135.474 20.8361V28.7989H139.562ZM153.046 18.4472C153.824 18.4472 154.47 18.2437 154.983 17.8368C155.497 17.4298 155.753 16.8281 155.753 16.0318V14.7047C155.753 13.8907 155.505 13.2758 155.01 12.86C154.514 12.4441 153.86 12.2362 153.046 12.2362C152.232 12.2362 151.573 12.4441 151.068 12.86C150.564 13.2758 150.312 13.8907 150.312 14.7047V16.0318C150.312 16.8281 150.564 17.4298 151.068 17.8368C151.573 18.2437 152.232 18.4472 153.046 18.4472ZM153.046 29.0113C153.824 29.0113 154.47 28.8078 154.983 28.4008C155.497 27.9938 155.753 27.3833 155.753 26.5693V25.2422C155.753 24.4282 155.505 23.8133 155.01 23.3975C154.514 22.9816 153.86 22.7737 153.046 22.7737C152.232 22.7737 151.573 22.9816 151.068 23.3975C150.564 23.8133 150.312 24.4282 150.312 25.2422V26.5693C150.312 27.3833 150.564 27.9938 151.068 28.4008C151.573 28.8078 152.232 29.0113 153.046 29.0113ZM17.9031 57.996L18.9117 52.4751H23.1586L24.061 57.996H27.8567L23.5567 36.7618H18.5667L14.2667 57.996H17.9031ZM22.6808 49.3961H19.4691L21.1413 40.0531L22.6808 49.3961ZM34.6516 57.996V50.1128H35.501L38.7127 57.996H42.933L39.5355 49.6881C40.4556 49.3519 41.1546 48.7193 41.6324 47.7903C42.1101 46.8613 42.349 45.6801 42.349 44.2468V42.4685C42.349 40.6105 41.9111 39.1949 41.0351 38.2216C40.1592 37.2484 38.8719 36.7618 37.1732 36.7618H30.564V57.996H34.6516ZM36.5096 47.0604H34.6516V39.8407H36.5096C37.1643 39.8407 37.6598 40.031 37.996 40.4114C38.3322 40.7918 38.5003 41.5129 38.5003 42.5746V44.2203C38.5003 45.2997 38.3322 46.0429 37.996 46.4499C37.6598 46.8569 37.1643 47.0604 36.5096 47.0604ZM51.6921 58.2349C53.7447 58.2349 55.3638 57.6642 56.5494 56.5229C57.735 55.3815 58.3278 53.8376 58.3278 51.8912C58.3278 50.4578 57.9695 49.2679 57.2528 48.3212C56.5362 47.3745 55.3196 46.4676 53.6032 45.6005C52.3468 44.9989 51.4797 44.4901 51.002 44.0743C50.5242 43.6585 50.2853 43.0436 50.2853 42.2296C50.2853 41.3979 50.48 40.7697 50.8693 40.345C51.2586 39.9204 51.8159 39.708 52.5415 39.708C53.2316 39.708 53.9349 39.8496 54.6516 40.1327C55.3683 40.4158 56.1159 40.8405 56.8945 41.4067L57.3988 38.434C56.7087 37.8677 55.9124 37.4165 55.0099 37.0803C54.1075 36.7441 53.1696 36.576 52.1964 36.576C50.303 36.576 48.8343 37.1378 47.7903 38.2614C46.7463 39.3851 46.2243 40.8494 46.2243 42.6543C46.2243 44.1407 46.5826 45.3528 47.2992 46.2906C48.0159 47.2285 49.2324 48.0867 50.9489 48.8653C52.2229 49.4669 53.0944 49.9845 53.5633 50.418C54.0323 50.8516 54.2667 51.5196 54.2667 52.422C54.2667 53.236 54.0677 53.8951 53.6695 54.3995C53.2714 54.9038 52.6565 55.1559 51.8248 55.1559C50.8693 55.1559 49.9712 54.9745 49.1307 54.6118C48.2902 54.249 47.4629 53.7757 46.649 53.1917L45.9588 56.3238C46.7728 56.9254 47.6797 57.3944 48.6795 57.7306C49.6793 58.0668 50.6835 58.2349 51.6921 58.2349ZM69.6881 57.996V39.8407H74.1738V36.7618H61.1148V39.8407H65.6005V57.996H69.6881ZM83.1984 57.996C85.0387 57.996 86.4941 57.3192 87.5647 55.9655C88.6352 54.6118 89.1705 52.8025 89.1705 50.5375V44.3265C89.1705 42.0261 88.6397 40.1902 87.5779 38.8188C86.5162 37.4475 85.0564 36.7618 83.1984 36.7618H77.1466V57.996H83.1984ZM82.7737 54.917H81.2342V39.8407H82.7737C83.6231 39.8407 84.2247 40.1858 84.5786 40.8759C84.9325 41.566 85.1095 42.7958 85.1095 44.5654V50.2986C85.1095 52.0327 84.9325 53.236 84.5786 53.9084C84.2247 54.5808 83.6231 54.917 82.7737 54.917ZM96.7618 57.996V47.8832H100.637V57.996H104.725V36.7618H100.637V44.7777H96.7618V36.7618H92.6742V57.996H96.7618ZM111.652 57.996V42.203L115.528 57.996H120.252V36.7618H116.775V52.7671L112.581 36.7618H108.202V57.996H111.652ZM135.753 57.996V54.917H127.817V48.1221H134.744V45.0166H127.817V39.8407H135.753V36.7618H123.729V57.996H135.753ZM151.307 57.996V54.917H147.326V39.8407H151.307V36.7618H139.257V39.8407H143.238V54.917H139.257V57.996H151.307ZM160.81 58.2614C162.738 58.2614 164.22 57.6332 165.255 56.3769C166.291 55.1205 166.808 53.3775 166.808 51.148V43.716C166.808 41.451 166.291 39.6815 165.255 38.4074C164.22 37.1334 162.738 36.4963 160.81 36.4963C158.898 36.4963 157.421 37.1334 156.377 38.4074C155.333 39.6815 154.811 41.451 154.811 43.716V51.148C154.811 53.3775 155.328 55.1205 156.364 56.3769C157.399 57.6332 158.881 58.2614 160.81 58.2614ZM160.81 55.1825C160.066 55.1825 159.558 54.8817 159.283 54.28C159.009 53.6784 158.872 52.5547 158.872 50.9091V43.9549C158.872 42.2561 159.009 41.1015 159.283 40.491C159.558 39.8805 160.066 39.5753 160.81 39.5753C161.553 39.5753 162.061 39.8805 162.336 40.491C162.61 41.1015 162.747 42.2561 162.747 43.9549V50.9091C162.747 52.5547 162.61 53.6784 162.336 54.28C162.061 54.8817 161.553 55.1825 160.81 55.1825ZM34.8241 87.1931V84.1141H26.9675L34.8241 69.0378V65.9589H22.8268V69.0378H30.9224L22.8268 84.1141V87.1931H34.8241ZM41.7253 87.1931L44.2468 80.8759L46.848 87.1931H50.7764L46.503 76.2044L50.8294 65.9589H46.9542L44.7246 71.4797L42.495 65.9589H38.3543L42.4685 76.2309L37.85 87.1931H41.7253ZM60.2787 87.4585C62.3313 87.4585 63.8531 86.8701 64.844 85.6934C65.835 84.5167 66.3747 82.6631 66.4631 80.1327L62.4021 79.8673C62.3313 81.6545 62.1455 82.8533 61.8447 83.4638C61.5439 84.0743 61.0042 84.3796 60.2256 84.3796C59.3585 84.3796 58.7613 84.0301 58.434 83.3311C58.1066 82.6321 57.9429 81.4864 57.9429 79.8938V73.3908C57.9429 71.6567 58.1066 70.4534 58.434 69.781C58.7613 69.1086 59.3585 68.7724 60.2256 68.7724C61.0042 68.7724 61.5439 69.082 61.8447 69.7014C62.1455 70.3207 62.3313 71.5505 62.4021 73.3908L66.4631 73.1254C66.357 70.5419 65.8129 68.6574 64.8308 67.4718C63.8487 66.2862 62.3313 65.6934 60.2787 65.6934C58.173 65.6934 56.5804 66.3172 55.501 67.5647C54.4216 68.8122 53.8819 70.6746 53.8819 73.1519V80.1062C53.8819 82.5304 54.4216 84.3619 55.501 85.6005C56.5804 86.8392 58.173 87.4585 60.2787 87.4585ZM78.1155 87.1931L82.203 65.9589H78.3543L75.3815 83.2117L72.6211 65.9589H68.6131L72.7007 87.1931H78.1155ZM91.1479 87.1931C93.0059 87.1931 94.4304 86.7242 95.4213 85.7863C96.4123 84.8485 96.9078 83.4859 96.9078 81.6987V80.4247C96.9078 79.2922 96.6467 78.3588 96.1247 77.6244C95.6027 76.8901 94.8463 76.4609 93.8553 76.3371V75.5673C94.7755 75.3727 95.4435 74.9834 95.8593 74.3995C96.2751 73.8155 96.4831 73.0192 96.4831 72.0106V70.9489C96.4831 69.3209 96.0363 68.0823 95.1427 67.2329C94.249 66.3835 92.944 65.9589 91.2276 65.9589H84.9104V87.1931H91.1479ZM90.5906 74.7445H88.998V68.9316H90.5906C91.2453 68.9316 91.7186 69.1219 92.0106 69.5023C92.3026 69.8827 92.4486 70.4977 92.4486 71.347V72.3291C92.4486 73.1785 92.3026 73.7934 92.0106 74.1738C91.7186 74.5543 91.2453 74.7445 90.5906 74.7445ZM90.6702 84.2203H88.998V77.558H90.6702C91.4311 77.558 91.9841 77.7792 92.3291 78.2216C92.6742 78.664 92.8467 79.3718 92.8467 80.345V81.4068C92.8467 82.3977 92.6742 83.1143 92.3291 83.5567C91.9841 83.9991 91.4311 84.2203 90.6702 84.2203ZM104.526 87.1931V77.6377H105.375L108.985 87.1931H113.603L108.666 75.7266L113.683 65.9589H108.985L105.295 74.5322H104.526V65.9589H100.438V87.1931H104.526ZM119.363 87.1931L118.912 72.2495L120.743 81.3006H123.265L125.043 72.4618L124.592 87.1931H128.175V65.9589H124.539L122.044 76.5494L119.522 65.9589H115.78V87.1931H119.363ZM136.536 91.9177L141.155 80.7166H135.421L133.961 91.9177H136.536ZM153.046 87.4585C153.913 87.4585 154.629 87.2329 155.196 86.7817C155.762 86.3304 156.045 85.6624 156.045 84.7777V83.3178C156.045 82.4154 155.771 81.7341 155.222 81.274C154.674 80.814 153.948 80.5839 153.046 80.5839C152.143 80.5839 151.413 80.814 150.856 81.274C150.299 81.7341 150.02 82.4154 150.02 83.3178V84.7777C150.02 85.6624 150.299 86.3304 150.856 86.7817C151.413 87.2329 152.143 87.4585 153.046 87.4585ZM166.211 92.5016L174.174 65.9589H170.936L162.973 92.5016H166.211Z" fill="#0D3290"/>
</g>
<defs>
<clipPath id="clip0_94_339">
<rect width="181.752" height="100" fill="white"/>
</clipPath>
</defs>
</svg>
