<?xml version="1.0" encoding="UTF-8" standalone="no"?>
<svg
   width="454"
   height="181"
   viewBox="0 0 454 181"
   fill="none"
   version="1.1"
   id="svg2"
   sodipodi:docname="contoso.svg"
   inkscape:version="1.4 (86a8ad7, 2024-10-11)"
   xmlns:inkscape="http://www.inkscape.org/namespaces/inkscape"
   xmlns:sodipodi="http://sodipodi.sourceforge.net/DTD/sodipodi-0.dtd"
   xmlns="http://www.w3.org/2000/svg"
   xmlns:svg="http://www.w3.org/2000/svg">
  <sodipodi:namedview
     id="namedview2"
     pagecolor="#ffffff"
     bordercolor="#000000"
     borderopacity="0.25"
     inkscape:showpageshadow="2"
     inkscape:pageopacity="0.0"
     inkscape:pagecheckerboard="0"
     inkscape:deskcolor="#d1d1d1"
     inkscape:zoom="4"
     inkscape:cx="396.875"
     inkscape:cy="91.375"
     inkscape:window-width="3840"
     inkscape:window-height="2042"
     inkscape:window-x="-12"
     inkscape:window-y="-12"
     inkscape:window-maximized="1"
     inkscape:current-layer="g2" />
  <g
     clip-path="url(#clip0_11_32)"
     id="g2">
    <path
       fill-rule="evenodd"
       clip-rule="evenodd"
       d="M 90.4766,0 C 40.6329,0 0,40.6466 0,90.5 0,140.353 40.6329,181 90.4766,181 c 23.6184,0 44.57174,-7.846 61.29474,-24.211 l 0.15835,-0.19488 c 5.291,-3.97 5.82431,-10.92012 1.49431,-16.33412 -2.62715,-2.86343 -5.39137,-5.59637 -8.115,-8.367 -0.619,-0.619 -1.395,-1.02 -2.127,-1.485 3.997,-1.776 7.593,-4.234 10.816,-7.117 2.049,5.044 7.065,8.709 12.668,8.709 h 7.863 c 13.37764,-0.0124 26.75538,0.0182 40.133,-0.002 4.925,-0.101 9.077,-3.019 11.387,-7.07 3.09672,3.62054 9.08208,8.072 19.793,8.072 5.48,0 9.918,-1.62 13.246,-3.176 2.0779,-0.9714 6.3669,-3.18376 8.742,-5.883 7.434,6.325 16.972,10.24 27.457,10.051 h 0.01 c 10.103,-0.194 19.255,-4.186 26.381,-10.435 10.219,6.058 19.834,7.855 26.311,8.316 10.621,0.758 20.219,-1.898 27.497,-7.004 2.187,-1.534 4.093,-3.393 5.825,-5.394 7.789,8.982 19.203,14.748 31.976,14.517 h 0.01 c 22.166,-0.425 40.27,-18.529 40.696,-40.6952 v -0.0117 c 0.422,-23.4001 -18.88,-42.7019 -42.28,-42.2793 -0.003,6e-4 -0.006,0.0013 -0.01,0.002 -10.783,0.2069 -20.573,4.6471 -27.873,11.6562 -1.163,-1.276 -2.322,-2.1875 -3.265,-2.7109 C 371.704,54.6839 363.009,51 353.207,51 c -6.64,0 -14.028,1.2871 -20.863,5.2754 -2.991,1.745 -5.772,4.398 -8.065,7.5351 -7.734,-8.0237 -18.589,-13.0209 -30.566,-12.8046 -0.003,6e-4 -0.007,0.0013 -0.01,0.002 -9.865,0.1892 -18.82,4.014 -25.883,10.0078 -3.57358,-7.799422 -11.43662,-8.0371 -12.381,-8.0371 -0.11289,-4.712015 -0.96004,-8.812018 -4.18,-12.1641 -3.422,-3.2992 -7.552,-4.2521 -11.578,-3.6699 -2.51763,0.448974 -5.02935,0.934696 -7.543,1.4063 -1.5152,0.354448 -11.121,3.012617 -11.121,13.4375 v 1.1074 c -3.189,0.3745 -6.041,1.813 -8.152,4.0059 C 207.103,53.9135 199.939,52 191.764,52 c -3.957,0 -7.864,0.8365 -11.491,2.334 -3.47232,-1.691533 -5.39365,-1.504058 -5.865,-1.5293 h -4.074 c -6.694,0 -12.577,3.9556 -15.451,9.6348 -7.446,-7.0361 -14.36,-9.4818 -9.906,-14.1387 0.002,-0.0027 0.005,-0.0053 0.008,-0.008 l 7.5,-7.8633 c 5.07393,-5.075546 3.54725,-12.4263 -0.11,-15.908 C 135.674,8.49885 113.882,0 90.4766,0 Z"
       fill="#eeeeee"
       id="path1"
       sodipodi:nodetypes="sssccccccssccsccccccccccccccccscccccccscsccsccscccccs" />
    <path
       fill-rule="evenodd"
       clip-rule="evenodd"
       d="M90.4769 10C111.518 10 130.573 17.462 145.452 31.737L145.493 31.7775C145.858 32.2236 145.858 32.913 145.412 33.3591L137.749 41.3889C136.857 42.3216 135.438 42.3622 134.465 41.5511C122.343 29.8715 107.707 24.5995 90.4768 24.5995C54.1102 24.5995 24.5952 54.1229 24.5952 90.4999C24.5952 126.877 54.1102 156.4 90.4768 156.4C107.951 156.4 122.749 150.642 134.992 138.638L135.074 138.597C136.087 137.948 137.384 138.111 138.236 138.962L145.452 146.343C145.493 146.384 145.574 146.465 145.615 146.505C146.263 147.316 146.061 148.533 145.25 149.141C130.29 163.781 111.843 171 90.4769 171C46.0423 171 10 134.947 10 90.5C10 46.0526 46.0423 10 90.4769 10ZM89.5919 31C90.9388 31 92 32.0984 92 33.4003V42.5135C92 43.9781 90.8571 45.1986 89.3878 45.3207C64.4082 45.3207 46.3674 65.2964 46.3674 90.1949C46.3674 115.093 65.3061 135.272 90.2857 135.272C91.2245 135.272 92 136.045 92 136.981V148.291C92 149.227 91.2245 150 90.2857 150C57.3877 150 32 123.311 32 90.3983C32 57.4852 56.4898 31 89.3878 31H89.4694H89.5919ZM126.5 61C143.906 61 158 75.0942 158 92.5C158 109.906 143.906 124 126.5 124C109.094 124 95 109.906 95 92.5C95 75.0942 109.135 61 126.5 61ZM293.894 61.005C311.782 60.682 326.318 75.218 325.995 93.1054C325.672 109.943 311.943 123.671 295.106 123.994C277.218 124.317 262.682 109.781 263.005 91.894C263.288 75.0565 277.057 61.328 293.894 61.005ZM411.894 61.005C429.782 60.682 444.318 75.218 443.995 93.1054C443.672 109.943 429.943 123.671 413.106 123.994C395.218 124.317 380.682 109.781 381.005 91.894C381.288 75.0565 395.057 61.328 411.894 61.005ZM244.318 48.0139C245 48.7033 245.4 49.5955 245.44 50.4877V50.65V62.9786H255.455C257.418 62.9786 259.021 64.5603 259.061 66.507V66.6286V70.6841C259.061 72.6713 257.499 74.2935 255.576 74.334H255.455H245.44V107.589C245.44 108.968 246.081 109.657 247.323 109.698H247.443H248.605C249.126 109.698 250.408 109.009 252.411 107.67C253.653 106.819 255.335 107.102 256.217 108.36C258.26 111.199 259.662 113.105 260.423 114.078C261.785 115.903 260.423 117.363 259.542 118.012C258.66 118.701 252.491 123 245.841 123C233.943 123 230.818 115.862 231.018 110.955V110.793V74.2935H222.605C220.642 74.2935 219.04 72.7118 219 70.7652V70.6436V66.5881C219 64.6009 220.562 62.9787 222.485 62.9381H222.605H231.018V51.9883C231.018 50.2849 232.22 48.7844 233.863 48.4194L233.983 48.3789L241.114 47.0406C242.235 46.8784 243.477 47.2028 244.318 48.0139ZM174.407 62.8456C176.404 62.8456 178.033 64.4161 178.074 66.349V67.396C181.863 63.8121 186.426 62 191.763 62C209.363 62 218 72.5906 218 80.4832V84.1476V117.57C218 117.57 218 118.094 218 118.376C218 120.349 216.411 121.96 214.456 122H206.593C204.556 122 202.926 120.389 202.926 118.376C202.926 118.094 202.926 117.57 202.926 117.57V82.4161C202.926 78.6712 199.056 74.1208 191.763 74.1208C187.037 74.1208 182.474 76.255 178.074 80.4832V117.57C178.074 117.57 178.074 118.094 178.074 118.376C178.074 120.349 176.485 121.96 174.53 122H166.667C164.63 122 163 120.389 163 118.376C163 118.094 163 117.57 163 117.57V70.0537V69.9329C163.082 65.9866 166.341 62.8054 170.333 62.8054H174.407V62.8456ZM353.207 61C360.665 61 367.386 63.7165 375.664 68.663C376.689 69.2307 377.303 70.001 376.689 71.0146L371.935 78.1911C371.156 79.3264 369.845 79.3264 368.656 78.6371C366.689 77.2586 360.419 73.1635 354.068 73.0825C350.543 73.042 343.372 74.0555 343.372 79.2047C343.372 84.3539 351.322 85.0027 354.068 85.5298C357.1 86.0974 378 86.0974 378 102.68C378 113.182 365.747 123.115 348.699 121.899C343.003 121.493 334.93 120.074 325.996 114.56C325.176 114.114 324.603 112.695 325.34 111.762L330.094 105.802C330.873 104.789 332.184 104.059 333.782 105.113C338.987 108.6 343.822 110.222 348.74 110.222C360.296 110.222 363.944 105.802 363.944 102.721C363.944 98.5853 357.141 96.8013 347.92 96.2742C340.749 95.8282 329.274 91.5304 329.274 78.3127C329.233 65.6627 342.962 61 353.207 61ZM64.8918 66.3074C65.2989 65.8976 65.9909 65.8976 66.398 66.3074L75.1501 75.2001C75.6386 75.6918 75.6793 76.5114 75.2722 77.0442C71.4864 81.1012 69.9803 85.5681 69.9803 91.2234C69.9803 97.1655 71.5271 101.96 75.6385 106.058C76.127 106.55 76.1271 107.37 75.5979 107.861L66.6423 116.631C66.1131 117.123 65.299 117.123 64.7698 116.631C58.0531 109.746 55 101.223 55 91.3463C55 81.593 58.1344 73.274 64.6883 66.3893L64.729 66.3483L64.8918 66.3074ZM127 73C117.61 73 110 81.2848 110 91.5C110 101.715 117.61 110 127 110C136.39 110 144 101.715 144 91.5C144 81.2848 136.39 73 127 73ZM294 73C284.609 73 277 81.2848 277 91.5C277 101.715 284.609 110 294 110C303.391 110 311 101.715 311 91.5C311 81.2848 303.391 73 294 73ZM412 73C402.609 73 395 81.2848 395 91.5C395 101.715 402.609 110 412 110C421.391 110 429 101.715 429 91.5C429 81.2848 421.391 73 412 73Z"
       fill="#3178B9"
       id="path2" />
  </g>
  <defs
     id="defs2">
    <clipPath
       id="clip0_11_32">
      <rect
         width="454"
         height="181"
         fill="white"
         id="rect2" />
    </clipPath>
  </defs>
</svg>
