<svg width="89" height="100" viewBox="0 0 89 100" fill="none" xmlns="http://www.w3.org/2000/svg">
<g clip-path="url(#clip0_333_255)">
<path d="M88.9643 29.4C88.9636 27.7186 88.604 26.2328 87.8768 24.9576C87.1625 23.7037 86.0928 22.6527 84.6579 21.8217C72.8137 14.9918 60.958 8.18282 49.1177 1.34598C45.9256 -0.496993 42.8306 -0.429804 39.6621 1.43963C34.9478 4.22011 11.3447 17.7437 4.31125 21.8179C1.41469 23.4948 0.00522154 26.0612 0.00452534 29.3969C0 43.1322 0.00452534 56.8672 0 70.6028C0.000696206 72.2473 0.34497 73.7042 1.04013 74.9603C1.75479 76.2522 2.83948 77.3321 4.30742 78.1818C11.3412 82.256 34.9474 95.7785 39.6608 98.5597C42.8306 100.43 45.9256 100.497 49.1187 98.6534C60.9594 91.8162 72.8158 85.0075 84.6617 78.1777C86.1297 77.3282 87.2144 76.2477 87.929 74.9568C88.6232 73.7008 88.9681 72.2439 88.9688 70.599C88.9688 70.599 88.9688 43.1357 88.9643 29.4" fill="#5C8DBC"/>
<path d="M44.6206 49.8801L0.959229 74.9673C1.67521 76.2589 2.76192 77.3384 4.23259 78.188C11.2794 82.2609 34.9295 95.7797 39.6516 98.5601C42.8273 100.43 45.9281 100.497 49.1271 98.6537C60.9899 91.8185 72.8683 85.0118 84.7362 78.1838C86.2069 77.3346 87.2936 76.2543 88.0096 74.9638L44.6206 49.8801" fill="#1A4674"/>
<path d="M31.6547 57.3239C34.1973 61.7577 38.9772 64.7482 44.4603 64.7482C49.9773 64.7482 54.7844 61.7197 57.3141 57.2385L44.5968 49.8801L31.6547 57.3239" fill="#1A4674"/>
<path d="M88.9642 29.6117C88.9635 27.9343 88.6038 26.452 87.8764 25.1799L44.6042 50.0289L87.9286 75.06C88.623 73.8069 88.9681 72.3535 88.9688 70.7125C88.9688 70.7125 88.9688 43.3146 88.9642 29.6117" fill="#1B598E"/>
<path d="M86.5707 51.798H83.2135V55.1559H79.8556V51.798H76.4988V48.4411H79.8556V45.0839H83.2135V48.4411H86.5707V51.798" fill="white"/>
<path d="M74.3405 51.798H70.9834V55.1559H67.626V51.798H64.2686V48.4411H67.626V45.0839H70.9834V48.4411H74.3405V51.798" fill="white"/>
<path d="M57.4352 57.3216C54.9144 61.7887 50.1242 64.8077 44.6267 64.8077C39.1629 64.8077 34.3999 61.8266 31.8662 57.4067C30.6354 55.259 29.9276 52.7724 29.9276 50.1197C29.9276 42.008 36.5089 35.4321 44.6267 35.4321C50.0554 35.4321 54.7933 38.376 57.3395 42.7507L70.1873 35.3581C65.0807 26.5496 55.5467 20.6235 44.6267 20.6235C28.3236 20.6235 15.1079 33.8296 15.1079 50.1197C15.1079 55.464 16.5307 60.4758 19.0174 64.7987C24.1112 73.6537 33.6723 79.6163 44.6267 79.6163C55.6013 79.6163 65.1773 73.6298 70.2638 64.7486L57.4352 57.3216" fill="white"/>
</g>
<defs>
<clipPath id="clip0_333_255">
<rect width="88.9688" height="100" fill="white"/>
</clipPath>
</defs>
</svg>
