<svg width="100" height="100" viewBox="0 0 100 100" fill="none" xmlns="http://www.w3.org/2000/svg">
<g clip-path="url(#clip0_161_677)">
<circle cx="50" cy="50" r="50" fill="#002F53"/>
<path fill-rule="evenodd" clip-rule="evenodd" d="M73.6509 56.2063C76.2173 56.2066 78.7728 55.8733 81.2532 55.2147C82.515 54.8805 83.8594 55.2426 84.7824 56.1653C85.7054 57.088 86.0676 58.4319 85.7333 59.6932C84.0795 65.9052 80.8187 71.5724 76.279 76.1251C69.4319 83.01 60.1131 86.8692 50.4013 86.8419C40.6871 86.8673 31.3663 83.0071 24.5164 76.1215C10.2489 61.8519 10.2489 38.6364 24.5164 24.3742C29.0699 19.8395 34.7363 16.5815 40.947 14.927C42.2089 14.5893 43.5551 14.9495 44.4796 15.8721C45.404 16.7947 45.7665 18.1398 45.4308 19.4018C42.7427 29.4937 45.6193 40.2533 52.9855 47.6592C58.4977 53.1694 65.8364 56.2063 73.6509 56.2063ZM50.405 79.5242C58.1741 79.545 65.6286 76.4581 71.1071 70.9515C73.3055 68.7438 75.1389 66.2009 76.5388 63.4179C65.8758 64.2701 55.3754 60.4035 47.8136 52.8401C40.2721 45.2655 36.4096 34.7802 37.2356 24.1254C34.4469 25.5173 31.9009 27.3495 29.6956 29.5515C18.2831 40.9635 18.2831 59.5359 29.6956 70.9478C35.1767 76.4555 42.6333 79.5435 50.405 79.5242Z" fill="#FDD835"/>
</g>
<defs>
<clipPath id="clip0_161_677">
<rect width="100" height="100" fill="white"/>
</clipPath>
</defs>
</svg>
