<?xml version="1.0" encoding="UTF-8" standalone="no"?>
<!DOCTYPE svg PUBLIC "-//W3C//DTD SVG 1.1//EN" "http://www.w3.org/Graphics/SVG/1.1/DTD/svg11.dtd">
<svg width="100%" height="100%" viewBox="0 0 200 99" version="1.1" xmlns="http://www.w3.org/2000/svg" xmlns:xlink="http://www.w3.org/1999/xlink" xml:space="preserve" xmlns:serif="http://www.serif.com/" style="fill-rule:evenodd;clip-rule:evenodd;stroke-linejoin:round;stroke-miterlimit:2;">
    <path d="M7.778,65.147C7.838,65.142 7.87,65.137 7.87,65.137L3.364,63.098C1.462,60.935 0.25,57.985 0.25,54.716L0.25,43.444L0.493,41.038L1.193,38.784L2.297,36.749L3.755,34.982L5.522,33.524L7.557,32.42L9.098,31.942L9.098,22.968C9.098,15.595 15.075,9.618 22.448,9.618L31.815,9.618C32.509,9.618 33.191,9.671 33.857,9.774C35.824,4.225 41.119,0.25 47.343,0.25L54.802,0.25C55.293,0.25 55.779,0.275 56.258,0.324C63.473,1.056 69.106,7.146 69.106,14.554L69.106,31.477C69.106,31.477 129.322,31.477 129.322,31.477L129.322,14.554C129.322,8.135 133.551,2.705 139.374,0.894L139.379,0.892C139.829,0.753 140.285,0.636 140.751,0.54C141.679,0.35 142.641,0.25 143.626,0.25L151.085,0.25C157.308,0.25 162.604,4.224 164.571,9.773C165.237,9.671 165.919,9.618 166.613,9.618L175.98,9.618C183.354,9.618 189.33,15.595 189.33,22.968L189.33,31.634L190.178,31.72L192.433,32.42L194.468,33.524L196.234,34.982L197.692,36.748L198.797,38.783L199.497,41.038L199.74,43.444L199.74,54.716C199.74,57.984 198.528,60.934 196.627,63.097C196.602,63.126 196.576,63.155 196.55,63.183L192.235,65.136C192.196,65.137 192.158,65.137 192.12,65.137C192.12,65.137 192.152,65.142 192.211,65.147L192.041,65.224C192.041,65.224 192.038,65.211 192.031,65.185C192.028,65.172 192.024,65.156 192.02,65.136L192.017,65.136C192.012,65.118 192.006,65.096 191.999,65.072L192.008,65.076C191.887,64.509 191.429,62.404 190.839,60.226C191.245,59.971 191.621,59.663 191.957,59.309L192.039,59.225L192.041,59.223L192.12,59.137C193.121,57.998 193.74,56.437 193.74,54.716L193.74,43.444C193.74,40.148 191.068,37.477 187.773,37.477L183.33,37.477L183.33,22.968C183.33,18.909 180.04,15.618 175.98,15.618L166.613,15.618C164.837,15.618 163.207,16.248 161.937,17.297C161.574,17.596 161.241,17.93 160.941,18.293C160.641,18.656 160.376,19.048 160.15,19.465C159.792,20.122 159.533,20.84 159.39,21.6L159.39,14.554C159.39,9.968 155.671,6.25 151.085,6.25L143.626,6.25C143.053,6.25 142.493,6.308 141.953,6.419C141.682,6.474 141.417,6.542 141.156,6.623C137.776,7.675 135.322,10.828 135.322,14.554L135.322,37.477L63.106,37.477L63.106,14.554C63.106,10.254 59.839,6.718 55.651,6.293C55.372,6.265 55.089,6.25 54.802,6.25L47.343,6.25C42.756,6.25 39.038,9.968 39.038,14.554L39.038,21.599C38.759,20.118 38.036,18.794 37.013,17.771L36.963,17.726C36.141,16.918 35.13,16.3 34.001,15.949C33.311,15.734 32.577,15.618 31.816,15.618L22.448,15.618C18.388,15.618 15.098,18.909 15.098,22.968L15.098,37.477L12.216,37.477C8.921,37.477 6.25,40.148 6.25,43.444L6.25,54.716C6.25,56.437 6.869,57.998 7.87,59.137L7.949,59.223L7.95,59.225L8.033,59.309C9.04,60.369 10.397,61.025 11.893,61.025L15.098,61.025L15.098,75.534C15.098,79.593 18.388,82.884 22.448,82.884L31.816,82.884C33.615,82.884 35.261,82.235 36.539,81.162C37.811,80.092 38.718,78.6 39.038,76.901L39.038,83.948C39.038,88.534 42.756,92.251 47.343,92.251L54.802,92.251C57.095,92.251 59.172,91.322 60.674,89.82C62.177,88.317 63.106,86.241 63.106,83.948L63.106,61.025L135.322,61.025L135.322,83.948C135.322,86.498 136.474,88.779 138.285,90.302C139.728,91.517 141.591,92.251 143.626,92.251L151.085,92.251C155.671,92.251 159.39,88.534 159.39,83.948L159.39,76.903C159.442,77.181 159.51,77.453 159.593,77.719C159.736,78.18 159.923,78.621 160.15,79.037C160.489,79.662 160.916,80.232 161.415,80.731C162.745,82.061 164.583,82.884 166.613,82.884L175.98,82.884C180.04,82.884 183.33,79.593 183.33,75.534L183.33,61.025L186.207,61.025C186.273,61.244 186.351,61.461 186.443,61.674C186.662,62.184 186.946,62.653 187.283,63.072L187.45,62.905C187.135,62.515 186.866,62.081 186.653,61.611C186.566,61.418 186.49,61.223 186.424,61.025L187.244,61.025C187.517,61.434 187.831,61.823 188.167,62.188L188.198,62.157C188.56,62.544 188.946,62.901 189.33,63.224L189.33,63.306C190.423,64.246 191.484,64.901 191.878,65.132C190.973,65.096 190.105,64.857 189.33,64.449L189.33,64.703C190.133,65.094 191.027,65.309 191.957,65.309C192.658,65.309 193.346,65.186 193.992,64.953C193.086,65.274 192.373,65.254 192.129,65.234L192.131,65.233C192.072,65.229 192.041,65.224 192.041,65.224L192.244,65.149C192.233,65.148 192.222,65.147 192.211,65.147L192.235,65.136C192.251,65.136 192.266,65.135 192.282,65.135L192.801,64.944L196.315,63.427C196.395,63.348 196.474,63.267 196.55,63.183C196.473,63.267 196.397,63.348 196.32,63.425L196.328,63.421C196.32,63.429 196.312,63.436 196.305,63.444C196.047,63.715 195.767,63.959 195.469,64.174L195.517,64.132C195.227,64.347 194.941,64.522 194.666,64.663C194.945,64.522 195.213,64.358 195.469,64.174L194.646,64.892L192.694,66.026L190.484,66.764L189.33,66.89L189.33,75.534C189.33,82.906 183.354,88.884 175.98,88.884L166.613,88.884C165.919,88.884 165.237,88.831 164.571,88.729C162.604,94.277 157.308,98.251 151.085,98.251L143.626,98.251C140.119,98.251 136.909,96.986 134.422,94.893C131.303,92.269 129.322,88.34 129.322,83.948L129.322,67.025L69.106,67.025L69.106,83.948C69.106,87.897 67.505,91.474 64.917,94.062C62.329,96.65 58.752,98.251 54.802,98.251L47.343,98.251C41.119,98.251 35.824,94.277 33.857,88.728C33.191,88.831 32.51,88.884 31.816,88.884L22.448,88.884C15.075,88.884 9.098,82.906 9.098,75.534L9.098,66.628L7.296,66.026L5.343,64.892L4.473,64.132C6.035,65.294 7.489,65.265 7.86,65.234C7.919,65.23 7.95,65.225 7.95,65.225L8.056,64.974L7.999,65.107L7.95,65.225L7.949,65.223L7.778,65.147ZM4.473,64.132C4.231,63.952 3.987,63.744 3.743,63.503C3.723,63.483 3.704,63.463 3.684,63.443L3.726,63.48C3.715,63.469 3.704,63.458 3.692,63.447L3.684,63.443C3.68,63.439 3.676,63.435 3.672,63.431L3.681,63.435C3.601,63.356 3.522,63.273 3.443,63.187L7.778,65.147C7.774,65.147 7.769,65.147 7.763,65.148L7.949,65.223C7.949,65.223 7.917,65.228 7.857,65.233C7.483,65.263 6.024,65.291 4.445,64.108L4.473,64.132ZM192.031,65.185C192.035,65.204 192.037,65.217 192.038,65.222C192.027,65.215 191.984,65.188 191.914,65.142L191.918,65.156C191.906,65.148 191.892,65.141 191.878,65.132C191.886,65.133 191.894,65.133 191.902,65.133C191.685,64.99 191.234,64.682 190.679,64.248C190.266,63.965 189.8,63.62 189.33,63.224L189.33,63.09C188.987,62.766 188.643,62.413 188.316,62.038L188.198,62.157C187.866,61.803 187.555,61.424 187.285,61.025L188.097,61.025C188.987,61.025 189.828,60.792 190.575,60.381C191.273,62.477 191.844,64.51 191.999,65.072C191.966,65.053 191.925,65.03 191.879,65.004C191.891,65.052 191.903,65.096 191.912,65.134C191.947,65.135 191.982,65.136 192.017,65.136C192.023,65.156 192.027,65.172 192.031,65.185ZM192.038,65.222L192.041,65.224L192.039,65.225L192.038,65.222ZM191.957,65.309C191.957,65.309 191.944,65.255 191.918,65.156C191.996,65.201 192.039,65.225 192.039,65.225C192.039,65.225 192.07,65.23 192.129,65.234L191.957,65.309Z" style="fill:rgb(249,249,249);"/>
    <g>
        <path d="M193.721,46.343L193.676,46.325L193.631,46.343L193.612,46.388C193.612,48.097 192.993,49.644 191.994,50.762C190.995,51.88 189.618,52.57 188.097,52.57L183.267,52.57L183.221,52.589L183.203,52.634L183.203,60.961L183.222,61.006L183.267,61.025L188.097,61.025C189.593,61.025 190.949,60.369 191.957,59.309L192.039,59.225L192.041,59.223L192.119,59.138L192.12,59.137C193.121,57.997 193.74,56.437 193.74,54.716L193.74,46.388L193.721,46.343Z" style="fill:rgb(136,167,199);fill-rule:nonzero;"/>
        <path d="M187.773,37.477L183.267,37.477L183.221,37.496L183.203,37.541L183.203,52.634L183.222,52.679L183.267,52.697L188.097,52.697C189.657,52.697 191.069,51.989 192.089,50.847C193.11,49.705 193.74,48.128 193.74,46.388L193.74,43.444C193.74,40.148 191.068,37.477 187.773,37.477Z" style="fill:rgb(187,211,230);fill-rule:nonzero;"/>
        <path d="M15.161,52.57L11.893,52.57C10.372,52.57 8.994,51.88 7.995,50.762C6.996,49.644 6.377,48.097 6.377,46.388L6.359,46.343L6.314,46.325L6.269,46.343L6.25,46.388L6.25,54.716C6.25,56.437 6.868,57.998 7.87,59.137L7.87,59.138L7.949,59.223L7.95,59.225L8.033,59.309C9.04,60.369 10.397,61.025 11.893,61.025L15.161,61.025L15.206,61.006L15.225,60.961L15.225,52.634L15.206,52.589L15.161,52.57Z" style="fill:rgb(136,167,199);fill-rule:nonzero;"/>
        <path d="M15.161,37.477L12.216,37.477C8.921,37.477 6.25,40.148 6.25,43.444L6.25,46.388C6.25,48.128 6.88,49.705 7.9,50.847C8.92,51.989 10.332,52.697 11.893,52.697L15.161,52.697L15.206,52.679L15.225,52.634L15.225,37.541L15.206,37.496L15.161,37.477Z" style="fill:rgb(187,211,230);fill-rule:nonzero;"/>
        <path d="M31.295,15.618L22.448,15.618C18.388,15.618 15.098,18.909 15.098,22.968L15.098,75.534C15.098,79.593 18.388,82.884 22.448,82.884L31.295,82.884L31.34,82.865L31.359,82.82L31.359,15.682L31.34,15.637L31.295,15.618Z" style="fill:rgb(44,41,50);fill-rule:nonzero;"/>
        <path d="M54.716,6.25L47.343,6.25C42.756,6.25 39.038,9.968 39.038,14.554L39.038,83.948C39.038,88.534 42.756,92.251 47.343,92.251L54.716,92.251L54.76,92.233L54.779,92.188L54.779,6.314L54.76,6.269L54.716,6.25Z" style="fill:rgb(44,41,50);fill-rule:nonzero;"/>
        <path d="M175.98,15.618L167.133,15.618L167.088,15.637L167.069,15.682L167.069,82.82L167.133,82.884L175.98,82.884C180.04,82.884 183.33,79.593 183.33,75.534L183.33,22.968C183.33,18.909 180.04,15.618 175.98,15.618Z" style="fill:rgb(44,41,50);fill-rule:nonzero;"/>
        <path d="M159.39,75.534L159.39,14.554C159.39,9.968 155.671,6.25 151.085,6.25L143.713,6.25L143.668,6.269L143.649,6.314L143.649,92.188L143.713,92.251L151.085,92.251C155.671,92.251 159.39,88.534 159.39,83.948L159.39,76.139L159.396,76.135L159.411,76.09C159.397,75.906 159.39,75.72 159.39,75.534Z" style="fill:rgb(44,41,50);fill-rule:nonzero;"/>
        <path d="M135.385,37.477L63.043,37.477L62.998,37.496L62.979,37.541L62.979,52.634L62.998,52.679L63.043,52.697L135.385,52.697L135.43,52.679L135.449,52.634L135.449,37.541L135.43,37.496L135.385,37.477Z" style="fill:rgb(187,211,230);fill-rule:nonzero;"/>
        <path d="M135.385,52.57L63.043,52.57L62.998,52.589L62.979,52.634L62.979,60.961L62.998,61.006L63.043,61.025L135.385,61.025L135.43,61.006L135.449,60.961L135.449,52.634L135.43,52.589L135.385,52.57Z" style="fill:rgb(136,167,199);fill-rule:nonzero;"/>
        <path d="M20.496,18.481C19.781,18.481 19.197,19.065 19.196,19.78L19.196,79.632C19.197,80.347 19.781,80.932 20.496,80.932C21.211,80.932 21.795,80.347 21.796,79.632L21.796,19.78C21.795,19.065 21.211,18.481 20.496,18.481Z" style="fill:rgb(64,60,71);fill-rule:nonzero;"/>
        <path d="M44.177,8.527C43.461,8.527 42.877,9.111 42.877,9.827L42.877,88.675C42.877,89.39 43.461,89.974 44.177,89.974C44.892,89.974 45.476,89.39 45.476,88.675L45.476,9.827C45.476,9.111 44.892,8.527 44.177,8.527Z" style="fill:rgb(64,60,71);fill-rule:nonzero;"/>
        <path d="M177.932,18.481C177.216,18.481 176.633,19.065 176.632,19.78L176.632,79.632C176.633,80.347 177.216,80.932 177.932,80.932C178.647,80.932 179.232,80.347 179.232,79.632L179.232,19.78C179.232,19.065 178.647,18.481 177.932,18.481Z" style="fill:rgb(64,60,71);fill-rule:nonzero;"/>
        <path d="M154.251,8.527C153.536,8.527 152.952,9.111 152.952,9.827L152.952,88.675C152.952,89.39 153.536,89.974 154.251,89.974C154.967,89.974 155.551,89.39 155.551,88.675L155.551,9.827C155.551,9.111 154.967,8.527 154.251,8.527Z" style="fill:rgb(64,60,71);fill-rule:nonzero;"/>
        <path d="M131.092,39.819L67.337,39.819C66.085,39.819 65.061,40.843 65.061,42.095C65.061,43.347 66.085,44.37 67.337,44.37L131.092,44.37C132.344,44.37 133.367,43.347 133.367,42.095C133.367,40.843 132.344,39.819 131.092,39.819Z" style="fill:rgb(228,245,253);fill-rule:nonzero;"/>
        <path d="M37.013,17.771L36.963,17.726C36.141,16.918 35.13,16.3 34.001,15.949C33.311,15.734 32.577,15.618 31.816,15.618L31.295,15.618L31.25,15.637L31.232,15.682L31.232,82.82L31.25,82.865L31.295,82.884L31.816,82.884C33.615,82.884 35.261,82.235 36.539,81.162C38.143,79.814 39.165,77.794 39.166,75.535L39.166,22.967C39.165,20.938 38.343,19.101 37.013,17.771Z" style="fill:rgb(15,10,21);fill-rule:nonzero;"/>
        <path d="M55.651,6.293C55.372,6.265 55.089,6.25 54.802,6.25L54.716,6.25L54.67,6.269L54.652,6.314L54.652,92.188L54.67,92.233L54.716,92.251L54.802,92.251C57.095,92.251 59.172,91.322 60.674,89.82C62.177,88.317 63.106,86.241 63.106,83.948L63.106,14.554L63.106,14.554C63.106,10.254 59.839,6.718 55.651,6.293Z" style="fill:rgb(15,10,21);fill-rule:nonzero;"/>
        <path d="M143.713,6.25L143.626,6.25C143.053,6.25 142.493,6.308 141.953,6.419C141.682,6.474 141.417,6.542 141.156,6.623C137.776,7.675 135.322,10.828 135.322,14.554L135.322,83.948C135.322,86.498 136.474,88.779 138.285,90.302C139.728,91.517 141.591,92.251 143.626,92.251L143.713,92.251L143.758,92.233L143.776,92.188L143.776,6.314L143.758,6.269L143.713,6.25Z" style="fill:rgb(15,10,21);fill-rule:nonzero;"/>
        <path d="M167.178,15.637L167.133,15.618L166.613,15.618C164.837,15.618 163.207,16.248 161.937,17.297C161.574,17.596 161.241,17.93 160.941,18.293C160.641,18.656 160.376,19.048 160.15,19.465C159.697,20.298 159.401,21.228 159.301,22.217C159.276,22.464 159.263,22.714 159.263,22.968L159.263,75.534C159.263,76.295 159.378,77.028 159.593,77.719C159.736,78.18 159.923,78.621 160.15,79.037C160.489,79.662 160.916,80.232 161.415,80.731C162.745,82.061 164.583,82.884 166.613,82.884L167.133,82.884L167.178,82.865L167.196,82.82L167.196,15.682L167.178,15.637Z" style="fill:rgb(15,10,21);fill-rule:nonzero;"/>
    </g>
</svg>
