<svg width="512" height="512" viewBox="0 0 512 512" fill="none" xmlns="http://www.w3.org/2000/svg">
<g clip-path="url(#clipPath)">
<circle cx="256" cy="256" r="256" fill="#083D77"/>
<path fill-rule="evenodd" clip-rule="evenodd" d="M146 402.496H366V365.934H146V402.496Z" fill="#38D1C4"/>
<path fill-rule="evenodd" clip-rule="evenodd" d="M329.383 329.404L329.352 219.702C329.352 199.52 321.13 181.238 307.855 168.003C294.581 154.767 276.249 146.562 256.012 146.562C235.773 146.562 217.441 154.767 204.167 168.003C190.892 181.238 182.67 199.52 182.67 219.702C182.67 239.885 190.892 258.166 204.167 271.401C217.441 284.637 235.773 292.827 256.012 292.827H256.043C276.296 292.827 292.714 309.207 292.714 329.404H256.012C195.295 329.404 146 280.25 146 219.702C146 159.155 195.295 110 256.012 110C316.729 110 366.022 159.155 366.022 219.702V329.404H329.383Z" fill="white"/>
<mask id="mask0_1_27" style="mask-type:luminance" maskUnits="userSpaceOnUse" x="146" y="110" width="221" height="220">
<path fill-rule="evenodd" clip-rule="evenodd" d="M329.383 329.404L329.352 219.702C329.352 199.52 321.13 181.238 307.855 168.003C294.581 154.767 276.249 146.562 256.012 146.562C235.773 146.562 217.441 154.767 204.167 168.003C190.892 181.238 182.67 199.52 182.67 219.702C182.67 239.885 190.892 258.166 204.167 271.401C217.441 284.637 235.773 292.827 256.012 292.827H256.043C276.296 292.827 292.714 309.207 292.714 329.404H256.012C195.295 329.404 146 280.25 146 219.702C146 159.155 195.295 110 256.012 110C316.729 110 366.022 159.155 366.022 219.702V329.404H329.383Z" fill="white"/>
</mask>
<g mask="url(#mask0_1_27)">
</g>
</g>
<defs>
<clipPath id="clipPath">
<circle cx="256" cy="256" r="256" />
</clipPath>
</defs>
</svg>
