<svg width="101" height="101" viewBox="0 0 101 101" fill="none" xmlns="http://www.w3.org/2000/svg">
<g clip-path="url(#clip0_46_70)">
<path d="M46.7674 99.8717C33.405 97.8294 21.1363 90.5281 12.3112 80.6934C0.260408 67.2638 -2.89443 48.5726 4.26778 33.0389C8.55458 23.7416 18.4598 13.0055 27.3246 8.048C45.1469 -1.9188 65.5619 -2.01363 78.8897 7.80848C92.9283 18.1545 100.506 35.8997 100.477 58.364C100.459 72.0773 97.5555 80.8512 90.5998 88.2059C84.0396 95.1423 75.7283 99.0957 63.172 100.181C54.7289 100.911 53.224 100.858 46.7674 99.8717Z" fill="#0094A0"/>
<path d="M32.375 77V24.6172H71.3984V35.375H45.0312V45.4648H69.3945V55.9062H45.0312V66.2422H71.3984V77H32.375Z" fill="white"/>
<mask id="path-3-outside-1_46_70" maskUnits="userSpaceOnUse" x="60" y="61" width="26" height="30" fill="black">
<rect fill="white" x="60" y="61" width="26" height="30"/>
<path d="M63.875 82.7812V79.5312L74.4219 64.7188H77V68.8281H75.5625L68.0312 79.4219V79.4531H82.7188V82.7812H63.875ZM75.5781 88V81.7969V80.3281V64.7188H79.5V88H75.5781Z"/>
</mask>
<path d="M63.875 82.7812V79.5312L74.4219 64.7188H77V68.8281H75.5625L68.0312 79.4219V79.4531H82.7188V82.7812H63.875ZM75.5781 88V81.7969V80.3281V64.7188H79.5V88H75.5781Z" fill="white"/>
<path d="M63.875 82.7812H60.875V85.7812H63.875V82.7812ZM63.875 79.5312L61.4312 77.7912L60.875 78.5723V79.5312H63.875ZM74.4219 64.7188V61.7188H72.8752L71.9781 62.9787L74.4219 64.7188ZM77 64.7188H80V61.7188H77V64.7188ZM77 68.8281V71.8281H80V68.8281H77ZM75.5625 68.8281V65.8281H74.0144L73.1174 67.0899L75.5625 68.8281ZM68.0312 79.4219L65.5862 77.6836L65.0312 78.4642V79.4219H68.0312ZM68.0312 79.4531H65.0312V82.4531H68.0312V79.4531ZM82.7188 79.4531H85.7188V76.4531H82.7188V79.4531ZM82.7188 82.7812V85.7812H85.7188V82.7812H82.7188ZM75.5781 88H72.5781V91H75.5781V88ZM75.5781 64.7188V61.7188H72.5781V64.7188H75.5781ZM79.5 64.7188H82.5V61.7188H79.5V64.7188ZM79.5 88V91H82.5V88H79.5ZM66.875 82.7812V79.5312H60.875V82.7812H66.875ZM66.3188 81.2713L76.8657 66.4588L71.9781 62.9787L61.4312 77.7912L66.3188 81.2713ZM74.4219 67.7188H77V61.7188H74.4219V67.7188ZM74 64.7188V68.8281H80V64.7188H74ZM77 65.8281H75.5625V71.8281H77V65.8281ZM73.1174 67.0899L65.5862 77.6836L70.4763 81.1601L78.0076 70.5664L73.1174 67.0899ZM65.0312 79.4219V79.4531H71.0312V79.4219H65.0312ZM68.0312 82.4531H82.7188V76.4531H68.0312V82.4531ZM79.7188 79.4531V82.7812H85.7188V79.4531H79.7188ZM82.7188 79.7812H63.875V85.7812H82.7188V79.7812ZM78.5781 88V81.7969H72.5781V88H78.5781ZM78.5781 81.7969V80.3281H72.5781V81.7969H78.5781ZM78.5781 80.3281V64.7188H72.5781V80.3281H78.5781ZM75.5781 67.7188H79.5V61.7188H75.5781V67.7188ZM76.5 64.7188V88H82.5V64.7188H76.5ZM79.5 85H75.5781V91H79.5V85Z" fill="#0094A0" mask="url(#path-3-outside-1_46_70)"/>
</g>
<defs>
<clipPath id="clip0_46_70">
<rect width="101" height="101" fill="white"/>
</clipPath>
</defs>
</svg>
