<svg width="100" height="100" viewBox="0 0 100 100" fill="none" xmlns="http://www.w3.org/2000/svg">
<g clip-path="url(#clip0_102_351)">
<path fill-rule="evenodd" clip-rule="evenodd" d="M97.5592 44.1074C100.814 47.3618 100.814 52.6382 97.5592 55.8926L55.8926 97.5592C52.6382 100.814 47.3618 100.814 44.1074 97.5592L2.44078 55.8926C-0.813592 52.6382 -0.813592 47.3618 2.44078 44.1074L44.1074 2.44078C47.3618 -0.813592 52.6382 -0.813592 55.8926 2.44078L97.5592 44.1074Z" fill="#F9F9F9"/>
<path fill-rule="evenodd" clip-rule="evenodd" d="M50 91.6667L91.6666 50L50 8.33333L8.33331 50L50 91.6667ZM44.4661 65.625V64.5671C44.4661 59.413 45.7953 55.3711 48.4538 52.4414L51.0579 49.5524C54.6387 45.5919 56.429 42.0654 56.429 38.973C56.429 34.3343 53.5265 32.015 47.7213 32.015C43.9778 32.015 39.6783 33.1272 34.8226 35.3516V26.9287C39.7868 25.4096 44.6289 24.6501 49.3489 24.6501C55.2354 24.6501 59.8809 25.7826 63.2853 28.0477C66.6897 30.3128 68.3919 33.3984 68.3919 37.3047C68.3919 40.8854 66.3574 44.6153 62.2884 48.4945L59.7656 50.8952C57.8125 52.7398 56.6189 54.2657 56.1849 55.4728C55.7509 56.68 55.5338 59.0061 55.5338 62.4512V65.625H44.4661ZM44.4661 72.054V81.25H55.5338V72.054H44.4661Z" fill="#5555FF"/>
</g>
<defs>
<clipPath id="clip0_102_351">
<rect width="100" height="100" fill="white"/>
</clipPath>
</defs>
</svg>
