<svg width="70" height="100" viewBox="0 0 70 100" fill="none" xmlns="http://www.w3.org/2000/svg">
<g clip-path="url(#clip0_344_365)">
<path d="M3.57143 19.0476C3.57143 27.5949 10.5004 34.5237 19.0476 34.5237H34.5238V3.57143H19.0476C10.5004 3.57143 3.57143 10.5004 3.57143 19.0476Z" fill="white"/>
<path d="M34.5238 3.57143L50 3.57145C58.5474 3.57145 65.4762 10.5004 65.4762 19.0476C65.4762 27.5949 58.5474 34.5238 50 34.5238L34.5238 34.5237V3.57143Z" fill="white"/>
<path d="M50 34.5238C58.5472 34.5238 65.4762 41.4528 65.4762 50C65.4762 58.5473 58.5472 65.4762 50 65.4762C41.4527 65.4762 34.5238 58.5473 34.5238 50C34.5238 41.4528 41.4527 34.5238 50 34.5238Z" fill="white"/>
<path d="M3.57143 80.9524C3.57143 72.4052 10.5004 65.4762 19.0476 65.4762C10.5004 65.4762 3.57143 58.5473 3.57143 50C3.57143 41.4528 10.5004 34.5237 19.0476 34.5237H34.5238V80.9524C34.5238 89.4997 27.595 96.4286 19.0476 96.4286C10.5004 96.4286 3.57143 89.4997 3.57143 80.9524Z" fill="white"/>
<path fill-rule="evenodd" clip-rule="evenodd" d="M34.5238 34.5237L50 34.5238C46.2395 34.5238 42.7923 35.865 40.1106 38.0952C39.3787 38.7038 38.7039 39.3787 38.0953 40.1105C35.8651 42.7923 34.5238 46.2395 34.5238 50L34.5238 34.5237ZM34.5238 50C34.5238 53.7605 35.8651 57.2078 38.0953 59.8895C40.9341 63.303 45.2132 65.4762 50 65.4762C58.5472 65.4762 65.4762 58.5473 65.4762 50C65.4762 44.2162 62.3034 39.1734 57.6033 36.5172C55.3577 35.2481 52.7634 34.5238 50 34.5238C52.7635 34.5238 55.3577 33.7995 57.6033 32.5304C62.3034 29.8743 65.4762 24.8315 65.4762 19.0476C65.4762 10.5004 58.5474 3.57145 50 3.57145L19.0476 3.57143C10.5004 3.57143 3.57143 10.5004 3.57143 19.0476C3.57143 24.8315 6.74424 29.8742 11.4443 32.5304C13.6899 33.7995 16.2842 34.5237 19.0476 34.5237C16.2842 34.5237 13.6899 35.248 11.4443 36.5171C6.74425 39.1734 3.57143 44.2162 3.57143 50C3.57143 55.7838 6.74424 60.8266 11.4443 63.4828C13.6899 64.7519 16.2842 65.4762 19.0476 65.4762C16.2842 65.4762 13.69 66.2005 11.4443 67.4695C6.74425 70.1258 3.57143 75.1686 3.57143 80.9524C3.57143 89.4997 10.5004 96.4286 19.0476 96.4286C27.595 96.4286 34.5238 89.4997 34.5238 80.9524L34.5238 50ZM38.0953 64.8699V80.9524C38.0953 91.4722 29.5674 100 19.0476 100C8.52791 100 0 91.4722 0 80.9524C0 74.5773 3.13195 68.9336 7.94115 65.4762C3.13195 62.0188 0 56.3752 0 50C0 43.6249 3.13195 37.9812 7.94114 34.5238C3.13196 31.0664 0 25.4228 0 19.0476C0 8.52791 8.5279 0 19.0476 0L50 1.45322e-05C60.5198 1.45322e-05 69.0477 8.52794 69.0477 19.0476C69.0477 25.4228 65.9157 31.0664 61.1065 34.5238C65.9157 37.9813 69.0477 43.6249 69.0477 50C69.0477 60.5198 60.5196 69.0476 50 69.0476C45.4955 69.0476 41.3562 67.484 38.0953 64.8699Z" fill="white"/>
<path d="M34.5239 49.9999C34.5239 41.4528 41.4528 34.5237 50.0001 34.5237V34.5237C58.5473 34.5237 65.4763 41.4528 65.4763 49.9999V49.9999C65.4763 58.5473 58.5473 65.4761 50.0001 65.4761V65.4761C41.4528 65.4761 34.5239 58.5473 34.5239 49.9999V49.9999Z" fill="#1ABCFE"/>
<path d="M3.57153 80.9523C3.57153 72.4052 10.5005 65.4761 19.0477 65.4761H34.5239V80.9523C34.5239 89.4997 27.5951 96.4285 19.0477 96.4285V96.4285C10.5005 96.4285 3.57153 89.4997 3.57153 80.9523V80.9523Z" fill="#0ACF83"/>
<path d="M34.5239 3.57147V34.5238H50.0001C58.5475 34.5238 65.4763 27.5949 65.4763 19.0477V19.0477C65.4763 10.5004 58.5475 3.57147 50.0001 3.57147H34.5239Z" fill="#FF7262"/>
<path d="M3.57141 19.0476C3.57141 27.5949 10.5003 34.5237 19.0476 34.5237H34.5238V3.57141H19.0476C10.5003 3.57141 3.57141 10.5003 3.57141 19.0476V19.0476Z" fill="#F24E1E"/>
<path d="M3.57153 49.9999C3.57153 58.5473 10.5005 65.4761 19.0477 65.4761H34.5239V34.5237H19.0477C10.5005 34.5237 3.57153 41.4528 3.57153 49.9999V49.9999Z" fill="#A259FF"/>
</g>
<defs>
<clipPath id="clip0_344_365">
<rect width="70" height="100" fill="white"/>
</clipPath>
</defs>
</svg>
