<svg width="176" height="100" viewBox="0 0 176 100" fill="none" xmlns="http://www.w3.org/2000/svg">
<g clip-path="url(#clip0_324_27)">
<path fill-rule="evenodd" clip-rule="evenodd" d="M86.6557 19.2897C87.2967 20.3229 87.8808 21.3804 88.4086 22.4608V21.185C88.4086 20.453 88.4933 19.733 88.656 19.0371V15.7968C88.656 10.5839 92.8818 6.35813 98.0946 6.35813H104.567L108.166 4.26505C111.086 2.56714 114.69 2.55862 117.618 4.24271C120.545 5.92681 122.35 9.04682 122.35 12.4242V13.6406C122.512 14.3331 122.597 15.0549 122.597 15.7968V22.5975H122.614C123.209 22.5975 123.792 22.6526 124.356 22.758C125.113 18.4929 128.738 15.197 133.209 14.9881C136.666 14.8266 138.914 14.6162 140.218 14.4305C142.743 12.1521 144.282 9.79033 145.148 7.37161C146.492 3.61945 150.048 1.11593 154.034 1.11593H166.214C166.245 1.11593 166.276 1.11609 166.307 1.1164L166.35 1.11682C171.525 1.16832 175.694 5.37881 175.694 10.555V89.0672C175.694 90.1832 175.501 91.2539 175.145 92.2477C173.874 95.9584 170.355 98.6261 166.214 98.6261H151.203C145.99 98.6261 141.764 94.4002 141.764 89.1874V50.198C139.511 51.2429 137.179 52.1625 134.771 52.9577C132.496 53.7087 130.045 53.5602 127.906 52.5875C126.513 53.3972 124.895 53.8609 123.168 53.8609H122.597V67.156C124.509 67.0513 126.43 67.5291 128.093 68.5619C130.556 70.0908 132.179 72.6665 132.496 75.5477L133.778 87.193C134.126 90.354 132.861 93.4046 130.536 95.3959C128.916 97.8909 126.148 99.5771 122.963 99.6951L115.752 99.9622L115.729 99.963C108.038 100.23 99.4811 99.1589 93.8834 93.3621C93.1229 92.5815 92.4646 91.755 91.8968 90.8951C90.8319 94.941 87.1486 97.9247 82.7684 97.9247H71.8709C70.4386 97.9247 69.0713 97.6032 67.8439 97.0236C61.7422 98.9691 55.5121 99.9615 49.1824 99.9615C48.5707 99.9615 47.9619 99.9533 47.3561 99.9367C46.7881 99.9547 46.2167 99.9636 45.6421 99.9636C32.8497 99.9636 21.7647 95.5231 13.1876 86.4446C5.58539 78.63 1.48932 68.605 0.42877 57.0803C0.141391 54.6743 0 52.2346 0 49.7642C0 40.2544 2.00459 31.4313 6.25942 23.5422C10.6083 15.4786 17.0246 9.27819 25.2523 5.04993C27.993 3.63247 30.922 2.54803 34.0008 1.76143C38.4325 0.563532 43.0947 0 47.9391 0C50.807 0 53.5966 0.176437 56.2982 0.544956C63.999 1.44827 70.9989 3.79723 76.7544 8.09042C80.8348 11.1341 84.1618 14.8816 86.6557 19.2897Z" fill="white"/>
<g style="mix-blend-mode:darken">
<path d="M49.1823 90.5229C55.6282 90.5229 61.9939 89.3032 68.2796 86.8637C74.5652 84.4242 79.364 81.6019 82.676 78.3968V78.3968V47.2001H48.5947V60.3946H66.7037V70.3305C64.3177 72.1824 61.4598 73.7582 58.13 75.0581C54.8002 76.358 51.4793 77.0079 48.1673 77.0079C41.4721 77.0079 36.059 74.6842 31.9279 70.0367C27.7968 65.3893 25.7313 58.4181 25.7313 49.1231C25.7313 40.5049 27.7701 34.0055 31.8478 29.6252C35.9254 25.2448 41.4187 23.0546 48.3276 23.0546C52.886 23.0546 56.6876 24.1675 59.7325 26.3933C62.7774 28.6191 64.8519 31.6551 65.9559 35.5013V35.5013L81.6611 32.5632C80.0941 25.3695 76.5773 19.7338 71.1108 15.6561C65.6442 11.5784 58.0498 9.53961 48.3276 9.53961C40.8489 9.53961 34.5989 10.8395 29.5775 13.4392C22.9891 16.8224 17.9855 21.6835 14.5667 28.0226C11.1479 34.3617 9.43848 41.6089 9.43848 49.7642C9.43848 57.2785 10.9698 64.2318 14.0325 70.6243C17.0952 77.0168 21.6714 81.9314 27.7612 85.368C33.851 88.8046 40.9913 90.5229 49.1823 90.5229Z" fill="#FF00CB"/>
</g>
<g style="mix-blend-mode:darken">
<path d="M112.537 90.4695C116.953 90.4695 120.906 89.7217 124.396 88.2259V88.2259L123.114 76.5806C120.479 77.5421 118.467 78.0229 117.078 78.0229C116.081 78.0229 115.235 77.7736 114.541 77.275C113.846 76.7764 113.401 76.1443 113.205 75.3786C113.009 74.613 112.911 71.9153 112.911 67.2856V67.2856V44.4223H123.168V32.4564H112.911V12.4243L97.8471 21.185V32.4564H90.9561V44.4223H97.8471L97.8473 69.4379C97.8529 74.587 98.0131 78.0184 98.3279 79.7323C98.7196 82.1896 99.423 84.1394 100.438 85.5817C101.453 87.024 103.047 88.1992 105.219 89.1073C107.391 90.0155 109.831 90.4695 112.537 90.4695Z" fill="#FF00CB"/>
</g>
<g style="mix-blend-mode:darken">
<path d="M166.213 89.1874V10.5546H154.034C152.324 15.3267 149.173 19.5023 144.579 23.0813C139.985 26.6604 135.729 29.091 131.812 30.373V30.373V43.9949C139.255 41.5376 145.718 37.7449 151.203 32.6166V32.6166V89.1874H166.213Z" fill="#FF00CB"/>
</g>
<g style="mix-blend-mode:darken">
<path d="M45.642 90.525C51.981 90.525 57.3229 89.218 61.6677 86.604C64.1962 85.1053 67.0452 82.5262 70.2148 78.8666V78.8666L71.8707 88.4861H82.7682V47.1326H49.9689V59.9935H68.1848C67.3657 65.0472 65.1934 69.1338 61.6677 72.2532C58.142 75.3725 53.6192 76.9322 48.0993 76.9322C42.4724 76.9322 37.4511 74.963 33.0351 71.0246C28.6191 67.0861 26.4111 60.3769 26.4111 50.8967C26.4111 41.4863 28.4499 34.4372 32.5276 29.7495C36.6053 25.0617 41.8136 22.7178 48.1527 22.7178C51.4647 22.7178 54.4739 23.2929 57.1805 24.443C62.0238 26.5342 65.0687 30.2113 66.3152 35.4741V35.4741H82.5011C81.6108 28.0504 78.1297 21.8552 72.0577 16.8886C65.9857 11.922 57.9462 9.43866 47.939 9.43866C36.4005 9.43866 27.1234 13.2028 20.1077 20.7312C13.092 28.2595 9.58411 38.2624 9.58411 50.7399C9.58411 63.078 13.0563 72.8021 20.0008 79.9122C26.6604 86.9874 35.2075 90.525 45.642 90.525Z" fill="#0083FF"/>
</g>
<g style="mix-blend-mode:darken">
<path d="M100.659 86.7907C103.294 89.5329 108.209 90.7793 115.402 90.53V90.53L122.614 90.2629V78.8847C122.115 78.9203 121.608 78.947 121.091 78.9648C120.575 78.9826 120.085 78.9915 119.622 78.9915C116.524 78.9915 114.672 78.6977 114.067 78.1101C113.461 77.5225 113.159 76.0357 113.159 73.6496V73.6496V42.8802H122.614V32.0362H113.159V15.7968H98.0946V32.0362H89.9749V42.8802H98.0946V78.7244C98.0946 82.3569 98.9493 85.0457 100.659 86.7907Z" fill="#0083FF"/>
</g>
<g style="mix-blend-mode:darken">
<path d="M166.256 89.0672V10.555H154.048C154.048 11.2408 153.859 12.2877 153.481 13.6955C152.828 16.0418 151.867 17.9189 150.596 19.3267C148.742 21.3843 146.338 22.756 143.385 23.4418C141.531 23.875 138.285 24.1999 133.649 24.4165V24.4165V34.9208H151.215V89.0672H166.256Z" fill="#0083FF"/>
</g>
</g>
<defs>
<clipPath id="clip0_324_27">
<rect width="176" height="100" fill="white"/>
</clipPath>
</defs>
</svg>
