<svg width="100" height="100" viewBox="0 0 100 100" fill="none" xmlns="http://www.w3.org/2000/svg">
<g clip-path="url(#clip0_341_284)">
<path d="M98.1139 45.5452L54.4524 1.88615C51.9397 -0.628717 47.8614 -0.628717 45.3455 1.88615L36.2792 10.9526L47.7802 22.4539C50.453 21.5508 53.5175 22.1565 55.6483 24.2873C57.789 26.4313 58.3903 29.5223 57.4653 32.2039L68.5494 43.2882C71.231 42.3643 74.3251 42.9623 76.4669 45.1074C79.4601 48.0996 79.4601 52.9494 76.4669 55.9437C73.4726 58.9381 68.6229 58.9381 65.6275 55.9437C63.376 53.69 62.8197 50.3829 63.9597 47.6091L53.6229 37.2721L53.6218 64.4748C54.3514 64.8368 55.0405 65.3185 55.6483 65.9242C58.6415 68.9164 58.6415 73.7662 55.6483 76.7627C52.654 79.756 47.8021 79.756 44.8122 76.7627C41.819 73.7662 41.819 68.9164 44.8122 65.9242C45.5517 65.1858 46.4076 64.6273 47.3205 64.252V36.7958C46.4076 36.4228 45.5528 35.8676 44.8122 35.1237C42.5443 32.859 41.999 29.531 43.1609 26.7463L31.8245 15.4074L1.88694 45.3433C-0.628979 47.8604 -0.628979 51.9388 1.88694 54.4537L45.5485 98.1138C48.0622 100.629 52.1394 100.629 54.6564 98.1138L98.1139 54.6567C100.629 52.1407 100.629 48.0601 98.1139 45.5452" fill="#DE4C36"/>
</g>
<defs>
<clipPath id="clip0_341_284">
<rect width="100" height="100" fill="white"/>
</clipPath>
</defs>
</svg>
