<svg width="100" height="100" viewBox="0 0 100 100" fill="none" xmlns="http://www.w3.org/2000/svg">
<g clip-path="url(#clip0_158_669)">
<path d="M58.3711 3.6199C53.5467 -1.20879 45.9996 -1.20113 41.1765 3.6199V96.3801C46.0017 101.206 54.0002 101.199 58.8236 96.3801L96.3801 58.8235C101.202 53.9993 101.205 46.0011 96.3801 41.1765L58.3711 3.6199Z" fill="#F9F9F9"/>
<path d="M41.1765 96.3801V3.6199L35.4919 9.30466C24.8677 19.929 14.2452 30.5518 3.61996 41.1765C-1.20213 46.0007 -1.20662 53.7717 3.61996 58.5973L41.1765 96.3801Z" fill="#F9F9F9"/>
<path d="M91.3563 46.1499L53.6217 8.41744C51.4501 6.24395 47.9254 6.24395 45.751 8.41744L37.9154 16.2532L47.8552 26.1931C50.1652 25.4127 52.8137 25.9362 54.6553 27.7777C56.5054 29.6307 57.025 32.302 56.2256 34.6197L65.8051 44.1993C68.1227 43.4008 70.7968 43.9177 72.6478 45.7716C75.2347 48.3576 75.2347 52.549 72.6478 55.1369C70.06 57.7248 65.8686 57.7248 63.2798 55.1369C61.334 53.1891 60.8532 50.3309 61.8385 47.9337L52.9048 38.9998L52.9038 62.5098C53.5344 62.8228 54.13 63.2391 54.6553 63.7625C57.2422 66.3485 57.2422 70.54 54.6553 73.1298C52.0675 75.7167 47.8742 75.7167 45.2902 73.1298C42.7033 70.54 42.7033 66.3485 45.2902 63.7625C45.9293 63.1243 46.6689 62.6417 47.4579 62.3173V38.5883C46.6689 38.2658 45.9302 37.786 45.2902 37.1431C43.3301 35.1858 42.8588 32.3096 43.863 29.9029L34.0654 20.1032L8.19183 45.9754C6.01744 48.1508 6.01744 51.6756 8.19183 53.8491L45.9264 91.5825C48.0989 93.756 51.6227 93.756 53.7981 91.5825L91.3563 54.0245C93.5297 51.8501 93.5297 48.3234 91.3563 46.1499" fill="#DE4C36"/>
</g>
<defs>
<clipPath id="clip0_158_669">
<rect width="100" height="100" fill="white"/>
</clipPath>
</defs>
</svg>
