<?xml version="1.0" encoding="UTF-8"?>
<svg id="Layer_1" xmlns="http://www.w3.org/2000/svg" version="1.1" viewBox="0 0 480.8 317.6">
  <!-- Generator: Adobe Illustrator 29.1.0, SVG Export Plug-In . SVG Version: 2.1.0 Build 142)  -->
  <defs>
    <style>
      .st0 {
        fill: #4c78ae;
      }

      .st1 {
        fill: #fff;
        stroke: #fff;
        stroke-miterlimit: 10;
      }

      .st2 {
        fill: #9d2d26;
      }

      .st3 {
        fill: #f3b53d;
      }
    </style>
  </defs>
  <path class="st1" d="M368.7,271.1h74.1c20.6,0,37.4-16.8,37.4-37.5v-65.9c0-19.4-14.8-35.4-33.6-37.3,2.5-4,4-8.6,4.3-13.7.3-5.8-1-11.2-3.7-15.8,4.5-7.9,8.4-17.7,10.4-29.5.7-3.9,1-7.9,1-11.7,0-20.2-9.2-37.4-25.9-48.4-10.6-7-23.8-10.8-37.1-10.8s-25.1,3.5-35.3,10c-17,10.9-26.3,28.9-26.3,50.6s.4,8.5,1,12.9c1.5,9.6,4.6,18.5,9,26.7-.7.8-1.3,1.7-1.9,2.7-5.7,9.2-5.3,19.9.1,28-9.8,2.4-18.3,8.6-23.5,17.4-1.5-2.6-3.3-5-5.4-7.1l3.5-1.7c9.9-4.9,13.9-16.9,9-26.8l-1.8-3.7c-1.8-3.6-4.7-6.6-8.2-8.5,0-4.7-1.6-9.4-5-13.2l-2.7-3.1c-3.5-4-8.5-6.4-13.8-6.7-.4,0-.8,0-1.2,0-.6,0-1.2,0-1.8,0-1.4-5.9-5.5-11-11.5-13.6l-3.8-1.6c-2.5-1.1-5.2-1.6-7.9-1.6s-5,.5-7.4,1.4c-.6.2-1.1.5-1.6.7-3.6-5.2-9.6-8.6-16.4-8.6h-4.1c-6.8,0-12.8,3.4-16.4,8.6-2.8-1.4-5.9-2.2-9-2.2s-5.3.5-7.9,1.6l-3.8,1.6c-6,2.6-10,7.7-11.5,13.6-.6,0-1.2,0-1.8,0s-.8,0-1.2,0c-5.3.3-10.3,2.7-13.8,6.7l-2.7,3.1c-3.4,3.8-5,8.5-5,13.2-3.5,1.9-6.4,4.9-8.2,8.5l-1.8,3.7c-4.9,9.9-.9,21.9,8.9,26.8l3.5,1.7c-2.1,2.1-3.9,4.5-5.4,7.1-6.5-11-18.6-18.5-32.3-18.5H38c-20.7,0-37.5,16.8-37.5,37.5v65.9c0,16.7,11,31,26.2,35.8-10,3.3-16.7,12.2-16.7,23.2s11,24.6,25.6,24.6,8.7-1,12.4-2.7c1.5.2,3,.3,4.6.3,5.7,0,10.8-1.4,15.1-4,1.2.1,2.4.2,3.7.2s2.2,0,3.3-.2c5.8-.6,11-2.7,15.2-5.8,1.3.2,2.6.2,3.9.2,12.5,0,23.3-7,28.1-17.1,1.1,0,2.3.1,3.4.1s3.1,0,4.5-.2c3.1-.1,9.9-.8,17.5-3.9,10.4-4.2,18.6-11.4,24.2-20.9,5.1,4,11.2,6.6,17.7,7.6,1,.1,1.9.2,2.9.2h97c1,0,1.9,0,2.9-.2,8.8-1.3,16.9-5.7,22.8-12.4,1.6-1.8,2.9-3.7,4.1-5.7,2.8,4.7,6.6,8.7,11.2,11.9,6.2,4.2,13.5,6.5,21,6.5h.3M271.8,82.6l-5.1,11.7h0s5.1-11.7,5.1-11.7l-3.8-1.6,3.8,1.6ZM29.7,152.3c2.5-1.3,5.3-2.1,8.3-2.1h92c3,0,5.9.8,8.3,2.1,2.5,1.3,4.6,3.3,6.2,5.6-1.6-2.3-3.7-4.3-6.2-5.6-2.5-1.3-5.3-2.1-8.3-2.1H38c-3,0-5.9.8-8.3,2.1-1.9,1.1-3.6,2.5-5.1,4.1,1.4-1.7,3.1-3.1,5.1-4.1ZM293.6,249.8c.9-.4,1.8-.9,2.7-1.5-.9.6-1.8,1.1-2.7,1.5ZM297.7,247.3c.7-.6,1.4-1.3,2.1-2-.6.7-1.3,1.4-2.1,2ZM458.2,159.3c-1.3-2.5-3.3-4.6-5.6-6.2,2.3,1.6,4.2,3.7,5.6,6.2ZM455,246.1c-.5.5-1.1,1-1.7,1.5.6-.5,1.2-.9,1.7-1.5ZM451.1,152.3c-1-.5-2-1-3.1-1.3,1.1.3,2.1.8,3.1,1.3ZM422.5,111.4c-.4,0-.8,0-1.2,0,.4,0,.9,0,1.2,0ZM419.8,107.3c.4,0,.8,0,1.2,0s.2,0,.3,0c-.5,0-1,0-1.5,0ZM425.7,112.4c-.2-.2-.5-.3-.8-.4.3.1.6.3.8.4ZM424.6,111.9c-.2,0-.4-.1-.7-.2.2,0,.5.1.7.2ZM423.6,111.6c-.3,0-.6-.1-.9-.1.3,0,.6,0,.9.1ZM421.7,107.3c.5,0,.9,0,1.4,0-.4,0-.9,0-1.4,0ZM423.1,107.4c.5,0,.9.1,1.3.2-.4,0-.8-.2-1.3-.2ZM424.7,107.6c.4,0,.8.2,1.1.3-.4-.1-.7-.2-1.1-.3ZM425.9,107.9c.4.1.7.3,1,.4-.3-.2-.7-.3-1-.4ZM428,109c-.3-.2-.6-.4-.9-.5.3.2.6.3.9.5ZM423.6,93c.8-1.2,1.6-2.4,2.4-3.7-.8,1.3-1.6,2.5-2.4,3.7ZM417.6,107.5c-.6,0-1.2.1-1.8.2.6-.1,1.2-.2,1.8-.2ZM419.7,107.3c-.5,0-1.1,0-1.6.1.6,0,1.1-.1,1.6-.1ZM417.8,111.6c-.5,0-1,.1-1.6.2.5,0,1.1-.2,1.6-.2ZM420.8,111.4c-.3,0-.7,0-1.1,0,.4,0,.7,0,1.1,0ZM419.3,111.4c-.4,0-.9,0-1.3.1.4,0,.9,0,1.3-.1ZM406.7,114.3c.6-.2,1.1-.4,1.7-.5-.6.2-1.1.4-1.7.5ZM408.9,113.6c.4-.1.9-.3,1.3-.4-.4.1-.9.2-1.3.4ZM410.7,113.1c.6-.2,1.1-.3,1.7-.5-.6.1-1.1.3-1.7.5ZM412.5,112.6c.5-.1,1-.2,1.6-.4-.5.1-1,.2-1.6.4ZM414.6,112.2c.4,0,.8-.2,1.3-.2-.4,0-.8.2-1.3.2ZM425.5,118.1c-.1,0-.3.2-.5.2.2,0,.3-.2.5-.2ZM424.9,118.4c-.1,0-.3.1-.5.1.2,0,.3,0,.5-.1ZM424.2,118.6c-.2,0-.5,0-.8.1.3,0,.5,0,.8-.1ZM423.3,118.7c-.2,0-.5,0-.8,0,.3,0,.5,0,.8,0ZM422,118.8s0,0-.1,0c0,0,0,0,.1,0ZM421.1,118.7c0,0-.1,0-.2,0,0,0,.1,0,.2,0ZM420.1,118.6c0,0,0,0-.2,0,0,0,.1,0,.2,0ZM418.9,118.4c0,0-.2,0-.3,0,0,0,.2,0,.3,0ZM417.6,118.1c0,0-.1,0-.2,0,0,0,.1,0,.2,0ZM416.2,117.7c-.1,0-.2,0-.3,0,.1,0,.2,0,.3,0ZM414.6,117.3s0,0-.1,0c0,0,0,0,.1,0ZM413,116.7c-.1,0-.3,0-.4-.1.1,0,.3,0,.4.1ZM411,116s0,0,0,0c0,0,0,0,0,0ZM409.1,115.3c-.1,0-.3-.1-.5-.2.2,0,.3.1.5.2ZM422.7,122.9c-.1,0-.2,0-.3,0s-.1,0-.2,0c.2,0,.3,0,.5,0ZM420.5,122.8c0,0-.2,0-.2,0,0,0,.2,0,.2,0ZM418.7,122.5c-.2,0-.3,0-.5,0,.2,0,.3,0,.5,0ZM416.6,122.1c0,0-.2,0-.2,0,0,0,.2,0,.2,0ZM414.4,121.5c-.2,0-.3,0-.5-.2.2,0,.3.1.5.2ZM412.3,120.9c-.2,0-.3,0-.5-.1.2,0,.3,0,.5.1ZM410,120.1c-.1,0-.3,0-.4-.1.1,0,.3,0,.4.1ZM408,119.3c-.2,0-.3-.1-.5-.2.2,0,.3.1.5.2ZM425.4,122.5c-.2,0-.3,0-.5.1.2,0,.3,0,.5-.1ZM424.1,122.8c-.2,0-.4,0-.5,0,.2,0,.4,0,.5,0ZM426.6,122.2c-.1,0-.3,0-.4.1.1,0,.3,0,.4-.1ZM427.7,121.6c.2-.1.3-.2.5-.3-.2.1-.3.2-.5.3,0,0,0,0,0,0,0,0,0,0,0,0ZM429.1,120.4s0,0,0,.1c0,0,0,0,0-.1ZM430.9,115.7c0-1.8-.3-3.2-.9-4.3.6,1.1.9,2.5.9,4.3h0ZM429.2,83c-.7,1.5-1.4,2.9-2.1,4.3.7-1.4,1.4-2.8,2.1-4.3,2-4.5,3.6-9.7,4.6-15.6.1-.7.2-1.4.3-2.1,0,.7-.2,1.4-.3,2.1-1,5.9-2.6,11-4.6,15.6ZM422.4,94.7c-.8,1.1-1.7,2.2-2.5,3.1.9-1,1.7-2,2.5-3.1ZM414.8,103.1c.8-.8,1.7-1.6,2.6-2.4-.9.9-1.7,1.7-2.6,2.4ZM389.2,112.8l2.1,1.2h0s-2.1-1.2-2.1-1.2ZM398.3,113.1h0s-2.4,1-2.4,1l2.4-1ZM400.5,112.2c.2,0,.5-.2,1-.4-.4.2-.8.3-1,.4ZM414,64c-3.1,18.5-14.7,26.4-19,28.7-9.4-6.8-14.8-15.2-16.5-25.7-.3-2.1-.5-4.1-.5-5.9,0-8.6,3.5-11.9,6.1-13.6,3-1.9,7-3,11.3-3,4.7,0,9.4,1.3,12.8,3.6,4.3,2.8,6.1,6.3,6.1,11.6s-.1,2.8-.4,4.3ZM386.1,110.8c-5.1-3.4-9.6-7.1-13.3-11.3,3.7,4.1,8.2,7.9,13.3,11.3ZM362.3,117.8c0,.1.2.2.3.3s.1,0,.2.1c0,0,0,0,0,0,0,0,0,0,0,0,0,0-.1,0-.2-.1-.1,0-.2-.2-.3-.3ZM378.4,110.3s0,0,0,0c0,0,0,0,0,0h0ZM363.5,115c0,0-.2.1-.2.2,0,0,.2-.1.2-.2ZM363.3,110.2c.2,0,.3-.1.5-.2-.2,0-.3.1-.5.2ZM369.6,113.1s0,0,0,0c0,0,0,0,0,0ZM368.4,113.2c-.1,0-.3,0-.4,0,.1,0,.3,0,.4,0ZM367.2,113.3c-.1,0-.3,0-.4,0,.1,0,.3,0,.4,0ZM366.2,113.5c-.1,0-.3,0-.4.1.1,0,.3,0,.4-.1ZM365.2,113.9c-.1,0-.2.1-.4.2.1,0,.2-.1.4-.2ZM364.3,114.4c-.1,0-.2.1-.3.2,0,0,.2-.1.3-.2ZM364.7,109.7c.1,0,.3,0,.4-.1-.1,0-.3,0-.4.1ZM366.4,109.2c0,0,.2,0,.3,0,0,0-.2,0-.3,0ZM367.9,109.1c.2,0,.3,0,.5,0-.2,0-.3,0-.5,0ZM369.3,109c0,0,.1,0,.2,0s.2,0,.2,0c-.2,0-.3,0-.5,0ZM379,114.8c-.3-.1-.7-.2-1-.3.3,0,.7.2,1,.3ZM377.3,114.3c-.3,0-.6-.2-1-.3.3,0,.6.2,1,.3ZM375.7,113.9c-.3,0-.6-.1-.9-.2.3,0,.6.1.9.2ZM374.1,113.6c-.3,0-.6-.1-.9-.2.3,0,.6,0,.9.2ZM372.5,113.3c-.3,0-.7,0-1-.1.3,0,.7,0,1,.1ZM371,113.2c-.5,0-.9,0-1.4,0,.4,0,.9,0,1.4,0ZM371.8,109.1s0,0,.1,0c0,0,0,0-.1,0ZM373.8,109.3c.1,0,.2,0,.4,0-.1,0-.2,0-.4,0ZM376.1,109.8c.1,0,.3,0,.4,0-.1,0-.3,0-.4,0ZM360.4,112.3c-.1.1-.2.2-.3.3,0-.1.2-.2.3-.3ZM362.6,110.6c-.2,0-.3.2-.5.3.1,0,.3-.2.5-.3ZM361.4,111.3c-.1.1-.3.2-.4.3.1-.1.3-.2.4-.3ZM382.8,116.2c-.4.3-.9.5-1.3.8.5-.2.9-.5,1.3-.8ZM381,117.1c-.3.2-.6.3-1,.4.3-.1.7-.3,1-.4ZM379.5,117.8c-.3.1-.7.2-1,.4.3-.1.7-.2,1-.4ZM377.9,118.4c-.4.1-.7.2-1.1.3.4,0,.7-.2,1.1-.3ZM376.3,118.8c-.5.1-1.1.2-1.6.3.5,0,1.1-.2,1.6-.3ZM374.7,119.1c-.5,0-1.1.2-1.6.2.5,0,1.1-.1,1.6-.2ZM372.5,119.4c-.4,0-.7,0-1.1,0,.4,0,.7,0,1.1,0ZM370.8,119.6c-.3,0-.7,0-1,0,.3,0,.7,0,1,0ZM369.1,119.6c-.1,0-.3,0-.4,0,.1,0,.3,0,.4,0ZM367.9,119.5c-.1,0-.2,0-.4,0,.1,0,.2,0,.4,0ZM366.4,119.4s0,0,0,0c0,0,0,0,0,0ZM365.4,119.2c-.1,0-.2,0-.3,0,0,0,.2,0,.3,0ZM364.5,119c0,0-.2,0-.3,0,0,0,.2,0,.3,0ZM363.7,118.7c0,0-.2,0-.2,0,0,0,.2,0,.2,0ZM379.6,115c.4.1.7.2,1.1.4-.4-.1-.7-.2-1.1-.4ZM381.2,115.6c.5.2,1,.4,1.6.6-.5-.2-1-.4-1.6-.6ZM366.8,91.7c-3.5-5.5-5.9-11.6-7.3-18.2,1.4,6.6,3.9,12.6,7.3,18.2,1.2,1.8,2.4,3.6,3.8,5.3-1.4-1.7-2.7-3.5-3.8-5.3ZM359.2,113.8s0,0,0,0c-.3.5-.5.9-.7,1.4.2-.5.4-.9.7-1.4,0,0,0,0,0,0ZM362.4,122.6c-.2,0-.5-.2-.7-.3.2.1.5.2.7.3ZM361.3,122.2c-.3-.2-.6-.4-.9-.6.3.2.6.4.9.6ZM363.5,123c-.3,0-.5-.2-.7-.2.2,0,.5.2.7.2ZM369.6,123.7c0,0-.1,0-.2,0-.3,0-.5,0-.8,0,.3,0,.7,0,1,0ZM368.1,123.7c-.5,0-1,0-1.4-.1.5,0,.9,0,1.4.1ZM366.4,123.6c-.4,0-.8,0-1.1-.2.4,0,.7.1,1.1.2ZM364.9,123.3c-.3,0-.6-.1-.8-.2.3,0,.6.1.8.2ZM382.7,120.9c-.2,0-.3.2-.5.2.2,0,.4-.1.5-.2ZM381,121.6c-.2,0-.4.2-.6.2.2,0,.4-.2.6-.2ZM379.3,122.2c-.2,0-.5.1-.7.2.2,0,.5-.1.7-.2ZM377.5,122.7c-.2,0-.5.1-.7.2.2,0,.5-.1.7-.2ZM375.6,123.1c-.2,0-.4,0-.6.1.2,0,.4,0,.6-.1ZM373.5,123.5c-.1,0-.2,0-.3,0,.1,0,.2,0,.3,0ZM371.3,123.7c-.2,0-.3,0-.5,0,.2,0,.3,0,.5,0ZM411.5,130.2l-5.9-11.8h0s5.9,11.8,5.9,11.8h0ZM416.7,29.9c.9.5,1.7,1,2.6,1.6-.8-.5-1.7-1.1-2.6-1.6ZM414,28.5c.6.3,1.2.6,1.8.9-.6-.3-1.2-.6-1.8-.9ZM411.1,27.3c.6.2,1.1.5,1.7.7-.6-.2-1.1-.5-1.7-.7ZM408.2,26.4c.6.2,1.1.4,1.7.5-.6-.2-1.1-.4-1.7-.5ZM395.9,24.6c.6,0,1.1,0,1.7,0-.6,0-1.1,0-1.7,0ZM399,24.7c.6,0,1.1.1,1.7.2-.6,0-1.1-.1-1.7-.2ZM402.1,25.1c.6,0,1.1.2,1.7.3-.6-.1-1.1-.2-1.7-.3ZM405.2,25.6c.6.1,1.1.3,1.7.4-.6-.1-1.1-.3-1.7-.4ZM384,26.1c.4-.1.9-.2,1.3-.3-.4.1-.9.2-1.3.3ZM386.9,25.4c.4,0,.9-.1,1.3-.2-.4,0-.9.1-1.3.2ZM389.9,25c.5,0,.9,0,1.4-.1-.5,0-.9,0-1.4.1ZM392.9,24.7c.5,0,.9,0,1.4,0-.5,0-.9,0-1.4,0ZM381.2,27c.4-.1.8-.3,1.2-.4-.4.1-.8.2-1.2.4ZM378.5,28c.4-.2.7-.3,1.1-.4-.4.1-.7.3-1.1.4ZM375.9,29.3c.3-.2.6-.3.9-.4-.3.1-.6.3-.9.4ZM438.5,57.2c0,.8,0,1.6,0,2.5h0c0-.8,0-1.7,0-2.5-.2-3.3-.7-6.4-1.6-9.3.9,2.9,1.4,6.1,1.6,9.3ZM436.1,45.7c-.5-1.4-1.2-2.8-1.9-4.1.7,1.3,1.3,2.7,1.9,4.1ZM433.1,39.6c-2.8-4.5-6.6-8.4-11.5-11.6-.9-.6-1.8-1.2-2.8-1.7.9.5,1.9,1.1,2.8,1.7,4.8,3.2,8.7,7.1,11.5,11.6ZM396.5,20.5c1,0,2,0,2.9.1-1,0-2-.1-2.9-.1ZM399.9,20.7c1,0,2,.2,2.9.3-1-.1-2-.3-2.9-.3ZM403.2,21.1c1,.2,2,.3,2.9.5-1-.2-2-.4-2.9-.5ZM406.5,21.7c1,.2,2,.5,2.9.7-1-.3-1.9-.5-2.9-.7ZM409.7,22.6c1,.3,1.9.6,2.9,1-1-.4-1.9-.7-2.9-1ZM412.9,23.6c1,.4,1.9.8,2.9,1.2-.9-.4-1.9-.8-2.9-1.2ZM416,24.9c1,.4,1.9.9,2.8,1.4-.9-.5-1.9-1-2.8-1.4ZM396.1,20.5c-.6,0-1.3,0-1.9,0,.5,0,.9,0,1.4,0s.4,0,.5,0ZM373.9,25.7c-.9.5-1.9,1-2.8,1.6.9-.6,1.8-1.1,2.8-1.6ZM392.6,20.6c-.6,0-1.2,0-1.8.2.6,0,1.2-.1,1.8-.2ZM389.3,20.9c-.6,0-1.2.2-1.8.3.6,0,1.2-.2,1.8-.3ZM386.1,21.4c-.6.1-1.2.3-1.8.4.6-.1,1.2-.3,1.8-.4ZM382.9,22.2c-.6.2-1.2.4-1.8.5.6-.2,1.2-.4,1.8-.5ZM379.8,23.1c-.6.2-1.2.5-1.8.7.6-.2,1.2-.5,1.8-.7ZM376.8,24.3c-.7.3-1.3.6-1.9.9.6-.3,1.3-.6,1.9-.9ZM343.7,151.8c.6-.3,1.3-.5,1.9-.8-.7.2-1.3.5-1.9.8-.7.4-1.5.8-2.1,1.2.7-.4,1.4-.9,2.1-1.2ZM338.7,155.3c-.6.6-1.1,1.2-1.6,1.9.5-.7,1-1.3,1.6-1.9ZM336.4,158.2c-.4.7-.8,1.4-1.2,2.2.3-.8.7-1.5,1.2-2.2ZM333.7,165.7c0,.7-.1,1.3-.1,2,0-.7,0-1.4.1-2ZM455.1,246c1.2-1.2,2.2-2.6,3-4-.8,1.5-1.8,2.9-3,4Z"/>
  <g id="icpc">
    <g id="ICPC-illustration-only">
      <path id="Fill-52" class="st2" d="M442.8,149.9h-35c15.4,11.5,24.1,23.5,25.9,35.6,1.4,9.7-1.6,19.4-9,29l-.3.4c-13.4,17.1-40.8,30-52,34.8-1.3.4-2.5.8-3.8,1.1h74.1c9.6,0,17.4-7.9,17.4-17.5v-65.9c0-9.7-7.8-17.5-17.4-17.5"/>
      <path id="Fill-53" class="st2" d="M351.1,149.9c-9.6,0-17.4,7.9-17.4,17.5v65.9c0,9.7,7.8,17.5,17.4,17.5h.3l2-.7c44.7-14.8,73.5-37.2,74.9-58.6,1.5-21.5-25.2-39.1-28.2-41.1l-.8-.6h-48.1Z"/>
      <path id="Fill-54" class="st2" d="M428.2,191.7c-1.4,21.3-30.1,43.8-74.9,58.6l-2,.7h-.3c-9.6,0-17.4-7.9-17.4-17.5v-65.9c0-9.7,7.8-17.5,17.4-17.5h48.1l.8.6c3,1.9,29.7,19.6,28.2,41.1"/>
      <path id="Fill-55" class="st2" d="M401.5,111.6c-.5.2-.9.3-1,.4l-1.4.5-.7.3h0s-2.4,1-2.4,1l3.7,1.7,5.8,11.6h-19.8l5.7-13.3-2.1-1.2c-17.3-10.3-27.5-24.6-30.4-42.6-.5-3.1-.7-6.1-.7-9,0-13.4,5.3-23.9,15.3-30.4,13.2-8.5,32.5-8.2,46,.7,9.9,6.5,15.1,16.3,15.1,28.3s-.2,5-.7,7.6c-5.3,31.4-27.8,42.5-32.3,44.4M425.7,112.2c.6.4,1.3,1.1,1.2,3,0,1.3-.5,2.2-1.3,2.7-1.9,1.1-6.7,1.4-18.8-3.8,7.4-2.5,15.8-4.1,19-1.9M362.8,118c-.5-.3-1.1-.8-.1-2.3,2.8-4.6,12.3-2.9,20.1.2-5.9,4-16.9,4.3-20,2.1M437.9,67.8c.5-2.8.7-5.6.7-8.4,0-13.4-5.8-24.4-16.9-31.7-14.8-9.8-36.1-10.1-50.5-.7-11.2,7.2-17.2,18.9-17.2,33.8s.3,6.4.8,9.7c2.5,15.9,10.5,29.2,23.6,39.5-6.7-1.8-15.4-2.7-19.2,3.4-1.9,3-1.4,5.9,1.2,7.8,4.9,3.5,16.7,2.6,23.8-1.5l-4.9,11.4h32.8l-6.6-13.1c7.9,3.3,17.1,6.3,22.1,3.3,2-1.2,3.1-3.2,3.3-6,.2-3.7-1.5-5.6-2.9-6.6-2.5-1.8-6.6-2.2-12.2-1.3.6-.5,1.1-.9,1.7-1.4,7.4-6.6,17-18.6,20.3-38.2"/>
      <path id="Fill-56" class="st2" d="M406.1,149.1l-.3-.2s0,0-.1,0c-1.2-.7-10-6.2-11.9-17.6h-4.5c.2,2.4,1.6,11.2,9.1,17.6.1,0,.2.2.4.3h.8c0,0,.4.4.4.4h6s-.6-.4-.6-.4h.7Z"/>
      <path id="Fill-57" class="st2" d="M399.4,149.1h-.6c.2.1.3.3.5.4h.7s-.4-.3-.4-.3h-.1Z"/>
      <polygon id="Fill-58" class="st2" points="406.1 149.1 405.4 149.1 405.9 149.5 406.7 149.5 406.1 149.1"/>
      <path id="Fill-59" class="st3" d="M236.8,157.6l18.8,5.3-16.8,6.9,13.2,3.7-9.2,7.5v20.2h7.7l2.7-18.9.4-.2c20-8.4,21.4-27.6,21.5-31.4v-.7h-30.4l-.6.7-7.3,7Z"/>
      <path id="Fill-60" class="st3" d="M225.9,170.6l16.3-6.7-14-4.3,9.8-9,.7-.7h-32.5v.7c.2,4,.9,24,21,31.6h.4c0,.1,0,.5,0,.5l2.3,18.3h8.5v-22.1l4.5-3.7-17-4.6Z"/>
      <polygon id="Fill-61" class="st3" points="238.5 109.8 242.6 109.8 242.6 74.3 238.5 74.3 238.5 109.8"/>
      <polygon id="Fill-62" class="st3" points="204 132.5 175.1 118 173.2 121.7 202.1 136.2 204 132.5"/>
      <polygon id="Fill-63" class="st3" points="214 120.5 188.1 97.5 185.3 100.6 211.3 123.6 214 120.5"/>
      <polygon id="Fill-64" class="st3" points="223 114.1 226.8 112.4 213.4 81.3 213.1 80.7 209.3 82.3 222.7 113.5 223 114.1"/>
      <polygon id="Fill-65" class="st3" points="277.1 132.5 279 136.2 307.9 121.7 306.1 118 277.1 132.5"/>
      <polygon id="Fill-66" class="st3" points="269.8 123.6 295.8 100.6 293.1 97.5 267.1 120.5 269.8 123.6"/>
      <polygon id="Fill-67" class="st3" points="271.8 82.3 268 80.7 254.3 112.4 258.1 114.1 271.8 82.3"/>
      <path id="Fill-68" class="st3" d="M254.8,230.9h-28.4v-4.2h28.4v4.2ZM245.9,238.9h-11.2v-4.2h11.2v4.2ZM226.3,218.7h28.4v4.2h-28.4v-4.2ZM226.3,210.6h28.4v4.2h-28.4v-4.2ZM304.1,233.6v-66c0-9.7-7.8-17.6-17.5-17.6h-6.3v.7c-.5,14.2-6.7,23-11.8,27.9-4.9,4.7-9.8,6.8-10.9,7l-2.9,20.3h-28.6l-2.5-20.2c-21.5-8.3-22.3-30.9-22.6-35.3v-.4s-6.3,0-6.3,0c-9.6,0-17.5,7.9-17.5,17.6v66c0,8.8,6.5,16.1,15,17.3h97c8.5-1.2,15-8.5,15-17.3h0Z"/>
      <path id="Fill-69" class="st0" d="M51.5,233.8c-8.1-3.4-12.3-7.4-12.5-11.9-.3-7,9-12.8,12.4-14.6-1.8-4.1-2.1-7.8-.8-11.2,2.5-6.2,9.4-8.7,9.6-8.8,3.4-1.6,6.8-2.4,9.8-2.4s4.1.4,6,1.2c5.1,2.1,7.9,6.4,9,8.6,3.3-2.2,6.4-3.3,9.2-3.3s2,.2,2.9.4c3.1,1,4.8,3.4,5.7,5.1,4.9-4.4,10.8-6.6,17.4-6.6,12.3,0,23.9,7.8,27.1,10.2h0c0,0,0-32.9,0-32.9,0-9.7-7.8-17.5-17.5-17.5H38c-9.6,0-17.5,7.9-17.5,17.5v65.9c0,9.7,7.8,17.5,17.5,17.5h10.3v-.2c-2.4-6.6,1.6-14.1,3.3-16.8"/>
      <path id="Fill-70" class="st0" d="M93.7,281.6c-4.1,0-7.4-2.5-7.4-5.5s3.3-5.5,7.4-5.5,7.4,2.5,7.4,5.5-3.3,5.5-7.4,5.5M93.7,267.1c-6,0-10.8,4-10.8,9s4.9,9,10.8,9,10.8-4,10.8-9-4.9-9-10.8-9"/>
      <path id="Fill-71" class="st0" d="M72.3,287.6c-2.7.3-5.7-.6-5.9-3.3-.3-2.5,2-4.7,5.1-5.1,3.1-.3,5.7,1.5,6,3.9.3,2.7-2.5,4.2-5.1,4.4M71.1,276.1c-4.8.5-8.4,4.3-8,8.5.4,4,4.4,6.6,9.5,6.1,5.1-.5,8.5-3.8,8-7.9-.4-4.2-4.7-7.2-9.5-6.7"/>
      <path id="Fill-72" class="st0" d="M147.4,206.4l-.4-.3c-9.4-7.5-18.2-11.3-26-11.3s-2.8.1-4.2.4c-9.7,1.8-14.4,9.5-14.5,9.6l-1.6,2.6-.5-3c-1.2-7.9-5.2-8.4-5.2-8.4-.3,0-.6,0-.9,0-4.3,0-10,5.7-10.1,5.8l-1.3,1.4-.5-1.8c-3-11.3-10.6-11.5-10.9-11.5-10.3.8-14.3,5.5-14.4,5.6-5.1,5.8.4,12,1,12.7l1.1,1.1-1.4.6c-14.5,6.3-13.6,11.6-13.6,11.7.5,3.8,8.9,7.7,14.1,9.2l1.5.4-.9,1.2c-8.3,11.3-5.8,16.9-5.2,17.9l.2.5h76.4c9.6,0,17.5-7.9,17.5-17.6v-.9c0,0-.5-.2-.5-.2l.5-.4v-25.2Z"/>
      <path id="Fill-73" class="st0" d="M148.6,201.6c0,0-.2-.1-.3-.2v.6l-.4-.3v4.5c.2.1.4.3.7.5,2.1,1.5,6.6,5.3,7.2,10.7.4,4.5-2,9-7.2,13.6,0,0-.1.1-.2.2l-.5.4-.3.3h.3c0,.1.7.4.7.4h0c0,0,7.6,3.2,4,14.3,0,.2-5.2,17.2-26,17.2h-.2c-.1,0-12.8.7-29.7-8.9l-.5-.3-.4.4c0,0-8.3,8.5-17.6,8.3-.1,0-8.3.6-13.6-10.1l-.3-.5-.6.2c0,0-6.2,2.1-9.5-1-.2-.2-.4-.4-.6-.7h-.9s-3.2,0-3.2,0h0s-.3,0-.3,0l.2.4h-.5c0,0,0,.2.1.3.7,1.6,3.6,6.9,13,5.7,1.2,1.9,6.6,9.8,16.1,9.8h0c.3,0,8.4.7,18.6-7.6,2.6,1.3,16.4,8.2,28.4,8.2s2.2,0,3.3-.2c.3,0,19.3.1,27.4-18.3,0-.1,5-10.2-2.1-18,1.7-1.6,6.6-7,6.2-14-.3-5.8-4.2-11.1-11.5-16"/>
      <path id="Fill-74" class="st0" d="M49.3,251.2h-.4v.2s0,.1.1.2h.5l-.2-.4Z"/>
      <path id="Fill-75" class="st0" d="M147.9,201.1v.6l.4.3v-.6s0,0,0,0l-.4-.2Z"/>
      <path id="Fill-76" class="st0" d="M35.5,294.1c-2.8,0-2.8-1.2-2.8-1.8s0-1.8,2.8-1.8,3.5,0,3.5,1.8-3.2,1.8-3.5,1.8M35.5,287.7c-5.1,0-5.6,3.2-5.6,4.6s.5,4.6,5.6,4.6,6.3-1.8,6.3-4.6-2.5-4.6-6.3-4.6"/>
      <path id="Fill-77" class="st0" d="M52.5,291.4c-2.1,0-4.7-.5-4.7-2.7s2.6-2.7,4.7-2.7,4.7.5,4.7,2.7-2.6,2.7-4.7,2.7M52.5,282.8c-4.8,0-7.7,2.2-7.7,5.8s2.9,5.8,7.7,5.8,7.7-2.2,7.7-5.8-3-5.8-7.7-5.8"/>
    </g>
  </g>
</svg>