<svg width="400" height="400" viewBox="0 0 400 400" fill="none" xmlns="http://www.w3.org/2000/svg">
<g id="inter">
<rect width="100" height="100" transform="scale(4)" fill="#10C248"/>
<g id="Vector">
<path d="M52.0386 289.063L110.894 121.388H155.457L214.312 289.063H175.938L149.605 207.476C146.379 196.748 143.041 185.719 139.59 174.391C136.214 162.987 132.538 150.046 128.561 135.567H138.127C134.001 150.046 130.212 162.987 126.761 174.391C123.385 185.719 120.009 196.748 116.633 207.476L89.3997 289.063H52.0386ZM89.3997 252.489V224.806H177.063V252.489H89.3997Z" fill="black"/>
<path d="M272.84 337.677C261.587 337.677 252.022 336.064 244.144 332.838C236.342 329.687 230.19 325.223 225.689 319.447C221.263 313.67 218.487 306.918 217.361 299.191H249.321C250.146 302.191 251.609 304.742 253.71 306.843C255.885 308.943 258.586 310.519 261.812 311.569C265.038 312.695 268.714 313.257 272.84 313.257C280.943 313.257 287.17 311.044 291.521 306.618C295.947 302.191 298.16 295.702 298.16 287.149V268.919H298.048C295.722 273.57 292.796 277.397 289.27 280.397C285.819 283.398 281.843 285.612 277.342 287.037C272.915 288.462 268.114 289.175 262.937 289.175C252.584 289.175 243.544 286.587 235.817 281.41C228.09 276.234 222.088 269.107 217.812 260.029C213.61 250.951 211.51 240.523 211.51 228.745C211.51 216.816 213.648 206.275 217.924 197.123C222.275 187.895 228.277 180.693 235.929 175.516C243.657 170.34 252.584 167.751 262.712 167.751C267.889 167.751 272.653 168.464 277.004 169.89C281.43 171.315 285.407 173.491 288.933 176.416C292.534 179.342 295.572 183.018 298.048 187.445H298.16V170.227H330.908V284.449C330.908 296.977 328.47 307.143 323.593 314.945C318.717 322.823 311.89 328.562 303.112 332.163C294.409 335.839 284.319 337.677 272.84 337.677ZM271.49 262.617C277.117 262.617 281.993 261.229 286.119 258.453C290.321 255.603 293.584 251.589 295.91 246.412C298.236 241.236 299.398 235.196 299.398 228.294C299.398 221.392 298.236 215.391 295.91 210.289C293.584 205.113 290.321 201.136 286.119 198.361C281.993 195.51 277.117 194.084 271.49 194.084C266.163 194.084 261.512 195.435 257.536 198.135C253.56 200.761 250.446 204.625 248.196 209.726C246.02 214.828 244.932 221.017 244.932 228.294C244.932 235.572 246.02 241.761 248.196 246.862C250.446 251.964 253.56 255.865 257.536 258.566C261.512 261.267 266.163 262.617 271.49 262.617Z" fill="black"/>
<path d="M61.1036 57.4052L59.9821 56.276L61.7597 54.506C61.9479 54.3178 62.159 54.122 62.393 53.9185C62.6269 53.71 62.866 53.504 63.1101 53.3005C63.3594 53.0971 63.5984 52.9038 63.8273 52.7207C64.0562 52.5325 64.2622 52.3672 64.4453 52.2248L64.3919 52.6368C64.1884 52.6724 63.9595 52.708 63.7052 52.7436C63.4509 52.7792 63.1915 52.8097 62.927 52.8351C62.6625 52.8606 62.4082 52.8733 62.1641 52.8733H55.0382V51.2406H62.1641C62.4082 51.2406 62.6625 51.2533 62.927 51.2787C63.1915 51.3042 63.4509 51.3347 63.7052 51.3703C63.9595 51.4059 64.1884 51.4415 64.3919 51.4771L64.4453 51.8967C64.2011 51.7035 63.9188 51.4797 63.5984 51.2253C63.2831 50.9659 62.9626 50.6989 62.6371 50.4243C62.3167 50.1445 62.0242 49.8749 61.7597 49.6155L59.9821 47.8379L61.1036 46.7087L66.4518 52.0569L61.1036 57.4052Z" fill="black"/>
<path d="M118.73 45.6635V57.0313H116.701V45.6635H118.73Z" fill="black"/>
<path d="M122.211 52.179V57.0313H120.243V48.6619H122.127L122.15 50.7447H121.921C122.161 50.0174 122.514 49.468 122.982 49.0967C123.45 48.7204 124.032 48.5322 124.729 48.5322C125.309 48.5322 125.815 48.6568 126.247 48.906C126.685 49.1552 127.023 49.5189 127.262 49.997C127.506 50.47 127.628 51.0499 127.628 51.7365V57.0313H125.668V52.0417C125.668 51.4619 125.52 51.0143 125.225 50.6989C124.935 50.3785 124.531 50.2183 124.012 50.2183C123.666 50.2183 123.356 50.2946 123.081 50.4471C122.812 50.5946 122.598 50.8134 122.44 51.1033C122.288 51.3932 122.211 51.7518 122.211 52.179Z" fill="black"/>
<path d="M133.101 48.6619V50.2106H128.211V48.6619H133.101ZM129.485 46.5714H131.453V54.6586C131.453 54.9587 131.517 55.1774 131.644 55.3147C131.771 55.4469 131.987 55.5131 132.292 55.5131C132.394 55.5131 132.521 55.5054 132.674 55.4902C132.826 55.4749 132.951 55.4597 133.048 55.4444L133.254 56.9855C133.065 57.0313 132.859 57.0618 132.636 57.0771C132.412 57.0974 132.193 57.1076 131.979 57.1076C131.166 57.1076 130.545 56.9169 130.118 56.5354C129.696 56.1539 129.485 55.597 129.485 54.8646V46.5714Z" fill="black"/>
<path d="M137.574 57.2068C136.735 57.2068 136.01 57.0288 135.4 56.6727C134.79 56.3116 134.319 55.8055 133.988 55.1545C133.663 54.5034 133.5 53.7456 133.5 52.8809C133.5 52.0264 133.663 51.2711 133.988 50.615C134.319 49.9589 134.782 49.4477 135.377 49.0815C135.972 48.7102 136.666 48.5245 137.46 48.5245C137.999 48.5245 138.502 48.6161 138.97 48.7992C139.443 48.9772 139.858 49.2468 140.214 49.6079C140.57 49.9639 140.847 50.409 141.046 50.9431C141.249 51.472 141.351 52.09 141.351 52.797V53.3845H134.378V52.0417H140.367L139.466 52.4232C139.466 51.9501 139.387 51.5381 139.23 51.1872C139.077 50.8362 138.853 50.5641 138.558 50.3708C138.263 50.1725 137.902 50.0733 137.475 50.0733C137.053 50.0733 136.689 50.1725 136.384 50.3708C136.079 50.5692 135.845 50.8388 135.682 51.1796C135.524 51.5153 135.446 51.8993 135.446 52.3316V53.2319C135.446 53.7456 135.532 54.1855 135.705 54.5518C135.883 54.9129 136.135 55.1901 136.46 55.3834C136.786 55.5716 137.167 55.6656 137.605 55.6656C137.905 55.6656 138.174 55.6224 138.413 55.5359C138.658 55.4444 138.864 55.3147 139.031 55.1469C139.204 54.979 139.332 54.7781 139.413 54.5441L141.229 54.7959C141.107 55.274 140.878 55.6936 140.542 56.0547C140.206 56.4159 139.784 56.6982 139.276 56.9016C138.772 57.1051 138.205 57.2068 137.574 57.2068Z" fill="black"/>
<path d="M142.376 57.0313V48.6619H144.275V50.058H144.344C144.497 49.5748 144.753 49.2036 145.115 48.9442C145.476 48.6848 145.905 48.5551 146.404 48.5551C146.521 48.5551 146.643 48.5601 146.77 48.5703C146.897 48.5805 147.004 48.5907 147.091 48.6008V50.3861C147.014 50.3658 146.885 50.348 146.701 50.3327C146.523 50.3124 146.345 50.3022 146.167 50.3022C145.822 50.3022 145.509 50.3785 145.229 50.5311C144.954 50.6786 144.738 50.8922 144.58 51.1719C144.423 51.4517 144.344 51.7823 144.344 52.1638V57.0313H142.376Z" fill="black"/>
<path d="M220.854 47.3878V45.6635H229.918V47.3878H226.408V57.0313H224.371V47.3878H220.854Z" fill="black"/>
<path d="M229.667 60.1212L229.979 58.5724L230.452 58.6106C230.712 58.6615 230.938 58.664 231.131 58.6182C231.33 58.5775 231.495 58.4784 231.627 58.3207C231.765 58.1681 231.866 57.9468 231.932 57.6569L232.116 57.0389L228.934 48.6619H231.025L232.558 53.1479C232.731 53.6617 232.878 54.1754 233.001 54.6891C233.128 55.2028 233.26 55.7241 233.397 56.2531H232.871C233.008 55.7241 233.146 55.2028 233.283 54.6891C233.42 54.1703 233.578 53.6566 233.756 53.1479L235.32 48.6619H237.387L233.748 58.2062C233.58 58.6487 233.369 59.0226 233.115 59.3278C232.866 59.6329 232.566 59.8644 232.215 60.022C231.864 60.1797 231.449 60.2585 230.971 60.2585C230.717 60.2585 230.475 60.2458 230.246 60.2204C230.017 60.195 229.824 60.1619 229.667 60.1212Z" fill="black"/>
<path d="M237.991 60.2204V48.6619H239.921V49.9741H240.013C240.135 49.7452 240.3 49.5214 240.508 49.3027C240.717 49.0789 240.979 48.8958 241.294 48.7534C241.615 48.6059 242.001 48.5322 242.454 48.5322C243.125 48.5322 243.723 48.7026 244.247 49.0433C244.776 49.3841 245.193 49.8775 245.498 50.5234C245.803 51.1694 245.956 51.9476 245.956 52.858C245.956 53.7583 245.806 54.5314 245.506 55.1774C245.206 55.8233 244.791 56.3218 244.262 56.6727C243.738 57.0186 243.133 57.1915 242.446 57.1915C242.004 57.1915 241.625 57.1203 241.31 56.9779C240.994 56.8304 240.732 56.6448 240.524 56.421C240.315 56.1972 240.147 55.9657 240.02 55.7267H239.959V60.2204H237.991ZM241.935 55.5665C242.368 55.5665 242.731 55.452 243.026 55.2231C243.326 54.9943 243.555 54.6764 243.713 54.2695C243.871 53.8626 243.949 53.3895 243.949 52.8504C243.949 52.3113 243.871 51.8408 243.713 51.439C243.56 51.0321 243.334 50.7167 243.034 50.4929C242.734 50.2691 242.368 50.1572 241.935 50.1572C241.508 50.1572 241.142 50.2691 240.837 50.4929C240.531 50.7116 240.297 51.0244 240.135 51.4313C239.977 51.8332 239.898 52.3062 239.898 52.8504C239.898 53.3895 239.977 53.8651 240.135 54.2771C240.297 54.684 240.531 55.0019 240.837 55.2308C241.142 55.4546 241.508 55.5665 241.935 55.5665Z" fill="black"/>
<path d="M250.633 57.2068C249.794 57.2068 249.069 57.0288 248.459 56.6727C247.849 56.3116 247.378 55.8055 247.047 55.1545C246.722 54.5034 246.559 53.7456 246.559 52.8809C246.559 52.0264 246.722 51.2711 247.047 50.615C247.378 49.9589 247.841 49.4477 248.436 49.0815C249.031 48.7102 249.725 48.5245 250.519 48.5245C251.058 48.5245 251.562 48.6161 252.029 48.7992C252.503 48.9772 252.917 49.2468 253.273 49.6079C253.629 49.9639 253.906 50.409 254.105 50.9431C254.308 51.472 254.41 52.09 254.41 52.797V53.3845H247.437V52.0417H253.426L252.525 52.4232C252.525 51.9501 252.447 51.5381 252.289 51.1872C252.136 50.8362 251.913 50.5641 251.618 50.3708C251.322 50.1725 250.961 50.0733 250.534 50.0733C250.112 50.0733 249.748 50.1725 249.443 50.3708C249.138 50.5692 248.904 50.8388 248.741 51.1796C248.584 51.5153 248.505 51.8993 248.505 52.3316V53.2319C248.505 53.7456 248.591 54.1855 248.764 54.5518C248.942 54.9129 249.194 55.1901 249.519 55.3834C249.845 55.5716 250.226 55.6656 250.664 55.6656C250.964 55.6656 251.233 55.6224 251.473 55.5359C251.717 55.4444 251.923 55.3147 252.091 55.1469C252.263 54.979 252.391 54.7781 252.472 54.5441L254.288 54.7959C254.166 55.274 253.937 55.6936 253.601 56.0547C253.265 56.4159 252.843 56.6982 252.335 56.9016C251.831 57.1051 251.264 57.2068 250.633 57.2068Z" fill="black"/>
<path d="M259.782 48.6619V50.2106H254.517V48.6619H259.782ZM256.043 57.0313V47.7234C256.043 47.1894 256.153 46.7443 256.371 46.3883C256.595 46.0323 256.9 45.7627 257.287 45.5796C257.678 45.3965 258.126 45.3049 258.63 45.3049C258.94 45.3049 259.22 45.3253 259.469 45.366C259.723 45.4016 259.906 45.4346 260.018 45.4651L259.751 47.0063C259.67 46.991 259.56 46.9758 259.423 46.9605C259.286 46.9402 259.143 46.93 258.996 46.93C258.64 46.93 258.385 47.0139 258.233 47.1818C258.08 47.3496 258.004 47.5988 258.004 47.9294V57.0313H256.043Z" fill="black"/>
<path d="M262.727 57.1915C262.188 57.1915 261.705 57.0974 261.278 56.9092C260.85 56.716 260.512 56.4337 260.263 56.0624C260.014 55.686 259.889 55.2231 259.889 54.6738C259.889 54.1957 259.978 53.8041 260.156 53.4989C260.334 53.1886 260.576 52.942 260.881 52.7589C261.186 52.5707 261.532 52.4308 261.918 52.3392C262.305 52.2426 262.704 52.1714 263.116 52.1256C263.615 52.0697 264.014 52.0213 264.314 51.9807C264.619 51.94 264.84 51.8764 264.978 51.7899C265.12 51.6984 265.191 51.5585 265.191 51.3703V51.3245C265.191 51.06 265.133 50.8337 265.016 50.6455C264.904 50.4573 264.736 50.3124 264.512 50.2106C264.294 50.1038 264.024 50.0504 263.704 50.0504C263.383 50.0504 263.101 50.1013 262.857 50.203C262.618 50.3047 262.424 50.4395 262.277 50.6074C262.129 50.7752 262.028 50.9583 261.972 51.1567L260.133 50.9049C260.255 50.3912 260.482 49.9589 260.812 49.6079C261.143 49.257 261.555 48.9899 262.048 48.8068C262.547 48.6237 263.101 48.5322 263.711 48.5322C264.154 48.5322 264.581 48.5856 264.993 48.6924C265.405 48.7992 265.771 48.967 266.092 49.1959C266.417 49.4197 266.674 49.7147 266.862 50.0809C267.05 50.4421 267.145 50.882 267.145 51.4008V57.0313H265.252V55.864H265.184C265.062 56.1082 264.891 56.3319 264.673 56.5354C264.459 56.7338 264.192 56.894 263.872 57.0161C263.551 57.133 263.17 57.1915 262.727 57.1915ZM263.223 55.7343C263.635 55.7343 263.989 55.6555 264.284 55.4978C264.579 55.3401 264.805 55.129 264.963 54.8646C265.12 54.6001 265.199 54.3102 265.199 53.9948V53.0335C265.138 53.0793 265.036 53.1251 264.894 53.1708C264.751 53.2115 264.589 53.2497 264.406 53.2853C264.228 53.3158 264.044 53.3463 263.856 53.3768C263.673 53.4023 263.505 53.4252 263.353 53.4455C263.063 53.4862 262.798 53.5523 262.559 53.6439C262.325 53.7354 262.14 53.8626 262.002 54.0253C261.865 54.1881 261.796 54.3966 261.796 54.6509C261.796 54.8849 261.857 55.0833 261.979 55.246C262.102 55.4037 262.269 55.5258 262.483 55.6122C262.697 55.6936 262.943 55.7343 263.223 55.7343Z" fill="black"/>
<path d="M272.15 57.2068C271.336 57.2068 270.627 57.0262 270.021 56.6651C269.421 56.2989 268.953 55.7903 268.618 55.1392C268.287 54.4882 268.122 53.7329 268.122 52.8733C268.122 52.0086 268.287 51.2508 268.618 50.5997C268.953 49.9436 269.421 49.435 270.021 49.0739C270.627 48.7076 271.336 48.5245 272.15 48.5245C272.638 48.5245 273.088 48.5907 273.5 48.7229C273.912 48.8551 274.279 49.0459 274.599 49.2951C274.925 49.5392 275.192 49.8342 275.4 50.1801C275.609 50.5209 275.751 50.9049 275.827 51.3322L273.958 51.5916C273.912 51.3728 273.839 51.1745 273.737 50.9965C273.635 50.8184 273.508 50.6659 273.355 50.5387C273.203 50.4065 273.027 50.3073 272.829 50.2411C272.631 50.1699 272.412 50.1343 272.173 50.1343C271.725 50.1343 271.349 50.2513 271.044 50.4853C270.739 50.7193 270.507 51.0422 270.35 51.4542C270.197 51.8662 270.121 52.3392 270.121 52.8733C270.121 53.3972 270.197 53.8651 270.35 54.2771C270.507 54.6891 270.739 55.0121 271.044 55.246C271.349 55.48 271.725 55.597 272.173 55.597C272.417 55.597 272.638 55.5639 272.837 55.4978C273.035 55.4266 273.211 55.3249 273.363 55.1926C273.516 55.0604 273.643 54.9027 273.745 54.7196C273.846 54.5314 273.92 54.3229 273.966 54.094L275.835 54.3534C275.764 54.7857 275.624 55.1774 275.415 55.5283C275.207 55.8742 274.94 56.1743 274.614 56.4286C274.294 56.6778 273.925 56.8711 273.508 57.0084C273.091 57.1407 272.638 57.2068 272.15 57.2068Z" fill="black"/>
<path d="M280.482 57.2068C279.643 57.2068 278.918 57.0288 278.308 56.6727C277.697 56.3116 277.227 55.8055 276.896 55.1545C276.571 54.5034 276.408 53.7456 276.408 52.8809C276.408 52.0264 276.571 51.2711 276.896 50.615C277.227 49.9589 277.69 49.4477 278.285 49.0815C278.88 48.7102 279.574 48.5245 280.368 48.5245C280.907 48.5245 281.41 48.6161 281.878 48.7992C282.351 48.9772 282.766 49.2468 283.122 49.6079C283.478 49.9639 283.755 50.409 283.953 50.9431C284.157 51.472 284.259 52.09 284.259 52.797V53.3845H277.285V52.0417H283.274L282.374 52.4232C282.374 51.9501 282.295 51.5381 282.138 51.1872C281.985 50.8362 281.761 50.5641 281.466 50.3708C281.171 50.1725 280.81 50.0733 280.383 50.0733C279.961 50.0733 279.597 50.1725 279.292 50.3708C278.987 50.5692 278.753 50.8388 278.59 51.1796C278.432 51.5153 278.353 51.8993 278.353 52.3316V53.2319C278.353 53.7456 278.44 54.1855 278.613 54.5518C278.791 54.9129 279.043 55.1901 279.368 55.3834C279.694 55.5716 280.075 55.6656 280.512 55.6656C280.813 55.6656 281.082 55.6224 281.321 55.5359C281.565 55.4444 281.771 55.3147 281.939 55.1469C282.112 54.979 282.239 54.7781 282.321 54.5441L284.136 54.7959C284.014 55.274 283.785 55.6936 283.45 56.0547C283.114 56.4159 282.692 56.6982 282.183 56.9016C281.68 57.1051 281.113 57.2068 280.482 57.2068Z" fill="black"/>
<path d="M291.584 57.2068C290.933 57.2068 290.353 57.1101 289.844 56.9169C289.336 56.7236 288.921 56.4413 288.601 56.07C288.28 55.6936 288.08 55.2384 287.998 54.7043L289.867 54.4755C289.959 54.8824 290.15 55.1926 290.44 55.4062C290.735 55.6148 291.121 55.7191 291.599 55.7191C292.082 55.7191 292.464 55.6224 292.744 55.4291C293.023 55.2359 293.163 54.9968 293.163 54.712C293.163 54.4678 293.067 54.2669 292.873 54.1093C292.685 53.9516 292.403 53.8346 292.026 53.7583L290.6 53.4531C289.806 53.2802 289.211 52.9979 288.814 52.6063C288.418 52.2095 288.219 51.7009 288.219 51.0804C288.219 50.5667 288.359 50.1191 288.639 49.7376C288.924 49.3561 289.318 49.0611 289.822 48.8526C290.33 48.639 290.92 48.5322 291.592 48.5322C292.243 48.5322 292.805 48.6288 293.278 48.8221C293.751 49.0154 294.13 49.29 294.414 49.6461C294.704 49.997 294.89 50.4115 294.971 50.8896L293.186 51.1185C293.12 50.8032 292.955 50.5387 292.69 50.3251C292.431 50.1064 292.077 49.997 291.63 49.997C291.208 49.997 290.862 50.0911 290.592 50.2793C290.323 50.4624 290.188 50.6964 290.188 50.9812C290.188 51.2253 290.279 51.4288 290.462 51.5916C290.651 51.7492 290.946 51.8713 291.347 51.9578L292.797 52.2629C293.601 52.4308 294.196 52.7029 294.582 53.0793C294.974 53.4557 295.17 53.9414 295.17 54.5365C295.17 55.0706 295.017 55.5385 294.712 55.9403C294.407 56.3421 293.985 56.6549 293.446 56.8787C292.906 57.0974 292.286 57.2068 291.584 57.2068Z" fill="black"/>
<path d="M296.048 60.1212L296.361 58.5724L296.834 58.6106C297.093 58.6615 297.319 58.664 297.513 58.6182C297.711 58.5775 297.876 58.4784 298.008 58.3207C298.146 58.1681 298.248 57.9468 298.314 57.6569L298.497 57.0389L295.315 48.6619H297.406L298.939 53.1479C299.112 53.6617 299.26 54.1754 299.382 54.6891C299.509 55.2028 299.641 55.7241 299.779 56.2531H299.252C299.389 55.7241 299.527 55.2028 299.664 54.6891C299.801 54.1703 299.959 53.6566 300.137 53.1479L301.701 48.6619H303.769L300.129 58.2062C299.962 58.6487 299.751 59.0226 299.496 59.3278C299.247 59.6329 298.947 59.8644 298.596 60.022C298.245 60.1797 297.83 60.2585 297.352 60.2585C297.098 60.2585 296.856 60.2458 296.628 60.2204C296.399 60.195 296.205 60.1619 296.048 60.1212Z" fill="black"/>
<path d="M307.531 57.2068C306.88 57.2068 306.3 57.1101 305.791 56.9169C305.282 56.7236 304.868 56.4413 304.548 56.07C304.227 55.6936 304.026 55.2384 303.945 54.7043L305.814 54.4755C305.906 54.8824 306.096 55.1926 306.386 55.4062C306.681 55.6148 307.068 55.7191 307.546 55.7191C308.029 55.7191 308.411 55.6224 308.69 55.4291C308.97 55.2359 309.11 54.9968 309.11 54.712C309.11 54.4678 309.013 54.2669 308.82 54.1093C308.632 53.9516 308.349 53.8346 307.973 53.7583L306.546 53.4531C305.753 53.2802 305.158 52.9979 304.761 52.6063C304.364 52.2095 304.166 51.7009 304.166 51.0804C304.166 50.5667 304.306 50.1191 304.586 49.7376C304.87 49.3561 305.265 49.0611 305.768 48.8526C306.277 48.639 306.867 48.5322 307.538 48.5322C308.189 48.5322 308.751 48.6288 309.224 48.8221C309.697 49.0154 310.076 49.29 310.361 49.6461C310.651 49.997 310.837 50.4115 310.918 50.8896L309.133 51.1185C309.067 50.8032 308.901 50.5387 308.637 50.3251C308.377 50.1064 308.024 49.997 307.576 49.997C307.154 49.997 306.808 50.0911 306.539 50.2793C306.269 50.4624 306.134 50.6964 306.134 50.9812C306.134 51.2253 306.226 51.4288 306.409 51.5916C306.597 51.7492 306.892 51.8713 307.294 51.9578L308.744 52.2629C309.547 52.4308 310.142 52.7029 310.529 53.0793C310.921 53.4557 311.116 53.9414 311.116 54.5365C311.116 55.0706 310.964 55.5385 310.659 55.9403C310.353 56.3421 309.931 56.6549 309.392 56.8787C308.853 57.0974 308.232 57.2068 307.531 57.2068Z" fill="black"/>
<path d="M316.16 48.6619V50.2106H311.27V48.6619H316.16ZM312.544 46.5714H314.512V54.6586C314.512 54.9587 314.576 55.1774 314.703 55.3147C314.83 55.4469 315.046 55.5131 315.351 55.5131C315.453 55.5131 315.58 55.5054 315.733 55.4902C315.885 55.4749 316.01 55.4597 316.107 55.4444L316.313 56.9855C316.124 57.0313 315.918 57.0618 315.695 57.0771C315.471 57.0974 315.252 57.1076 315.039 57.1076C314.225 57.1076 313.604 56.9169 313.177 56.5354C312.755 56.1539 312.544 55.597 312.544 54.8646V46.5714Z" fill="black"/>
<path d="M320.555 57.2068C319.716 57.2068 318.991 57.0288 318.381 56.6727C317.77 56.3116 317.3 55.8055 316.969 55.1545C316.644 54.5034 316.481 53.7456 316.481 52.8809C316.481 52.0264 316.644 51.2711 316.969 50.615C317.3 49.9589 317.763 49.4477 318.358 49.0815C318.953 48.7102 319.647 48.5245 320.441 48.5245C320.98 48.5245 321.483 48.6161 321.951 48.7992C322.424 48.9772 322.839 49.2468 323.195 49.6079C323.551 49.9639 323.828 50.409 324.027 50.9431C324.23 51.472 324.332 52.09 324.332 52.797V53.3845H317.358V52.0417H323.348L322.447 52.4232C322.447 51.9501 322.368 51.5381 322.211 51.1872C322.058 50.8362 321.834 50.5641 321.539 50.3708C321.244 50.1725 320.883 50.0733 320.456 50.0733C320.034 50.0733 319.67 50.1725 319.365 50.3708C319.06 50.5692 318.826 50.8388 318.663 51.1796C318.505 51.5153 318.427 51.8993 318.427 52.3316V53.2319C318.427 53.7456 318.513 54.1855 318.686 54.5518C318.864 54.9129 319.116 55.1901 319.441 55.3834C319.767 55.5716 320.148 55.6656 320.586 55.6656C320.886 55.6656 321.155 55.6224 321.394 55.5359C321.639 55.4444 321.845 55.3147 322.012 55.1469C322.185 54.979 322.312 54.7781 322.394 54.5441L324.21 54.7959C324.088 55.274 323.859 55.6936 323.523 56.0547C323.187 56.4159 322.765 56.6982 322.257 56.9016C321.753 57.1051 321.186 57.2068 320.555 57.2068Z" fill="black"/>
<path d="M325.278 57.0313V48.6619H327.14L327.193 50.615H327.048C327.181 50.1318 327.374 49.7376 327.628 49.4324C327.888 49.1222 328.188 48.8933 328.529 48.7458C328.869 48.5932 329.228 48.5169 329.604 48.5169C330.22 48.5169 330.728 48.7051 331.13 49.0815C331.537 49.4579 331.807 49.9894 331.939 50.676H331.702C331.814 50.2081 332.008 49.8139 332.282 49.4935C332.557 49.173 332.885 48.9314 333.266 48.7687C333.653 48.6008 334.067 48.5169 334.51 48.5169C335.019 48.5169 335.476 48.6288 335.883 48.8526C336.295 49.0713 336.618 49.3968 336.852 49.8292C337.091 50.2615 337.211 50.793 337.211 51.4237V57.0313H335.242V51.7213C335.242 51.1923 335.097 50.8057 334.808 50.5616C334.523 50.3124 334.174 50.1877 333.762 50.1877C333.442 50.1877 333.165 50.2564 332.931 50.3937C332.697 50.5311 332.516 50.7218 332.389 50.9659C332.262 51.2101 332.198 51.4924 332.198 51.8128V57.0313H330.291V51.6297C330.291 51.1923 330.154 50.8439 329.879 50.5845C329.609 50.32 329.263 50.1877 328.841 50.1877C328.551 50.1877 328.284 50.2564 328.04 50.3937C327.801 50.526 327.608 50.7218 327.46 50.9812C327.318 51.2406 327.247 51.561 327.247 51.9425V57.0313H325.278Z" fill="black"/>
</g>
</g>
</svg>
