<svg width="100" height="100" viewBox="0 0 100 100" fill="none" xmlns="http://www.w3.org/2000/svg">
<g clip-path="url(#clip0_360_388)">
<circle cx="50" cy="50" r="50" fill="white"/>
<path fill-rule="evenodd" clip-rule="evenodd" d="M50.1677 14.4709C52.6131 14.4709 54.8267 15.4217 56.4869 16.9732C61.3717 14.8646 66.4704 13.2913 71.6939 12.2808C65.0976 8.47301 57.6137 6.47261 49.9974 6.48151C44.7694 6.47824 39.5838 7.42054 34.6911 9.2629C38.4581 11.1235 42.061 13.2993 45.4613 15.767C46.8425 14.944 48.446 14.4709 50.1677 14.4709ZM30.368 35.8139C29.5071 35.5443 28.5895 35.4071 27.6435 35.4071C26.2008 35.4071 24.8433 35.7382 23.6325 36.3248C20.312 32.6351 17.3936 28.5813 14.9387 24.2295C18.2531 19.7296 22.3987 15.9065 27.1516 12.9667C32.1939 14.9972 36.9753 17.6239 41.3936 20.7906C40.8426 22.4324 40.7639 24.196 41.1665 25.8803C37.2494 28.8287 33.6324 32.1559 30.368 35.8139ZM19.1342 41.0077C18.6565 42.1241 18.3821 43.3634 18.3821 44.6642C18.381 46.6845 19.0441 48.6491 20.2694 50.2554C16.567 57.1388 13.9806 64.5663 12.6068 72.2606C8.59022 65.5324 6.47332 57.8408 6.48147 50.0047C6.4759 43.2181 8.06363 36.5249 11.1169 30.464C13.4742 34.2074 16.1571 37.7356 19.1342 41.0077ZM66.4153 54.9762C65.3982 55.8247 64.5769 56.8833 64.0077 58.0793C54.1564 56.6093 44.7532 52.9745 36.4744 47.4362C37.2936 44.8671 36.9352 42.0672 35.4953 39.7873C38.3204 36.6621 41.4304 33.8069 44.785 31.2586C47.4041 33.1341 50.8101 33.5122 53.7767 32.2567C59.4154 38.9438 63.7071 46.6588 66.4153 54.9762ZM76.0171 70.5814C76.3628 75.4418 76.2344 80.3244 75.634 85.16C83.1049 79.7099 88.6492 72.025 91.4653 63.2163C88.0724 64.0385 84.6248 64.6155 81.1491 64.9429C80.3272 67.472 78.4579 69.5259 76.0171 70.5814ZM32.4681 52.5543C41.2976 58.5429 51.3177 62.5512 61.8413 64.3043C50.1307 70.2027 40.1953 79.1038 33.0499 90.0985C27.4129 87.7068 22.3439 84.1526 18.174 79.6682C18.9145 70.5987 21.4875 61.7737 25.7373 53.7274C28.0484 54.211 30.4568 53.7912 32.4681 52.5543ZM79.2099 17.7443C72.3809 18.4122 65.6934 20.1157 59.377 22.7962C59.55 24.513 59.2369 26.2439 58.4736 27.7914C64.7394 35.1401 69.5098 43.6418 72.517 52.8192C76.1788 52.8852 79.459 55.0999 80.889 58.4719C85.0798 58.0462 89.1571 57.242 93.083 56.0878C95.1216 41.7948 89.9219 27.4234 79.2099 17.7443ZM39.4306 92.2176C46.2462 82.2857 55.5918 74.3555 66.5003 69.2474C67.3953 69.984 68.4228 70.5428 69.5275 70.8936C69.6552 72.5397 69.7309 74.2048 69.7309 75.884C69.7309 80.5291 69.2579 85.0654 68.3592 89.4551C62.6096 92.1369 56.3415 93.524 49.9974 93.5184C46.4351 93.5196 42.8862 93.0827 39.4306 92.2176Z" fill="#457B24"/>
</g>
<defs>
<clipPath id="clip0_360_388">
<rect width="100" height="100" fill="white"/>
</clipPath>
</defs>
</svg>
