<svg width="101" height="101" viewBox="0 0 101 101" fill="none" xmlns="http://www.w3.org/2000/svg">
<g clip-path="url(#clip0_46_71)">
<path d="M46.7674 99.8717C33.405 97.8294 21.1363 90.5281 12.3112 80.6934C0.260408 67.2638 -2.89443 48.5726 4.26778 33.0389C8.55458 23.7416 18.4598 13.0055 27.3246 8.048C45.1469 -1.9188 65.5619 -2.01363 78.8897 7.80848C92.9283 18.1545 100.506 35.8997 100.477 58.364C100.459 72.0773 97.5555 80.8512 90.5998 88.2059C84.0396 95.1423 75.7283 99.0957 63.172 100.181C54.7289 100.911 53.224 100.858 46.7674 99.8717Z" fill="#583EB0"/>
<path d="M50.744 21.544C50.36 22.76 50.104 23.912 49.848 24.936C48.632 30.888 47.544 40.104 47.544 48.04C47.544 58.152 49.4 65.32 51.512 71.784L44.152 73.96C42.232 68.2 40.376 58.728 40.376 49.32C40.376 40.936 41.528 31.528 42.232 25.192C42.36 23.912 42.488 22.44 42.424 21.288L50.744 21.544ZM39.288 28.584C51.448 28.584 61.112 28.008 70.904 25.64L70.968 33C62.2 34.6 48.76 35.56 39.096 35.56C35.704 35.56 30.712 35.24 27.704 35.112L27.512 27.752C29.816 28.072 35.384 28.584 39.288 28.584ZM66.936 37.992C66.424 39.144 65.464 42.088 65.016 43.432C61.368 54.952 54.776 63.592 48.696 68.072C44.536 71.144 38.968 73.96 33.4 73.96C28.728 73.96 24.824 71.144 24.824 64.616C24.824 55.592 32.888 46.184 43.064 42.472C47.288 40.936 52.536 39.976 57.336 39.976C69.304 39.976 78.136 46.888 78.136 56.872C78.136 65.96 72.76 74.728 57.08 77.16L52.792 70.376C65.144 69.032 70.2 62.824 70.2 56.488C70.2 51.048 65.528 46.44 56.888 46.44C51.064 46.44 46.456 48.104 43.32 49.512C36.92 52.52 32.376 58.664 32.376 62.952C32.376 65.064 33.208 66.152 35.32 66.152C38.328 66.152 42.616 64.04 46.52 60.392C51.192 56.104 55.544 50.408 58.104 41.576C58.552 40.232 59 37.48 59.064 36.072L66.936 37.992Z" fill="white"/>
<mask id="path-3-outside-1_46_71" maskUnits="userSpaceOnUse" x="66" y="60" width="22" height="29" fill="black">
<rect fill="white" x="66" y="60" width="22" height="29"/>
<path d="M76.9917 85.3257C75.368 85.3257 73.9756 85.0189 72.8145 84.4053C71.6533 83.7917 70.7612 82.9562 70.1382 81.8989C69.5151 80.8416 69.1989 79.6522 69.1895 78.3306H72.8569C72.8664 79.1613 73.0363 79.874 73.3667 80.4688C73.6971 81.054 74.1691 81.5072 74.7827 81.8281C75.3963 82.1396 76.1232 82.2954 76.9634 82.2954C77.7658 82.2954 78.4738 82.1538 79.0874 81.8706C79.7104 81.5874 80.1919 81.1909 80.5317 80.6812C80.881 80.1714 81.0557 79.5814 81.0557 78.9111C81.0557 78.2598 80.8716 77.6934 80.5034 77.2119C80.1353 76.721 79.616 76.3434 78.9458 76.0791C78.285 75.8053 77.5062 75.6685 76.6094 75.6685H74.7686V72.7798H76.6094C77.4023 72.7798 78.0915 72.6571 78.6768 72.4116C79.2715 72.1662 79.734 71.8216 80.0645 71.3779C80.3949 70.9248 80.5601 70.3914 80.5601 69.7778C80.5601 69.1265 80.409 68.5601 80.1069 68.0786C79.8049 67.5877 79.38 67.2101 78.8325 66.9458C78.2944 66.6815 77.6619 66.5493 76.9351 66.5493C76.1893 66.5493 75.5332 66.6956 74.9668 66.9883C74.4098 67.2715 73.9756 67.6774 73.6641 68.2061C73.3525 68.7253 73.1968 69.3483 73.1968 70.0752H69.6284C69.6284 68.8102 69.9352 67.6868 70.5488 66.7051C71.1624 65.7233 72.0168 64.9587 73.1118 64.4111C74.2163 63.8542 75.4954 63.5757 76.9492 63.5757C78.3369 63.5757 79.5688 63.8306 80.645 64.3403C81.7306 64.8501 82.5802 65.5487 83.1938 66.436C83.8075 67.314 84.1143 68.3241 84.1143 69.4663C84.1143 70.6086 83.7555 71.5856 83.0381 72.3975C82.3206 73.2093 81.3719 73.7568 80.1919 74.04V74.0967C81.1548 74.2288 81.9761 74.5309 82.6558 75.0029C83.3449 75.4749 83.8735 76.0602 84.2417 76.7588C84.6099 77.4574 84.7939 78.2267 84.7939 79.0669C84.7939 80.2752 84.4588 81.3561 83.7886 82.3096C83.1183 83.2536 82.1979 83.9946 81.0273 84.5327C79.8568 85.0614 78.5116 85.3257 76.9917 85.3257Z"/>
</mask>
<path d="M76.9917 85.3257C75.368 85.3257 73.9756 85.0189 72.8145 84.4053C71.6533 83.7917 70.7612 82.9562 70.1382 81.8989C69.5151 80.8416 69.1989 79.6522 69.1895 78.3306H72.8569C72.8664 79.1613 73.0363 79.874 73.3667 80.4688C73.6971 81.054 74.1691 81.5072 74.7827 81.8281C75.3963 82.1396 76.1232 82.2954 76.9634 82.2954C77.7658 82.2954 78.4738 82.1538 79.0874 81.8706C79.7104 81.5874 80.1919 81.1909 80.5317 80.6812C80.881 80.1714 81.0557 79.5814 81.0557 78.9111C81.0557 78.2598 80.8716 77.6934 80.5034 77.2119C80.1353 76.721 79.616 76.3434 78.9458 76.0791C78.285 75.8053 77.5062 75.6685 76.6094 75.6685H74.7686V72.7798H76.6094C77.4023 72.7798 78.0915 72.6571 78.6768 72.4116C79.2715 72.1662 79.734 71.8216 80.0645 71.3779C80.3949 70.9248 80.5601 70.3914 80.5601 69.7778C80.5601 69.1265 80.409 68.5601 80.1069 68.0786C79.8049 67.5877 79.38 67.2101 78.8325 66.9458C78.2944 66.6815 77.6619 66.5493 76.9351 66.5493C76.1893 66.5493 75.5332 66.6956 74.9668 66.9883C74.4098 67.2715 73.9756 67.6774 73.6641 68.2061C73.3525 68.7253 73.1968 69.3483 73.1968 70.0752H69.6284C69.6284 68.8102 69.9352 67.6868 70.5488 66.7051C71.1624 65.7233 72.0168 64.9587 73.1118 64.4111C74.2163 63.8542 75.4954 63.5757 76.9492 63.5757C78.3369 63.5757 79.5688 63.8306 80.645 64.3403C81.7306 64.8501 82.5802 65.5487 83.1938 66.436C83.8075 67.314 84.1143 68.3241 84.1143 69.4663C84.1143 70.6086 83.7555 71.5856 83.0381 72.3975C82.3206 73.2093 81.3719 73.7568 80.1919 74.04V74.0967C81.1548 74.2288 81.9761 74.5309 82.6558 75.0029C83.3449 75.4749 83.8735 76.0602 84.2417 76.7588C84.6099 77.4574 84.7939 78.2267 84.7939 79.0669C84.7939 80.2752 84.4588 81.3561 83.7886 82.3096C83.1183 83.2536 82.1979 83.9946 81.0273 84.5327C79.8568 85.0614 78.5116 85.3257 76.9917 85.3257Z" fill="white"/>
<path d="M70.1382 81.8989L67.5536 83.422L70.1382 81.8989ZM69.1895 78.3306V75.3306H66.1679L66.1895 78.352L69.1895 78.3306ZM72.8569 78.3306L75.8567 78.2965L75.823 75.3306H72.8569V78.3306ZM73.3667 80.4688L70.7442 81.9257L70.7492 81.9346L70.7542 81.9435L73.3667 80.4688ZM74.7827 81.8281L73.3922 84.4864L73.4084 84.4949L73.4246 84.5031L74.7827 81.8281ZM79.0874 81.8706L77.846 79.1395L77.8381 79.1431L77.8302 79.1467L79.0874 81.8706ZM80.5317 80.6812L78.0569 78.9855L78.0462 79.0012L78.0356 79.0171L80.5317 80.6812ZM80.5034 77.2119L78.1034 79.0119L78.1118 79.0231L78.1203 79.0343L80.5034 77.2119ZM78.9458 76.0791L77.7976 78.8507L77.8213 78.8605L77.8452 78.8699L78.9458 76.0791ZM74.7686 75.6685H71.7686V78.6685H74.7686V75.6685ZM74.7686 72.7798V69.7798H71.7686V72.7798H74.7686ZM78.6768 72.4116L77.5323 69.6385L77.5244 69.6417L77.5166 69.645L78.6768 72.4116ZM80.0645 71.3779L82.4706 73.1697L82.4796 73.1576L82.4885 73.1454L80.0645 71.3779ZM80.1069 68.0786L77.552 69.6509L77.5588 69.662L77.5657 69.6731L80.1069 68.0786ZM78.8325 66.9458L77.5098 69.6385L77.519 69.643L77.5283 69.6475L78.8325 66.9458ZM74.9668 66.9883L76.3265 69.6624L76.3352 69.658L76.3439 69.6536L74.9668 66.9883ZM73.6641 68.2061L76.2365 69.7495L76.2426 69.7394L76.2487 69.7291L73.6641 68.2061ZM73.1968 70.0752V73.0752H76.1968V70.0752H73.1968ZM69.6284 70.0752H66.6284V73.0752H69.6284V70.0752ZM73.1118 64.4111L74.4535 67.0944L74.4626 67.0898L73.1118 64.4111ZM80.645 64.3403L79.3608 67.0516L79.3699 67.0559L80.645 64.3403ZM83.1938 66.436L80.7263 68.1423L80.7306 68.1485L80.7349 68.1546L83.1938 66.436ZM83.0381 72.3975L80.7901 70.4109L83.0381 72.3975ZM80.1919 74.04L79.4918 71.1229L77.1919 71.6748V74.04H80.1919ZM80.1919 74.0967H77.1919V76.713L79.784 77.0688L80.1919 74.0967ZM82.6558 75.0029L80.9446 77.467L80.9525 77.4726L80.9605 77.478L82.6558 75.0029ZM83.7886 82.3096L86.2348 84.0464L86.2428 84.0348L83.7886 82.3096ZM81.0273 84.5327L82.2621 87.2668L82.2712 87.2627L82.2803 87.2585L81.0273 84.5327ZM76.9917 82.3257C75.7429 82.3257 74.8549 82.0904 74.2161 81.7529L71.4128 87.0577C73.0963 87.9473 74.9931 88.3257 76.9917 88.3257V82.3257ZM74.2161 81.7529C73.5104 81.3799 73.0438 80.9206 72.7228 80.3758L67.5536 83.422C68.4786 84.9918 69.7962 86.2034 71.4128 87.0577L74.2161 81.7529ZM72.7228 80.3758C72.3886 79.8087 72.1953 79.1444 72.1894 78.3091L66.1895 78.352C66.2024 80.16 66.6417 81.8746 67.5536 83.422L72.7228 80.3758ZM69.1895 81.3306H72.8569V75.3306H69.1895V81.3306ZM69.8571 78.3647C69.871 79.5846 70.1239 80.809 70.7442 81.9257L75.9892 79.0118C75.9487 78.939 75.8618 78.738 75.8567 78.2965L69.8571 78.3647ZM70.7542 81.9435C71.3782 83.0489 72.2821 83.9057 73.3922 84.4864L76.1732 79.1698C76.0562 79.1086 76.016 79.0592 75.9792 78.994L70.7542 81.9435ZM73.4246 84.5031C74.542 85.0704 75.754 85.2954 76.9634 85.2954V79.2954C76.4924 79.2954 76.2506 79.2089 76.1408 79.1531L73.4246 84.5031ZM76.9634 85.2954C78.1196 85.2954 79.2699 85.0905 80.3446 84.5945L77.8302 79.1467C77.6777 79.2171 77.412 79.2954 76.9634 79.2954V85.2954ZM80.3288 84.6017C81.4 84.1148 82.3421 83.3739 83.0279 82.3453L78.0356 79.0171C78.0319 79.0226 78.0263 79.0306 78.0086 79.045C77.9893 79.061 77.9414 79.0961 77.846 79.1395L80.3288 84.6017ZM83.0065 82.3768C83.7271 81.3252 84.0557 80.1329 84.0557 78.9111H78.0557C78.0557 78.9835 78.0466 79.0097 78.0481 79.0048C78.0485 79.0034 78.0499 78.9991 78.0526 78.9935C78.0553 78.9879 78.0573 78.985 78.0569 78.9855L83.0065 82.3768ZM84.0557 78.9111C84.0557 77.6535 83.6855 76.4344 82.8865 75.3896L78.1203 79.0343C78.1128 79.0244 78.1021 79.0086 78.091 78.9876C78.0799 78.9666 78.071 78.9451 78.0645 78.9251C78.0505 78.8821 78.0557 78.871 78.0557 78.9111H84.0557ZM82.9034 75.4119C82.1479 74.4045 81.1419 73.7203 80.0464 73.2883L77.8452 78.8699C77.9728 78.9202 78.042 78.9639 78.0734 78.9868C78.1024 79.0078 78.1069 79.0166 78.1034 79.0119L82.9034 75.4119ZM80.094 73.3075C78.9895 72.85 77.8037 72.6685 76.6094 72.6685V78.6685C77.2086 78.6685 77.5804 78.7607 77.7976 78.8507L80.094 73.3075ZM76.6094 72.6685H74.7686V78.6685H76.6094V72.6685ZM77.7686 75.6685V72.7798H71.7686V75.6685H77.7686ZM74.7686 75.7798H76.6094V69.7798H74.7686V75.7798ZM76.6094 75.7798C77.7047 75.7798 78.805 75.611 79.8369 75.1782L77.5166 69.645C77.378 69.7032 77.1 69.7798 76.6094 69.7798V75.7798ZM79.8212 75.1847C80.8346 74.7665 81.7664 74.1153 82.4706 73.1697L77.6583 69.5861C77.6742 69.5648 77.6855 69.5573 77.6776 69.5632C77.6676 69.5707 77.6255 69.6 77.5323 69.6385L79.8212 75.1847ZM82.4885 73.1454C83.2287 72.1303 83.5601 70.9637 83.5601 69.7778H77.5601C77.5601 69.8132 77.5557 69.7981 77.5705 69.7505C77.5861 69.7001 77.6118 69.6496 77.6404 69.6104L82.4885 73.1454ZM83.5601 69.7778C83.5601 68.6467 83.2918 67.51 82.6481 66.4841L77.5657 69.6731C77.56 69.6639 77.5551 69.6546 77.5516 69.6464C77.5481 69.6383 77.5473 69.6347 77.5481 69.6375C77.5494 69.6423 77.5601 69.6845 77.5601 69.7778H83.5601ZM82.6619 66.5063C82.0426 65.4999 81.1708 64.7434 80.1368 64.2441L77.5283 69.6475C77.5499 69.6579 77.5621 69.6655 77.5673 69.6689C77.5723 69.6722 77.5721 69.6725 77.5687 69.6695C77.5652 69.6663 77.5609 69.662 77.5568 69.6572C77.5528 69.6523 77.5512 69.6497 77.552 69.6509L82.6619 66.5063ZM80.1552 64.2531C79.1272 63.7482 78.0245 63.5493 76.9351 63.5493V69.5493C77.2994 69.5493 77.4616 69.6148 77.5098 69.6385L80.1552 64.2531ZM76.9351 63.5493C75.7915 63.5493 74.6487 63.7759 73.5897 64.323L76.3439 69.6536C76.4177 69.6154 76.5871 69.5493 76.9351 69.5493V63.5493ZM73.6071 64.3141C72.5503 64.8514 71.6868 65.6523 71.0794 66.683L76.2487 69.7291C76.2568 69.7153 76.2627 69.7075 76.2656 69.7038C76.2685 69.7001 76.2705 69.6982 76.272 69.6967C76.273 69.6958 76.2863 69.6829 76.3265 69.6624L73.6071 64.3141ZM71.0916 66.6626C70.4489 67.7337 70.1968 68.9141 70.1968 70.0752H76.1968C76.1968 69.9254 76.2128 69.8351 76.224 69.7904C76.2345 69.7485 76.242 69.7404 76.2365 69.7495L71.0916 66.6626ZM73.1968 67.0752H69.6284V73.0752H73.1968V67.0752ZM72.6284 70.0752C72.6284 69.3185 72.8046 68.7563 73.0928 68.2951L68.0048 65.1151C67.0659 66.6174 66.6284 68.3019 66.6284 70.0752H72.6284ZM73.0928 68.2951C73.3968 67.8087 73.8225 67.4099 74.4535 67.0944L71.7702 61.7279C70.211 62.5074 68.9281 63.6379 68.0048 65.1151L73.0928 68.2951ZM74.4626 67.0898C75.0806 66.7782 75.8827 66.5757 76.9492 66.5757V60.5757C75.1082 60.5757 73.352 60.9302 71.761 61.7324L74.4626 67.0898ZM76.9492 66.5757C77.9658 66.5757 78.7472 66.7609 79.3608 67.0515L81.9293 61.6291C80.3905 60.9002 78.708 60.5757 76.9492 60.5757V66.5757ZM79.3699 67.0559C80.0308 67.3662 80.4468 67.7381 80.7263 68.1423L85.6614 64.7298C84.7137 63.3593 83.4305 62.334 81.9201 61.6248L79.3699 67.0559ZM80.7349 68.1546C80.9724 68.4945 81.1143 68.8957 81.1143 69.4663H87.1143C87.1143 67.7524 86.6425 66.1335 85.6528 64.7174L80.7349 68.1546ZM81.1143 69.4663C81.1143 69.9202 80.995 70.179 80.7901 70.4109L85.2861 74.3841C86.516 72.9922 87.1143 71.297 87.1143 69.4663H81.1143ZM80.7901 70.4109C80.529 70.7063 80.1475 70.9655 79.4918 71.1229L80.892 76.9572C82.5964 76.5482 84.1123 75.7123 85.2861 74.3841L80.7901 70.4109ZM77.1919 74.04V74.0967H83.1919V74.04H77.1919ZM79.784 77.0688C80.36 77.1479 80.7156 77.308 80.9446 77.467L84.3669 72.5388C83.2366 71.7538 81.9496 71.3098 80.5998 71.1245L79.784 77.0688ZM80.9605 77.478C81.2713 77.6909 81.4601 77.9153 81.5877 78.1575L86.8957 75.3601C86.287 74.2052 85.4185 73.259 84.351 72.5278L80.9605 77.478ZM81.5877 78.1575C81.7141 78.3973 81.7939 78.6821 81.7939 79.0669H87.7939C87.7939 77.7714 87.5056 76.5174 86.8957 75.3601L81.5877 78.1575ZM81.7939 79.0669C81.7939 79.6819 81.6357 80.1555 81.3343 80.5843L86.2428 84.0348C87.2819 82.5568 87.7939 80.8686 87.7939 79.0669H81.7939ZM81.3424 80.5728C81.0097 81.0414 80.5226 81.463 79.7744 81.8069L82.2803 87.2585C83.8733 86.5263 85.227 85.4657 86.2347 84.0463L81.3424 80.5728ZM79.7926 81.7986C79.0746 82.1228 78.1628 82.3257 76.9917 82.3257V88.3257C78.8603 88.3257 80.6389 87.9999 82.2621 87.2668L79.7926 81.7986Z" fill="#583EB0" mask="url(#path-3-outside-1_46_71)"/>
</g>
<defs>
<clipPath id="clip0_46_71">
<rect width="101" height="101" fill="white"/>
</clipPath>
</defs>
</svg>
