<svg width="111" height="251" viewBox="0 0 111 251" fill="none" xmlns="http://www.w3.org/2000/svg">
<path d="M93.2855 0.257281C91.3707 0.219594 88.8899 2.53123 88.383 3.04876H81.5779C81.0938 2.65085 80.562 2.31493 79.9947 2.04883L74.5228 0.340609C70.3581 -0.951607 65.9703 1.55479 64.9679 5.79858C63.9453 10.1336 62.0371 13.6387 60.3154 17.4922C58.7613 17.4432 57.2972 17.1939 55.7185 17.2287C54.0494 16.034 52.1902 15.9068 50.205 16.1035C49.4187 15.631 48.5527 15.3063 47.6496 15.1452L44.7609 14.9092C42.9172 14.8424 41.1133 15.4554 39.6918 16.6313L39.2891 16.3257C37.5475 15.8685 35.6997 16.0508 34.0811 16.8396C31.48 15.4718 28.912 15.106 26.1094 16.0203L23.3735 15.0896C19.8918 14.1716 16.2477 15.8481 14.6796 19.0894C13.7256 18.8285 9.41485 23.0223 11.5687 28.172C10.4213 29.8953 10.0345 32.0152 10.4993 34.0327L11.0965 36.1576C10.9141 37.0863 10.7523 38.2493 10.6104 38.6018C9.17977 42.1674 10.6644 46.2382 14.0546 48.0456L14.3879 48.2262C16.1811 49.0761 16.5315 49.2341 16.4016 51.1426C16.2965 52.6868 15.8183 54.3237 15.8183 56.5312C15.8183 57.7967 15.77 59.0854 16.7349 61.4891C16.6167 61.4932 15.0197 61.5574 14.2906 62.0585C11.3299 64.4836 10.6606 68.7445 12.7352 71.9606C10.8869 73.6401 9.99198 76.127 10.3465 78.5991C10.5729 79.8662 11.7128 80.4374 12.7213 81.1128C10.5397 83.2489 9.86488 86.4914 11.0131 89.3206C12.0753 91.8729 13.5527 93.6665 16.0405 94.9035C16.0277 95.1006 15.9447 96.5987 15.8322 98.3339C15.7111 100.202 15.5822 102.338 15.5822 104.347C15.5822 105.494 16.52 106.623 16.7626 107.819C13.6523 108.535 11.3314 111.134 10.9714 114.305V130.818C11.7343 132.929 13.3996 134.589 15.5127 135.345C14.9685 135.884 14.5095 136.502 14.1517 137.178V137.567C14.6039 138.509 15.2471 139.346 16.0405 140.026C16.0291 140.188 15.946 141.728 15.8321 143.484C15.711 145.352 15.5821 147.502 15.5821 149.511C15.5821 150.916 16.6405 152.298 17.0265 153.761C14.712 154.96 13.1831 157.272 12.9853 159.872V166.621C12.4797 167.369 12.1128 168.202 11.902 169.079V178.648C12.5254 179.68 13.3875 180.547 14.4157 181.176C13.044 182.175 12.0505 183.609 11.5965 185.245C11.5965 185.684 11.5268 186.944 12.1381 188.925C12.9236 191.529 13.9559 192.512 15.1518 193.578C15.8414 194.192 17.5395 194.488 18.6932 195.008C18.4165 195.305 18.1869 195.399 17.6654 196.175L14.7212 195.231C10.5348 193.88 6.08737 196.392 5.08291 200.675C4.59882 202.752 2.13335 208.213 0.902636 209.744C-0.772559 212.226 1.28307 219.4 1.76374 225.909C1.86059 226.462 2.01895 227.002 2.23596 227.52C1.11754 228.551 0.337961 229.898 0 231.381C0.77533 233.142 2.79148 237.283 2.79148 237.283C4.48043 240.373 8.08643 241.879 11.4715 240.908C12.8009 240.527 13.0963 239.783 13.0963 239.783C14.0948 239.369 14.3989 239.18 15.2906 238.797C16.4465 240.015 17.9766 240.812 19.6376 241.06C21.6988 240.495 23.2666 239.077 25.0955 238.088C25.3133 238.297 26.427 249.006 36.1226 249.006C41.9658 249.006 46.7885 244.047 46.7885 238.298C46.7885 236.677 45.6919 235.483 45.0109 234.09C45.4637 233.086 46.6913 232.427 46.6913 231.576C46.6913 230.978 46.3489 229.45 45.7469 227.952L45.705 226.104C45.1331 225.261 44.3961 224.543 43.5385 223.993C43.5527 223.865 43.6081 223.494 43.6081 223.494V219.423C44.1839 218.49 44.5489 217.443 44.6775 216.354C45.4048 215.348 46.462 214.612 46.6635 213.507C47.0171 211.532 46.5672 209.497 45.4136 207.855C45.5088 207.416 45.5646 206.97 45.5803 206.521C47.46 207.198 49.3263 208.049 51.2743 208.049C54.0428 208.049 55.9584 207.817 58.1905 207.188C58.2368 207.174 58.2832 207.159 58.3294 207.145C59.5185 206.784 61.2848 206.047 62.7458 204.243C64.2067 202.438 64.6206 200.096 64.6206 198.854C64.6206 197.722 63.4423 197.107 62.8708 195.993C63.6637 195.522 64.5152 195.12 65.3011 193.979C66.3869 192.404 66.7177 190.513 66.7177 189.369C66.7177 186.403 65.648 184.906 64.7734 183.716C64.6081 183.491 64.3444 183.365 64.1763 183.161C67.1872 181.207 68.3959 178.017 68.2871 175.356C68.2331 174.038 67.3457 173.189 66.8705 172.092C67.1261 168.944 67.1702 165.987 67.1761 162.968C67.2712 162.791 67.3592 162.61 67.4399 162.426C68.477 162.368 69.6047 161.535 70.7869 160.954C71.1422 161.063 71.4882 161.215 71.8424 161.287C71.6442 164.872 75.1801 168.6 76.1199 169.314C77.6873 170.507 79.8583 171.064 81.3834 171.064C83.4329 171.064 85.9674 170.199 87.6886 168.384C89.4097 166.568 90.0773 164.187 90.0773 162.287C90.0773 161.022 89.4389 158.983 88.508 157.287C89.5516 155.634 90.119 153.914 90.119 152.621C90.119 149.622 88.5451 147.427 87.3136 146.149C88.3352 144.575 89.494 142.718 89.494 141.441C89.494 136.856 85.9567 134.687 84.786 134.095C86.6259 133.487 89.5357 128.646 89.5357 123.359C89.4438 119.006 87.7817 114.825 84.3832 112.179C86.0503 110.07 87.5775 107.755 87.5775 105.249C87.5775 100.938 84.7046 97.3235 81.2307 94.625C81.2819 94.4183 81.346 94.3271 81.3834 94.111C83.069 94.0376 84.5198 93.2523 85.9108 92.3608C87.3863 91.2764 89.355 88.6393 89.355 85.6529C89.355 83.8369 87.9165 82.6622 86.8413 81.2088C87.7075 79.766 88.9662 78.4192 88.9662 77.1674C88.9662 73.5701 86.5072 70.756 84.5359 69.5429C83.5727 68.9471 83.106 69.2186 82.2444 68.918C84.9061 66.8956 86.9686 64.1911 88.1606 61.2935C89.2929 58.4154 88.5491 55.1377 86.2857 53.0301C86.4443 52.3654 87.0496 51.6897 87.0496 51.0997C87.0496 50.3914 86.4498 50.2176 86.2996 49.5859C86.7092 49.4471 86.9473 49.0771 87.2718 48.8221H91.6326C91.8577 49.2031 93.2672 51.4747 94.8824 51.4747C97.1628 51.4747 98.3946 50.9938 99.6321 50.5164C100.251 50.2777 100.812 50.0424 101.521 49.6276C101.875 49.4202 102.257 49.1957 102.868 48.6693C103.173 48.4061 103.54 48.0691 104.021 47.4333C104.261 47.1154 104.54 46.715 104.812 46.1556C105.085 45.5962 105.507 43.9057 105.507 43.9057C105.555 43.5514 105.579 43.194 105.576 42.8364V37.3645C105.601 37.3325 105.635 37.356 105.66 37.3226C107.377 34.9904 107.604 31.8797 106.243 29.3231C106.273 29.2303 106.398 29.1794 106.424 29.087C106.836 27.4846 106.709 25.7909 106.062 24.2679C106.744 23.5046 106.614 22.4519 106.646 21.4764C107.496 20.4685 108.597 19.5776 108.882 18.5322C109.596 15.895 108.826 13.0777 106.868 11.1716C106.294 10.6134 106.163 10.55 105.576 10.0327C105.36 8.42465 104.629 6.92974 103.493 5.7708C101.426 3.70335 98.9518 1.81273 98.9518 1.81273C97.3518 0.547907 95.307 -0.013414 93.2855 0.257281Z" fill="#F9F9F9"/>
<path d="M78.8722 51.7718C79.2785 51.7718 79.5269 51.5009 79.5269 51.0945C79.5269 50.5527 79.2109 50.0334 78.6239 49.5593C78.0143 49.04 77.0661 48.5434 75.7341 48.2047L75.5083 48.5434C76.6371 49.3561 77.3144 50.1463 77.7885 50.7784C78.2174 51.4105 78.4658 51.7718 78.8722 51.7718ZM76.6597 53.7811C77.0887 53.7811 77.3596 53.5101 77.3821 53.0811C77.4049 52.6296 77.1338 52.133 76.592 51.6589C75.9598 51.0493 74.9439 50.4623 73.6796 50.0785L73.4312 50.4171C74.5375 51.3202 75.1245 52.1329 75.5986 52.8328C76.0049 53.4198 76.2984 53.7811 76.6597 53.7811ZM72.3251 64.8209C76.5017 64.8209 79.7301 61.9988 81.1975 58.4317L80.7912 58.1383C79.0754 60.554 75.8921 62.6987 72.5282 62.6987C70.0448 62.6987 69.3224 61.6828 69.3224 59.0413C69.3224 56.287 69.7514 52.9006 70.1577 50.7784C70.3835 49.6722 70.9027 49.4239 70.9027 48.8595C70.9027 48.0693 69.0741 46.6244 67.7872 46.6019C67.3132 46.5791 66.7938 46.7373 66.2069 46.9179V47.3243C66.8842 47.5049 67.2679 47.6629 67.6066 47.9338C67.9904 48.2273 68.1033 48.5659 68.1033 49.5367C68.1033 51.0493 67.6518 55.9709 67.6518 59.2671C67.6518 63.2631 69.345 64.8209 72.3251 64.8209ZM77.5176 86.9908C78.8722 86.9908 79.8429 86.8553 80.5202 86.6973C81.2652 86.5167 81.8297 86.178 81.8297 85.6588C81.8297 84.8686 81.0169 84.5526 80.2945 84.5526C79.7978 84.5526 79.0302 84.9815 77.0209 84.9815C75.2374 84.9815 73.9505 84.5299 73.1378 83.2882C72.7314 82.6335 72.596 81.8885 72.5282 81.3015H72.0993C72.009 81.9788 71.9638 82.8367 72.1896 83.6043C72.596 85.862 74.5375 86.9908 77.5176 86.9908ZM76.163 78.773L76.3888 79.1117C77.1564 78.7956 78.1046 78.3892 78.9399 78.2086C79.5043 78.028 79.9107 77.9828 80.2945 77.9602C81.0621 77.9375 81.4459 77.6893 81.4459 77.1701C81.4459 76.7411 81.1749 76.3122 80.588 75.951C80.1139 75.6801 79.1656 75.364 77.7433 75.364C76.1404 75.364 74.515 75.9058 73.4313 76.538L73.5442 76.9669C74.515 76.7637 75.4406 76.6509 76.2533 76.6509C76.8855 76.6509 77.6305 76.7184 78.1046 76.8992C78.3078 76.9668 78.353 77.0799 78.1949 77.2153C77.9465 77.4862 76.8403 78.3215 76.163 78.773ZM67.1099 75.4543C67.7195 75.4543 68.4645 75.364 69.1644 75.2512C68.9612 76.0187 68.758 76.7637 68.5322 77.3959C67.5389 80.3533 66.4101 82.4755 65.507 83.943C64.9877 84.8009 64.6039 85.0944 64.6039 85.8168C64.6039 86.5392 65.0103 87.1488 65.5522 87.1488C66.2068 87.1488 66.4778 86.7876 66.839 86.1329C67.6969 84.5525 69.0741 80.7371 69.9545 78.0054C70.2932 76.9895 70.6093 75.9058 70.9027 74.8899C72.3476 74.5287 73.8377 74.0094 74.4021 73.7611C75.6889 73.3095 76.0501 72.9935 76.0501 72.4516C76.0501 71.797 75.1922 71.526 74.7181 71.526C74.5375 71.526 74.2441 71.7067 73.8376 71.9324C73.2281 72.2711 72.4379 72.6323 71.422 72.9935L71.6477 72.1356C72.0315 70.8036 72.4154 70.3295 72.4154 69.8328C72.4154 69.2459 71.0382 68.6137 69.9545 68.5911C69.345 68.5684 68.8709 68.6815 68.329 68.8846V69.2909C68.8032 69.4489 69.2547 69.6296 69.6159 69.8328C69.9997 70.0812 70.09 70.2617 70.0448 70.8036C69.9993 71.4132 69.8416 72.4065 69.5933 73.4901C68.7805 73.6708 67.8098 73.8287 66.8616 73.8062C65.8908 73.8062 65.2586 73.4901 64.2427 72.6548L63.9266 72.8806C64.6265 75.0253 65.6425 75.4543 67.1099 75.4543ZM73.0926 103.946C73.9731 103.833 74.3569 103.494 74.3569 102.952C74.3569 102.32 73.9505 102.027 73.2507 101.981C72.7991 101.937 71.9864 101.981 71.0382 101.937C71.3317 100.605 71.738 99.25 72.0767 98.1889C72.5508 98.2117 73.0023 98.2337 73.341 98.2117C73.9279 98.1669 74.2892 97.9633 74.2892 97.4441C74.2892 96.9474 73.928 96.4056 73.0023 96.3153L72.7314 96.2926C73.0475 95.4121 73.2958 94.8477 73.5667 94.3736C73.8151 93.8543 74.1537 93.6285 74.1537 93.1544C74.1537 92.4545 72.7314 91.1677 71.4897 91.1677C70.9479 91.1677 70.5189 91.2806 70.1352 91.3935L70.1124 91.7999C70.4285 91.8902 70.8122 92.0256 71.1283 92.2062C71.5122 92.4095 71.6927 92.6126 71.6927 93.1318C71.6479 93.6511 71.354 94.7348 70.9929 96.1797C70.2253 96.1349 69.4125 95.9991 68.5772 95.6604C67.629 95.3218 67.0646 94.667 66.5453 93.922L66.2293 94.1026C66.455 95.412 66.8614 96.0442 67.5838 96.586C68.1031 96.9698 68.5321 97.1504 69.0739 97.3084C67.5161 98.1663 66.3647 99.4532 66.3647 100.695C66.3647 101.982 67.5161 103.133 69.548 103.675C69.4577 104.352 69.4125 104.984 69.4125 105.504C69.4125 108.281 70.9477 110.177 74.1535 110.177C78.285 110.177 80.0459 107.49 80.0459 105.255C80.0459 102.659 78.443 100.469 74.9437 98.9339L74.6728 99.2726C76.6144 100.763 77.9915 102.207 77.9915 104.691C77.9915 106.723 76.4112 108.484 73.8149 108.484C71.8282 108.484 70.5413 107.535 70.5413 105.391C70.5413 104.939 70.5869 104.442 70.6543 103.901C71.6025 104.036 72.5057 104.036 73.0926 103.946ZM69.7965 101.823C68.0581 101.575 67.2905 101.011 67.2905 100.311C67.2905 99.3174 69.0741 98.2111 70.5189 98.0983C70.2706 99.1593 69.9996 100.514 69.7965 101.823ZM72.6863 131.511L72.8895 131.918C80.001 130.608 82.0103 127.109 82.0103 123.361C82.0103 118.914 78.8045 115.708 73.7699 115.708C71.2414 115.708 68.9612 116.543 67.2003 118.123C65.1458 119.93 64.1299 122.345 64.1299 124.49C64.1299 127.357 65.7554 129.863 67.3809 129.863C69.8191 129.863 71.9639 125.89 72.8669 123.316C73.4313 121.758 73.5442 120.404 73.5442 119.275C73.5442 118.462 73.341 117.559 73.0475 116.791L73.5442 116.769C77.2241 116.769 79.7752 119.184 79.7752 123.316C79.7752 126.905 77.9691 129.728 72.6863 131.511ZM71.9864 116.904C72.0993 117.536 72.1444 118.146 72.1219 118.778C72.0991 119.862 71.8058 121.352 71.2188 122.752C70.519 124.377 68.758 127.47 67.4712 127.47C66.6133 127.47 65.778 125.867 65.778 123.926C65.778 122.029 66.523 120.516 67.8324 119.117C68.9386 117.898 70.4512 117.198 71.9864 116.904ZM67.0422 155.081C67.6292 155.081 67.9453 154.72 67.9453 154.087C67.9453 153.455 67.5841 152.733 67.5841 151.988C67.5841 151.627 67.6744 151.175 67.8775 150.362C68.1259 149.527 68.9386 147.247 69.345 146.05L68.8483 145.825C68.2839 146.931 67.1325 149.595 66.6358 150.385C66.4552 150.701 66.2295 150.678 66.1165 150.362C65.9359 150.001 65.8231 149.414 65.8231 148.511C65.8231 146.253 66.7036 143.973 67.3583 142.596C67.9001 141.445 68.2162 141.016 68.2162 140.451C68.2162 139.345 67.1099 138.126 66.523 137.742C66.0488 137.381 65.7102 137.223 65.0781 137.042L64.8071 137.291C65.4393 138.058 65.9811 138.916 65.9811 139.864C65.9811 140.722 65.7327 141.58 65.4393 142.641C65.1006 143.996 64.4685 146.456 64.4685 148.759C64.4685 151.175 65.0555 153.116 65.7779 154.155C66.1391 154.719 66.5681 155.081 67.0422 155.081ZM74.1763 143.725C74.8988 143.725 75.6664 143.657 76.4114 143.567V143.747C76.4341 145.441 76.5468 147.427 76.6145 148.895C76.2307 148.85 75.8244 148.827 75.3954 148.827C72.9572 148.827 70.9027 149.73 70.9027 151.785C70.9027 153.591 72.5508 154.584 74.4698 154.584C77.2693 154.584 78.4432 153.433 78.4432 151.491V151.13C79.1657 151.536 79.8204 152.078 80.4977 152.71C81.0846 153.275 81.3781 153.591 81.8071 153.591C82.3038 153.591 82.5972 153.23 82.5972 152.62C82.5972 152.146 82.3489 151.694 81.8974 151.243C81.1976 150.566 80.0687 149.685 78.3078 149.211C78.1723 147.744 78.0143 145.892 78.0143 143.793V143.296C79.2108 143.048 80.2267 142.777 80.746 142.574C81.6265 142.212 81.9651 142.032 81.9651 141.445C81.9651 140.858 81.1524 140.542 80.5202 140.519C80.3622 140.519 79.8881 140.835 78.6238 141.287L78.082 141.49C78.1268 140.813 78.1949 140.248 78.2851 139.865C78.4206 138.962 78.6464 138.803 78.6464 138.307C78.6464 137.72 77.3821 137.02 76.2307 137.02C75.5534 137.02 74.8536 137.336 74.3343 137.697L74.4018 138.081C74.9437 138.149 75.4855 138.239 75.937 138.397C76.2757 138.51 76.4337 138.6 76.4337 139.368L76.411 141.919C75.6885 142.077 74.8532 142.167 73.9501 142.167C72.9116 142.167 71.986 141.784 70.9927 141.061L70.7217 141.332C71.828 143.499 72.8218 143.725 74.1763 143.725ZM76.6823 150.407V150.453C76.6823 152.101 76.1856 152.936 73.928 152.936C72.7992 152.936 71.8284 152.553 71.8284 151.65C71.8284 150.656 73.1378 150.114 74.4247 150.114C75.2374 150.114 75.9824 150.204 76.6823 150.407ZM81.3782 163.547C82.078 163.547 82.5521 163.073 82.5521 162.283C82.5521 161.831 82.4618 161.357 82.1006 160.838C81.333 159.664 79.8655 158.603 77.1338 157.971L76.9081 158.287C78.8045 159.777 79.5269 161.267 80.159 162.599C80.4525 163.276 80.8363 163.547 81.3782 163.547Z" fill="url(#paint0_linear_33_61)"/>
<path d="M48.5146 33.5301V36.6005H44.4735V33.6882L44.6541 33.5302L48.5146 33.5301ZM50.411 23.0096C50.095 23.8223 49.7112 24.6577 49.2596 25.5156L47.9728 24.3642L46.9343 25.8316H46.1667V23.2805C46.7537 23.1902 46.9568 22.9644 47.002 22.6484L44.1122 22.4V25.8316H40.6581L40.8387 26.4863H44.1122V29.7598H40.0033L40.1839 30.3919H46.0764C45.4442 31.1821 44.7895 31.9272 44.0671 32.6496L42.5093 32.04V34.1621C41.6514 34.9072 40.7258 35.607 39.7776 36.2391L40.0033 36.5101C40.8838 36.0811 41.7191 35.6071 42.5093 35.0878V43.0572H42.848C43.8413 43.0572 44.4735 42.5831 44.4735 42.4251V41.0028H48.5146V42.7412H48.8307C49.5305 42.7412 50.5239 42.3122 50.5465 42.1542V33.8686C50.9754 33.7783 51.3141 33.5977 51.4496 33.4171L49.3048 31.7691L48.2889 32.8753H45.4443C46.3473 32.0852 47.1826 31.2498 47.9277 30.3919H52.1946C52.488 30.3919 52.7139 30.2791 52.7815 30.0533C52.014 29.3083 50.7497 28.2698 50.7497 28.2698L49.6434 29.7598H48.4695C49.9369 28.0214 51.1109 26.1928 51.9914 24.4995C52.5558 24.5898 52.7815 24.4768 52.9396 24.2512L50.411 23.0096ZM44.4735 37.2552H48.5146V40.3708H44.4735V37.2552ZM46.1667 26.4863H48.7178C48.0856 27.5926 47.3632 28.6762 46.5505 29.7599H46.1666L46.1667 26.4863ZM53.0073 24.0933V43.1928H53.3459C54.4295 43.1928 55.0843 42.6735 55.0843 42.4929V24.7479H58.1546C57.7031 26.6443 56.9355 29.4664 56.4388 31.0015C58.0869 32.6948 58.719 34.5009 58.719 36.1715C58.719 37.0068 58.4933 37.4358 58.1095 37.6615C57.9288 37.7744 57.7934 37.797 57.5451 37.797C57.1612 37.797 56.2356 37.797 55.7164 37.797V38.1356C56.3034 38.2259 56.7549 38.384 56.9581 38.6098C57.1612 38.8807 57.2515 39.6708 57.2515 40.3029C59.8478 40.2126 60.7735 38.971 60.7509 36.7359C60.7509 34.8621 59.7124 32.6722 57.0032 30.9338C58.132 29.4438 59.622 26.825 60.4348 25.3349C60.9766 25.3122 61.2701 25.2446 61.4507 25.0414L59.2383 22.9419L58.0417 24.0933H55.3777L53.0072 22.9644L53.0073 24.0933ZM45.3765 53.2618L45.5571 53.9165H55.4907C55.8067 53.9165 56.0325 53.8036 56.1003 53.5553C55.1972 52.7425 53.7298 51.5911 53.7298 51.5911L52.3978 53.2618H45.3765ZM51.2915 46.2857C52.7815 49.7173 55.9648 52.4716 59.5318 54.21C59.6898 53.4198 60.3446 52.5619 61.2928 52.3136L61.3155 51.975C57.613 50.7333 53.7073 48.7917 51.698 45.9922C52.3302 45.9474 52.6236 45.8116 52.714 45.5407L49.3049 44.7054C48.2439 47.9338 43.9318 52.5168 40.0712 54.7744L40.2067 55.0905C44.6542 53.2618 49.1919 49.6496 51.2915 46.2857ZM55.152 58.0028V63.3082H46.2344V58.0028H55.152ZM43.9993 57.3481V65.7465H44.338C45.2636 65.7465 46.2344 65.2498 46.2344 65.0466V63.9629H55.152V65.5433H55.5358C56.2583 65.5433 57.3871 65.1369 57.4097 64.9789V58.4092C57.8838 58.2963 58.2224 58.0932 58.3804 57.9126L56.0325 56.129L54.9263 57.3481H46.3924L43.9993 56.3548V57.3481ZM50.2756 86.3586L50.4787 86.765C57.5902 85.4556 59.5995 81.9563 59.5995 78.2086C59.5995 73.7611 56.3937 70.5553 51.3592 70.5553C48.8306 70.5553 46.5504 71.3906 44.7895 72.9709C42.735 74.777 41.7191 77.1927 41.7191 79.3374C41.7191 82.2046 43.3446 84.7106 44.9701 84.7106C47.4083 84.7106 49.5531 80.7371 50.4561 78.1634C51.0205 76.6057 51.1334 75.2511 51.1334 74.1223C51.1334 73.3096 50.9303 72.4065 50.6367 71.6389L51.1334 71.6162C54.8133 71.6162 57.3645 74.0318 57.3645 78.1633C57.3645 81.7529 55.5584 84.5751 50.2756 86.3586ZM49.5757 71.7518C49.6886 72.3839 49.7337 72.9935 49.7112 73.6256C49.6884 74.7093 49.3951 76.1993 48.8081 77.5991C48.1083 79.2246 46.3473 82.3175 45.0605 82.3175C44.2026 82.3175 43.3672 80.7145 43.3672 78.773C43.3672 76.8766 44.1123 75.364 45.4217 73.9643C46.5279 72.7452 48.0405 72.0453 49.5757 71.7518ZM47.002 108.212C48.1534 108.732 49.0113 108.257 49.0113 107.422C49.0113 106.813 48.6501 106.79 48.763 105.616C48.8306 104.871 49.3952 102.997 49.8693 101.394L49.3951 101.169C48.6953 102.591 47.9277 104.104 47.2278 105.142C47.002 105.458 46.7537 105.503 46.4376 105.345C45.6475 104.939 44.5864 103.675 44.5864 101.372C44.5864 98.7982 45.512 97.5114 45.512 96.4729C45.512 95.4795 44.3154 94.3507 43.3672 93.9217C42.8029 93.6734 42.1256 93.6283 41.5837 93.5831L41.4483 93.8992C42.7577 94.8926 43.1415 95.6601 43.1415 96.9018C43.1415 98.2112 42.9383 99.9948 43.0512 101.665C43.2318 105.503 45.2862 107.445 47.002 108.212ZM58.4256 104.487C59.2835 104.487 59.6899 103.9 59.6899 102.704C59.6899 101.101 59.0804 99.1142 57.7935 97.8274C56.6647 96.6986 55.4681 95.9084 53.3008 95.6827L53.1653 96.1116C54.7457 96.8341 55.9196 97.9855 56.5292 99.4755C57.2742 101.214 57.2968 102.726 57.5 103.675C57.658 104.239 58.0193 104.487 58.4256 104.487ZM47.002 130.789C48.1534 131.308 49.0113 130.834 49.0113 129.999C49.0113 129.389 48.6501 129.366 48.763 128.192C48.8306 127.447 49.3952 125.574 49.8693 123.971L49.3951 123.745C48.6953 125.167 47.9277 126.68 47.2278 127.718C47.002 128.034 46.7537 128.08 46.4376 127.922C45.6475 127.515 44.5864 126.251 44.5864 123.948C44.5864 121.374 45.512 120.088 45.512 119.049C45.512 118.056 44.3154 116.927 43.3672 116.498C42.8029 116.25 42.1256 116.205 41.5837 116.159L41.4483 116.475C42.7577 117.469 43.1415 118.236 43.1415 119.478C43.1415 120.787 42.9383 122.571 43.0512 124.242C43.2318 128.08 45.2862 130.021 47.002 130.789ZM58.4256 127.064C59.2835 127.064 59.6899 126.477 59.6899 125.28C59.6899 123.677 59.0804 121.691 57.7935 120.404C56.6647 119.275 55.4681 118.485 53.3008 118.259L53.1653 118.688C54.7457 119.41 55.9196 120.562 56.5292 122.052C57.2742 123.79 57.2968 125.303 57.5 126.251C57.658 126.815 58.0193 127.064 58.4256 127.064ZM40.1614 146.75L40.342 147.405H46.4602C45.3765 149.211 44.1123 151.13 43.2318 152.281C43.9768 152.733 44.8798 152.846 45.4443 152.688L46.4376 151.243C47.9051 151.581 49.2596 151.943 50.5239 152.326C48.176 153.997 44.8347 154.99 40.2517 155.713L40.342 156.074C46.1893 155.645 49.9821 154.742 52.5558 153.004C54.994 153.907 56.8904 154.855 58.245 155.758C60.5026 157.067 63.0086 153.681 54.1135 151.717C55.2198 150.566 56.0551 149.143 56.6872 147.405H60.5704C60.8864 147.405 61.1122 147.292 61.1799 147.044C60.2768 146.231 58.832 145.125 58.832 145.125L57.5225 146.75H49.2596C49.6885 146.005 50.0724 145.35 50.3207 144.876C50.9528 144.899 51.2238 144.696 51.3141 144.38L48.7629 143.838L51.901 143.861C58.4482 143.861 59.4189 143.635 59.4189 142.619C59.4189 142.212 59.148 141.964 58.2675 141.761L58.1546 141.738H57.9514C57.6805 141.828 57.3193 141.896 57.0935 141.919C56.8678 141.964 56.5065 142.009 56.1227 142.032C55.4455 142.077 53.7522 142.077 52.0364 142.077H47.2277C45.7377 142.077 45.6473 141.986 45.6473 141.625V138.577H60.48C60.796 138.577 61.0218 138.464 61.0895 138.216C60.209 137.448 58.8093 136.387 58.8093 136.387L57.545 137.945H51.7203V135.958C52.3073 135.868 52.4879 135.642 52.5331 135.326L49.553 135.078V137.945H40.2064L40.4097 138.577H43.5252V141.941C43.5252 143.612 44.2702 143.837 47.2503 143.837H48.3791C48.0404 144.582 47.4986 145.621 46.8439 146.75L40.1614 146.75ZM48.8533 147.405H54.1135C53.5943 148.963 52.8267 150.227 51.7656 151.288C50.3207 151.04 48.6727 150.859 46.7763 150.701C47.4761 149.662 48.2212 148.466 48.8533 147.405ZM48.4921 171.787L45.6474 171.539V176.032C45.6474 177.544 46.1667 177.883 48.5372 177.883H51.6527C56.1906 177.883 57.1614 177.589 57.1614 176.619C57.1614 176.235 56.9807 175.986 56.2809 175.761L56.2133 173.3H55.965C55.5812 174.496 55.2877 175.332 55.062 175.693C54.904 175.896 54.7685 175.964 54.4072 175.986C54.0234 176.009 53.0526 176.009 51.8561 176.009H48.8535C47.9052 176.009 47.8149 175.942 47.8149 175.625V172.329C48.2439 172.284 48.4695 172.058 48.4921 171.787ZM43.4801 172.013H43.1415C43.1415 173.526 42.1933 174.858 41.3128 175.377C40.7258 175.693 40.3194 176.257 40.5452 176.912C40.8386 177.612 41.7869 177.68 42.4641 177.228C43.5027 176.596 44.4058 174.722 43.4801 172.013ZM56.5518 171.832L56.326 171.99C57.4774 173.164 58.6288 175.083 58.8094 176.709C60.8639 178.38 62.7377 173.864 56.5518 171.832ZM49.666 170.884L49.4403 171.042C50.3207 171.99 51.2915 173.503 51.427 174.79C53.3008 176.325 55.1295 172.397 49.666 170.884ZM48.4921 159.867L47.3632 161.447H46.5279V158.445C47.0923 158.354 47.2504 158.151 47.3181 157.858L44.4735 157.587V161.447H40.2969L40.4775 162.102H43.8188C43.1189 165.014 41.8321 167.904 39.9808 170.026L40.2517 170.32C41.9675 169.055 43.3898 167.565 44.4735 165.827V171.223H44.8799C45.6249 171.223 46.5279 170.771 46.5279 170.568V164.382C47.2955 165.24 48.0405 166.414 48.1986 167.498C50.0273 168.897 51.6753 165.172 46.5279 163.84V162.102H49.9821C50.2982 162.102 50.5013 161.989 50.5691 161.741C49.8015 160.951 48.4921 159.867 48.4921 159.867ZM57.5226 168.83H52.8944V166.301H57.5226V168.83ZM52.8944 170.275V169.484H57.5226V170.929H57.8613C58.5837 170.929 59.6222 170.478 59.6448 170.32V160.409C60.1188 160.296 60.4349 160.115 60.593 159.935L58.3579 158.219L57.2968 159.393H53.0073L50.84 158.467V170.952H51.1561C52.0591 170.952 52.8944 170.478 52.8944 170.275ZM57.5226 165.646H52.8944V163.141H57.5226V165.646ZM57.5226 162.508H52.8944V160.048H57.5226V162.508ZM45.4217 186.846C45.9635 186.846 46.5279 186.801 47.0697 186.755C46.3247 188.087 45.3314 189.532 44.1574 190.729C43.2544 191.677 42.5093 192.174 42.5093 192.896C42.5321 193.619 42.848 194.16 43.4575 194.138C44.1348 194.095 44.7896 192.851 45.5571 191.925C46.3699 190.954 47.7696 189.51 48.8759 189.51C49.9595 189.51 50.253 190.187 50.3207 191.993C48.018 193.483 45.828 195.379 45.828 197.231C45.828 199.082 47.16 200.527 51.2689 200.527C53.1202 200.527 55.2649 200.188 56.1454 199.94C56.8904 199.714 57.0936 199.376 57.0936 198.857C57.0936 198.157 56.3712 197.886 55.423 197.886C54.4973 197.886 53.2331 198.608 50.0498 198.608C47.9502 198.608 46.8891 197.999 46.8891 196.96C46.8891 195.718 48.3792 194.409 50.2982 193.28C50.2754 194.341 50.1852 195.335 50.1852 195.899C50.1852 196.667 50.6594 196.96 51.2012 196.96C51.8107 196.96 52.1494 196.509 52.1494 195.854C52.1494 195.064 52.1266 193.641 52.0139 192.4C53.8877 191.542 56.1905 190.706 57.7483 190.232C58.7416 189.939 59.1932 189.939 59.1932 189.374C59.1932 188.607 58.403 187.659 57.7257 187.252C57.2516 186.959 56.7549 186.823 55.8067 186.733L55.6036 187.117C55.9874 187.32 56.4389 187.614 56.6421 187.884C56.9356 188.223 56.8904 188.471 56.5292 188.675C55.4004 189.329 53.4814 190.21 51.8559 191.068C51.6076 189.555 50.7497 188.675 49.4177 188.675C48.5598 188.675 47.7922 189.058 47.0471 189.51C46.9117 189.6 46.8214 189.489 46.9342 189.375C47.7696 188.223 48.334 187.253 48.7629 186.485C51.0205 186.056 53.0298 185.311 53.82 184.905C54.3167 184.634 54.5198 184.363 54.5198 184.047C54.5198 183.415 53.9554 183.212 53.2781 183.212C53.0072 183.212 52.804 183.46 52.0139 183.821C51.472 184.047 50.6593 184.34 49.7562 184.589L50.411 183.279C50.6141 182.85 50.7948 182.67 50.7948 182.354C50.7948 181.676 49.1693 181.315 48.3566 181.315C47.9727 181.315 47.4084 181.518 46.9343 181.699V182.06C47.4535 182.195 47.905 182.354 48.1985 182.534C48.5824 182.737 48.6049 182.963 48.5146 183.347C48.4243 183.776 48.2212 184.363 47.9276 185.04C47.2052 185.176 46.5053 185.266 45.8732 185.289C44.3154 185.311 43.751 184.792 42.9608 184.002L42.577 184.227C43.2768 185.988 43.6833 186.846 45.4217 186.846Z" fill="url(#paint1_linear_33_61)"/>
<path d="M23.485 34.6364L23.1915 34.7266C23.643 35.9006 24.1397 37.6164 24.1397 38.9935C25.6072 40.5287 27.4584 37.3229 23.485 34.6364ZM27.7067 23.4385V28.2021H28.0228C29.0613 28.2021 29.716 27.8635 29.716 27.7054V27.2314H33.8023V27.9312H34.1862C35.2247 27.9312 35.902 27.57 35.902 27.4797V24.2061C36.3761 24.1158 36.5793 24.0029 36.7147 23.8223L34.728 22.3097L33.7347 23.4385H29.9644L27.7068 22.5354L27.7067 23.4385ZM29.716 26.5992V24.0932H33.8023V26.5992H29.716ZM25.6297 35.72L25.8104 36.3521H29.5806C28.4066 38.4969 26.4876 40.4836 24.072 41.8608L24.2977 42.1993C26.9166 41.1834 29.129 39.8063 30.7094 38.0227V43.2153H31.0932C31.8608 43.2153 32.7639 42.8089 32.7639 42.6057V36.8487C33.8475 39.2418 35.5633 41.0253 37.6629 42.1316C37.9113 41.1382 38.4531 40.5061 39.2207 40.3255L39.2655 40.0771C36.9627 39.4902 34.4793 38.1355 33.0796 36.352H38.2044C38.5205 36.352 38.7462 36.2392 38.814 35.9908C37.9787 35.2909 36.6692 34.275 36.6692 34.275L35.5178 35.7199H32.7636V34.433C33.1699 34.3655 33.3279 34.2298 33.3731 34.0266C33.8698 33.9137 34.1407 33.7106 34.1407 33.6203V33.0108H36.2178V33.7783H36.5112C37.3691 33.7783 38.0012 33.4623 38.0012 33.3494V29.7146C38.4302 29.6243 38.656 29.5114 38.7914 29.3308L36.9853 27.9988L36.15 28.947H34.4116L32.4475 28.1568V33.8461L30.822 33.688C31.0477 33.5977 31.1606 33.5073 31.1606 33.4622V29.7145C31.6121 29.6242 31.8379 29.5113 31.9734 29.3307L30.2124 28.0213L29.3771 28.9469H27.729L25.8326 28.1793V32.6494C25.7197 31.7689 24.9973 30.6401 23.2815 29.6694L22.988 29.7822C23.2815 30.324 23.575 31.0013 23.8008 31.7012L20.5272 31.9044C22.2882 30.1434 24.0491 27.9536 25.065 26.2829C25.5617 26.3277 25.8326 26.17 25.9455 25.9217L23.2589 24.8832C22.4913 27.0053 21.1593 29.8274 19.8499 31.927L17.7503 31.9945L18.3598 34.1618C18.5856 34.1391 18.8565 33.9812 18.9694 33.6877L20.9562 33.1459V35.2906L18.9694 34.8617C18.7888 37.2322 18.2921 39.6704 17.5923 41.4088L17.931 41.5895C19.1727 40.2123 20.0757 38.1127 20.6627 35.9228L20.9562 35.878V43.2153H21.2948C22.2656 43.2153 22.8752 42.7637 22.8752 42.6283V32.5819L23.9814 32.2432C24.1169 32.7625 24.2072 33.2818 24.2297 33.7559C24.9522 34.4332 25.7197 34.0268 25.8326 33.1689V34.1848H26.1035C26.9614 34.1848 27.4807 33.8462 27.4807 33.7108V33.0108H29.4448V33.8913H29.7383C30.1221 33.8913 30.4607 33.8238 30.7091 33.7333V35.7201L25.6297 35.72ZM27.481 32.3787V29.6018H29.4451V32.3787H27.481ZM34.141 32.3787V29.6018H36.218V32.3787H34.141ZM18.2247 25.4929L17.9763 25.651C18.6988 26.5089 19.5115 27.9086 19.647 29.0375C20.979 30.1211 22.3335 28.0893 20.234 26.4864C21.137 25.7188 22.1078 24.6577 22.898 23.5966C23.372 23.6193 23.6656 23.4386 23.7559 23.1677L20.9564 22.2194C20.6178 23.5966 20.1662 25.0866 19.7373 26.1477C19.3309 25.922 18.8343 25.6962 18.2247 25.4929ZM25.404 65.0692L25.6297 65.5207C31.7479 63.5114 33.7572 59.8089 33.7572 55.0227C33.7572 50.959 32.3123 48.4982 29.8063 48.4982C28.384 48.4982 26.9843 49.7624 25.9232 51.7492C25.72 52.1329 25.562 52.1104 25.6072 51.6816C25.6975 51.0495 25.8329 50.4173 26.0587 49.6723C26.2167 49.153 26.3521 48.7692 26.3521 48.2274C26.3521 47.5727 25.562 46.4891 24.6138 45.9472C24.2299 45.744 23.959 45.6312 23.5075 45.5409L23.2818 45.7892C24.1397 46.8954 24.3203 47.7308 24.3203 48.6339C24.3203 50.2819 23.3495 54.2779 23.3495 56.5355C23.3495 57.3031 23.4398 58.2513 23.6881 58.8157C23.9365 59.3801 24.2751 59.6059 24.7718 59.6059C25.2911 59.6059 25.6748 59.2447 25.6748 58.6803C25.6748 57.7998 25.5168 57.0774 25.5168 56.1066C25.5168 54.6392 25.878 53.3071 26.5553 51.93C27.2778 50.4399 28.4517 49.5369 29.3322 49.5369C30.7094 49.5369 31.5673 51.501 31.5673 55.0003C31.5673 58.5448 30.7997 62.4503 25.404 65.0692ZM18.8343 68.0718L18.6085 68.2299C19.6922 69.291 20.8436 71.0293 21.1145 72.5194C23.327 74.1223 25.1105 69.5618 18.8343 68.0718ZM35.9019 67.5074L34.5474 69.1555H28.4292L25.9458 68.2073V73.0838C25.9458 76.6283 25.72 80.7371 23.5979 84.0332L23.8462 84.259C27.323 81.5273 27.9777 77.4861 28.068 74.3029H34.3216C33.9604 75.6575 33.4186 76.9443 32.7413 78.1183C31.5899 77.4636 30.2127 76.8314 28.5647 76.2444L28.3164 76.4476C29.4226 77.2604 30.6869 78.2989 31.8609 79.4503C30.3934 81.3919 28.4067 82.9948 25.7878 84.1462L25.9684 84.4622C28.9937 83.6044 31.2964 82.2723 33.0122 80.6017C34.1862 81.8434 35.1796 83.1076 35.7666 84.2365C37.7533 85.275 38.7015 82.2949 34.3442 79.1342C35.3827 77.8022 36.1504 76.2896 36.7148 74.6641C37.2341 74.5966 37.4598 74.5287 37.6178 74.3029L35.4956 72.4291L34.2539 73.6482H28.0906V73.0838V69.8103H37.7081C38.0242 69.8103 38.2725 69.6973 38.3403 69.449C37.4146 68.6363 35.9019 67.5074 35.9019 67.5074ZM22.7174 83.4914V78.0957C23.3722 78.0054 23.7107 77.8248 23.8688 77.6442L21.4531 75.68L20.3695 77.1249H17.728L17.8635 77.8022H20.6855V84.53C19.5793 85.0718 18.4505 85.5684 17.6829 85.8393L18.9923 88.3453C19.1955 88.2324 19.3084 88.0744 19.2858 87.7809C20.1663 86.9456 21.5434 85.433 22.4465 84.2817C24.0042 87.2166 25.8103 87.8035 30.0321 87.8035H37.4822C37.5725 86.8101 38.0918 86.2006 38.9723 85.9974V85.704C36.1728 85.7943 32.6283 85.7942 30.0095 85.7942C25.9458 85.7942 24.3203 85.5459 22.7174 83.8979L22.7174 83.4914ZM27.7971 109.906C31.9737 109.906 35.2021 107.106 36.6695 103.539L36.2406 103.246C34.5474 105.639 31.3641 107.806 28.0003 107.806C25.5169 107.806 24.7944 106.79 24.7944 104.149C24.7944 101.372 25.2234 98.008 25.6298 95.8632C25.8555 94.7796 26.3748 94.5087 26.3748 93.9669C26.3748 93.1541 24.5461 91.7318 23.2593 91.6866C22.7626 91.6866 22.2659 91.8447 21.6789 92.0253V92.4091C22.3562 92.5897 22.74 92.7703 23.0787 93.0412C23.4625 93.3347 23.5753 93.6734 23.5753 94.6441C23.5753 96.1342 23.1012 101.056 23.1012 104.352C23.1012 108.371 24.817 109.906 27.7971 109.906ZM26.1716 116.904V124.513H24.659L24.8396 125.145H29.9418C29.2645 128.599 27.3004 131.308 22.8077 133.204L22.9883 133.543C28.6775 131.963 31.1158 129.073 31.9511 125.325C32.4704 128.192 33.7798 131.647 37.3017 133.475C37.4146 132.166 38.0467 131.624 39.1529 131.376V131.127C35.044 129.75 33.0573 127.493 32.3575 125.145H38.6788C38.9723 125.145 39.1755 125.032 39.2432 124.806C38.7014 124.106 37.6854 123.022 37.6854 123.022L36.805 124.512H36.5792V117.875C37.0307 117.785 37.3694 117.604 37.5274 117.424L35.3827 115.798L34.3216 116.904H32.3123V113.631C32.8766 113.54 33.0573 113.315 33.125 113.021L30.2353 112.705V116.904H28.3389L26.1715 116.046L26.1716 116.904ZM30.0547 124.513H28.0454V117.559H30.2353V121.803C30.2353 122.752 30.1898 123.655 30.0547 124.513ZM32.1091 124.513C32.2446 123.655 32.3123 122.752 32.3123 121.826V117.559H34.5474V124.513H32.1091ZM20.4372 115.821H22.6045V121.465H20.4372V115.821ZM18.4956 115.188V130.811H18.8343C19.8051 130.811 20.4372 130.315 20.4372 130.157V128.576H22.6045V130.066H22.9206C23.5979 130.066 24.5235 129.615 24.5461 129.434V116.182C24.9976 116.092 25.3589 115.911 25.4943 115.73L23.3947 114.06L22.3788 115.189H20.7082L18.4957 114.308L18.4956 115.188ZM20.4372 122.119H22.6045V127.922H20.4372V122.119ZM27.7971 155.058C31.9737 155.058 35.2021 152.259 36.6695 148.692L36.2406 148.398C34.5474 150.791 31.3641 152.959 28.0003 152.959C25.5169 152.959 24.7944 151.943 24.7944 149.301C24.7944 146.524 25.2234 143.161 25.6298 141.016C25.8555 139.932 26.3748 139.661 26.3748 139.119C26.3748 138.307 24.5461 136.884 23.2593 136.839C22.7626 136.839 22.2659 136.997 21.6789 137.178V137.562C22.3562 137.742 22.74 137.923 23.0787 138.194C23.4625 138.487 23.5753 138.826 23.5753 139.797C23.5753 141.287 23.1012 146.208 23.1012 149.504C23.1012 153.523 24.817 155.058 27.7971 155.058ZM27.052 157.835V166.437H22.5819V160.747C23.1238 160.657 23.3044 160.454 23.3495 160.16L20.5049 159.867V168.446H20.8661C21.6563 168.446 22.5819 168.062 22.5819 167.859V167.069H27.052V175.941H21.4983V169.936C22.0401 169.846 22.2207 169.643 22.2659 169.349L19.4213 169.078V178.65H19.8051C20.5953 178.65 21.4983 178.267 21.4983 178.086V176.596H34.9538V178.447H35.3376C36.1503 178.447 37.076 178.063 37.076 177.86V169.936C37.6178 169.846 37.7984 169.643 37.8436 169.349L34.9538 169.078V175.941H29.2194V167.069H33.8476V168.333H34.2314C35.0441 168.333 35.9698 167.949 35.9698 167.769V160.748C36.5116 160.657 36.6922 160.454 36.7374 160.161L33.8476 159.867V166.437H29.2195V158.761C29.8065 158.671 29.9871 158.445 30.0322 158.129L27.052 157.835ZM27.8648 194.228C26.8714 194.228 26.1716 193.393 26.1716 192.264C26.1716 191.113 26.894 190.187 27.9099 190.187C28.8356 190.187 29.3548 191.022 29.3548 192.264C29.3548 193.664 28.9259 194.228 27.8648 194.228ZM21.4531 188.607C22.1529 188.607 22.5819 188.2 23.5753 187.907C24.7267 187.613 26.7134 187.139 28.9033 186.846L28.9936 189.216C28.7452 189.149 28.4518 189.126 28.1357 189.126C26.3522 189.126 25.133 190.616 25.133 192.445C25.133 194.702 26.7811 196.508 28.9259 195.696C28.1131 197.84 25.9232 199.33 23.3044 200.301L23.5301 200.775C28.0228 199.94 31.3867 197.524 31.3867 193.145C31.3867 191.925 31.1158 190.842 30.4836 190.119L30.5064 186.688C34.6153 186.327 36.0827 186.891 36.9406 186.891C37.505 186.891 37.8211 186.756 37.8211 186.146C37.8211 185.266 36.5117 184.724 35.5183 184.724C35.1345 184.724 34.3218 184.972 30.529 185.401L30.5738 184.317C30.5965 183.775 30.9576 183.347 30.9576 182.805C30.9576 182.15 29.4901 181.586 28.4065 181.586C27.7517 181.586 27.1196 181.969 26.6681 182.263L26.7136 182.647C27.3231 182.714 27.7973 182.782 28.1585 182.918C28.4972 183.053 28.61 183.166 28.6552 183.595L28.8132 185.604C26.3298 185.898 22.108 186.485 21.2275 186.462C20.5051 186.462 20.1213 185.943 19.4892 185.107L19.1279 185.243C19.1279 185.717 19.1279 186.281 19.2859 186.733C19.5117 187.523 20.6629 188.607 21.4531 188.607Z" fill="url(#paint2_linear_33_61)"/>
<path d="M76.0551 16.0451L76.3725 17.1946H100.55C101.145 17.1946 101.502 16.9963 101.621 16.5604C100.154 15.1335 97.6569 13.1121 97.6569 13.1121L95.4373 16.0452L76.0551 16.0451ZM79.2262 10.5753L79.5431 11.6851H97.1018C97.6568 11.6851 98.0929 11.487 98.1723 11.0906C96.7455 9.66368 94.2878 7.72149 94.2878 7.72149L92.1872 10.5753H79.2262ZM78.5919 21.3167L78.909 22.4662H98.093C98.6479 22.4662 99.0441 22.2679 99.163 21.8321C97.7362 20.4844 95.358 18.5423 95.358 18.5423L93.2971 21.3168L78.5919 21.3167ZM78.5919 26.628L78.909 27.7377H98.093C98.6479 27.7377 99.0441 27.5395 99.163 27.1036C97.7362 25.7956 95.358 23.8535 95.358 23.8535L93.2971 26.628H78.5919ZM78.7901 31.8599V44.147H79.3452C80.9306 44.147 82.5158 43.3147 82.5158 42.958V41.2933H94.2878V43.9489H94.8822C96.1506 43.9489 98.0136 43.1165 98.0533 42.8391V33.6039C98.8459 33.4853 99.4008 33.1283 99.6386 32.8112L95.7147 29.8384L93.8915 31.8599H82.7537L78.7901 30.2348V31.8599ZM82.5158 40.1438V33.0093H94.2878V40.1438H82.5158ZM72.2899 7.5233C70.4666 15.2523 67.1372 23.3777 63.9266 28.4115L64.4418 28.7684C66.1461 27.2225 67.7315 25.4389 69.198 23.3778V44.3057H69.9115C71.3782 44.3057 72.9634 43.4734 73.0029 43.1563V19.9692C73.7163 19.8507 74.0734 19.5729 74.1923 19.2161L72.2896 18.5027C73.7561 15.8867 75.0642 13.0329 76.2136 10.0206C77.1253 10.0206 77.6008 9.7035 77.7594 9.22788L72.2899 7.5233Z" fill="#26A69A"/>
<path d="M36.1272 241.478C37.8656 241.478 39.2655 240.055 39.2655 238.294C39.2655 236.556 37.8656 235.156 36.1272 235.156C34.3889 235.156 32.9667 236.556 32.9667 238.294C32.9667 240.055 34.3889 241.478 36.1272 241.478ZM36.1272 240.687C34.8178 240.687 33.7567 239.604 33.7567 238.294C33.7567 237.007 34.8178 235.946 36.1272 235.946C37.4141 235.946 38.4752 237.007 38.4752 238.294C38.4752 239.604 37.4141 240.687 36.1272 240.687Z" fill="#0097A7"/>
<path d="M17.1444 219.84C16.8737 222.14 16.468 224.812 16.0961 226.571L16.6709 226.774C17.6857 225.353 18.7343 223.324 19.5122 221.599C20.1887 221.57 20.5946 221.26 20.7299 220.889L17.1444 219.84ZM8.99297 220.01L8.51942 220.145C9.06068 222.006 9.50025 224.678 9.22952 226.842C11.1575 229.176 14.0326 224.576 8.99297 220.01ZM24.6196 219.672H33.0416V222.547H24.6196V219.672ZM24.6196 218.691V215.849H33.0416V218.691H24.6196ZM21.6767 214.868V224.711H22.1503C23.334 224.711 24.112 224.406 24.4503 224.17C23.8415 228.263 22.0149 231.172 17.4825 233.336L17.6518 233.81C23.943 232.085 26.9872 228.939 27.8667 223.494H29.7609V230.766C29.7609 232.694 30.0988 233.37 32.5343 233.37H34.53C38.1492 233.37 39.1636 232.728 39.1636 231.577C39.1636 231.036 39.062 230.63 38.2842 230.292L38.1827 226.301H37.7769C37.3034 228.06 36.8973 229.683 36.6268 230.157C36.4913 230.461 36.3902 230.529 36.1195 230.563H34.8343H33.5151C32.9063 230.563 32.8386 230.456 32.8386 230.055V223.493H33.0416V224.238H33.5491C35.0711 224.238 36.0857 223.663 36.0857 223.493V216.052C36.7961 215.917 37.1345 215.714 37.3373 215.443L34.3607 213.21L32.9401 214.868H24.9916L21.6767 213.549V214.868ZM7.40328 230.021L9.39878 233.674C9.77091 233.568 10.0753 233.268 10.2106 232.828C15.3518 230.698 18.9371 229.006 21.4062 227.789L21.3045 227.315L15.3855 228.567V218.42H20.0868C20.5604 218.42 20.8984 218.25 20.9662 217.878C19.9177 216.796 18.1251 215.206 18.1251 215.206L16.5691 217.439H15.3855V213.211H19.0382C19.4779 213.211 19.7826 213.041 19.8838 212.704H38.3853C38.8588 212.704 39.1971 212.534 39.2648 212.163C38.047 211.08 36.0515 209.592 36.0515 209.592L34.2925 211.723H30.6736C31.9251 210.742 33.2442 209.491 34.056 208.51C34.7664 208.51 35.1721 208.239 35.3074 207.834L31.5529 206.921H37.1678C37.6414 206.921 37.9796 206.751 38.081 206.379C36.897 205.297 35.0031 203.775 35.0031 203.775L33.3456 205.94H30.0648V203.538C30.8766 203.403 31.113 203.099 31.1469 202.659L26.7499 202.288V205.939H20.4586L20.7294 206.92H31.1131C30.8426 208.375 30.3692 210.303 29.7942 211.723H25.8028C27.5955 211.659 28.6101 208.408 23.5705 206.954L23.1984 207.124C23.8409 208.138 24.4838 209.796 24.4838 211.183C24.8897 211.555 25.2954 211.724 25.6675 211.724H19.6133L19.85 212.603C18.8014 211.555 17.0765 210.134 17.0765 210.134L15.5205 212.231H10.0071C12.0704 210.066 13.7955 207.462 14.9117 205.162C16.5015 206.785 17.6851 208.612 18.2264 209.931C20.5263 211.69 23.6719 207.056 15.3513 204.451C16.1631 204.344 16.4676 204.113 16.6029 203.741L12.4087 202.388C11.5969 205.872 9.26297 211.351 6.76001 214.463L7.16604 214.768C8.14698 214.058 9.09403 213.212 9.97338 212.299L10.2102 213.212H12.6792V217.44H7.77464L8.0454 218.421H12.6792V229.075C10.4131 229.515 8.55317 229.852 7.40328 230.021Z" fill="#0097A7"/>
<defs>
<linearGradient id="paint0_linear_33_61" x1="68.2699" y1="84.5517" x2="31.9196" y2="138.443" gradientUnits="userSpaceOnUse">
<stop stop-color="#26A69A"/>
<stop offset="1" stop-color="#0097A7"/>
</linearGradient>
<linearGradient id="paint1_linear_33_61" x1="68.2699" y1="84.5517" x2="31.9196" y2="138.443" gradientUnits="userSpaceOnUse">
<stop stop-color="#26A69A"/>
<stop offset="1" stop-color="#0097A7"/>
</linearGradient>
<linearGradient id="paint2_linear_33_61" x1="68.27" y1="84.5516" x2="31.9196" y2="138.443" gradientUnits="userSpaceOnUse">
<stop stop-color="#26A69A"/>
<stop offset="1" stop-color="#0097A7"/>
</linearGradient>
</defs>
</svg>
