<?xml version="1.0" encoding="UTF-8" standalone="no"?>
<svg
   width="120.08482"
   height="93.915054"
   viewBox="0 0 120.08482 93.915054"
   version="1.1"
   id="svg18"
   sodipodi:docname="noto--world-map.svg"
   inkscape:version="1.4.3 (0d15f75, 2025-12-25)"
   xmlns:inkscape="http://www.inkscape.org/namespaces/inkscape"
   xmlns:sodipodi="http://sodipodi.sourceforge.net/DTD/sodipodi-0.dtd"
   xmlns="http://www.w3.org/2000/svg"
   xmlns:svg="http://www.w3.org/2000/svg">
  <defs
     id="defs18" />
  <sodipodi:namedview
     id="namedview18"
     pagecolor="#505050"
     bordercolor="#eeeeee"
     borderopacity="1"
     inkscape:showpageshadow="0"
     inkscape:pageopacity="0"
     inkscape:pagecheckerboard="0"
     inkscape:deskcolor="#505050"
     inkscape:zoom="7.359375"
     inkscape:cx="59.855626"
     inkscape:cy="46.878981"
     inkscape:window-width="2194"
     inkscape:window-height="1163"
     inkscape:window-x="-8"
     inkscape:window-y="-8"
     inkscape:window-maximized="1"
     inkscape:current-layer="svg18" />
  <path
     fill="#c8c8c8"
     d="m 5.8922272,1.8 c -0.51,0.77 5.6099998,46.34 5.5099998,49.22 -0.1,2.89 -3.4799998,10.45 -5.7699998,17.11 -2.29,6.67 -6.16999999,19.9 -5.56999999,20.4 0.6,0.5 42.27999979,5.7 55.31999979,5.37 13.04,-0.33 31.22,-3.98 46.800003,-5.22 10.21,-0.81 15.79,-1.7 16.61,-1.7 0.82,0 1.64,-0.25 1.14,-2.08 -0.5,-1.83 -6.03,-18.1 -8.21,-24.07 -2.18,-5.97 -5,-13.07 -5,-13.07 0,0 2.18,-15.65 3.71,-25.9 1.53,-10.25 2.66,-15.49 2.42,-15.97 C 112.61223,5.41 76.062227,0 75.332227,0 c -0.73,0 -30.42,8.07 -31.95,7.99 C 41.852227,7.9 6.4122272,1.02 5.8922272,1.8"
     id="path1" />
  <path
     fill="#1e85f9"
     d="m 17.022227,50.74 c 0,0 -4.37,-42.47 -4.37,-42.74 0,-0.27 31.67,5.44 31.67,5.44 l 18.74,7.25 c 0,0 12.87,-15.06 14.15,-14.96 1.28,0.1 26.940003,3.94 27.910003,4.05 0.97,0.1 1.49,0.77 1.28,2.15 -0.2,1.38 -5.85,36.48 -5.85,36.48 l -43.780003,11.9 z"
     id="path2" />
  <path
     fill="#136fd8"
     d="m 44.322227,13.45 32.89,-7.72 -1.62,40.68 -14.62,10.18 -14.74,-4.91 z"
     id="path3" />
  <path
     fill="#36b4e2"
     d="m 17.022227,50.74 29.21,0.94 14.98,3.71 14.38,-8.99 c 0,0 11.62,0.72 14.86,0.96 3.24,0.24 10.110003,1.04 10.110003,1.04 0,0 12.42,32.24 12.65,32.65 0.23,0.41 0,1.23 -0.82,1.34 -0.82,0.11 -10.39,0.58 -10.39,0.58 0,0 -4.140003,-1.52 -7.180003,-1.11 -3.03,0.41 -7.76,2.92 -7.76,2.92 l -6.36,0.7 c 0,0 -1.05,-1.46 -1.87,-2.28 -0.82,-0.82 -2.16,-1.4 -2.16,-1.4 l -15.14,-3.95 -19.13,10.11 c 0,0 -33.2599998,-3 -34.5899998,-3.21 -1.33,-0.21 -1.95,-0.49 -1.4,-2.16 0.56,-1.67 10.6099998,-31.85 10.6099998,-31.85"
     id="path4" />
  <path
     fill="#6ccbf6"
     d="m 46.232227,51.68 c 0,0 5.76,-0.4 14.69,-1.79 9.9,-1.54 14.68,-3.34 14.68,-3.34 l 1.28,39.67 c 0,0 -9.41,1.98 -16.88,2.09 -7.47,0.11 -17.61,-0.34 -17.61,-0.34 z"
     id="path5" />
  <path
     fill="#c8c8c8"
     d="m 44.322227,13.45 0.87,17.5 c 0,0 0.7,-1.64 1.89,-1.94 1.2,-0.3 3.39,-0.7 3.54,-1.44 0.15,-0.75 -0.55,-2.89 -0.35,-3.89 0.2,-1 1.1,-1.69 1,-3.69 -0.1,-1.99 -1,-2.04 -0.8,-3.04 0.2,-1 0.5,-1.84 1.05,-2.74 0.55,-0.9 0.85,-0.95 1.2,-1.54 0.28,-0.47 0.4,-1.3 0.4,-1.3 z m 12.78,2.26 c -0.26,0.99 -0.6,1.49 0.1,2.04 0.7,0.55 1.05,1.35 1.2,1.69 0.15,0.35 0.2,1.15 1.05,1.15 0.85,0 1.05,-0.9 1.2,-1.64 0.1,-0.5 0.3,-1.74 0.3,-1.74 0,0 1.74,-1.05 1.49,-1.84 -0.25,-0.8 -1.25,-0.9 -2.44,-0.75 -1.23,0.14 -2.6,-0.06 -2.9,1.09 m 13.3,-5.18 c 0.35,-0.2 0.9,-1.44 1.35,-1.69 0.45,-0.25 0.94,-0.27 1.2,0.4 0.55,1.44 1.35,1.49 1.2,2.34 -0.15,0.85 -1.84,0.65 -2.24,0.95 -0.4,0.3 -1.35,0.7 -1.94,0.55 -0.6,-0.15 -2.34,-1.1 -1.74,-2.04 0.41,-0.7 2.17,-0.51 2.17,-0.51 m 6.03,14.61 c 0,0 -0.77,0.22 -1.01,1.22 -0.24,1 -0.34,1.17 -0.34,1.17 0,0 -0.86,0.82 -1.62,1.2 -0.76,0.38 -1.37,0.93 -1.37,0.93 0,0 -1.34,-0.21 -2.3,0.24 -0.96,0.45 -1.31,1.17 -1.31,1.17 0,0 1.44,6.32 1.44,6.22 0,-0.1 6.24,-3.01 6.24,-3.01 z m -10.84,4.06 c 0,0 -1.88,-1.47 -2.87,-1.57 -0.6,-0.06 -2.6,0.51 -2.97,1.04 -0.37,0.54 -1.65,2.6 -2.16,3.64 -0.51,1.04 -2.45,2.43 -2.26,3.57 0.26,1.54 1.69,1.21 1.69,1.21 l 1.38,-0.03 0.61,-2.97 3.4,-3.4 z"
     id="path6" />
  <path
     fill="#40c252"
     d="m 49.842227,51.28 c 0,0 0.46,-1.03 1.39,-1.59 0.93,-0.56 4.16,-2.62 4.77,-2.62 0.61,0 1.39,0.72 1.75,1.13 0.36,0.41 0.62,0.82 0.92,0.87 0.3,0.05 2.82,0.05 4.31,-0.15 1.49,-0.21 2.87,-0.87 2.87,-1.44 0,-0.57 -1.9,-0.98 -2.21,-1.03 -0.31,-0.05 -1.69,0.21 -1.85,0.31 -0.15,0.1 -0.46,0.46 -0.98,0.36 -0.51,-0.1 -1.39,-0.87 -1.75,-1.39 -0.36,-0.51 -0.98,-1.28 -1.64,-1.23 -0.67,0.05 -1.44,0.26 -1.8,0.51 -0.36,0.26 -1.64,1.9 -2.1,2.21 -0.46,0.31 -1.69,0.15 -2.1,-0.62 -0.41,-0.77 -0.46,-1.64 -0.21,-1.9 0.26,-0.26 1.13,-0.41 1.33,-0.67 0.21,-0.26 -0.26,-1.49 0.26,-1.9 0.51,-0.41 1.95,0 2.05,-0.1 0.1,-0.1 1.33,-1.75 1.44,-2.1 0.1,-0.36 0.05,-1.08 0.26,-1.18 0.21,-0.1 1.13,-0.21 1.28,0 0.15,0.21 0.98,0.51 1.75,0.31 0.77,-0.2 2.1,-1.64 2.1,-2.21 0,-0.57 -0.62,-0.67 -0.77,-1.13 -0.15,-0.46 0.36,-1.13 0.82,-1.59 0.46,-0.46 0.77,-1.08 0.36,-1.39 -0.41,-0.31 -0.82,0.05 -1.28,0.56 -0.46,0.51 -1.23,1.49 -1.23,2 0,0.51 0.62,1.85 0.21,2.1 -0.41,0.25 -0.92,0.87 -1.23,0.67 -0.31,-0.21 -1.53,-0.99 -1.53,-0.99 0,0 -0.16,-0.86 0.5,-1.93 0.67,-1.08 2.62,-4 4.05,-5.03 1.43,-1.03 3.53,-1.29 3.53,-1.29 0,0 0.89,0.37 1.24,0.73 0.36,0.36 0.77,1.39 0.41,1.8 -0.36,0.41 -1.08,0.46 -1.08,0.46 0,0 0.21,1.03 0.82,1.08 0.62,0.05 1.97,-1.83 1.97,-1.83 0,0 1.01,-0.12 1.78,0.14 0.77,0.26 0.98,1.18 1.69,1.49 0.72,0.31 2.16,0.1 2.87,0.41 0.72,0.31 1.33,1.13 1.33,1.13 l -0.56,12.32 c 0,0 -6.6,2.09 -12.68,3.08 -5.89,0.96 -13.06,1.64 -13.06,1.64"
     id="path7" />
  <path
     fill="#40c252"
     d="m 52.732227,36.58 c -0.44,0.1 -0.68,0.38 -0.64,0.75 0.04,0.38 -0.08,0.94 -0.08,0.94 0,0 -0.98,0.6 -0.79,1.28 0.19,0.68 0.71,0.68 1.28,1.05 0.57,0.37 1.16,0.49 1.54,0.26 0.38,-0.23 1.03,-1.03 0.68,-1.65 -0.53,-0.94 -0.49,-2.97 -1.99,-2.63"
     id="path8" />
  <path
     fill="#e0e0e0"
     d="m 27.662227,10.43 c 0,0 -0.05,0.86 -0.23,1.31 -0.18,0.45 -1.03,0.95 -0.99,2.21 0.05,1.27 -0.23,2.21 0.21,2.69 0.69,0.76 0.7,2.42 0.7,2.42 0,0 -0.63,0.59 -0.54,1.54 0.09,0.95 0.84,1.48 2.95,1.32 1.35,-0.1 1.87,-0.28 1.96,-0.91 0.09,-0.63 0.49,-2.19 0.67,-3.36 0.18,-1.17 0.64,-2.28 0.64,-2.28 0,0 0.81,-0.32 1.17,-0.63 0.36,-0.32 0.77,-0.54 1.17,-0.5 0.41,0.05 0.77,0.9 0.77,0.9 0,0 -0.75,0.94 -1.56,1.66 -0.81,0.72 -0.91,1.13 -0.72,2.11 0.18,0.91 0.6,1.52 1.19,1.57 0.59,0.05 1.04,-0.14 1.72,0 0.68,0.14 0.99,0.81 0.99,0.81 0,0 0.63,1.22 0.95,2.17 0.32,0.95 0.77,2.49 0.81,3.03 0.05,0.54 -0.25,3.15 -0.02,4.14 0.23,0.99 1.87,4.4 2.78,4.44 0.9,0.05 1.22,-1.22 1.45,-1.76 0.23,-0.54 1.45,-2.34 1.45,-2.34 l -0.87,-17.5 z"
     id="path9" />
  <path
     fill="#e0e0e0"
     d="m 14.582227,26.99 c 0,0 0.47,-0.71 0.92,-0.84 0.45,-0.13 1.31,-0.54 1.31,-0.86 0,-0.32 -0.13,-1.14 0.09,-1.94 0.23,-0.81 1.72,-1.76 3.84,-1.77 1.62,-0.01 2.35,1 2.66,1.55 0.32,0.54 0.45,2.3 0.59,2.58 0.14,0.28 0.63,0.81 1.17,0.81 0.54,0 0.72,-0.23 0.72,-0.63 0,-0.41 -0.23,-0.72 0.05,-1.31 0.27,-0.59 0.68,-1.17 2.21,-1.36 1.54,-0.18 3.27,-0.37 3.8,-0.23 0.9,0.25 2.49,1.76 2.76,2.08 0.27,0.32 0.54,1.58 0.63,2.12 0.09,0.54 0.95,1.49 1.22,1.81 0.27,0.32 0.36,2.53 -1.4,2.62 -1.76,0.09 -1.76,-1.99 -1.76,-2.53 0,-0.54 -0.18,-1.13 -0.45,-1.22 -0.27,-0.09 -1.42,-0.17 -1.54,0.09 -0.4,0.88 0.14,1.45 -0.09,1.76 -0.23,0.32 -3.48,3.12 -3.66,3.66 -0.18,0.54 -0.68,1.45 -0.09,2.17 0.59,0.72 2.71,1.49 3.12,1.72 0.41,0.23 1.27,-0.45 1.17,-0.95 -0.09,-0.5 -0.59,-1.04 -0.59,-1.63 0,-0.59 0.77,-1.67 1.22,-1.76 0.45,-0.09 1.63,1.04 1.63,1.04 0,0 1.81,-0.14 2.26,0.18 0.45,0.32 0.54,1.36 0.54,1.36 l 0.59,0.99 c 0,0 -2.53,4.29 -2.67,4.34 -0.14,0.05 -16.94,-1.08 -16.94,-1.08 l -2.98,-9.35 z"
     id="path10" />
  <path
     fill="#7adc8a"
     d="m 16.502227,45.71 c 0,0 0.72,1.4 0.94,1.94 0.23,0.54 0.72,1.31 0.9,1.67 0.18,0.36 1.04,1.36 1.72,1.31 0.68,-0.05 0.59,-2.21 1.17,-2.03 0.59,0.18 0.81,1.36 1.04,1.63 0.23,0.27 0.59,0.72 0.59,0.72 l 2.21,1.17 0.72,-1.17 c 0,0 0,-0.86 0.14,-1.04 0.14,-0.18 1.63,-1.17 1.85,-1.27 0.23,-0.09 2.09,0.27 2.62,0.14 1.09,-0.27 3.03,-2.71 3.43,-3.43 0.41,-0.72 1.08,-1.49 1.36,-1.9 0.27,-0.41 0.05,-0.88 0.05,-0.88 0,0 1.5,0.22 2.04,-0.91 0.28,-0.59 0.25,-1.33 0.25,-1.33 0,0 1.4,-1.04 1.4,-1.76 0,-0.72 -1.45,-2.08 -1.45,-2.08 0,0 -1.27,0.86 -2.39,1.49 -1.12,0.63 -2.53,1.14 -4.25,0.87 -1.72,-0.27 -2.25,-0.51 -2.57,-0.78 -0.32,-0.27 -0.71,-1.11 -1.06,-1.57 -0.76,-0.98 -2.14,-1.37 -2.37,-2.09 -0.23,-0.72 1.17,-1.67 0.59,-2.67 -0.59,-0.99 -2.62,-0.45 -3.75,-0.18 -1.13,0.27 -2.67,0.77 -2.94,0.68 -0.27,-0.09 -0.05,-0.81 -1.08,-1.72 -0.91,-0.8 -2.99,-2.46 -2.99,-2.46 z"
     id="path11" />
  <path
     fill="#d0fe8b"
     d="m 22.872227,50.96 h 2.94 c 0,0 0.08,0.5 0.27,0.65 0.19,0.15 0.68,0.46 0.95,0.42 0.27,-0.04 0.91,-0.86 1.63,-0.79 1.08,0.12 1.79,0.66 2.09,1.12 0.3,0.45 0.5,1.65 1.07,2.03 0.57,0.38 1.58,-0.21 3.33,0 1.26,0.15 1.59,0.15 1.89,0.41 0.3,0.26 0.63,1 0.85,1.04 0.22,0.04 0.85,-0.26 1.26,-0.15 0.41,0.11 1.81,1.66 2.37,2.03 0.55,0.37 1.07,0.85 1.07,0.85 0,0 0.78,-0.33 1.59,0.07 0.81,0.41 0.97,1.42 0.97,1.42 0,0 0.23,2.13 -1.64,4.97 -2.19,3.33 -2.96,4.44 -3.51,5.07 -0.55,0.63 -2,1.52 -2.55,2.26 -0.55,0.74 -0.85,1.26 -0.81,1.59 0.04,0.33 0.07,1.22 -0.18,1.78 -0.26,0.55 -0.44,0.55 -0.52,1.22 -0.08,0.67 0.48,1.81 0.04,2.22 -0.44,0.41 -1.92,0.18 -2.74,-1.26 -0.81,-1.44 -0.63,-3.74 -0.37,-5.03 0.26,-1.29 1.11,-4.07 1.15,-5.84 0.04,-1.78 -1,-3.62 -2.03,-4.59 -1.03,-0.97 -1.33,-1.29 -1.33,-2.92 0,-1.11 0.59,-1.63 0.59,-1.63 l 0.11,-1.59 c 0,0 -1.19,-0.22 -1.59,-0.74 -0.41,-0.52 -0.81,-0.96 -1.33,-1.11 -0.52,-0.15 -1.71,0.17 -2.66,-0.27 -0.39,-0.18 -1.21,-0.98 -1.55,-1.21 -0.89,-0.58 -1.36,-2.02 -1.36,-2.02"
     id="path12" />
  <path
     fill="#e0e0e0"
     d="m 32.152227,87.06 c 0,0 0.32,-0.64 0.96,-0.96 0.64,-0.32 1.55,-0.68 1.59,-0.96 0.04,-0.28 0.64,-2.07 1.44,-2.07 0.8,0 0.56,1.04 0.6,1.4 0.04,0.36 0.4,0.64 0.32,1.24 -0.08,0.6 -0.44,0.56 -0.44,0.88 0,0.32 0.08,0.88 0.08,0.88 z"
     id="path13" />
  <path
     fill="#e3ffad"
     d="m 49.842227,51.28 c 0,0 -0.81,0.84 -0.81,1.33 0,0.49 -0.26,2.59 0.22,3.64 0.48,1.05 0.7,1.49 1.54,1.8 0.83,0.31 1.27,0.57 2.02,0.57 0.75,0 1.62,0.09 2.02,0.13 0.4,0.04 1.36,0.75 1.54,0.97 0.18,0.22 0.31,1.4 0.53,1.71 0.22,0.31 1.1,0.88 1.1,0.88 0,0 -0.4,2.41 0.09,3.56 0.48,1.14 0.88,2.77 1.19,3.56 0.31,0.79 1.49,1.89 1.84,2.15 0.35,0.26 1.14,-0.18 1.71,-0.7 0.57,-0.52 1.89,-2.06 2.2,-2.37 0.31,-0.31 0.31,-1.19 0.61,-1.58 0.31,-0.4 0.04,-1.19 0.48,-1.71 0.44,-0.53 1.4,-1.27 1.49,-1.84 0.09,-0.57 -0.22,-2.2 0.09,-2.72 0.31,-0.53 1.62,-2.28 2.06,-2.68 0.44,-0.4 0.75,-1.27 0.48,-1.54 -0.27,-0.27 -1.98,-0.18 -2.46,-0.48 -0.48,-0.31 -1.32,-1.62 -1.54,-2.06 -0.22,-0.44 -1.01,-1.49 -1.14,-1.93 -0.13,-0.44 0.7,-0.92 0.92,-0.79 0.22,0.13 1.32,1.89 1.76,2.5 0.44,0.61 0.44,0.83 0.75,0.92 0.31,0.09 1.19,0.18 1.4,0 0.22,-0.18 1.1,-0.61 1.49,-0.92 0.4,-0.31 1.05,-0.57 1.01,-0.88 -0.04,-0.31 -0.18,-1.01 -0.4,-1.1 -0.22,-0.09 -1.45,0.09 -1.45,0.09 0,0 -1.19,-1.4 -1.27,-1.67 -0.08,-0.27 0.57,-0.61 1.01,-0.31 0.44,0.3 1.45,0.79 1.71,0.88 0.26,0.09 1.49,0.44 1.89,0.44 0.4,0 1.93,0.92 1.93,0.92 l -0.25,-5.48 c 0,0 -6.68,2.14 -12.68,3.08 -6.22,0.96 -13.08,1.63 -13.08,1.63"
     id="path14" />
  <path
     fill="#e0e0e0"
     d="m 49.212227,88.18 c 0,0 2.33,-1.47 2.75,-1.71 0.42,-0.24 3.02,-1.36 3.86,-1.59 0.48,-0.13 5.27,-0.43 6.14,-0.41 1.12,0.02 2.13,0.35 3.35,0.29 1.22,-0.06 4.41,0.31 5.02,-0.06 0.61,-0.37 3.49,-2.56 4.1,-2.82 0.75,-0.31 2.31,-0.04 2.31,-0.04 l 0.14,4.37 c 0,0 -9.51,1.98 -16.88,2.09 -7.36,0.13 -10.79,-0.12 -10.79,-0.12 m 35.15,-74.43 c -1.04,-0.56 -1.47,1.12 -1.63,1.55 -0.16,0.44 -0.31,1.13 -0.04,1.63 0.32,0.6 1.04,0.76 1.35,1.04 0.31,0.28 1.35,0.6 1.63,-0.44 0.28,-1.04 -0.52,-1.91 -0.52,-1.91 0,0 0.05,-1.42 -0.79,-1.87 m -7.93,11.4 c 0,0 0.58,-0.16 0.79,0.24 0.12,0.22 0.14,0.41 0.28,0.56 0.14,0.15 1.79,0.28 1.95,0.04 0.16,-0.24 1.39,-2.47 2.71,-3.27 1.32,-0.8 2.87,-1 3.55,-1.32 0.68,-0.32 0.76,-1.35 1.55,-1.35 0.79,0 3.11,1.55 3.27,1.83 0.16,0.28 -0.36,1.04 -0.84,1.63 -0.48,0.6 -1.24,1 -0.8,1.28 0.44,0.28 1.99,0.52 2.87,0.56 0.88,0.04 1.39,-0.28 2.07,0.04 0.68,0.32 0.4,1.75 0.8,1.83 0.4,0.08 2.47,0.24 3.15,-0.16 0.68,-0.4 0.52,-1 1.24,-1.16 0.72,-0.16 1.430003,-0.24 2.110003,0.32 0.68,0.56 1.35,1.16 1.71,1.47 0.36,0.32 0.96,0.44 0.96,0.44 l -0.82,5.12 c 0,0 -5.520003,2.49 -6.030003,2.49 -0.52,0 -20.92,1.03 -20.92,1.03 z"
     id="path15" />
  <path
     fill="#7adc8a"
     d="m 76.172227,34.24 c 0,0 0.38,0.59 0.5,0.83 0.12,0.24 0.76,0.48 1.08,0.2 0.32,-0.28 0.12,-2.35 0.32,-2.63 0.2,-0.28 2.19,-0.04 2.35,-0.16 0.16,-0.12 1.2,-0.52 1.63,-0.28 0.44,0.24 1.16,1.35 1.75,1.32 0.6,-0.04 1.32,0.2 1.79,-0.36 0.48,-0.56 1.24,-1.63 2.27,-1.99 1.03,-0.36 1.71,-0.44 1.87,-0.6 0.16,-0.16 1.55,-2.03 2.07,-2.23 0.52,-0.2 1.43,-0.08 1.79,0 0.36,0.08 0.52,0.24 0.56,1.04 0.04,0.8 0.24,1.55 0.4,1.79 0.16,0.24 1.35,1.35 1.71,1.39 0.36,0.04 1.47,-0.24 2.55,0 1.08,0.24 2.710003,0.76 3.110003,0.76 0.4,0 1.04,-0.05 1.04,-0.05 l -0.48,2.98 c 0,0 -0.29,-0.19 -1.01,-0.07 -0.72,0.12 -1.04,0.6 -1.510003,0.48 -0.47,-0.12 -1,-0.28 -1.32,-0.16 -0.32,0.12 -1.99,1.91 -1.79,2.35 0.2,0.44 1.67,0.04 2.07,0.32 0.4,0.28 0.96,0.76 0.96,1.08 0,0.32 0,1.28 -0.28,1.47 -0.28,0.2 -1.55,0.16 -1.83,0.36 -0.28,0.2 0,1.08 -0.44,1.63 -0.44,0.56 -1.87,1.79 -1.87,1.79 0,0 -0.22,0.76 -0.35,1.01 -0.23,0.49 -0.59,1.03 -0.83,0.99 -0.24,-0.04 -1.32,-1.51 -1.83,-1.55 -0.52,-0.04 -0.36,1.55 -0.36,1.55 l -16.49,-0.94 z m 23.58,9.56 c -0.04,-0.22 -0.91,-0.37 -1.11,-0.07 -0.2,0.3 -0.77,1.07 -1.07,1.71 -0.3,0.64 -1.01,2.01 -0.5,2.31 0.29,0.17 1.55,-0.72 2.06,-1.52 0.12,-0.19 0.79,-1.42 0.62,-2.43"
     id="path16" />
  <path
     fill="#d0fe8b"
     d="m 92.092227,47.5 -16.48,-0.95 0.25,5.48 c 0,0 0.57,0.7 0.8,1.4 0.23,0.7 0.77,2.05 1.14,2.62 0.37,0.57 0.44,1.61 1.31,1.51 0.87,-0.1 0.81,-1.21 1.07,-1.95 0.27,-0.74 0.94,-1.41 1.21,-1.64 0.27,-0.23 0.84,-0.87 1.11,-0.77 0.27,0.1 0.71,0.94 1.07,1.41 0.6,0.77 2.31,1.51 2.31,1.51 0,0 2.44,0.73 2.78,-0.34 0.3,-0.94 -0.32,-2.17 -0.1,-2.58 0.28,-0.5 1.32,-0.52 2.32,-0.8 1.31,-0.37 1.68,-1.38 1.81,-2.48 0.13,-1.1 -0.6,-2.42 -0.6,-2.42"
     id="path17" />
  <path
     fill="#d0fe8b"
     d="m 93.602227,62.17 c 0.16,-0.22 -0.77,-0.65 -1.46,-1.82 -0.69,-1.17 -0.98,-1.85 -1.32,-1.92 -0.34,-0.07 -2.3,0.84 -2.3,1.01 0,0.17 0.98,1.41 0.98,1.41 0,0 -1.34,0.36 -1.99,-0.62 -0.65,-0.98 -0.55,-1.85 -0.96,-2.54 -0.41,-0.69 -1.05,-1.68 -1.44,-1.65 -0.38,0.02 -0.84,0.34 -0.65,1.01 0.19,0.67 0.34,0.89 0.34,0.89 0.34,0.74 -0.46,1.7 -0.12,2.25 0.34,0.55 3.12,2.4 3.62,2.61 0.5,0.21 5.01,-0.23 5.3,-0.63 m -0.33,-3.74 c 0.74,0.08 0.91,-1.7 0.77,-2.4 -0.14,-0.7 -0.72,-2.52 -1.32,-2.52 -0.6,0 -1.13,0.74 -1.01,1.22 0.12,0.48 0.53,1.2 0.55,1.44 0.02,0.25 0.33,2.19 1.01,2.26 m 2.25,0.81 c -0.14,0.09 -0.24,1.13 -0.1,1.25 0.14,0.12 1.15,0.24 1.63,0.86 0.48,0.62 0.5,1.29 0.81,1.39 0.31,0.1 2.880003,-0.48 2.880003,-1.63 0,-0.62 -4.790003,-2.15 -5.220003,-1.87 m 10.660003,14.47 c 0.26,-0.45 0.08,-1.29 0.34,-1.79 0.26,-0.49 0.96,-0.72 1.27,-0.36 0.31,0.36 0.34,1.58 0.13,1.97 -0.14,0.26 -0.16,1.16 -0.88,1.79 -0.72,0.63 -1.14,0.57 -1.35,0.62 -0.21,0.05 -1.19,0.88 -1.6,0.34 -0.41,-0.54 0.18,-1.42 0.75,-1.84 0.56,-0.42 1.16,-0.42 1.34,-0.73 m -8.460003,-8.75 c -0.1,-0.1 -0.23,-1.84 -1.16,-1.89 -0.93,-0.05 -1.68,0.72 -1.68,0.72 0,0 -1.16,-0.08 -1.45,0.16 -0.28,0.23 -1.35,1.37 -1.81,1.58 -0.47,0.21 -1.19,0.41 -1.68,0.62 -0.49,0.21 -0.78,0.96 -0.72,1.76 0.05,0.8 0.23,2.59 0.31,3 0.08,0.41 0.62,1.5 1.94,0.98 1.32,-0.52 1.79,-1.16 2.02,-1.19 0.23,-0.03 2.33,-0.03 2.46,-0.1 0.13,-0.08 1.32,2.07 2.36,2.3 1.04,0.23 2.330003,0.13 2.560003,-0.05 0.23,-0.18 1.6,-2.07 1.73,-2.74 0.13,-0.67 0.1,-2.07 -0.16,-2.61 -0.26,-0.54 -1.92,-2.36 -1.92,-2.36 0,0 -0.26,-1.97 -1.480003,-1.99 -0.96,-0.02 -0.28,1.42 -0.52,1.66 -0.23,0.23 -0.8,0.15 -0.8,0.15"
     id="path18" />
</svg>
