<svg width="371" height="100" viewBox="0 0 371 100" fill="none" xmlns="http://www.w3.org/2000/svg">
<g clip-path="url(#clip0_334_279)">
<path fill-rule="evenodd" clip-rule="evenodd" d="M84.8534 83.4023L30.1854 15.5172H15.5172V83.8844H27.2518V30.1307L70.523 83.9129L84.8534 83.9129L85.2646 83.9129L144.01 83.9129V72.9932H96.588V54.9518H134.725V44.0321H96.588V26.4655H144.01V15.5457H84.8485V26.4655H84.8534V83.4023ZM300.471 15.5457H241.309V26.4655H265.267V83.9129H277.002V26.4655H300.471V15.5457ZM173.552 15.5743H158.195L213.2 83.9415H228.602L201.096 49.7814L228.558 15.6264L213.2 15.6502L193.407 40.2325L173.552 15.5743ZM181.62 54.8473L189.31 64.4093L173.552 83.9936H158.151L181.62 54.8473ZM300.907 82.6022C301.519 83.1977 302.25 83.4953 303.109 83.4953C303.665 83.4953 304.174 83.3544 304.635 83.0802C305.105 82.8138 305.478 82.4455 305.772 81.9753C306.059 81.5131 306.202 80.996 306.21 80.432C306.202 79.6015 305.892 78.8884 305.271 78.293C304.659 77.6976 303.936 77.3998 303.109 77.3998C302.25 77.3998 301.519 77.6976 300.907 78.293C300.295 78.8884 299.992 79.6015 300 80.432C299.992 81.286 300.295 82.0068 300.907 82.6022ZM323.138 54.6942H328.338V74.7281C328.33 76.5693 327.932 78.1441 327.153 79.4683C326.366 80.7923 325.277 81.8029 323.877 82.5159C322.486 83.221 320.856 83.5815 319.003 83.5815C317.309 83.5815 315.791 83.2759 314.44 82.6805C313.088 82.0851 312.015 81.1919 311.227 80.0166C310.432 78.8414 310.042 77.3763 310.042 75.6213H315.251C315.259 76.3891 315.434 77.055 315.767 77.6113C316.101 78.1676 316.562 78.5906 317.151 78.8884C317.746 79.1861 318.431 79.335 319.202 79.335C320.037 79.335 320.752 79.1626 321.333 78.81C321.913 78.4653 322.359 77.9482 322.669 77.2587C322.971 76.5772 323.13 75.7309 323.138 74.7281V54.6942ZM348.08 59.6929C349.05 60.3667 349.607 61.3147 349.734 62.5291H354.775C354.751 60.923 354.29 59.5049 353.407 58.267C352.525 57.0291 351.308 56.0576 349.758 55.3603C348.207 54.6552 346.41 54.3103 344.359 54.3103C342.34 54.3103 340.527 54.6552 338.921 55.3603C337.322 56.0576 336.058 57.037 335.136 58.2984C334.205 59.5598 333.744 61.0328 333.744 62.7094C333.744 64.7543 334.428 66.384 335.811 67.6141C337.187 68.8441 339.072 69.7608 341.449 70.3641L344.741 71.1946C345.774 71.4531 346.681 71.7509 347.46 72.0799C348.231 72.409 348.835 72.8164 349.272 73.3021C349.702 73.7878 349.925 74.4069 349.933 75.1512C349.925 75.966 349.678 76.679 349.185 77.2823C348.7 77.8934 348.024 78.3634 347.166 78.7003C346.299 79.0372 345.297 79.2097 344.16 79.2097C343.071 79.2097 342.085 79.0451 341.203 78.7239C340.328 78.3948 339.612 77.909 339.064 77.2509C338.523 76.585 338.205 75.7622 338.134 74.7751H332.981C333.053 76.6633 333.553 78.2695 334.484 79.5857C335.414 80.902 336.703 81.9049 338.356 82.5866C340.002 83.276 341.958 83.6207 344.2 83.6207C346.522 83.6207 348.493 83.2603 350.123 82.5552C351.761 81.8422 353.009 80.8549 353.876 79.5935C354.743 78.3243 355.172 76.8591 355.172 75.1903C355.172 73.9524 354.934 72.8791 354.465 71.9624C353.996 71.0457 353.36 70.2622 352.556 69.6119C351.753 68.9616 350.839 68.421 349.829 67.9979C348.82 67.5671 347.762 67.2301 346.672 66.9794L343.961 66.3134C343.373 66.1724 342.785 66 342.197 65.7963C341.616 65.5926 341.083 65.3419 340.606 65.0364C340.121 64.7386 339.747 64.3703 339.469 63.9316C339.191 63.5007 339.047 62.9836 339.047 62.3882C339.064 61.6752 339.271 61.0405 339.684 60.4842C340.097 59.9279 340.702 59.4892 341.481 59.1602C342.26 58.839 343.198 58.6744 344.287 58.6744C345.838 58.6744 347.102 59.0113 348.08 59.6929Z" fill="white"/>
<path fill-rule="evenodd" clip-rule="evenodd" d="M344.359 54.3103C344.977 54.3103 345.572 54.3416 346.144 54.4046L346.189 54.4097C346.394 54.433 346.597 54.4604 346.797 54.492L346.862 54.5025C346.925 54.5127 346.987 54.5233 347.049 54.5343C347.135 54.5496 347.221 54.5657 347.306 54.5826C348.04 54.7285 348.732 54.9335 349.383 55.1987C349.438 55.2214 349.494 55.2446 349.549 55.2682C349.611 55.2947 349.673 55.3217 349.734 55.3493L349.758 55.3603C350.102 55.5149 350.429 55.6831 350.74 55.8646L350.745 55.8676C350.955 55.9902 351.157 56.119 351.352 56.2538C351.386 56.2773 351.42 56.3011 351.454 56.3251C351.945 56.6751 352.387 57.0648 352.781 57.4938C352.979 57.7099 353.165 57.936 353.338 58.1721L353.372 58.2177L353.407 58.267C353.515 58.4191 353.618 58.5739 353.713 58.7315C353.727 58.7546 353.741 58.7777 353.755 58.8009C353.985 59.1896 354.177 59.5949 354.33 60.0169C354.557 60.6428 354.697 61.3054 354.751 62.0055C354.764 62.1778 354.772 62.3523 354.775 62.5291H349.734C349.729 62.4817 349.723 62.4348 349.717 62.3882C349.657 61.9397 349.536 61.5289 349.355 61.1562L349.354 61.1543C349.237 60.9117 349.094 60.6852 348.926 60.475C348.772 60.2827 348.597 60.1041 348.402 59.9391C348.393 59.9315 348.384 59.924 348.375 59.9165C348.353 59.8987 348.332 59.881 348.31 59.8635C348.236 59.8048 348.159 59.748 348.08 59.6929C348.012 59.6452 347.942 59.5992 347.871 59.5549L347.855 59.5453C347.805 59.5144 347.754 59.4843 347.703 59.4551L347.68 59.4422C347.474 59.3264 347.256 59.2237 347.028 59.1341C347 59.1232 346.972 59.1125 346.944 59.102C346.591 58.9701 346.212 58.8688 345.807 58.798L345.766 58.7909C345.425 58.7334 345.067 58.6972 344.691 58.6823L344.678 58.6818L344.662 58.6812C344.611 58.6793 344.559 58.6778 344.508 58.6767C344.477 58.6761 344.446 58.6756 344.415 58.6752L344.399 58.675L344.359 58.6746L344.287 58.6744C344.14 58.6744 343.996 58.6774 343.855 58.6833L343.793 58.6862L343.751 58.6883C342.888 58.7341 342.13 58.8929 341.481 59.1602C341.245 59.26 341.024 59.3699 340.821 59.4902C340.797 59.5038 340.775 59.5175 340.752 59.5314L340.743 59.5369C340.31 59.8033 339.956 60.1183 339.684 60.4842C339.494 60.7394 339.348 61.0112 339.244 61.2994L339.235 61.3236C339.118 61.6566 339.056 62.0115 339.047 62.3882C339.047 62.4979 339.052 62.605 339.062 62.7094C339.093 63.0401 339.172 63.3435 339.297 63.6182C339.305 63.6351 339.313 63.6519 339.321 63.6686L339.327 63.6813L339.336 63.6981C339.376 63.7786 339.42 63.8564 339.469 63.9316C339.686 64.2728 339.959 64.5714 340.299 64.8274C340.396 64.9005 340.498 64.9702 340.606 65.0364C341.053 65.3226 341.548 65.5607 342.087 65.7571L342.14 65.7762L342.197 65.7963C342.321 65.8394 342.446 65.8812 342.57 65.9215L342.576 65.9233L342.634 65.9421L342.641 65.9442C342.941 66.0401 343.242 66.1279 343.542 66.2076L343.552 66.2103C343.578 66.2173 343.605 66.2241 343.631 66.231L343.668 66.2405L343.701 66.249C343.752 66.2621 343.804 66.275 343.855 66.2877C343.891 66.2964 343.926 66.305 343.961 66.3134L346.672 66.9794C346.784 67.0051 346.896 67.0317 347.007 67.0592C347.032 67.0656 347.058 67.0721 347.084 67.0786C347.104 67.0836 347.123 67.0885 347.143 67.0935L347.192 67.1061C347.393 67.1581 347.594 67.2132 347.793 67.2714C348.297 67.4188 348.794 67.5862 349.279 67.7743L349.294 67.7797C349.439 67.836 349.583 67.8941 349.726 67.9541L349.734 67.9574L349.775 67.9747L349.829 67.9979C349.876 68.0173 349.922 68.037 349.968 68.0569C349.997 68.0695 350.025 68.0821 350.054 68.0948C350.117 68.1225 350.179 68.1506 350.241 68.1792C351.005 68.5331 351.71 68.9573 352.349 69.4481L352.383 69.4748C352.403 69.49 352.422 69.5053 352.442 69.5207C352.48 69.5508 352.518 69.5812 352.556 69.6119C352.66 69.6957 352.76 69.7816 352.858 69.8698C352.896 69.9041 352.934 69.9387 352.971 69.9737L353.004 70.0045C353.6 70.5705 354.087 71.2231 354.465 71.9624C354.583 72.1932 354.686 72.434 354.775 72.6848C355.03 73.4048 355.163 74.2078 355.172 75.0966C355.172 75.1277 355.172 75.159 355.172 75.1903V75.2011C355.171 76.1223 355.039 76.9814 354.775 77.7797C354.761 77.8223 354.746 77.8646 354.732 77.9069C354.715 77.9536 354.698 78.0001 354.681 78.0464C354.477 78.5912 354.208 79.1068 353.876 79.5935C353.667 79.8974 353.436 80.1853 353.183 80.4573C353.167 80.4748 353.151 80.4922 353.134 80.5095C352.344 81.343 351.341 82.0249 350.123 82.5552C349.722 82.7287 349.3 82.8814 348.858 83.0129L348.844 83.0169C347.491 83.4172 345.944 83.6207 344.2 83.6207L344.16 83.6207C343.626 83.6197 343.109 83.5991 342.607 83.5589L342.565 83.5555C342.485 83.5489 342.406 83.5418 342.327 83.5342C342.105 83.5129 341.888 83.4877 341.673 83.4586L341.647 83.455C340.939 83.3578 340.267 83.2178 339.634 83.0349L339.587 83.0212C339.308 82.9395 339.036 82.8494 338.772 82.751C338.727 82.7343 338.682 82.7173 338.638 82.7001C338.546 82.6644 338.455 82.6277 338.364 82.5899L338.356 82.5866L338.349 82.5835C338.276 82.5536 338.205 82.5231 338.134 82.4919C337.885 82.3831 337.646 82.2667 337.415 82.1427C336.886 81.8592 336.401 81.5364 335.961 81.1746C335.692 80.9532 335.44 80.7172 335.204 80.4668C335.189 80.4511 335.174 80.4355 335.16 80.4197C334.917 80.1574 334.691 79.8793 334.484 79.5857C334.407 79.4775 334.334 79.3674 334.263 79.2553C333.828 78.5654 333.503 77.8014 333.288 76.9644C333.257 76.8418 333.227 76.7177 333.201 76.5919C333.102 76.1313 333.036 75.6496 333.001 75.1471C332.993 75.0339 332.987 74.9196 332.982 74.8043L332.981 74.7751H338.134C338.135 74.7982 338.137 74.8212 338.139 74.8442C338.143 74.8852 338.146 74.9259 338.151 74.9663C338.153 74.9907 338.156 75.0149 338.159 75.0391C338.165 75.0841 338.171 75.1289 338.177 75.1732C338.182 75.2069 338.187 75.2404 338.193 75.2736C338.257 75.6529 338.361 76.0051 338.503 76.3307C338.511 76.349 338.519 76.3672 338.528 76.3853C338.547 76.4266 338.566 76.4675 338.586 76.5079C338.608 76.552 338.631 76.5956 338.654 76.6387C338.772 76.8558 338.909 77.0598 339.064 77.2509C339.219 77.4375 339.388 77.6102 339.57 77.7694L339.579 77.7768C339.76 77.9342 339.954 78.0784 340.16 78.2097L340.184 78.2243C340.227 78.2516 340.271 78.2783 340.316 78.3044C340.513 78.4197 340.72 78.5241 340.939 78.6179C340.951 78.6232 340.964 78.6285 340.976 78.6337L341.003 78.645C341.069 78.6722 341.135 78.6985 341.203 78.7239L341.23 78.7337C341.694 78.9005 342.187 79.0243 342.708 79.1037L342.743 79.1091L342.76 79.1115L342.809 79.1185C343.028 79.1492 343.251 79.1722 343.48 79.1875C343.543 79.1917 343.607 79.1953 343.671 79.1983C343.734 79.2012 343.797 79.2036 343.86 79.2054C343.959 79.2082 344.059 79.2097 344.16 79.2097L344.2 79.2096C344.274 79.2093 344.347 79.2083 344.42 79.2066L344.447 79.2059C344.565 79.2028 344.681 79.1978 344.795 79.191L344.803 79.1905C344.89 79.1852 344.975 79.1788 345.06 79.1714C345.09 79.1687 345.12 79.166 345.15 79.1631C345.888 79.0911 346.56 78.9359 347.166 78.7003C347.552 78.5489 347.901 78.3705 348.212 78.1646L348.221 78.1584C348.301 78.1054 348.378 78.0507 348.453 77.9941C348.732 77.7826 348.976 77.5455 349.185 77.2823C349.345 77.0872 349.479 76.8806 349.587 76.6628L349.592 76.6514C349.646 76.5427 349.693 76.4313 349.734 76.3171C349.859 75.967 349.925 75.5911 349.932 75.1903L349.933 75.1512C349.93 74.8601 349.894 74.588 349.825 74.3358C349.799 74.2402 349.769 74.1474 349.734 74.0575C349.718 74.017 349.701 73.9772 349.683 73.9378C349.611 73.7775 349.523 73.6268 349.42 73.4858L349.419 73.4839C349.373 73.4214 349.324 73.3607 349.272 73.3021C349.121 73.1333 348.948 72.9739 348.756 72.824C348.556 72.6683 348.335 72.5229 348.092 72.3876C348.079 72.3806 348.066 72.3736 348.054 72.3667C348.039 72.3585 348.024 72.3504 348.009 72.3423L347.981 72.3278C347.817 72.2407 347.643 72.1581 347.46 72.0799C347.259 71.995 347.049 71.9122 346.831 71.8316C346.782 71.8133 346.732 71.7951 346.681 71.777C346.483 71.7057 346.277 71.6362 346.065 71.5686C346.04 71.5606 346.015 71.5527 345.989 71.5448C345.971 71.539 345.952 71.5332 345.934 71.5275L345.901 71.5172C345.817 71.4913 345.732 71.4657 345.646 71.4405L345.581 71.4215C345.479 71.3916 345.375 71.3622 345.269 71.3331L345.234 71.3236C345.073 71.2796 344.908 71.2365 344.741 71.1946L341.449 70.364L341.419 70.3563C341.205 70.3019 340.996 70.2448 340.791 70.1853L340.774 70.1805L340.686 70.1548L340.67 70.15C340.603 70.1301 340.537 70.11 340.471 70.0896C340.424 70.075 340.377 70.0603 340.33 70.0454C340.18 69.9978 340.033 69.9487 339.887 69.8982C339.457 69.7484 339.046 69.5861 338.655 69.4112C338.477 69.3316 338.303 69.2493 338.134 69.1644L338.088 69.1413C338.059 69.127 338.031 69.1126 338.003 69.0981C337.492 68.8352 337.02 68.5479 336.588 68.2364C336.313 68.0387 336.054 67.8313 335.811 67.614C335.524 67.3581 335.266 67.0849 335.039 66.7942L335.012 66.7603C334.939 66.6656 334.87 66.5692 334.803 66.4709C334.758 66.4045 334.715 66.3373 334.672 66.2693C334.052 65.2664 333.744 64.0814 333.744 62.7094C333.744 62.6527 333.745 62.5962 333.746 62.54C333.747 62.4892 333.748 62.4386 333.75 62.3882C333.751 62.3475 333.753 62.307 333.755 62.2665C333.81 61.1718 334.07 60.1682 334.539 59.2578C334.711 58.9255 334.909 58.6057 335.136 58.2984C335.325 58.0405 335.527 57.7944 335.744 57.5601L335.748 57.5565C336.532 56.7106 337.502 56.0185 338.655 55.4802C338.743 55.4393 338.831 55.3993 338.921 55.3603C339.188 55.2428 339.462 55.1354 339.74 55.0378L339.777 55.0252C340.146 54.8977 340.524 54.7874 340.913 54.6942C341.836 54.473 342.815 54.3483 343.851 54.3178C343.933 54.3153 344.015 54.3135 344.098 54.3123C344.161 54.3113 344.224 54.3107 344.287 54.3105L344.359 54.3103Z" fill="white"/>
<path d="M277.003 99.4302C281.987 99.4302 286.423 97.08 289.262 93.4273C273.831 87.8629 265.18 84.7431 249.75 79.1787C249.75 81.0275 249.75 83.9129 249.75 83.9129C249.75 92.4829 256.697 99.4302 265.267 99.4302H277.003Z" fill="white"/>
<path d="M289.493 93.1213L249.75 78.8488C249.75 78.8488 249.75 79.0499 249.75 79.1787C265.18 84.7431 273.831 87.8629 289.262 93.4273C289.34 93.3263 289.417 93.2243 289.493 93.1213Z" fill="white"/>
<path fill-rule="evenodd" clip-rule="evenodd" d="M344.359 54.3103C344.977 54.3103 345.572 54.3416 346.144 54.4046L346.189 54.4097C346.394 54.433 346.597 54.4604 346.797 54.492L346.862 54.5025C346.925 54.5127 346.987 54.5233 347.049 54.5343C347.135 54.5496 347.221 54.5657 347.306 54.5826C348.04 54.7285 348.732 54.9335 349.383 55.1987C349.438 55.2214 349.494 55.2446 349.549 55.2682C349.611 55.2947 349.673 55.3217 349.734 55.3493L349.758 55.3603C350.102 55.5149 350.429 55.6831 350.74 55.8646L350.745 55.8676C350.955 55.9902 351.157 56.119 351.352 56.2538C351.386 56.2773 351.42 56.3011 351.454 56.3251C351.945 56.6751 352.387 57.0648 352.781 57.4938C352.979 57.7099 353.165 57.936 353.338 58.1721L353.372 58.2177L353.407 58.267C353.515 58.4191 353.618 58.5739 353.713 58.7315C353.727 58.7546 353.741 58.7777 353.755 58.8009C353.985 59.1896 354.177 59.5949 354.33 60.0169C354.557 60.6428 354.697 61.3054 354.751 62.0055C354.764 62.1778 354.772 62.3523 354.775 62.5291H349.734C349.729 62.4817 349.723 62.4348 349.717 62.3882C349.657 61.9397 349.536 61.5289 349.355 61.1562L349.354 61.1543C349.237 60.9117 349.094 60.6852 348.926 60.475C348.772 60.2827 348.597 60.1041 348.402 59.9391C348.393 59.9315 348.384 59.924 348.375 59.9165C348.353 59.8987 348.332 59.881 348.31 59.8635C348.236 59.8048 348.159 59.748 348.08 59.6929C348.012 59.6452 347.942 59.5992 347.871 59.5549L347.855 59.5453C347.805 59.5144 347.754 59.4843 347.703 59.4551L347.68 59.4422C347.474 59.3264 347.256 59.2237 347.028 59.1341C347 59.1232 346.972 59.1125 346.944 59.102C346.591 58.9701 346.212 58.8688 345.807 58.798L345.766 58.7909C345.425 58.7334 345.067 58.6972 344.691 58.6823L344.678 58.6818L344.662 58.6812C344.611 58.6793 344.559 58.6778 344.508 58.6767C344.477 58.6761 344.446 58.6756 344.415 58.6752L344.399 58.675L344.359 58.6746L344.287 58.6744C344.14 58.6744 343.996 58.6774 343.855 58.6833L343.793 58.6862L343.751 58.6883C342.888 58.7341 342.13 58.8929 341.481 59.1602C341.245 59.26 341.024 59.3699 340.821 59.4902C340.797 59.5038 340.775 59.5175 340.752 59.5314L340.743 59.5369C340.31 59.8033 339.956 60.1183 339.684 60.4842C339.494 60.7394 339.348 61.0112 339.244 61.2994L339.235 61.3236C339.118 61.6566 339.056 62.0115 339.047 62.3882C339.047 62.4979 339.052 62.605 339.062 62.7094C339.093 63.0401 339.172 63.3435 339.297 63.6182C339.305 63.6351 339.313 63.6519 339.321 63.6686L339.327 63.6813L339.336 63.6981C339.376 63.7786 339.42 63.8564 339.469 63.9316C339.686 64.2728 339.959 64.5714 340.299 64.8274C340.396 64.9005 340.498 64.9702 340.606 65.0364C341.053 65.3226 341.548 65.5607 342.087 65.7571L342.14 65.7762L342.197 65.7963C342.321 65.8394 342.446 65.8812 342.57 65.9215L342.576 65.9233L342.634 65.9421L342.641 65.9442C342.941 66.0401 343.242 66.1279 343.542 66.2076L343.552 66.2103L343.631 66.231L343.668 66.2405L343.701 66.249C343.752 66.2621 343.804 66.275 343.855 66.2877C343.891 66.2964 343.926 66.305 343.961 66.3134L346.672 66.9794C346.784 67.0051 346.896 67.0317 347.007 67.0592C347.032 67.0656 347.058 67.0721 347.084 67.0786C347.104 67.0836 347.123 67.0885 347.143 67.0935L347.192 67.1061C347.393 67.1581 347.594 67.2132 347.793 67.2714C348.297 67.4188 348.794 67.5862 349.279 67.7743L349.294 67.7797C349.439 67.836 349.583 67.8941 349.726 67.9541L349.734 67.9574L349.775 67.9747L349.829 67.9979C349.876 68.0173 349.922 68.037 349.968 68.0569C349.997 68.0695 350.025 68.0821 350.054 68.0948C350.117 68.1225 350.179 68.1506 350.241 68.1792C351.005 68.5331 351.71 68.9573 352.349 69.4481L352.383 69.4748C352.403 69.49 352.422 69.5053 352.442 69.5207C352.48 69.5508 352.518 69.5812 352.556 69.6119C352.66 69.6957 352.76 69.7816 352.858 69.8698C352.896 69.9041 352.934 69.9387 352.971 69.9737L353.004 70.0045C353.6 70.5705 354.087 71.2231 354.465 71.9624C354.583 72.1932 354.686 72.434 354.775 72.6848C355.03 73.4048 355.163 74.2078 355.172 75.0966C355.172 75.1277 355.172 75.159 355.172 75.1903V75.2011C355.171 76.1223 355.039 76.9814 354.775 77.7797C354.761 77.8223 354.746 77.8646 354.732 77.9069C354.715 77.9536 354.698 78.0001 354.681 78.0464C354.477 78.5912 354.208 79.1068 353.876 79.5935C353.667 79.8974 353.436 80.1853 353.183 80.4573C353.167 80.4748 353.151 80.4922 353.134 80.5095C352.344 81.343 351.341 82.0249 350.123 82.5552C349.722 82.7287 349.3 82.8814 348.858 83.0129L348.844 83.0169C347.491 83.4172 345.944 83.6207 344.2 83.6207L344.16 83.6207C343.626 83.6197 343.109 83.5991 342.607 83.5589L342.565 83.5555C342.485 83.5489 342.406 83.5418 342.327 83.5342C342.105 83.5129 341.888 83.4877 341.673 83.4586L341.647 83.455C340.939 83.3578 340.267 83.2178 339.634 83.0349L339.587 83.0212C339.308 82.9395 339.036 82.8494 338.772 82.751C338.727 82.7343 338.682 82.7173 338.638 82.7001C338.546 82.6644 338.455 82.6277 338.364 82.5899L338.356 82.5866L338.349 82.5835C338.276 82.5536 338.205 82.5231 338.134 82.4919C337.885 82.3831 337.646 82.2667 337.415 82.1427C336.886 81.8592 336.401 81.5364 335.961 81.1746C335.692 80.9532 335.44 80.7172 335.204 80.4668C335.189 80.4511 335.174 80.4355 335.16 80.4197C334.917 80.1574 334.691 79.8793 334.484 79.5857C334.407 79.4775 334.334 79.3674 334.263 79.2553C333.828 78.5654 333.503 77.8014 333.288 76.9644C333.257 76.8418 333.227 76.7177 333.201 76.5919C333.102 76.1313 333.036 75.6496 333.001 75.1471C332.993 75.0339 332.987 74.9196 332.982 74.8043L332.981 74.7751H338.134C338.135 74.7982 338.137 74.8212 338.139 74.8442C338.143 74.8852 338.146 74.9259 338.151 74.9663C338.153 74.9907 338.156 75.0149 338.159 75.0391C338.165 75.0841 338.171 75.1289 338.177 75.1732C338.182 75.2069 338.187 75.2404 338.193 75.2736C338.257 75.6529 338.361 76.0051 338.503 76.3307C338.511 76.349 338.519 76.3672 338.528 76.3853C338.547 76.4266 338.566 76.4675 338.586 76.5079C338.608 76.552 338.631 76.5956 338.654 76.6387C338.772 76.8558 338.909 77.0598 339.064 77.2509C339.219 77.4375 339.388 77.6102 339.57 77.7694L339.579 77.7768C339.76 77.9342 339.954 78.0784 340.16 78.2097L340.184 78.2243C340.227 78.2516 340.271 78.2783 340.316 78.3044C340.513 78.4197 340.72 78.5241 340.939 78.6179L340.976 78.6337L341.003 78.645C341.069 78.6722 341.135 78.6985 341.203 78.7239L341.23 78.7337C341.694 78.9005 342.187 79.0243 342.708 79.1037L342.743 79.1091L342.76 79.1115L342.809 79.1185C343.028 79.1492 343.251 79.1722 343.48 79.1875C343.543 79.1917 343.607 79.1953 343.671 79.1983C343.734 79.2012 343.797 79.2036 343.86 79.2054C343.959 79.2082 344.059 79.2097 344.16 79.2097L344.2 79.2096C344.274 79.2093 344.347 79.2083 344.42 79.2066L344.447 79.2059C344.565 79.2028 344.681 79.1978 344.795 79.191L344.803 79.1905C344.89 79.1852 344.975 79.1788 345.06 79.1714C345.09 79.1687 345.12 79.166 345.15 79.1631C345.888 79.0911 346.56 78.9359 347.166 78.7003C347.552 78.5489 347.901 78.3705 348.212 78.1646L348.221 78.1584C348.301 78.1054 348.378 78.0507 348.453 77.9941C348.732 77.7826 348.976 77.5455 349.185 77.2823C349.345 77.0872 349.479 76.8806 349.587 76.6628L349.592 76.6514C349.646 76.5427 349.693 76.4313 349.734 76.3171C349.859 75.967 349.925 75.5911 349.932 75.1903L349.933 75.1512C349.93 74.8601 349.894 74.588 349.825 74.3358C349.799 74.2402 349.769 74.1474 349.734 74.0575C349.718 74.017 349.701 73.9772 349.683 73.9378C349.611 73.7775 349.523 73.6268 349.42 73.4858L349.419 73.4839C349.373 73.4214 349.324 73.3607 349.272 73.3021C349.121 73.1333 348.948 72.9739 348.756 72.824C348.556 72.6683 348.335 72.5229 348.092 72.3876C348.079 72.3806 348.066 72.3736 348.054 72.3667C348.039 72.3585 348.024 72.3504 348.009 72.3423L347.981 72.3278C347.817 72.2407 347.643 72.1581 347.46 72.0799C347.259 71.995 347.049 71.9122 346.831 71.8316C346.782 71.8133 346.732 71.7951 346.681 71.777C346.483 71.7057 346.277 71.6362 346.065 71.5686C346.04 71.5606 346.015 71.5527 345.989 71.5448C345.971 71.539 345.952 71.5332 345.934 71.5275L345.901 71.5172C345.817 71.4913 345.732 71.4657 345.646 71.4405L345.581 71.4215C345.479 71.3916 345.375 71.3622 345.269 71.3331L345.234 71.3236C345.073 71.2796 344.908 71.2365 344.741 71.1946L341.449 70.364L341.419 70.3563C341.205 70.3019 340.996 70.2448 340.791 70.1853L340.774 70.1805L340.686 70.1548L340.67 70.15C340.603 70.1301 340.537 70.11 340.471 70.0896C340.424 70.075 340.377 70.0603 340.33 70.0454C340.18 69.9978 340.033 69.9487 339.887 69.8982C339.457 69.7484 339.046 69.5861 338.655 69.4112C338.477 69.3316 338.303 69.2493 338.134 69.1644L338.088 69.1413C338.059 69.127 338.031 69.1126 338.003 69.0981C337.492 68.8352 337.02 68.5479 336.588 68.2364C336.313 68.0387 336.054 67.8313 335.811 67.614C335.524 67.3581 335.266 67.0849 335.039 66.7942L335.012 66.7603C334.939 66.6656 334.87 66.5692 334.803 66.4709C334.758 66.4045 334.715 66.3373 334.672 66.2693C334.052 65.2664 333.744 64.0814 333.744 62.7094C333.744 62.6527 333.745 62.5962 333.746 62.54C333.747 62.4892 333.748 62.4386 333.75 62.3882C333.751 62.3475 333.753 62.307 333.755 62.2665C333.81 61.1718 334.07 60.1682 334.539 59.2578C334.711 58.9255 334.909 58.6057 335.136 58.2984C335.325 58.0405 335.527 57.7944 335.744 57.5601L335.748 57.5565C336.532 56.7106 337.502 56.0185 338.655 55.4802C338.743 55.4393 338.831 55.3993 338.921 55.3603C339.188 55.2428 339.462 55.1354 339.74 55.0378L339.777 55.0252C340.146 54.8977 340.524 54.7874 340.913 54.6942C341.836 54.473 342.815 54.3483 343.851 54.3178C343.933 54.3153 344.015 54.3135 344.098 54.3123C344.161 54.3113 344.224 54.3107 344.287 54.3105L344.359 54.3103Z" fill="white"/>
<path fill-rule="evenodd" clip-rule="evenodd" d="M344.359 54.3103C344.977 54.3103 345.572 54.3416 346.144 54.4046L346.189 54.4097C346.394 54.433 346.597 54.4604 346.797 54.492L346.862 54.5025C346.925 54.5127 346.987 54.5233 347.049 54.5343C347.135 54.5496 347.221 54.5657 347.306 54.5826C348.04 54.7285 348.732 54.9335 349.383 55.1987C349.438 55.2214 349.494 55.2446 349.549 55.2682C349.611 55.2947 349.673 55.3217 349.734 55.3493L349.758 55.3603C350.102 55.5149 350.429 55.6831 350.74 55.8646L350.745 55.8676C350.955 55.9902 351.157 56.119 351.352 56.2538C351.386 56.2773 351.42 56.3011 351.454 56.3251C351.945 56.6751 352.387 57.0648 352.781 57.4938C352.979 57.7099 353.165 57.936 353.338 58.1721L353.372 58.2177L353.407 58.267C353.515 58.4191 353.618 58.5739 353.713 58.7315C353.727 58.7546 353.741 58.7777 353.755 58.8009C353.985 59.1896 354.177 59.5949 354.33 60.0169C354.557 60.6428 354.697 61.3054 354.751 62.0055C354.764 62.1778 354.772 62.3523 354.775 62.5291H349.734C349.729 62.4817 349.723 62.4348 349.717 62.3882C349.657 61.9397 349.536 61.5289 349.355 61.1562L349.354 61.1543C349.237 60.9117 349.094 60.6852 348.926 60.475C348.772 60.2827 348.597 60.1041 348.402 59.9391C348.393 59.9315 348.384 59.924 348.375 59.9165C348.353 59.8987 348.332 59.881 348.31 59.8635C348.236 59.8048 348.159 59.748 348.08 59.6929C348.012 59.6452 347.942 59.5992 347.871 59.5549L347.855 59.5453C347.805 59.5144 347.754 59.4843 347.703 59.4551L347.68 59.4422C347.474 59.3264 347.256 59.2237 347.028 59.1341C347 59.1232 346.972 59.1125 346.944 59.102C346.591 58.9701 346.212 58.8688 345.807 58.798L345.766 58.7909C345.425 58.7334 345.067 58.6972 344.691 58.6823L344.678 58.6818L344.662 58.6812C344.611 58.6793 344.559 58.6778 344.508 58.6767C344.477 58.6761 344.446 58.6756 344.415 58.6752L344.399 58.675L344.359 58.6746L344.287 58.6744C344.14 58.6744 343.996 58.6774 343.855 58.6833L343.793 58.6862L343.751 58.6883C342.888 58.7341 342.13 58.8929 341.481 59.1602C341.245 59.26 341.024 59.3699 340.821 59.4902C340.797 59.5038 340.775 59.5175 340.752 59.5314L340.743 59.5369C340.31 59.8033 339.956 60.1183 339.684 60.4842C339.494 60.7394 339.348 61.0112 339.244 61.2994L339.235 61.3236C339.118 61.6566 339.056 62.0115 339.047 62.3882C339.047 62.4979 339.052 62.605 339.062 62.7094C339.093 63.0401 339.172 63.3435 339.297 63.6182C339.305 63.6351 339.313 63.6519 339.321 63.6686L339.327 63.6813L339.336 63.6981C339.376 63.7786 339.42 63.8564 339.469 63.9316C339.686 64.2728 339.959 64.5714 340.299 64.8274C340.396 64.9005 340.498 64.9702 340.606 65.0364C341.053 65.3226 341.548 65.5607 342.087 65.7571L342.14 65.7762L342.197 65.7963C342.321 65.8394 342.446 65.8812 342.57 65.9215L342.576 65.9233L342.634 65.9421L342.641 65.9442C342.941 66.0401 343.242 66.1279 343.542 66.2076L343.552 66.2103L343.631 66.231L343.668 66.2405L343.701 66.249C343.752 66.2621 343.804 66.275 343.855 66.2877C343.891 66.2964 343.926 66.305 343.961 66.3134L346.672 66.9794C346.784 67.0051 346.896 67.0317 347.007 67.0592C347.032 67.0656 347.058 67.0721 347.084 67.0786C347.104 67.0836 347.123 67.0885 347.143 67.0935L347.192 67.1061C347.393 67.1581 347.594 67.2132 347.793 67.2714C348.297 67.4188 348.794 67.5862 349.279 67.7743L349.294 67.7797C349.439 67.836 349.583 67.8941 349.726 67.9541L349.734 67.9574L349.775 67.9747L349.829 67.9979C349.876 68.0173 349.922 68.037 349.968 68.0569C349.997 68.0695 350.025 68.0821 350.054 68.0948C350.117 68.1225 350.179 68.1506 350.241 68.1792C351.005 68.5331 351.71 68.9573 352.349 69.4481L352.383 69.4748C352.403 69.49 352.422 69.5053 352.442 69.5207C352.48 69.5508 352.518 69.5812 352.556 69.6119C352.66 69.6957 352.76 69.7816 352.858 69.8698C352.896 69.9041 352.934 69.9387 352.971 69.9737L353.004 70.0045C353.6 70.5705 354.087 71.2231 354.465 71.9624C354.583 72.1932 354.686 72.434 354.775 72.6848C355.03 73.4048 355.163 74.2078 355.172 75.0966C355.172 75.1277 355.172 75.159 355.172 75.1903V75.2011C355.171 76.1223 355.039 76.9814 354.775 77.7797C354.761 77.8223 354.746 77.8646 354.732 77.9069C354.715 77.9536 354.698 78.0001 354.681 78.0464C354.477 78.5912 354.208 79.1068 353.876 79.5935C353.667 79.8974 353.436 80.1853 353.183 80.4573C353.167 80.4748 353.151 80.4922 353.134 80.5095C352.344 81.343 351.341 82.0249 350.123 82.5552C349.722 82.7287 349.3 82.8814 348.858 83.0129L348.844 83.0169C347.491 83.4172 345.944 83.6207 344.2 83.6207L344.16 83.6207C343.626 83.6197 343.109 83.5991 342.607 83.5589L342.565 83.5555C342.485 83.5489 342.406 83.5418 342.327 83.5342C342.105 83.5129 341.888 83.4877 341.673 83.4586L341.647 83.455C340.939 83.3578 340.267 83.2178 339.634 83.0349L339.587 83.0212C339.308 82.9395 339.036 82.8494 338.772 82.751C338.727 82.7343 338.682 82.7173 338.638 82.7001C338.546 82.6644 338.455 82.6277 338.364 82.5899L338.356 82.5866L338.349 82.5835C338.276 82.5536 338.205 82.5231 338.134 82.4919C337.885 82.3831 337.646 82.2667 337.415 82.1427C336.886 81.8592 336.401 81.5364 335.961 81.1746C335.692 80.9532 335.44 80.7172 335.204 80.4668C335.189 80.4511 335.174 80.4355 335.16 80.4197C334.917 80.1574 334.691 79.8793 334.484 79.5857C334.407 79.4775 334.334 79.3674 334.263 79.2553C333.828 78.5654 333.503 77.8014 333.288 76.9644C333.257 76.8418 333.227 76.7177 333.201 76.5919C333.102 76.1313 333.036 75.6496 333.001 75.1471C332.993 75.0339 332.987 74.9196 332.982 74.8043L332.981 74.7751H338.134C338.135 74.7982 338.137 74.8212 338.139 74.8442C338.143 74.8852 338.146 74.9259 338.151 74.9663C338.153 74.9907 338.156 75.0149 338.159 75.0391C338.165 75.0841 338.171 75.1289 338.177 75.1732C338.182 75.2069 338.187 75.2404 338.193 75.2736C338.257 75.6529 338.361 76.0051 338.503 76.3307C338.511 76.349 338.519 76.3672 338.528 76.3853C338.547 76.4266 338.566 76.4675 338.586 76.5079C338.608 76.552 338.631 76.5956 338.654 76.6387C338.772 76.8558 338.909 77.0598 339.064 77.2509C339.219 77.4375 339.388 77.6102 339.57 77.7694L339.579 77.7768C339.76 77.9342 339.954 78.0784 340.16 78.2097L340.184 78.2243C340.227 78.2516 340.271 78.2783 340.316 78.3044C340.513 78.4197 340.72 78.5241 340.939 78.6179L340.976 78.6337L341.003 78.645C341.069 78.6722 341.135 78.6985 341.203 78.7239L341.23 78.7337C341.694 78.9005 342.187 79.0243 342.708 79.1037L342.743 79.1091L342.76 79.1115L342.809 79.1185C343.028 79.1492 343.251 79.1722 343.48 79.1875C343.543 79.1917 343.607 79.1953 343.671 79.1983C343.734 79.2012 343.797 79.2036 343.86 79.2054C343.959 79.2082 344.059 79.2097 344.16 79.2097L344.2 79.2096C344.274 79.2093 344.347 79.2083 344.42 79.2066L344.447 79.2059C344.565 79.2028 344.681 79.1978 344.795 79.191L344.803 79.1905C344.89 79.1852 344.975 79.1788 345.06 79.1714C345.09 79.1687 345.12 79.166 345.15 79.1631C345.888 79.0911 346.56 78.9359 347.166 78.7003C347.552 78.5489 347.901 78.3705 348.212 78.1646L348.221 78.1584C348.301 78.1054 348.378 78.0507 348.453 77.9941C348.732 77.7826 348.976 77.5455 349.185 77.2823C349.345 77.0872 349.479 76.8806 349.587 76.6628L349.592 76.6514C349.646 76.5427 349.693 76.4313 349.734 76.3171C349.859 75.967 349.925 75.5911 349.932 75.1903L349.933 75.1512C349.93 74.8601 349.894 74.588 349.825 74.3358C349.799 74.2402 349.769 74.1474 349.734 74.0575C349.718 74.017 349.701 73.9772 349.683 73.9378C349.611 73.7775 349.523 73.6268 349.42 73.4858L349.419 73.4839C349.373 73.4214 349.324 73.3607 349.272 73.3021C349.121 73.1333 348.948 72.9739 348.756 72.824C348.556 72.6683 348.335 72.5229 348.092 72.3876C348.079 72.3806 348.066 72.3736 348.054 72.3667C348.039 72.3585 348.024 72.3504 348.009 72.3423L347.981 72.3278C347.817 72.2407 347.643 72.1581 347.46 72.0799C347.259 71.995 347.049 71.9122 346.831 71.8316C346.782 71.8133 346.732 71.7951 346.681 71.777C346.483 71.7057 346.277 71.6362 346.065 71.5686C346.04 71.5606 346.015 71.5527 345.989 71.5448C345.971 71.539 345.952 71.5332 345.934 71.5275L345.901 71.5172C345.817 71.4913 345.732 71.4657 345.646 71.4405L345.581 71.4215C345.479 71.3916 345.375 71.3622 345.269 71.3331L345.234 71.3236C345.073 71.2796 344.908 71.2365 344.741 71.1946L341.449 70.364L341.419 70.3563C341.205 70.3019 340.996 70.2448 340.791 70.1853L340.774 70.1805L340.686 70.1548L340.67 70.15C340.603 70.1301 340.537 70.11 340.471 70.0896C340.424 70.075 340.377 70.0603 340.33 70.0454C340.18 69.9978 340.033 69.9487 339.887 69.8982C339.457 69.7484 339.046 69.5861 338.655 69.4112C338.477 69.3316 338.303 69.2493 338.134 69.1644L338.088 69.1413C338.059 69.127 338.031 69.1126 338.003 69.0981C337.492 68.8352 337.02 68.5479 336.588 68.2364C336.313 68.0387 336.054 67.8313 335.811 67.614C335.524 67.3581 335.266 67.0849 335.039 66.7942L335.012 66.7603C334.939 66.6656 334.87 66.5692 334.803 66.4709C334.758 66.4045 334.715 66.3373 334.672 66.2693C334.052 65.2664 333.744 64.0814 333.744 62.7094C333.744 62.6527 333.745 62.5962 333.746 62.54C333.747 62.4892 333.748 62.4386 333.75 62.3882C333.751 62.3475 333.753 62.307 333.755 62.2665C333.81 61.1718 334.07 60.1682 334.539 59.2578C334.711 58.9255 334.909 58.6057 335.136 58.2984C335.325 58.0405 335.527 57.7944 335.744 57.5601L335.748 57.5565C336.532 56.7106 337.502 56.0185 338.655 55.4802C338.743 55.4393 338.831 55.3993 338.921 55.3603C339.188 55.2428 339.462 55.1354 339.74 55.0378L339.777 55.0252C340.146 54.8977 340.524 54.7874 340.913 54.6942C341.836 54.473 342.815 54.3483 343.851 54.3178C343.933 54.3153 344.015 54.3135 344.098 54.3123C344.161 54.3113 344.224 54.3107 344.287 54.3105L344.359 54.3103ZM294.533 75.0162C294.431 75.6657 293.22 74.4126 292.776 73.9285L294.533 75.0162Z" fill="white"/>
<path fill-rule="evenodd" clip-rule="evenodd" d="M344.359 54.3103C344.977 54.3103 345.572 54.3416 346.144 54.4046L346.189 54.4097C346.394 54.433 346.597 54.4604 346.797 54.492L346.862 54.5025C346.925 54.5127 346.987 54.5233 347.049 54.5343C347.135 54.5496 347.221 54.5657 347.306 54.5826C348.04 54.7285 348.732 54.9335 349.383 55.1987C349.438 55.2214 349.494 55.2446 349.549 55.2682C349.611 55.2947 349.673 55.3217 349.734 55.3493L349.758 55.3603C350.102 55.5149 350.429 55.6831 350.74 55.8646L350.745 55.8676C350.955 55.9902 351.157 56.119 351.352 56.2538C351.386 56.2773 351.42 56.3011 351.454 56.3251C351.945 56.6751 352.387 57.0648 352.781 57.4938C352.979 57.7099 353.165 57.936 353.338 58.1721L353.372 58.2177L353.407 58.267C353.515 58.4191 353.618 58.5739 353.713 58.7315C353.727 58.7546 353.741 58.7777 353.755 58.8009C353.985 59.1896 354.177 59.5949 354.33 60.0169C354.557 60.6428 354.697 61.3054 354.751 62.0055C354.764 62.1778 354.772 62.3523 354.775 62.5291H349.734C349.729 62.4817 349.723 62.4348 349.717 62.3882C349.657 61.9397 349.536 61.5289 349.355 61.1562L349.354 61.1543C349.237 60.9117 349.094 60.6852 348.926 60.475C348.772 60.2827 348.597 60.1041 348.402 59.9391C348.393 59.9315 348.384 59.924 348.375 59.9165C348.353 59.8987 348.332 59.881 348.31 59.8635C348.236 59.8048 348.159 59.748 348.08 59.6929C348.012 59.6452 347.942 59.5992 347.871 59.5549L347.855 59.5453C347.805 59.5144 347.754 59.4843 347.703 59.4551L347.68 59.4422C347.474 59.3264 347.256 59.2237 347.028 59.1341C347 59.1232 346.972 59.1125 346.944 59.102C346.591 58.9701 346.212 58.8688 345.807 58.798L345.766 58.7909C345.425 58.7334 345.067 58.6972 344.691 58.6823L344.678 58.6818L344.662 58.6812C344.611 58.6793 344.559 58.6778 344.508 58.6767C344.477 58.6761 344.446 58.6756 344.415 58.6752L344.399 58.675L344.359 58.6746L344.287 58.6744C344.14 58.6744 343.996 58.6774 343.855 58.6833L343.793 58.6862L343.751 58.6883C342.888 58.7341 342.13 58.8929 341.481 59.1602C341.245 59.26 341.024 59.3699 340.821 59.4902C340.797 59.5038 340.775 59.5175 340.752 59.5314L340.743 59.5369C340.31 59.8033 339.956 60.1183 339.684 60.4842C339.494 60.7394 339.348 61.0112 339.244 61.2994L339.235 61.3236C339.118 61.6566 339.056 62.0115 339.047 62.3882C339.047 62.4979 339.052 62.605 339.062 62.7094C339.093 63.0401 339.172 63.3435 339.297 63.6182C339.305 63.6351 339.313 63.6519 339.321 63.6686L339.327 63.6813L339.336 63.6981C339.376 63.7786 339.42 63.8564 339.469 63.9316C339.686 64.2728 339.959 64.5714 340.299 64.8274C340.396 64.9005 340.498 64.9702 340.606 65.0364C341.053 65.3226 341.548 65.5607 342.087 65.7571L342.14 65.7762L342.197 65.7963C342.321 65.8394 342.446 65.8812 342.57 65.9215L342.576 65.9233L342.634 65.9421L342.641 65.9442C342.941 66.0401 343.242 66.1279 343.542 66.2076L343.552 66.2103L343.631 66.231L343.668 66.2405L343.701 66.249C343.752 66.2621 343.804 66.275 343.855 66.2877C343.891 66.2964 343.926 66.305 343.961 66.3134L346.672 66.9794C346.784 67.0051 346.896 67.0317 347.007 67.0592C347.032 67.0656 347.058 67.0721 347.084 67.0786C347.104 67.0836 347.123 67.0885 347.143 67.0935L347.192 67.1061C347.393 67.1581 347.594 67.2132 347.793 67.2714C348.297 67.4188 348.794 67.5862 349.279 67.7743L349.294 67.7797C349.439 67.836 349.583 67.8941 349.726 67.9541L349.734 67.9574L349.775 67.9747L349.829 67.9979C349.876 68.0173 349.922 68.037 349.968 68.0569C349.997 68.0695 350.025 68.0821 350.054 68.0948C350.117 68.1225 350.179 68.1506 350.241 68.1792C351.005 68.5331 351.71 68.9573 352.349 69.4481L352.383 69.4748C352.403 69.49 352.422 69.5053 352.442 69.5207C352.48 69.5508 352.518 69.5812 352.556 69.6119C352.66 69.6957 352.76 69.7816 352.858 69.8698C352.896 69.9041 352.934 69.9387 352.971 69.9737L353.004 70.0045C353.6 70.5705 354.087 71.2231 354.465 71.9624C354.583 72.1932 354.686 72.434 354.775 72.6848C355.03 73.4048 355.163 74.2078 355.172 75.0966C355.172 75.1277 355.172 75.159 355.172 75.1903V75.2011C355.171 76.1223 355.039 76.9814 354.775 77.7797C354.761 77.8223 354.746 77.8646 354.732 77.9069C354.715 77.9536 354.698 78.0001 354.681 78.0464C354.477 78.5912 354.208 79.1068 353.876 79.5935C353.667 79.8974 353.436 80.1853 353.183 80.4573C353.167 80.4748 353.151 80.4922 353.134 80.5095C352.344 81.343 351.341 82.0249 350.123 82.5552C349.722 82.7287 349.3 82.8814 348.858 83.0129L348.844 83.0169C347.491 83.4172 345.944 83.6207 344.2 83.6207L344.16 83.6207C343.626 83.6197 343.109 83.5991 342.607 83.5589L342.565 83.5555C342.485 83.5489 342.406 83.5418 342.327 83.5342C342.105 83.5129 341.888 83.4877 341.673 83.4586L341.647 83.455C340.939 83.3578 340.267 83.2178 339.634 83.0349L339.587 83.0212C339.308 82.9395 339.036 82.8494 338.772 82.751C338.727 82.7343 338.682 82.7173 338.638 82.7001C338.546 82.6644 338.455 82.6277 338.364 82.5899L338.356 82.5866L338.349 82.5835C338.276 82.5536 338.205 82.5231 338.134 82.4919C337.885 82.3831 337.646 82.2667 337.415 82.1427C336.886 81.8592 336.401 81.5364 335.961 81.1746C335.692 80.9532 335.44 80.7172 335.204 80.4668C335.189 80.4511 335.174 80.4355 335.16 80.4197C334.917 80.1574 334.691 79.8793 334.484 79.5857C334.407 79.4775 334.334 79.3674 334.263 79.2553C333.828 78.5654 333.503 77.8014 333.288 76.9644C333.257 76.8418 333.227 76.7177 333.201 76.5919C333.102 76.1313 333.036 75.6496 333.001 75.1471C332.993 75.0339 332.987 74.9196 332.982 74.8043L332.981 74.7751H338.134C338.135 74.7982 338.137 74.8212 338.139 74.8442C338.143 74.8852 338.146 74.9259 338.151 74.9663C338.153 74.9907 338.156 75.0149 338.159 75.0391C338.165 75.0841 338.171 75.1289 338.177 75.1732C338.182 75.2069 338.187 75.2404 338.193 75.2736C338.257 75.6529 338.361 76.0051 338.503 76.3307C338.511 76.349 338.519 76.3672 338.528 76.3853C338.547 76.4266 338.566 76.4675 338.586 76.5079C338.608 76.552 338.631 76.5956 338.654 76.6387C338.772 76.8558 338.909 77.0598 339.064 77.2509C339.219 77.4375 339.388 77.6102 339.57 77.7694L339.579 77.7768C339.76 77.9342 339.954 78.0784 340.16 78.2097L340.184 78.2243C340.227 78.2516 340.271 78.2783 340.316 78.3044C340.513 78.4197 340.72 78.5241 340.939 78.6179L340.976 78.6337L341.003 78.645C341.069 78.6722 341.135 78.6985 341.203 78.7239L341.23 78.7337C341.694 78.9005 342.187 79.0243 342.708 79.1037L342.743 79.1091L342.76 79.1115L342.809 79.1185C343.028 79.1492 343.251 79.1722 343.48 79.1875C343.543 79.1917 343.607 79.1953 343.671 79.1983C343.734 79.2012 343.797 79.2036 343.86 79.2054C343.959 79.2082 344.059 79.2097 344.16 79.2097L344.2 79.2096C344.274 79.2093 344.347 79.2083 344.42 79.2066L344.447 79.2059C344.565 79.2028 344.681 79.1978 344.795 79.191L344.803 79.1905C344.89 79.1852 344.975 79.1788 345.06 79.1714C345.09 79.1687 345.12 79.166 345.15 79.1631C345.888 79.0911 346.56 78.9359 347.166 78.7003C347.552 78.5489 347.901 78.3705 348.212 78.1646L348.221 78.1584C348.301 78.1054 348.378 78.0507 348.453 77.9941C348.732 77.7826 348.976 77.5455 349.185 77.2823C349.345 77.0872 349.479 76.8806 349.587 76.6628L349.592 76.6514C349.646 76.5427 349.693 76.4313 349.734 76.3171C349.859 75.967 349.925 75.5911 349.932 75.1903L349.933 75.1512C349.93 74.8601 349.894 74.588 349.825 74.3358C349.799 74.2402 349.769 74.1474 349.734 74.0575C349.718 74.017 349.701 73.9772 349.683 73.9378C349.611 73.7775 349.523 73.6268 349.42 73.4858L349.419 73.4839C349.373 73.4214 349.324 73.3607 349.272 73.3021C349.121 73.1333 348.948 72.9739 348.756 72.824C348.556 72.6683 348.335 72.5229 348.092 72.3876C348.079 72.3806 348.066 72.3736 348.054 72.3667C348.039 72.3585 348.024 72.3504 348.009 72.3423L347.981 72.3278C347.817 72.2407 347.643 72.1581 347.46 72.0799C347.259 71.995 347.049 71.9122 346.831 71.8316C346.782 71.8133 346.732 71.7951 346.681 71.777C346.483 71.7057 346.277 71.6362 346.065 71.5686C346.04 71.5606 346.015 71.5527 345.989 71.5448C345.971 71.539 345.952 71.5332 345.934 71.5275L345.901 71.5172C345.817 71.4913 345.732 71.4657 345.646 71.4405L345.581 71.4215C345.479 71.3916 345.375 71.3622 345.269 71.3331L345.234 71.3236C345.073 71.2796 344.908 71.2365 344.741 71.1946L341.449 70.364L341.419 70.3563C341.205 70.3019 340.996 70.2448 340.791 70.1853L340.774 70.1805L340.686 70.1548L340.67 70.15C340.603 70.1301 340.537 70.11 340.471 70.0896C340.424 70.075 340.377 70.0603 340.33 70.0454C340.18 69.9978 340.033 69.9487 339.887 69.8982C339.457 69.7484 339.046 69.5861 338.655 69.4112C338.477 69.3316 338.303 69.2493 338.134 69.1644L338.088 69.1413C338.059 69.127 338.031 69.1126 338.003 69.0981C337.492 68.8352 337.02 68.5479 336.588 68.2364C336.313 68.0387 336.054 67.8313 335.811 67.614C335.524 67.3581 335.266 67.0849 335.039 66.7942L335.012 66.7603C334.939 66.6656 334.87 66.5692 334.803 66.4709C334.758 66.4045 334.715 66.3373 334.672 66.2693C334.052 65.2664 333.744 64.0814 333.744 62.7094C333.744 62.6527 333.745 62.5962 333.746 62.54C333.747 62.4892 333.748 62.4386 333.75 62.3882C333.751 62.3475 333.753 62.307 333.755 62.2665C333.81 61.1718 334.07 60.1682 334.539 59.2578C334.711 58.9255 334.909 58.6057 335.136 58.2984C335.325 58.0405 335.527 57.7944 335.744 57.5601L335.748 57.5565C336.532 56.7106 337.502 56.0185 338.655 55.4802C338.743 55.4393 338.831 55.3993 338.921 55.3603C339.188 55.2428 339.462 55.1354 339.74 55.0378L339.777 55.0252C340.146 54.8977 340.524 54.7874 340.913 54.6942C341.836 54.473 342.815 54.3483 343.851 54.3178C343.933 54.3153 344.015 54.3135 344.098 54.3123C344.161 54.3113 344.224 54.3107 344.287 54.3105L344.359 54.3103ZM294.533 75.0162C294.431 75.6657 293.22 74.4126 292.776 73.9285L294.533 75.0162Z" fill="white"/>
<path fill-rule="evenodd" clip-rule="evenodd" d="M69.3362 39.3934L42.271 5.78467C41.6138 4.96855 40.882 4.22865 40.0895 3.57157L30.1854 0H15.5172C6.94731 0 0 6.94731 0 15.5172V83.8844C0 92.4543 6.94731 99.4016 15.5172 99.4016H27.2518C35.8217 99.4016 42.769 92.4543 42.769 83.8844V74.1711L58.433 93.6401C61.3785 97.301 65.8242 99.4302 70.523 99.4302L144.01 99.4302C146.527 99.4302 148.904 98.8311 151.005 97.7678C153.172 98.8923 155.614 99.5109 158.151 99.5109H173.552C178.25 99.5109 182.696 97.382 185.641 93.7214L193.397 84.0823L201.11 93.6685C204.056 97.3296 208.501 99.4587 213.2 99.4587H228.602C234.576 99.4587 240.019 96.0295 242.598 90.6412C244.783 86.076 244.584 80.7915 242.193 76.4537C242.119 76.3192 242.043 76.1857 241.965 76.0531C241.588 75.4145 241.162 74.7981 240.688 74.2096L221.012 49.7743L230.671 37.7619C233.449 40.3789 237.192 41.9828 241.309 41.9828H249.75V78.8488L289.493 93.1213L290.087 93.7249C293.599 97.1418 298.214 99.0126 303.109 99.0126C305.517 99.0126 307.891 98.5496 310.116 97.6395C313.053 98.6572 316.057 99.0988 319.003 99.0988C322.88 99.0988 326.986 98.3367 330.892 96.3574L330.923 96.3414L331.016 96.294C331.471 96.5147 331.933 96.7215 332.398 96.9145C336.36 98.567 340.434 99.1379 344.2 99.1379C348.07 99.1379 352.246 98.5439 356.284 96.797L356.317 96.7828C360.183 95.0999 363.904 92.4015 366.667 88.3789L366.688 88.3479C369.481 84.2601 370.69 79.6802 370.69 75.1903C370.69 72.7791 370.34 70.193 369.438 67.6062C370.024 65.9153 370.318 64.1199 370.291 62.2958C370.221 57.6641 368.824 53.1601 366.041 49.2578C363.396 45.547 359.913 42.9195 356.155 41.2231C352.195 39.4276 348.131 38.7931 344.359 38.7931C341.145 38.7931 337.789 39.2613 334.479 40.4395C332.595 39.6271 330.519 39.177 328.338 39.177H323.138C314.568 39.177 307.621 46.1243 307.621 54.6942V60.2919C305.911 60.5598 304.294 61.1068 302.818 61.8848C299.089 61.9415 295.535 63.0845 292.52 65.1684V41.9828H300.471C309.041 41.9828 315.989 35.0354 315.989 26.4655V15.5457C315.989 6.97581 309.041 0.028505 300.471 0.028505H241.309C239 0.028505 236.809 0.532851 234.84 1.43739C232.889 0.573397 230.748 0.105781 228.534 0.109202L213.176 0.132934C208.488 0.140179 204.054 2.26677 201.114 5.91852L193.407 15.4904L185.638 5.84234C182.692 2.18421 178.248 0.0570231 173.552 0.0570231H158.195C155.691 0.0570231 153.28 0.659635 151.134 1.75657C149.001 0.652279 146.578 0.028505 144.01 0.028505H84.8485C76.7721 0.028505 70.1369 6.19868 69.3994 14.0823L69.3942 14.1393C69.3526 14.6026 69.3313 15.0717 69.3313 15.5457V26.4655C69.3313 26.5973 69.333 26.7288 69.3362 26.8599V39.3934ZM344.359 54.3103C344.977 54.3103 345.572 54.3416 346.144 54.4046L346.189 54.4097C346.394 54.433 346.597 54.4604 346.797 54.492L346.862 54.5025C346.925 54.5127 346.987 54.5233 347.049 54.5343C347.135 54.5496 347.221 54.5657 347.306 54.5826C348.04 54.7285 348.732 54.9335 349.383 55.1987C349.438 55.2214 349.494 55.2446 349.549 55.2682C349.611 55.2947 349.673 55.3217 349.734 55.3493L349.758 55.3603C350.102 55.5149 350.429 55.6831 350.74 55.8646L350.745 55.8676C350.955 55.9902 351.157 56.119 351.352 56.2538C351.386 56.2773 351.42 56.3011 351.454 56.3251C351.945 56.6751 352.387 57.0648 352.781 57.4938C352.979 57.7099 353.165 57.936 353.338 58.1721L353.372 58.2177L353.407 58.267C353.515 58.4191 353.618 58.5739 353.713 58.7315C353.727 58.7546 353.741 58.7777 353.755 58.8009C353.985 59.1896 354.177 59.5949 354.33 60.0169C354.557 60.6428 354.697 61.3054 354.751 62.0055C354.764 62.1778 354.772 62.3523 354.775 62.5291H349.734C349.729 62.4817 349.723 62.4348 349.717 62.3882C349.657 61.9397 349.536 61.5289 349.355 61.1562L349.354 61.1543C349.237 60.9117 349.094 60.6852 348.926 60.475C348.772 60.2827 348.597 60.1041 348.402 59.9391C348.393 59.9315 348.384 59.924 348.375 59.9165C348.353 59.8987 348.332 59.881 348.31 59.8635C348.236 59.8048 348.159 59.748 348.08 59.6929C348.012 59.6452 347.942 59.5992 347.871 59.5549L347.855 59.5453C347.805 59.5144 347.754 59.4843 347.703 59.4551L347.68 59.4422C347.474 59.3264 347.256 59.2237 347.028 59.1341C347 59.1232 346.972 59.1125 346.944 59.102C346.591 58.9701 346.212 58.8688 345.807 58.798L345.766 58.7909C345.425 58.7334 345.067 58.6972 344.691 58.6823L344.678 58.6818L344.662 58.6812C344.611 58.6793 344.559 58.6778 344.508 58.6767C344.477 58.6761 344.446 58.6756 344.415 58.6752L344.399 58.675L344.359 58.6746L344.287 58.6744C344.14 58.6744 343.996 58.6774 343.855 58.6833L343.793 58.6862L343.751 58.6883C342.888 58.7341 342.13 58.8929 341.481 59.1602C341.245 59.26 341.024 59.3699 340.821 59.4902C340.797 59.5038 340.775 59.5175 340.752 59.5314L340.743 59.5369C340.31 59.8033 339.956 60.1183 339.684 60.4842C339.494 60.7394 339.348 61.0112 339.244 61.2994L339.235 61.3236C339.118 61.6566 339.056 62.0115 339.047 62.3882C339.047 62.4979 339.052 62.605 339.062 62.7094C339.093 63.0401 339.172 63.3435 339.297 63.6182C339.305 63.6351 339.313 63.6519 339.321 63.6686L339.327 63.6813L339.336 63.6981C339.376 63.7786 339.42 63.8564 339.469 63.9316C339.686 64.2728 339.959 64.5714 340.299 64.8274C340.396 64.9005 340.498 64.9702 340.606 65.0364C341.053 65.3226 341.548 65.5607 342.087 65.7571L342.14 65.7762L342.197 65.7963C342.321 65.8394 342.446 65.8812 342.57 65.9215L342.576 65.9233L342.634 65.9421L342.641 65.9442C342.941 66.0401 343.242 66.1279 343.542 66.2076L343.552 66.2103L343.631 66.231L343.668 66.2405L343.701 66.249C343.752 66.2621 343.804 66.275 343.855 66.2877C343.891 66.2964 343.926 66.305 343.961 66.3134L346.672 66.9794C346.784 67.0051 346.896 67.0317 347.007 67.0592C347.032 67.0656 347.058 67.0721 347.084 67.0786C347.104 67.0836 347.123 67.0885 347.143 67.0935L347.192 67.1061C347.393 67.1581 347.594 67.2132 347.793 67.2714C348.297 67.4188 348.794 67.5862 349.279 67.7743L349.294 67.7797C349.439 67.836 349.583 67.8941 349.726 67.9541L349.734 67.9574L349.775 67.9747L349.829 67.9979C349.876 68.0173 349.922 68.037 349.968 68.0569C349.997 68.0695 350.025 68.0821 350.054 68.0948C350.117 68.1225 350.179 68.1506 350.241 68.1792C351.005 68.5331 351.71 68.9573 352.349 69.4481L352.383 69.4748C352.403 69.49 352.422 69.5053 352.442 69.5207C352.48 69.5508 352.518 69.5812 352.556 69.6119C352.66 69.6957 352.76 69.7816 352.858 69.8698C352.896 69.9041 352.934 69.9387 352.971 69.9737L353.004 70.0045C353.6 70.5705 354.087 71.2231 354.465 71.9624C354.583 72.1932 354.686 72.434 354.775 72.6848C355.03 73.4048 355.163 74.2078 355.172 75.0966C355.172 75.1277 355.172 75.159 355.172 75.1903V75.2011C355.171 76.1223 355.039 76.9814 354.775 77.7797C354.761 77.8223 354.746 77.8646 354.732 77.9069C354.715 77.9536 354.698 78.0001 354.681 78.0464C354.477 78.5912 354.208 79.1068 353.876 79.5935C353.667 79.8974 353.436 80.1853 353.183 80.4573C353.167 80.4748 353.151 80.4922 353.134 80.5095C352.344 81.343 351.341 82.0249 350.123 82.5552C349.722 82.7287 349.3 82.8814 348.858 83.0129L348.844 83.0169C347.491 83.4172 345.944 83.6207 344.2 83.6207L344.16 83.6207C343.626 83.6197 343.109 83.5991 342.607 83.5589L342.565 83.5555C342.485 83.5489 342.406 83.5418 342.327 83.5342C342.105 83.5129 341.888 83.4877 341.673 83.4586L341.647 83.455C340.939 83.3578 340.267 83.2178 339.634 83.0349L339.587 83.0212C339.308 82.9395 339.036 82.8494 338.772 82.751C338.727 82.7343 338.682 82.7173 338.638 82.7001C338.546 82.6644 338.455 82.6277 338.364 82.5899L338.356 82.5866L338.349 82.5835C338.276 82.5536 338.205 82.5231 338.134 82.4919C337.885 82.3831 337.646 82.2667 337.415 82.1427C336.886 81.8592 336.401 81.5364 335.961 81.1746C335.692 80.9532 335.44 80.7172 335.204 80.4668C335.189 80.4511 335.174 80.4355 335.16 80.4197C334.917 80.1574 334.691 79.8793 334.484 79.5857C334.407 79.4775 334.334 79.3674 334.263 79.2553C333.828 78.5654 333.503 77.8014 333.288 76.9644C333.257 76.8418 333.227 76.7177 333.201 76.5919C333.102 76.1313 333.036 75.6496 333.001 75.1471C332.993 75.0339 332.987 74.9196 332.982 74.8043L332.981 74.7751H338.134C338.135 74.7982 338.137 74.8212 338.139 74.8442C338.143 74.8852 338.146 74.9259 338.151 74.9663C338.153 74.9907 338.156 75.0149 338.159 75.0391C338.165 75.0841 338.171 75.1289 338.177 75.1732C338.182 75.2069 338.187 75.2404 338.193 75.2736C338.257 75.6529 338.361 76.0051 338.503 76.3307C338.511 76.349 338.519 76.3672 338.528 76.3853C338.547 76.4266 338.566 76.4675 338.586 76.5079C338.608 76.552 338.631 76.5956 338.654 76.6387C338.772 76.8558 338.909 77.0598 339.064 77.2509C339.219 77.4375 339.388 77.6102 339.57 77.7694L339.579 77.7768C339.76 77.9342 339.954 78.0784 340.16 78.2097L340.184 78.2243C340.227 78.2516 340.271 78.2783 340.316 78.3044C340.513 78.4197 340.72 78.5241 340.939 78.6179L340.976 78.6337L341.003 78.645C341.069 78.6722 341.135 78.6985 341.203 78.7239L341.23 78.7337C341.694 78.9005 342.187 79.0243 342.708 79.1037L342.743 79.1091L342.76 79.1115L342.809 79.1185C343.028 79.1492 343.251 79.1722 343.48 79.1875C343.543 79.1917 343.607 79.1953 343.671 79.1983C343.734 79.2012 343.797 79.2036 343.86 79.2054C343.959 79.2082 344.059 79.2097 344.16 79.2097L344.2 79.2096C344.274 79.2093 344.347 79.2083 344.42 79.2066L344.447 79.2059C344.565 79.2028 344.681 79.1978 344.795 79.191L344.803 79.1905C344.89 79.1852 344.975 79.1788 345.06 79.1714C345.09 79.1687 345.12 79.166 345.15 79.1631C345.888 79.0911 346.56 78.9359 347.166 78.7003C347.552 78.5489 347.901 78.3705 348.212 78.1646L348.221 78.1584C348.301 78.1054 348.378 78.0507 348.453 77.9941C348.732 77.7826 348.976 77.5455 349.185 77.2823C349.345 77.0872 349.479 76.8806 349.587 76.6628L349.592 76.6514C349.646 76.5427 349.693 76.4313 349.734 76.3171C349.859 75.967 349.925 75.5911 349.932 75.1903L349.933 75.1512C349.93 74.8601 349.894 74.588 349.825 74.3358C349.799 74.2402 349.769 74.1474 349.734 74.0575C349.718 74.017 349.701 73.9772 349.683 73.9378C349.611 73.7775 349.523 73.6268 349.42 73.4858L349.419 73.4839C349.373 73.4214 349.324 73.3607 349.272 73.3021C349.121 73.1333 348.948 72.9739 348.756 72.824C348.556 72.6683 348.335 72.5229 348.092 72.3876C348.079 72.3806 348.066 72.3736 348.054 72.3667C348.039 72.3585 348.024 72.3504 348.009 72.3423L347.981 72.3278C347.817 72.2407 347.643 72.1581 347.46 72.0799C347.259 71.995 347.049 71.9122 346.831 71.8316C346.782 71.8133 346.732 71.7951 346.681 71.777C346.483 71.7057 346.277 71.6362 346.065 71.5686C346.04 71.5606 346.015 71.5527 345.989 71.5448C345.971 71.539 345.952 71.5332 345.934 71.5275L345.901 71.5172C345.817 71.4913 345.732 71.4657 345.646 71.4405L345.581 71.4215C345.479 71.3916 345.375 71.3622 345.269 71.3331L345.234 71.3236C345.073 71.2796 344.908 71.2365 344.741 71.1946L341.449 70.364L341.419 70.3563C341.205 70.3019 340.996 70.2448 340.791 70.1853L340.774 70.1805L340.686 70.1548L340.67 70.15C340.603 70.1301 340.537 70.11 340.471 70.0896C340.424 70.075 340.377 70.0603 340.33 70.0454C340.18 69.9978 340.033 69.9487 339.887 69.8982C339.457 69.7484 339.046 69.5861 338.655 69.4112C338.477 69.3316 338.303 69.2493 338.134 69.1644L338.088 69.1413C338.059 69.127 338.031 69.1126 338.003 69.0981C337.492 68.8352 337.02 68.5479 336.588 68.2364C336.313 68.0387 336.054 67.8313 335.811 67.614C335.524 67.3581 335.266 67.0849 335.039 66.7942L335.012 66.7603C334.939 66.6656 334.87 66.5692 334.803 66.4709C334.758 66.4045 334.715 66.3373 334.672 66.2693C334.052 65.2664 333.744 64.0814 333.744 62.7094C333.744 62.6527 333.745 62.5962 333.746 62.54C333.747 62.4892 333.748 62.4386 333.75 62.3882C333.751 62.3475 333.753 62.307 333.755 62.2665C333.81 61.1718 334.07 60.1682 334.539 59.2578C334.711 58.9255 334.909 58.6057 335.136 58.2984C335.325 58.0405 335.527 57.7944 335.744 57.5601L335.748 57.5565C336.532 56.7106 337.502 56.0185 338.655 55.4802C338.743 55.4393 338.831 55.3993 338.921 55.3603C339.188 55.2428 339.462 55.1354 339.74 55.0378L339.777 55.0252C340.146 54.8977 340.524 54.7874 340.913 54.6942C341.836 54.473 342.815 54.3483 343.851 54.3178C343.933 54.3153 344.015 54.3135 344.098 54.3123C344.161 54.3113 344.224 54.3107 344.287 54.3105L344.359 54.3103ZM149.91 40.822C152.041 39.9454 153.934 38.6082 155.464 36.9343L164.578 48.2625L164.807 48.5469L165.789 49.7666L155.492 62.5544C153.933 60.8408 151.995 59.4776 149.812 58.5968C150.093 57.4278 150.242 56.2072 150.242 54.9518V44.0321C150.242 43.7827 150.236 43.5347 150.225 43.2882C150.222 43.2268 150.219 43.1656 150.215 43.1044C150.169 42.3268 150.066 41.5646 149.91 40.822ZM294.533 75.0162C294.431 75.6657 293.22 74.4126 292.776 73.9285L294.533 75.0162Z" fill="white"/>
<path fill-rule="evenodd" clip-rule="evenodd" d="M344.359 54.3103C344.977 54.3103 345.572 54.3416 346.144 54.4046L346.189 54.4097C346.394 54.433 346.597 54.4604 346.797 54.492L346.862 54.5025C346.925 54.5127 346.987 54.5233 347.049 54.5343C347.135 54.5496 347.221 54.5657 347.306 54.5826C348.04 54.7285 348.732 54.9335 349.383 55.1987C349.438 55.2214 349.494 55.2446 349.549 55.2682C349.611 55.2947 349.673 55.3217 349.734 55.3493L349.758 55.3603C350.102 55.5149 350.429 55.6831 350.74 55.8646L350.745 55.8676C350.955 55.9902 351.157 56.119 351.352 56.2538C351.386 56.2773 351.42 56.3011 351.454 56.3251C351.945 56.6751 352.387 57.0648 352.781 57.4938C352.979 57.7099 353.165 57.936 353.338 58.1721L353.372 58.2177L353.407 58.267C353.515 58.4191 353.618 58.5739 353.713 58.7315C353.727 58.7546 353.741 58.7777 353.755 58.8009C353.985 59.1896 354.177 59.5949 354.33 60.0169C354.557 60.6428 354.697 61.3054 354.751 62.0055C354.764 62.1778 354.772 62.3523 354.775 62.5291H349.734C349.729 62.4817 349.723 62.4348 349.717 62.3882C349.657 61.9397 349.536 61.5289 349.355 61.1562L349.354 61.1543C349.237 60.9117 349.094 60.6852 348.926 60.475C348.772 60.2827 348.597 60.1041 348.402 59.9391L348.375 59.9165C348.353 59.8987 348.332 59.881 348.31 59.8635C348.236 59.8048 348.159 59.748 348.08 59.6929C348.012 59.6452 347.942 59.5992 347.871 59.5549L347.855 59.5453C347.805 59.5144 347.754 59.4843 347.703 59.4551L347.68 59.4422C347.474 59.3264 347.256 59.2237 347.028 59.1341C347 59.1232 346.972 59.1125 346.944 59.102C346.591 58.9701 346.212 58.8688 345.807 58.798L345.766 58.7909C345.425 58.7334 345.067 58.6972 344.691 58.6823L344.678 58.6818L344.662 58.6812C344.611 58.6793 344.559 58.6778 344.508 58.6767C344.477 58.6761 344.446 58.6756 344.415 58.6752L344.399 58.675L344.359 58.6746L344.287 58.6744C344.14 58.6744 343.996 58.6774 343.855 58.6833L343.793 58.6862L343.751 58.6883C342.888 58.7341 342.13 58.8929 341.481 59.1602C341.245 59.26 341.024 59.3699 340.821 59.4902C340.797 59.5038 340.775 59.5175 340.752 59.5314L340.743 59.5369C340.31 59.8033 339.956 60.1183 339.684 60.4842C339.494 60.7394 339.348 61.0112 339.244 61.2994L339.235 61.3236C339.118 61.6566 339.056 62.0115 339.047 62.3882C339.047 62.4979 339.052 62.605 339.062 62.7094C339.093 63.0401 339.172 63.3435 339.297 63.6182C339.305 63.6351 339.313 63.6519 339.321 63.6686L339.327 63.6813L339.336 63.6981C339.376 63.7786 339.42 63.8564 339.469 63.9316C339.686 64.2728 339.959 64.5714 340.299 64.8274C340.396 64.9005 340.498 64.9702 340.606 65.0364C341.053 65.3226 341.548 65.5607 342.087 65.7571L342.14 65.7762L342.197 65.7963C342.321 65.8394 342.446 65.8812 342.57 65.9215L342.576 65.9233L342.634 65.9421L342.641 65.9442C342.941 66.0401 343.242 66.1279 343.542 66.2076L343.552 66.2103L343.631 66.231L343.668 66.2405L343.701 66.249C343.752 66.2621 343.804 66.275 343.855 66.2877C343.891 66.2964 343.926 66.305 343.961 66.3134L346.672 66.9794C346.784 67.0051 346.896 67.0317 347.007 67.0592C347.032 67.0656 347.058 67.0721 347.084 67.0786L347.143 67.0935L347.192 67.1061C347.393 67.1581 347.594 67.2132 347.793 67.2714C348.297 67.4188 348.794 67.5862 349.279 67.7743L349.294 67.7797C349.439 67.836 349.583 67.8941 349.726 67.9541L349.734 67.9574L349.775 67.9747L349.829 67.9979C349.876 68.0173 349.922 68.037 349.968 68.0569C349.997 68.0695 350.025 68.0821 350.054 68.0948C350.117 68.1225 350.179 68.1506 350.241 68.1792C351.005 68.5331 351.71 68.9573 352.349 69.4481L352.383 69.4748C352.403 69.49 352.422 69.5053 352.442 69.5207C352.48 69.5508 352.518 69.5812 352.556 69.6119C352.66 69.6957 352.76 69.7816 352.858 69.8698C352.896 69.9041 352.934 69.9387 352.971 69.9737L353.004 70.0045C353.6 70.5705 354.087 71.2231 354.465 71.9624C354.583 72.1932 354.686 72.434 354.775 72.6848C355.03 73.4048 355.163 74.2078 355.172 75.0966C355.172 75.1277 355.172 75.159 355.172 75.1903V75.2011C355.171 76.1223 355.039 76.9814 354.775 77.7797C354.761 77.8223 354.746 77.8646 354.732 77.9069C354.715 77.9536 354.698 78.0001 354.681 78.0464C354.477 78.5912 354.208 79.1068 353.876 79.5935C353.667 79.8974 353.436 80.1853 353.183 80.4573C353.167 80.4748 353.151 80.4922 353.134 80.5095C352.344 81.343 351.341 82.0249 350.123 82.5552C349.722 82.7287 349.3 82.8814 348.858 83.0129L348.844 83.0169C347.491 83.4172 345.944 83.6207 344.2 83.6207L344.16 83.6207C343.626 83.6197 343.109 83.5991 342.607 83.5589L342.565 83.5555C342.485 83.5489 342.406 83.5418 342.327 83.5342C342.105 83.5129 341.888 83.4877 341.673 83.4586L341.647 83.455C340.939 83.3578 340.267 83.2178 339.634 83.0349L339.587 83.0212C339.308 82.9395 339.036 82.8494 338.772 82.751C338.727 82.7343 338.682 82.7173 338.638 82.7001C338.546 82.6644 338.455 82.6277 338.364 82.5899L338.356 82.5866L338.349 82.5835C338.276 82.5536 338.205 82.5231 338.134 82.4919C337.885 82.3831 337.646 82.2667 337.415 82.1427C336.886 81.8592 336.401 81.5364 335.961 81.1746C335.692 80.9532 335.44 80.7172 335.204 80.4668C335.189 80.4511 335.174 80.4355 335.16 80.4197C334.917 80.1574 334.691 79.8793 334.484 79.5857C334.407 79.4775 334.334 79.3674 334.263 79.2553C333.828 78.5654 333.503 77.8014 333.288 76.9644C333.257 76.8418 333.227 76.7177 333.201 76.5919C333.102 76.1313 333.036 75.6496 333.001 75.1471C332.993 75.0339 332.987 74.9196 332.982 74.8043L332.981 74.7751H338.134C338.135 74.7982 338.137 74.8212 338.139 74.8442C338.143 74.8852 338.146 74.9259 338.151 74.9663C338.153 74.9907 338.156 75.0149 338.159 75.0391C338.165 75.0841 338.171 75.1289 338.177 75.1732C338.182 75.2069 338.187 75.2404 338.193 75.2736C338.257 75.6529 338.361 76.0051 338.503 76.3307C338.511 76.349 338.519 76.3672 338.528 76.3853C338.547 76.4266 338.566 76.4675 338.586 76.5079C338.608 76.552 338.631 76.5956 338.654 76.6387C338.772 76.8558 338.909 77.0598 339.064 77.2509C339.219 77.4375 339.388 77.6102 339.57 77.7694L339.579 77.7768C339.76 77.9342 339.954 78.0784 340.16 78.2097L340.184 78.2243C340.227 78.2516 340.271 78.2783 340.316 78.3044C340.513 78.4197 340.72 78.5241 340.939 78.6179L340.976 78.6337L341.003 78.645C341.069 78.6722 341.135 78.6985 341.203 78.7239L341.23 78.7337C341.694 78.9005 342.187 79.0243 342.708 79.1037L342.743 79.1091L342.76 79.1115L342.809 79.1185C343.028 79.1492 343.251 79.1722 343.48 79.1875C343.543 79.1917 343.607 79.1953 343.671 79.1983C343.734 79.2012 343.797 79.2036 343.86 79.2054C343.959 79.2082 344.059 79.2097 344.16 79.2097L344.2 79.2096C344.274 79.2093 344.347 79.2083 344.42 79.2066L344.447 79.2059C344.565 79.2028 344.681 79.1978 344.795 79.191L344.803 79.1905C344.89 79.1852 344.975 79.1788 345.06 79.1714C345.09 79.1687 345.12 79.166 345.15 79.1631C345.888 79.0911 346.56 78.9359 347.166 78.7003C347.552 78.5489 347.901 78.3705 348.212 78.1646L348.221 78.1584C348.301 78.1054 348.378 78.0507 348.453 77.9941C348.732 77.7826 348.976 77.5455 349.185 77.2823C349.345 77.0872 349.479 76.8806 349.587 76.6628L349.592 76.6514C349.646 76.5427 349.693 76.4313 349.734 76.3171C349.859 75.967 349.925 75.5911 349.932 75.1903L349.933 75.1512C349.93 74.8601 349.894 74.588 349.825 74.3358C349.799 74.2402 349.769 74.1474 349.734 74.0575C349.718 74.017 349.701 73.9772 349.683 73.9378C349.611 73.7775 349.523 73.6268 349.42 73.4858L349.419 73.4839C349.373 73.4214 349.324 73.3607 349.272 73.3021C349.121 73.1333 348.948 72.9739 348.756 72.824C348.556 72.6683 348.335 72.5229 348.092 72.3876C348.079 72.3806 348.066 72.3736 348.054 72.3667C348.039 72.3585 348.024 72.3504 348.009 72.3423L347.981 72.3278C347.817 72.2407 347.643 72.1581 347.46 72.0799C347.259 71.995 347.049 71.9122 346.831 71.8316C346.782 71.8133 346.732 71.7951 346.681 71.777C346.483 71.7057 346.277 71.6362 346.065 71.5686L345.989 71.5448L345.934 71.5275L345.901 71.5172C345.817 71.4913 345.732 71.4657 345.646 71.4405L345.581 71.4215C345.479 71.3916 345.375 71.3622 345.269 71.3331L345.234 71.3236C345.073 71.2796 344.908 71.2365 344.741 71.1946L341.449 70.364L341.419 70.3563C341.205 70.3019 340.996 70.2448 340.791 70.1853L340.774 70.1805L340.686 70.1548L340.67 70.15C340.603 70.1301 340.537 70.11 340.471 70.0896C340.424 70.075 340.377 70.0603 340.33 70.0454C340.18 69.9978 340.033 69.9487 339.887 69.8982C339.457 69.7484 339.046 69.5861 338.655 69.4112C338.477 69.3316 338.303 69.2493 338.134 69.1644L338.088 69.1413C338.059 69.127 338.031 69.1126 338.003 69.0981C337.492 68.8352 337.02 68.5479 336.588 68.2364C336.313 68.0387 336.054 67.8313 335.811 67.614C335.524 67.3581 335.266 67.0849 335.039 66.7942L335.012 66.7603C334.939 66.6656 334.87 66.5692 334.803 66.4709C334.758 66.4045 334.715 66.3373 334.672 66.2693C334.052 65.2664 333.744 64.0814 333.744 62.7094C333.744 62.6527 333.745 62.5962 333.746 62.54C333.747 62.4892 333.748 62.4386 333.75 62.3882C333.751 62.3475 333.753 62.307 333.755 62.2665C333.81 61.1718 334.07 60.1682 334.539 59.2578C334.711 58.9255 334.909 58.6057 335.136 58.2984C335.325 58.0405 335.527 57.7944 335.744 57.5601L335.748 57.5565C336.532 56.7106 337.502 56.0185 338.655 55.4802C338.743 55.4393 338.831 55.3993 338.921 55.3603C339.188 55.2428 339.462 55.1354 339.74 55.0378L339.777 55.0252C340.146 54.8977 340.524 54.7874 340.913 54.6942C341.836 54.473 342.815 54.3483 343.851 54.3178C343.933 54.3153 344.015 54.3135 344.098 54.3123C344.161 54.3113 344.224 54.3107 344.287 54.3105L344.359 54.3103ZM164.578 48.2625L150.215 43.1044C150.219 43.1656 150.222 43.2268 150.225 43.2882L164.807 48.5469L164.578 48.2625ZM294.533 75.0162C294.431 75.6657 293.22 74.4126 292.776 73.9285L294.533 75.0162Z" fill="white"/>
<path d="M30.1854 0L40.0576 3.54526C37.3031 1.27385 33.8199 0 30.1854 0Z" fill="white"/>
<path d="M30.1854 0L40.0895 3.57157L40.0576 3.54526L30.1854 0Z" fill="white"/>
<path d="M241.31 15.5457H300.472V26.4655H277.003V83.9129H265.267V26.4655H241.31V15.5457Z" fill="black"/>
<path d="M144.01 15.5457V26.4655H96.5881V44.0321H134.725V54.9518H96.5881V72.9932H144.01V83.9129H84.8535V26.4655H84.8486V15.5457H144.01Z" fill="black"/>
<path d="M173.552 15.5743H158.195L213.2 83.9415H228.602L201.096 49.7814L228.558 15.6264L213.2 15.6502L193.407 40.2325L173.552 15.5743Z" fill="black"/>
<path d="M189.31 64.4093L181.62 54.8473L158.151 83.9936H173.552L189.31 64.4093Z" fill="black"/>
<path fill-rule="evenodd" clip-rule="evenodd" d="M85.2646 83.9129L30.1854 15.5172H15.5172V83.8844H27.2518V30.1307L70.523 83.9129H85.2646Z" fill="black"/>
<path d="M303.109 83.4953C302.25 83.4953 301.519 83.1977 300.907 82.6022C300.295 82.0068 299.992 81.2859 300 80.432C299.992 79.6015 300.295 78.8884 300.907 78.293C301.519 77.6976 302.25 77.3998 303.109 77.3998C303.936 77.3998 304.659 77.6976 305.271 78.293C305.892 78.8884 306.202 79.6015 306.21 80.432C306.202 80.996 306.059 81.5131 305.772 81.9753C305.478 82.4455 305.105 82.8138 304.635 83.0802C304.174 83.3544 303.665 83.4953 303.109 83.4953Z" fill="black"/>
<path d="M323.138 54.6942H328.338V74.7281C328.33 76.5693 327.932 78.1441 327.153 79.4683C326.366 80.7923 325.277 81.8029 323.878 82.5159C322.486 83.221 320.856 83.5815 319.003 83.5815C317.309 83.5815 315.791 83.2759 314.44 82.6805C313.088 82.0851 312.015 81.1919 311.228 80.0166C310.432 78.8414 310.042 77.3763 310.042 75.6213H315.251C315.259 76.3891 315.434 77.055 315.767 77.6113C316.101 78.1676 316.562 78.5906 317.151 78.8884C317.747 79.1861 318.431 79.335 319.202 79.335C320.037 79.335 320.753 79.1626 321.333 78.81C321.913 78.4652 322.359 77.9482 322.669 77.2587C322.971 76.5771 323.13 75.7309 323.138 74.7281V54.6942Z" fill="black"/>
<path d="M349.734 62.5291C349.607 61.3147 349.05 60.3667 348.08 59.6929C347.102 59.0113 345.838 58.6744 344.287 58.6744C343.198 58.6744 342.261 58.839 341.481 59.1602C340.702 59.4892 340.098 59.9279 339.684 60.4842C339.271 61.0405 339.064 61.6752 339.048 62.3882C339.048 62.9836 339.191 63.5007 339.469 63.9316C339.748 64.3703 340.121 64.7386 340.606 65.0364C341.083 65.3419 341.616 65.5926 342.197 65.7963C342.785 66 343.373 66.1724 343.961 66.3135L346.673 66.9794C347.762 67.2301 348.82 67.5671 349.829 67.9979C350.839 68.421 351.754 68.9616 352.556 69.6119C353.36 70.2622 353.996 71.0457 354.465 71.9624C354.934 72.8791 355.173 73.9524 355.173 75.1904C355.173 76.8591 354.743 78.3243 353.876 79.5935C353.01 80.8549 351.761 81.8422 350.123 82.5552C348.493 83.2603 346.522 83.6207 344.2 83.6207C341.958 83.6207 340.002 83.276 338.356 82.5866C336.703 81.9049 335.414 80.902 334.484 79.5857C333.554 78.2695 333.053 76.6633 332.981 74.7751H338.134C338.205 75.7622 338.523 76.585 339.064 77.251C339.612 77.9091 340.328 78.3948 341.203 78.7239C342.086 79.0451 343.071 79.2097 344.161 79.2097C345.298 79.2097 346.299 79.0372 347.166 78.7003C348.024 78.3634 348.7 77.8935 349.186 77.2823C349.679 76.679 349.925 75.966 349.933 75.1512C349.925 74.4069 349.702 73.7879 349.273 73.3021C348.836 72.8164 348.231 72.409 347.46 72.0799C346.681 71.7509 345.774 71.4531 344.741 71.1946L341.449 70.3641C339.072 69.7608 337.187 68.8441 335.811 67.6141C334.429 66.384 333.744 64.7543 333.744 62.7094C333.744 61.0328 334.205 59.5598 335.136 58.2984C336.058 57.037 337.323 56.0576 338.921 55.3603C340.527 54.6552 342.34 54.3103 344.359 54.3103C346.411 54.3103 348.207 54.6552 349.758 55.3603C351.308 56.0576 352.525 57.0291 353.407 58.267C354.29 59.5049 354.751 60.923 354.775 62.5291H349.734Z" fill="black"/>
</g>
<defs>
<clipPath id="clip0_334_279">
<rect width="370.69" height="100" fill="white"/>
</clipPath>
</defs>
</svg>
