<?xml version="1.0" encoding="UTF-8" standalone="no"?>
<!DOCTYPE svg PUBLIC "-//W3C//DTD SVG 1.1//EN" "http://www.w3.org/Graphics/SVG/1.1/DTD/svg11.dtd">
<svg width="100%" height="100%" viewBox="0 0 1024 1024" version="1.1" xmlns="http://www.w3.org/2000/svg" xmlns:xlink="http://www.w3.org/1999/xlink" xml:space="preserve" xmlns:serif="http://www.serif.com/" style="fill-rule:evenodd;clip-rule:evenodd;stroke-linejoin:round;stroke-miterlimit:2;">
    <g transform="matrix(1,0,0,1,-28.3245,-28.3245)">
        <g transform="matrix(1.00722,0,0,1.00722,-56.2555,-15.9793)">
            <circle cx="591.984" cy="551.996" r="508.01" style="fill:rgb(221,59,6);"/>
        </g>
        <g transform="matrix(1.07678,0,0,1.07678,32.0937,42.1406)">
            <g transform="matrix(68.6518,3.13059,-3.13059,68.6518,471.714,90.9144)">
                <path d="M0.042,-0.135C0.042,-0.155 0.048,-0.17 0.059,-0.18C0.07,-0.189 0.083,-0.194 0.098,-0.194C0.113,-0.194 0.127,-0.189 0.137,-0.179C0.148,-0.169 0.154,-0.155 0.154,-0.138C0.154,-0.119 0.147,-0.104 0.135,-0.094C0.122,-0.083 0.106,-0.079 0.088,-0.082C0.104,-0.056 0.127,-0.036 0.156,-0.024C0.185,-0.012 0.214,-0.006 0.241,-0.006C0.27,-0.006 0.296,-0.019 0.319,-0.044C0.342,-0.068 0.354,-0.111 0.354,-0.172C0.354,-0.223 0.344,-0.263 0.324,-0.293C0.304,-0.322 0.274,-0.337 0.235,-0.337L0.191,-0.337C0.181,-0.337 0.174,-0.337 0.171,-0.338C0.168,-0.339 0.167,-0.342 0.167,-0.348C0.167,-0.354 0.172,-0.358 0.182,-0.359C0.192,-0.359 0.205,-0.36 0.221,-0.362C0.26,-0.363 0.29,-0.381 0.31,-0.415C0.329,-0.446 0.338,-0.485 0.338,-0.53C0.338,-0.57 0.328,-0.599 0.309,-0.616C0.289,-0.633 0.267,-0.641 0.242,-0.641C0.219,-0.641 0.194,-0.636 0.168,-0.627C0.143,-0.617 0.123,-0.602 0.109,-0.581C0.15,-0.581 0.171,-0.564 0.171,-0.53C0.171,-0.515 0.166,-0.502 0.157,-0.493C0.148,-0.483 0.135,-0.478 0.12,-0.478C0.105,-0.478 0.093,-0.483 0.083,-0.492C0.074,-0.502 0.069,-0.515 0.069,-0.531C0.069,-0.569 0.086,-0.601 0.12,-0.627C0.154,-0.653 0.196,-0.666 0.246,-0.666C0.296,-0.666 0.339,-0.653 0.375,-0.627C0.412,-0.601 0.43,-0.569 0.43,-0.529C0.43,-0.489 0.417,-0.453 0.391,-0.42C0.365,-0.388 0.331,-0.365 0.29,-0.351C0.341,-0.341 0.381,-0.319 0.412,-0.285C0.442,-0.251 0.457,-0.213 0.457,-0.172C0.457,-0.119 0.437,-0.074 0.396,-0.036C0.354,0.003 0.304,0.022 0.244,0.022C0.189,0.022 0.141,0.007 0.102,-0.023C0.062,-0.053 0.042,-0.091 0.042,-0.135Z" style="fill:rgb(254,217,163);fill-rule:nonzero;"/>
            </g>
            <g transform="matrix(68.3252,7.38417,-7.38417,68.3252,502.547,92.4523)">
                <path d="M0.1,-0.016C0.09,-0.027 0.085,-0.04 0.085,-0.054C0.085,-0.068 0.09,-0.08 0.1,-0.09C0.11,-0.101 0.123,-0.106 0.138,-0.106C0.153,-0.106 0.165,-0.101 0.175,-0.091C0.185,-0.082 0.19,-0.069 0.19,-0.053C0.19,-0.038 0.185,-0.025 0.174,-0.015C0.163,-0.005 0.152,-0 0.138,-0C0.123,-0 0.11,-0.005 0.1,-0.016Z" style="fill:rgb(254,217,163);fill-rule:nonzero;"/>
            </g>
            <g transform="matrix(67.7131,11.7389,-11.7389,67.7131,518.214,93.7848)">
                <path d="M0.089,-0.571L0.089,-0.602C0.169,-0.602 0.23,-0.623 0.271,-0.666C0.282,-0.666 0.289,-0.665 0.291,-0.662C0.293,-0.66 0.294,-0.652 0.294,-0.64L0.294,-0.08C0.294,-0.06 0.299,-0.047 0.309,-0.041C0.318,-0.034 0.345,-0.031 0.387,-0.031L0.419,-0.031L0.419,-0C0.396,-0.002 0.341,-0.003 0.257,-0.003C0.172,-0.003 0.118,-0.002 0.095,-0L0.095,-0.031L0.127,-0.031C0.169,-0.031 0.195,-0.034 0.205,-0.04C0.215,-0.046 0.22,-0.059 0.22,-0.08L0.22,-0.597C0.185,-0.58 0.142,-0.571 0.089,-0.571Z" style="fill:rgb(254,217,163);fill-rule:nonzero;"/>
            </g>
            <g transform="matrix(66.5044,17.3214,-17.3214,66.5044,548.752,98.9251)">
                <path d="M0.028,-0.165L0.028,-0.196L0.335,-0.666C0.34,-0.674 0.347,-0.678 0.355,-0.677C0.362,-0.677 0.367,-0.676 0.369,-0.673C0.37,-0.67 0.371,-0.663 0.371,-0.651L0.371,-0.196L0.471,-0.196L0.471,-0.165L0.371,-0.165L0.371,-0.078C0.371,-0.059 0.375,-0.047 0.383,-0.04C0.391,-0.034 0.412,-0.031 0.447,-0.031L0.468,-0.031L0.468,-0C0.44,-0.002 0.395,-0.003 0.332,-0.003C0.269,-0.003 0.224,-0.002 0.197,-0L0.197,-0.031L0.218,-0.031C0.252,-0.031 0.274,-0.034 0.282,-0.04C0.29,-0.046 0.294,-0.059 0.294,-0.078L0.294,-0.165L0.028,-0.165ZM0.056,-0.196L0.3,-0.196L0.3,-0.569L0.056,-0.196Z" style="fill:rgb(254,217,163);fill-rule:nonzero;"/>
            </g>
            <g transform="matrix(63.5008,26.2775,-26.2775,63.5008,597.201,112.666)">
                <path d="M0.089,-0.571L0.089,-0.602C0.169,-0.602 0.23,-0.623 0.271,-0.666C0.282,-0.666 0.289,-0.665 0.291,-0.662C0.293,-0.66 0.294,-0.652 0.294,-0.64L0.294,-0.08C0.294,-0.06 0.299,-0.047 0.309,-0.041C0.318,-0.034 0.345,-0.031 0.387,-0.031L0.419,-0.031L0.419,-0C0.396,-0.002 0.341,-0.003 0.257,-0.003C0.172,-0.003 0.118,-0.002 0.095,-0L0.095,-0.031L0.127,-0.031C0.169,-0.031 0.195,-0.034 0.205,-0.04C0.215,-0.046 0.22,-0.059 0.22,-0.08L0.22,-0.597C0.185,-0.58 0.142,-0.571 0.089,-0.571Z" style="fill:rgb(254,217,163);fill-rule:nonzero;"/>
            </g>
            <g transform="matrix(61.1114,31.4366,-31.4366,61.1114,625.801,124.336)">
                <path d="M0.05,-0.164C0.05,-0.185 0.055,-0.199 0.066,-0.207C0.077,-0.215 0.088,-0.219 0.099,-0.219C0.114,-0.219 0.127,-0.214 0.135,-0.204C0.144,-0.194 0.149,-0.182 0.149,-0.168C0.149,-0.154 0.144,-0.142 0.135,-0.131C0.127,-0.121 0.114,-0.116 0.099,-0.116C0.092,-0.116 0.086,-0.117 0.082,-0.118C0.091,-0.088 0.109,-0.061 0.135,-0.039C0.162,-0.017 0.194,-0.006 0.229,-0.006C0.274,-0.006 0.309,-0.028 0.336,-0.073C0.352,-0.101 0.36,-0.148 0.36,-0.213C0.36,-0.268 0.354,-0.308 0.342,-0.336C0.323,-0.377 0.295,-0.398 0.257,-0.398C0.203,-0.398 0.16,-0.375 0.128,-0.33C0.124,-0.324 0.12,-0.321 0.115,-0.321C0.109,-0.321 0.105,-0.323 0.103,-0.327C0.102,-0.33 0.101,-0.337 0.101,-0.347L0.101,-0.641C0.101,-0.657 0.104,-0.665 0.111,-0.665C0.113,-0.665 0.118,-0.664 0.123,-0.663C0.165,-0.65 0.209,-0.643 0.256,-0.643C0.304,-0.643 0.349,-0.652 0.392,-0.672C0.395,-0.674 0.398,-0.675 0.4,-0.675C0.406,-0.675 0.41,-0.671 0.41,-0.664C0.41,-0.661 0.407,-0.656 0.402,-0.648C0.397,-0.64 0.388,-0.631 0.377,-0.62C0.366,-0.609 0.353,-0.598 0.338,-0.587C0.323,-0.577 0.305,-0.568 0.284,-0.561C0.263,-0.554 0.24,-0.551 0.217,-0.551C0.189,-0.551 0.16,-0.555 0.132,-0.564L0.132,-0.37C0.166,-0.403 0.209,-0.42 0.259,-0.42C0.312,-0.42 0.357,-0.399 0.394,-0.357C0.431,-0.315 0.449,-0.264 0.449,-0.206C0.449,-0.142 0.427,-0.088 0.384,-0.044C0.341,0 0.29,0.022 0.231,0.022C0.178,0.022 0.134,0.003 0.1,-0.036C0.067,-0.075 0.05,-0.117 0.05,-0.164Z" style="fill:rgb(254,217,163);fill-rule:nonzero;"/>
            </g>
            <g transform="matrix(58.2762,36.4245,-36.4245,58.2762,653.419,138.389)">
                <path d="M0.042,-0.44C0.042,-0.476 0.047,-0.506 0.058,-0.53C0.068,-0.554 0.084,-0.579 0.106,-0.603C0.146,-0.645 0.195,-0.666 0.253,-0.666C0.278,-0.666 0.301,-0.661 0.323,-0.65C0.345,-0.64 0.366,-0.623 0.387,-0.599C0.408,-0.575 0.425,-0.54 0.438,-0.494C0.451,-0.447 0.457,-0.392 0.457,-0.328C0.457,-0.225 0.432,-0.141 0.382,-0.076C0.332,-0.011 0.273,0.022 0.206,0.022C0.163,0.022 0.13,0.012 0.104,-0.007C0.079,-0.026 0.067,-0.053 0.067,-0.086C0.067,-0.103 0.072,-0.115 0.082,-0.123C0.091,-0.13 0.102,-0.134 0.113,-0.134C0.125,-0.134 0.136,-0.13 0.145,-0.122C0.154,-0.114 0.159,-0.103 0.159,-0.088C0.159,-0.076 0.155,-0.065 0.148,-0.056C0.14,-0.047 0.126,-0.042 0.107,-0.042C0.126,-0.018 0.159,-0.006 0.205,-0.006C0.222,-0.006 0.238,-0.01 0.255,-0.018C0.271,-0.025 0.289,-0.038 0.307,-0.057C0.325,-0.076 0.34,-0.105 0.351,-0.144C0.362,-0.183 0.367,-0.23 0.367,-0.285L0.367,-0.317C0.34,-0.251 0.299,-0.218 0.242,-0.218C0.186,-0.218 0.139,-0.239 0.1,-0.282C0.061,-0.325 0.042,-0.378 0.042,-0.44ZM0.132,-0.439C0.132,-0.373 0.138,-0.327 0.15,-0.303C0.17,-0.261 0.201,-0.24 0.243,-0.24C0.284,-0.24 0.314,-0.258 0.335,-0.294C0.355,-0.331 0.365,-0.373 0.365,-0.42C0.365,-0.486 0.36,-0.533 0.349,-0.562C0.329,-0.615 0.297,-0.641 0.253,-0.641C0.209,-0.641 0.176,-0.62 0.153,-0.578C0.139,-0.553 0.132,-0.507 0.132,-0.439Z" style="fill:rgb(254,217,163);fill-rule:nonzero;"/>
            </g>
            <g transform="matrix(55.0453,41.1447,-41.1447,55.0453,679.789,154.711)">
                <path d="M0.05,-0C0.05,-0.012 0.05,-0.02 0.052,-0.023C0.053,-0.027 0.056,-0.032 0.061,-0.037L0.253,-0.251C0.323,-0.33 0.358,-0.404 0.358,-0.473C0.358,-0.517 0.346,-0.555 0.323,-0.587C0.3,-0.619 0.267,-0.635 0.224,-0.635C0.195,-0.635 0.168,-0.626 0.143,-0.608C0.118,-0.59 0.1,-0.566 0.089,-0.534C0.091,-0.535 0.095,-0.535 0.102,-0.535C0.119,-0.535 0.132,-0.53 0.141,-0.519C0.15,-0.509 0.155,-0.497 0.155,-0.482C0.155,-0.464 0.149,-0.451 0.137,-0.442C0.126,-0.434 0.114,-0.429 0.103,-0.429C0.098,-0.429 0.093,-0.43 0.087,-0.431C0.081,-0.432 0.073,-0.437 0.064,-0.446C0.055,-0.456 0.05,-0.469 0.05,-0.485C0.05,-0.532 0.067,-0.574 0.103,-0.611C0.138,-0.648 0.183,-0.666 0.237,-0.666C0.298,-0.666 0.349,-0.648 0.389,-0.612C0.429,-0.575 0.449,-0.529 0.449,-0.473C0.449,-0.453 0.446,-0.434 0.44,-0.416C0.434,-0.398 0.427,-0.381 0.419,-0.367C0.411,-0.353 0.396,-0.335 0.375,-0.313C0.354,-0.29 0.334,-0.271 0.317,-0.255C0.3,-0.239 0.272,-0.214 0.233,-0.18L0.127,-0.077L0.307,-0.077C0.366,-0.077 0.397,-0.08 0.402,-0.085C0.408,-0.094 0.416,-0.124 0.424,-0.174L0.449,-0.174L0.421,-0L0.05,-0Z" style="fill:rgb(254,217,163);fill-rule:nonzero;"/>
            </g>
            <g transform="matrix(49.0267,48.1585,-48.1585,49.0267,719.405,185.668)">
                <path d="M0.042,-0.316C0.042,-0.421 0.069,-0.505 0.122,-0.57C0.175,-0.634 0.236,-0.666 0.305,-0.666C0.345,-0.666 0.376,-0.656 0.399,-0.636C0.421,-0.615 0.432,-0.59 0.432,-0.558C0.432,-0.541 0.427,-0.529 0.417,-0.521C0.407,-0.514 0.397,-0.51 0.386,-0.51C0.374,-0.51 0.363,-0.514 0.354,-0.522C0.345,-0.53 0.34,-0.542 0.34,-0.556C0.34,-0.587 0.358,-0.602 0.395,-0.602C0.378,-0.628 0.348,-0.641 0.307,-0.641C0.294,-0.641 0.282,-0.639 0.269,-0.635C0.256,-0.632 0.241,-0.624 0.224,-0.611C0.207,-0.599 0.192,-0.583 0.179,-0.563C0.166,-0.544 0.155,-0.516 0.146,-0.479C0.136,-0.442 0.132,-0.4 0.132,-0.352L0.132,-0.328C0.159,-0.394 0.201,-0.426 0.257,-0.426C0.313,-0.426 0.36,-0.405 0.399,-0.362C0.438,-0.32 0.457,-0.267 0.457,-0.204C0.457,-0.139 0.437,-0.086 0.396,-0.043C0.356,0 0.308,0.022 0.251,0.022C0.226,0.022 0.201,0.017 0.178,0.006C0.156,-0.004 0.133,-0.022 0.112,-0.046C0.091,-0.07 0.074,-0.105 0.061,-0.151C0.048,-0.198 0.042,-0.253 0.042,-0.316ZM0.134,-0.226C0.134,-0.161 0.14,-0.113 0.152,-0.081C0.154,-0.076 0.157,-0.07 0.161,-0.063C0.166,-0.056 0.172,-0.048 0.179,-0.038C0.187,-0.029 0.197,-0.021 0.21,-0.015C0.223,-0.009 0.236,-0.006 0.251,-0.006C0.296,-0.006 0.329,-0.028 0.35,-0.071C0.361,-0.095 0.367,-0.14 0.367,-0.205C0.367,-0.272 0.361,-0.317 0.349,-0.342C0.329,-0.383 0.298,-0.404 0.256,-0.404C0.228,-0.404 0.204,-0.394 0.185,-0.375C0.165,-0.356 0.152,-0.333 0.145,-0.308C0.137,-0.282 0.134,-0.255 0.134,-0.226Z" style="fill:rgb(254,217,163);fill-rule:nonzero;"/>
            </g>
            <g transform="matrix(44.8831,52.042,-52.042,44.8831,741.559,207.234)">
                <path d="M0.05,-0.164C0.05,-0.185 0.055,-0.199 0.066,-0.207C0.077,-0.215 0.088,-0.219 0.099,-0.219C0.114,-0.219 0.127,-0.214 0.135,-0.204C0.144,-0.194 0.149,-0.182 0.149,-0.168C0.149,-0.154 0.144,-0.142 0.135,-0.131C0.127,-0.121 0.114,-0.116 0.099,-0.116C0.092,-0.116 0.086,-0.117 0.082,-0.118C0.091,-0.088 0.109,-0.061 0.135,-0.039C0.162,-0.017 0.194,-0.006 0.229,-0.006C0.274,-0.006 0.309,-0.028 0.336,-0.073C0.352,-0.101 0.36,-0.148 0.36,-0.213C0.36,-0.268 0.354,-0.308 0.342,-0.336C0.323,-0.377 0.295,-0.398 0.257,-0.398C0.203,-0.398 0.16,-0.375 0.128,-0.33C0.124,-0.324 0.12,-0.321 0.115,-0.321C0.109,-0.321 0.105,-0.323 0.103,-0.327C0.102,-0.33 0.101,-0.337 0.101,-0.347L0.101,-0.641C0.101,-0.657 0.104,-0.665 0.111,-0.665C0.113,-0.665 0.118,-0.664 0.123,-0.663C0.165,-0.65 0.209,-0.643 0.256,-0.643C0.304,-0.643 0.349,-0.652 0.392,-0.672C0.395,-0.674 0.398,-0.675 0.4,-0.675C0.406,-0.675 0.41,-0.671 0.41,-0.664C0.41,-0.661 0.407,-0.656 0.402,-0.648C0.397,-0.64 0.388,-0.631 0.377,-0.62C0.366,-0.609 0.353,-0.598 0.338,-0.587C0.323,-0.577 0.305,-0.568 0.284,-0.561C0.263,-0.554 0.24,-0.551 0.217,-0.551C0.189,-0.551 0.16,-0.555 0.132,-0.564L0.132,-0.37C0.166,-0.403 0.209,-0.42 0.259,-0.42C0.312,-0.42 0.357,-0.399 0.394,-0.357C0.431,-0.315 0.449,-0.264 0.449,-0.206C0.449,-0.142 0.427,-0.088 0.384,-0.044C0.341,0 0.29,0.022 0.231,0.022C0.178,0.022 0.134,0.003 0.1,-0.036C0.067,-0.075 0.05,-0.117 0.05,-0.164Z" style="fill:rgb(254,217,163);fill-rule:nonzero;"/>
            </g>
            <g transform="matrix(40.4205,55.5792,-55.5792,40.4205,761.879,230.582)">
                <path d="M0.042,-0.135C0.042,-0.155 0.048,-0.17 0.059,-0.18C0.07,-0.189 0.083,-0.194 0.098,-0.194C0.113,-0.194 0.127,-0.189 0.137,-0.179C0.148,-0.169 0.154,-0.155 0.154,-0.138C0.154,-0.119 0.147,-0.104 0.135,-0.094C0.122,-0.083 0.106,-0.079 0.088,-0.082C0.104,-0.056 0.127,-0.036 0.156,-0.024C0.185,-0.012 0.214,-0.006 0.241,-0.006C0.27,-0.006 0.296,-0.019 0.319,-0.044C0.342,-0.068 0.354,-0.111 0.354,-0.172C0.354,-0.223 0.344,-0.263 0.324,-0.293C0.304,-0.322 0.274,-0.337 0.235,-0.337L0.191,-0.337C0.181,-0.337 0.174,-0.337 0.171,-0.338C0.168,-0.339 0.167,-0.342 0.167,-0.348C0.167,-0.354 0.172,-0.358 0.182,-0.359C0.192,-0.359 0.205,-0.36 0.221,-0.362C0.26,-0.363 0.29,-0.381 0.31,-0.415C0.329,-0.446 0.338,-0.485 0.338,-0.53C0.338,-0.57 0.328,-0.599 0.309,-0.616C0.289,-0.633 0.267,-0.641 0.242,-0.641C0.219,-0.641 0.194,-0.636 0.168,-0.627C0.143,-0.617 0.123,-0.602 0.109,-0.581C0.15,-0.581 0.171,-0.564 0.171,-0.53C0.171,-0.515 0.166,-0.502 0.157,-0.493C0.148,-0.483 0.135,-0.478 0.12,-0.478C0.105,-0.478 0.093,-0.483 0.083,-0.492C0.074,-0.502 0.069,-0.515 0.069,-0.531C0.069,-0.569 0.086,-0.601 0.12,-0.627C0.154,-0.653 0.196,-0.666 0.246,-0.666C0.296,-0.666 0.339,-0.653 0.375,-0.627C0.412,-0.601 0.43,-0.569 0.43,-0.529C0.43,-0.489 0.417,-0.453 0.391,-0.42C0.365,-0.388 0.331,-0.365 0.29,-0.351C0.341,-0.341 0.381,-0.319 0.412,-0.285C0.442,-0.251 0.457,-0.213 0.457,-0.172C0.457,-0.119 0.437,-0.074 0.396,-0.036C0.354,0.003 0.304,0.022 0.244,0.022C0.189,0.022 0.141,0.007 0.102,-0.023C0.062,-0.053 0.042,-0.091 0.042,-0.135Z" style="fill:rgb(254,217,163);fill-rule:nonzero;"/>
            </g>
            <g transform="matrix(35.6533,58.7512,-58.7512,35.6533,780.239,255.594)">
                <path d="M0.05,-0.164C0.05,-0.185 0.055,-0.199 0.066,-0.207C0.077,-0.215 0.088,-0.219 0.099,-0.219C0.114,-0.219 0.127,-0.214 0.135,-0.204C0.144,-0.194 0.149,-0.182 0.149,-0.168C0.149,-0.154 0.144,-0.142 0.135,-0.131C0.127,-0.121 0.114,-0.116 0.099,-0.116C0.092,-0.116 0.086,-0.117 0.082,-0.118C0.091,-0.088 0.109,-0.061 0.135,-0.039C0.162,-0.017 0.194,-0.006 0.229,-0.006C0.274,-0.006 0.309,-0.028 0.336,-0.073C0.352,-0.101 0.36,-0.148 0.36,-0.213C0.36,-0.268 0.354,-0.308 0.342,-0.336C0.323,-0.377 0.295,-0.398 0.257,-0.398C0.203,-0.398 0.16,-0.375 0.128,-0.33C0.124,-0.324 0.12,-0.321 0.115,-0.321C0.109,-0.321 0.105,-0.323 0.103,-0.327C0.102,-0.33 0.101,-0.337 0.101,-0.347L0.101,-0.641C0.101,-0.657 0.104,-0.665 0.111,-0.665C0.113,-0.665 0.118,-0.664 0.123,-0.663C0.165,-0.65 0.209,-0.643 0.256,-0.643C0.304,-0.643 0.349,-0.652 0.392,-0.672C0.395,-0.674 0.398,-0.675 0.4,-0.675C0.406,-0.675 0.41,-0.671 0.41,-0.664C0.41,-0.661 0.407,-0.656 0.402,-0.648C0.397,-0.64 0.388,-0.631 0.377,-0.62C0.366,-0.609 0.353,-0.598 0.338,-0.587C0.323,-0.577 0.305,-0.568 0.284,-0.561C0.263,-0.554 0.24,-0.551 0.217,-0.551C0.189,-0.551 0.16,-0.555 0.132,-0.564L0.132,-0.37C0.166,-0.403 0.209,-0.42 0.259,-0.42C0.312,-0.42 0.357,-0.399 0.394,-0.357C0.431,-0.315 0.449,-0.264 0.449,-0.206C0.449,-0.142 0.427,-0.088 0.384,-0.044C0.341,0 0.29,0.022 0.231,0.022C0.178,0.022 0.134,0.003 0.1,-0.036C0.067,-0.075 0.05,-0.117 0.05,-0.164Z" style="fill:rgb(254,217,163);fill-rule:nonzero;"/>
            </g>
            <g transform="matrix(27.3675,63.0387,-63.0387,27.3675,805.398,299.142)">
                <path d="M0.042,-0.151C0.042,-0.226 0.09,-0.287 0.186,-0.335C0.145,-0.363 0.12,-0.381 0.113,-0.389C0.083,-0.422 0.069,-0.458 0.069,-0.499C0.069,-0.546 0.087,-0.585 0.122,-0.617C0.157,-0.65 0.2,-0.666 0.25,-0.666C0.298,-0.666 0.34,-0.652 0.376,-0.625C0.412,-0.597 0.43,-0.561 0.43,-0.517C0.43,-0.455 0.39,-0.404 0.309,-0.362C0.362,-0.329 0.396,-0.305 0.408,-0.291C0.441,-0.255 0.457,-0.214 0.457,-0.168C0.457,-0.115 0.437,-0.07 0.396,-0.033C0.354,0.004 0.306,0.022 0.249,0.022C0.194,0.022 0.145,0.006 0.104,-0.026C0.063,-0.059 0.042,-0.1 0.042,-0.151ZM0.092,-0.151C0.092,-0.11 0.107,-0.075 0.138,-0.048C0.17,-0.02 0.207,-0.006 0.25,-0.006C0.292,-0.006 0.329,-0.018 0.36,-0.042C0.392,-0.067 0.407,-0.096 0.407,-0.132C0.407,-0.146 0.405,-0.159 0.4,-0.171C0.395,-0.183 0.388,-0.194 0.379,-0.204C0.37,-0.213 0.362,-0.22 0.357,-0.225C0.351,-0.229 0.343,-0.235 0.332,-0.242L0.209,-0.32C0.131,-0.277 0.092,-0.221 0.092,-0.151ZM0.113,-0.538C0.113,-0.506 0.13,-0.479 0.163,-0.457L0.287,-0.377C0.353,-0.416 0.386,-0.463 0.386,-0.517C0.386,-0.553 0.373,-0.582 0.346,-0.606C0.319,-0.629 0.286,-0.641 0.249,-0.641C0.212,-0.641 0.18,-0.631 0.153,-0.612C0.126,-0.593 0.113,-0.568 0.113,-0.538Z" style="fill:rgb(254,217,163);fill-rule:nonzero;"/>
            </g>
            <g transform="matrix(21.9702,65.1166,-65.1166,21.9702,817.885,327.56)">
                <path d="M0.042,-0.44C0.042,-0.476 0.047,-0.506 0.058,-0.53C0.068,-0.554 0.084,-0.579 0.106,-0.603C0.146,-0.645 0.195,-0.666 0.253,-0.666C0.278,-0.666 0.301,-0.661 0.323,-0.65C0.345,-0.64 0.366,-0.623 0.387,-0.599C0.408,-0.575 0.425,-0.54 0.438,-0.494C0.451,-0.447 0.457,-0.392 0.457,-0.328C0.457,-0.225 0.432,-0.141 0.382,-0.076C0.332,-0.011 0.273,0.022 0.206,0.022C0.163,0.022 0.13,0.012 0.104,-0.007C0.079,-0.026 0.067,-0.053 0.067,-0.086C0.067,-0.103 0.072,-0.115 0.082,-0.123C0.091,-0.13 0.102,-0.134 0.113,-0.134C0.125,-0.134 0.136,-0.13 0.145,-0.122C0.154,-0.114 0.159,-0.103 0.159,-0.088C0.159,-0.076 0.155,-0.065 0.148,-0.056C0.14,-0.047 0.126,-0.042 0.107,-0.042C0.126,-0.018 0.159,-0.006 0.205,-0.006C0.222,-0.006 0.238,-0.01 0.255,-0.018C0.271,-0.025 0.289,-0.038 0.307,-0.057C0.325,-0.076 0.34,-0.105 0.351,-0.144C0.362,-0.183 0.367,-0.23 0.367,-0.285L0.367,-0.317C0.34,-0.251 0.299,-0.218 0.242,-0.218C0.186,-0.218 0.139,-0.239 0.1,-0.282C0.061,-0.325 0.042,-0.378 0.042,-0.44ZM0.132,-0.439C0.132,-0.373 0.138,-0.327 0.15,-0.303C0.17,-0.261 0.201,-0.24 0.243,-0.24C0.284,-0.24 0.314,-0.258 0.335,-0.294C0.355,-0.331 0.365,-0.373 0.365,-0.42C0.365,-0.486 0.36,-0.533 0.349,-0.562C0.329,-0.615 0.297,-0.641 0.253,-0.641C0.209,-0.641 0.176,-0.62 0.153,-0.578C0.139,-0.553 0.132,-0.507 0.132,-0.439Z" style="fill:rgb(254,217,163);fill-rule:nonzero;"/>
            </g>
            <g transform="matrix(16.178,66.7917,-66.7917,16.178,827.961,356.757)">
                <path d="M0.056,-0.47L0.089,-0.676L0.114,-0.676C0.116,-0.668 0.118,-0.662 0.122,-0.658C0.125,-0.655 0.136,-0.651 0.156,-0.648C0.175,-0.646 0.203,-0.644 0.242,-0.644L0.485,-0.644C0.485,-0.629 0.482,-0.617 0.476,-0.609L0.341,-0.419C0.312,-0.379 0.292,-0.322 0.279,-0.248C0.271,-0.199 0.268,-0.144 0.268,-0.084L0.268,-0.033C0.268,0.004 0.253,0.022 0.222,0.022C0.191,0.022 0.176,0.004 0.176,-0.033C0.176,-0.16 0.217,-0.286 0.299,-0.409C0.308,-0.422 0.328,-0.451 0.361,-0.496C0.393,-0.541 0.41,-0.565 0.411,-0.567L0.204,-0.567C0.144,-0.567 0.111,-0.565 0.106,-0.561C0.099,-0.555 0.091,-0.525 0.081,-0.47L0.056,-0.47Z" style="fill:rgb(254,217,163);fill-rule:nonzero;"/>
            </g>
            <g transform="matrix(10.793,67.8703,-67.8703,10.793,835.432,386.791)">
                <path d="M0.042,-0.44C0.042,-0.476 0.047,-0.506 0.058,-0.53C0.068,-0.554 0.084,-0.579 0.106,-0.603C0.146,-0.645 0.195,-0.666 0.253,-0.666C0.278,-0.666 0.301,-0.661 0.323,-0.65C0.345,-0.64 0.366,-0.623 0.387,-0.599C0.408,-0.575 0.425,-0.54 0.438,-0.494C0.451,-0.447 0.457,-0.392 0.457,-0.328C0.457,-0.225 0.432,-0.141 0.382,-0.076C0.332,-0.011 0.273,0.022 0.206,0.022C0.163,0.022 0.13,0.012 0.104,-0.007C0.079,-0.026 0.067,-0.053 0.067,-0.086C0.067,-0.103 0.072,-0.115 0.082,-0.123C0.091,-0.13 0.102,-0.134 0.113,-0.134C0.125,-0.134 0.136,-0.13 0.145,-0.122C0.154,-0.114 0.159,-0.103 0.159,-0.088C0.159,-0.076 0.155,-0.065 0.148,-0.056C0.14,-0.047 0.126,-0.042 0.107,-0.042C0.126,-0.018 0.159,-0.006 0.205,-0.006C0.222,-0.006 0.238,-0.01 0.255,-0.018C0.271,-0.025 0.289,-0.038 0.307,-0.057C0.325,-0.076 0.34,-0.105 0.351,-0.144C0.362,-0.183 0.367,-0.23 0.367,-0.285L0.367,-0.317C0.34,-0.251 0.299,-0.218 0.242,-0.218C0.186,-0.218 0.139,-0.239 0.1,-0.282C0.061,-0.325 0.042,-0.378 0.042,-0.44ZM0.132,-0.439C0.132,-0.373 0.138,-0.327 0.15,-0.303C0.17,-0.261 0.201,-0.24 0.243,-0.24C0.284,-0.24 0.314,-0.258 0.335,-0.294C0.355,-0.331 0.365,-0.373 0.365,-0.42C0.365,-0.486 0.36,-0.533 0.349,-0.562C0.329,-0.615 0.297,-0.641 0.253,-0.641C0.209,-0.641 0.176,-0.62 0.153,-0.578C0.139,-0.553 0.132,-0.507 0.132,-0.439Z" style="fill:rgb(254,217,163);fill-rule:nonzero;"/>
            </g>
            <g transform="matrix(1.55249,68.7056,-68.7056,1.55249,842.256,436.688)">
                <path d="M0.042,-0.135C0.042,-0.155 0.048,-0.17 0.059,-0.18C0.07,-0.189 0.083,-0.194 0.098,-0.194C0.113,-0.194 0.127,-0.189 0.137,-0.179C0.148,-0.169 0.154,-0.155 0.154,-0.138C0.154,-0.119 0.147,-0.104 0.135,-0.094C0.122,-0.083 0.106,-0.079 0.088,-0.082C0.104,-0.056 0.127,-0.036 0.156,-0.024C0.185,-0.012 0.214,-0.006 0.241,-0.006C0.27,-0.006 0.296,-0.019 0.319,-0.044C0.342,-0.068 0.354,-0.111 0.354,-0.172C0.354,-0.223 0.344,-0.263 0.324,-0.293C0.304,-0.322 0.274,-0.337 0.235,-0.337L0.191,-0.337C0.181,-0.337 0.174,-0.337 0.171,-0.338C0.168,-0.339 0.167,-0.342 0.167,-0.348C0.167,-0.354 0.172,-0.358 0.182,-0.359C0.192,-0.359 0.205,-0.36 0.221,-0.362C0.26,-0.363 0.29,-0.381 0.31,-0.415C0.329,-0.446 0.338,-0.485 0.338,-0.53C0.338,-0.57 0.328,-0.599 0.309,-0.616C0.289,-0.633 0.267,-0.641 0.242,-0.641C0.219,-0.641 0.194,-0.636 0.168,-0.627C0.143,-0.617 0.123,-0.602 0.109,-0.581C0.15,-0.581 0.171,-0.564 0.171,-0.53C0.171,-0.515 0.166,-0.502 0.157,-0.493C0.148,-0.483 0.135,-0.478 0.12,-0.478C0.105,-0.478 0.093,-0.483 0.083,-0.492C0.074,-0.502 0.069,-0.515 0.069,-0.531C0.069,-0.569 0.086,-0.601 0.12,-0.627C0.154,-0.653 0.196,-0.666 0.246,-0.666C0.296,-0.666 0.339,-0.653 0.375,-0.627C0.412,-0.601 0.43,-0.569 0.43,-0.529C0.43,-0.489 0.417,-0.453 0.391,-0.42C0.365,-0.388 0.331,-0.365 0.29,-0.351C0.341,-0.341 0.381,-0.319 0.412,-0.285C0.442,-0.251 0.457,-0.213 0.457,-0.172C0.457,-0.119 0.437,-0.074 0.396,-0.036C0.354,0.003 0.304,0.022 0.244,0.022C0.189,0.022 0.141,0.007 0.102,-0.023C0.062,-0.053 0.042,-0.091 0.042,-0.135Z" style="fill:rgb(254,217,163);fill-rule:nonzero;"/>
            </g>
            <g transform="matrix(-4.08156,68.6018,-68.6018,-4.08156,843.096,467.578)">
                <path d="M0.05,-0C0.05,-0.012 0.05,-0.02 0.052,-0.023C0.053,-0.027 0.056,-0.032 0.061,-0.037L0.253,-0.251C0.323,-0.33 0.358,-0.404 0.358,-0.473C0.358,-0.517 0.346,-0.555 0.323,-0.587C0.3,-0.619 0.267,-0.635 0.224,-0.635C0.195,-0.635 0.168,-0.626 0.143,-0.608C0.118,-0.59 0.1,-0.566 0.089,-0.534C0.091,-0.535 0.095,-0.535 0.102,-0.535C0.119,-0.535 0.132,-0.53 0.141,-0.519C0.15,-0.509 0.155,-0.497 0.155,-0.482C0.155,-0.464 0.149,-0.451 0.137,-0.442C0.126,-0.434 0.114,-0.429 0.103,-0.429C0.098,-0.429 0.093,-0.43 0.087,-0.431C0.081,-0.432 0.073,-0.437 0.064,-0.446C0.055,-0.456 0.05,-0.469 0.05,-0.485C0.05,-0.532 0.067,-0.574 0.103,-0.611C0.138,-0.648 0.183,-0.666 0.237,-0.666C0.298,-0.666 0.349,-0.648 0.389,-0.612C0.429,-0.575 0.449,-0.529 0.449,-0.473C0.449,-0.453 0.446,-0.434 0.44,-0.416C0.434,-0.398 0.427,-0.381 0.419,-0.367C0.411,-0.353 0.396,-0.335 0.375,-0.313C0.354,-0.29 0.334,-0.271 0.317,-0.255C0.3,-0.239 0.272,-0.214 0.233,-0.18L0.127,-0.077L0.307,-0.077C0.366,-0.077 0.397,-0.08 0.402,-0.085C0.408,-0.094 0.416,-0.124 0.424,-0.174L0.449,-0.174L0.421,-0L0.05,-0Z" style="fill:rgb(254,217,163);fill-rule:nonzero;"/>
            </g>
            <g transform="matrix(-9.77682,68.0241,-68.0241,-9.77682,841.392,498.546)">
                <path d="M0.042,-0.135C0.042,-0.155 0.048,-0.17 0.059,-0.18C0.07,-0.189 0.083,-0.194 0.098,-0.194C0.113,-0.194 0.127,-0.189 0.137,-0.179C0.148,-0.169 0.154,-0.155 0.154,-0.138C0.154,-0.119 0.147,-0.104 0.135,-0.094C0.122,-0.083 0.106,-0.079 0.088,-0.082C0.104,-0.056 0.127,-0.036 0.156,-0.024C0.185,-0.012 0.214,-0.006 0.241,-0.006C0.27,-0.006 0.296,-0.019 0.319,-0.044C0.342,-0.068 0.354,-0.111 0.354,-0.172C0.354,-0.223 0.344,-0.263 0.324,-0.293C0.304,-0.322 0.274,-0.337 0.235,-0.337L0.191,-0.337C0.181,-0.337 0.174,-0.337 0.171,-0.338C0.168,-0.339 0.167,-0.342 0.167,-0.348C0.167,-0.354 0.172,-0.358 0.182,-0.359C0.192,-0.359 0.205,-0.36 0.221,-0.362C0.26,-0.363 0.29,-0.381 0.31,-0.415C0.329,-0.446 0.338,-0.485 0.338,-0.53C0.338,-0.57 0.328,-0.599 0.309,-0.616C0.289,-0.633 0.267,-0.641 0.242,-0.641C0.219,-0.641 0.194,-0.636 0.168,-0.627C0.143,-0.617 0.123,-0.602 0.109,-0.581C0.15,-0.581 0.171,-0.564 0.171,-0.53C0.171,-0.515 0.166,-0.502 0.157,-0.493C0.148,-0.483 0.135,-0.478 0.12,-0.478C0.105,-0.478 0.093,-0.483 0.083,-0.492C0.074,-0.502 0.069,-0.515 0.069,-0.531C0.069,-0.569 0.086,-0.601 0.12,-0.627C0.154,-0.653 0.196,-0.666 0.246,-0.666C0.296,-0.666 0.339,-0.653 0.375,-0.627C0.412,-0.601 0.43,-0.569 0.43,-0.529C0.43,-0.489 0.417,-0.453 0.391,-0.42C0.365,-0.388 0.331,-0.365 0.29,-0.351C0.341,-0.341 0.381,-0.319 0.412,-0.285C0.442,-0.251 0.457,-0.213 0.457,-0.172C0.457,-0.119 0.437,-0.074 0.396,-0.036C0.354,0.003 0.304,0.022 0.244,0.022C0.189,0.022 0.141,0.007 0.102,-0.023C0.062,-0.053 0.042,-0.091 0.042,-0.135Z" style="fill:rgb(254,217,163);fill-rule:nonzero;"/>
            </g>
            <g transform="matrix(-15.4206,66.9707,-66.9707,-15.4206,837.144,529.122)">
                <path d="M0.042,-0.151C0.042,-0.226 0.09,-0.287 0.186,-0.335C0.145,-0.363 0.12,-0.381 0.113,-0.389C0.083,-0.422 0.069,-0.458 0.069,-0.499C0.069,-0.546 0.087,-0.585 0.122,-0.617C0.157,-0.65 0.2,-0.666 0.25,-0.666C0.298,-0.666 0.34,-0.652 0.376,-0.625C0.412,-0.597 0.43,-0.561 0.43,-0.517C0.43,-0.455 0.39,-0.404 0.309,-0.362C0.362,-0.329 0.396,-0.305 0.408,-0.291C0.441,-0.255 0.457,-0.214 0.457,-0.168C0.457,-0.115 0.437,-0.07 0.396,-0.033C0.354,0.004 0.306,0.022 0.249,0.022C0.194,0.022 0.145,0.006 0.104,-0.026C0.063,-0.059 0.042,-0.1 0.042,-0.151ZM0.092,-0.151C0.092,-0.11 0.107,-0.075 0.138,-0.048C0.17,-0.02 0.207,-0.006 0.25,-0.006C0.292,-0.006 0.329,-0.018 0.36,-0.042C0.392,-0.067 0.407,-0.096 0.407,-0.132C0.407,-0.146 0.405,-0.159 0.4,-0.171C0.395,-0.183 0.388,-0.194 0.379,-0.204C0.37,-0.213 0.362,-0.22 0.357,-0.225C0.351,-0.229 0.343,-0.235 0.332,-0.242L0.209,-0.32C0.131,-0.277 0.092,-0.221 0.092,-0.151ZM0.113,-0.538C0.113,-0.506 0.13,-0.479 0.163,-0.457L0.287,-0.377C0.353,-0.416 0.386,-0.463 0.386,-0.517C0.386,-0.553 0.373,-0.582 0.346,-0.606C0.319,-0.629 0.286,-0.641 0.249,-0.641C0.212,-0.641 0.18,-0.631 0.153,-0.612C0.126,-0.593 0.113,-0.568 0.113,-0.538Z" style="fill:rgb(254,217,163);fill-rule:nonzero;"/>
            </g>
            <g transform="matrix(-24.4138,64.2404,-64.2404,-24.4138,824.764,577.971)">
                <path d="M0.028,-0.165L0.028,-0.196L0.335,-0.666C0.34,-0.674 0.347,-0.678 0.355,-0.677C0.362,-0.677 0.367,-0.676 0.369,-0.673C0.37,-0.67 0.371,-0.663 0.371,-0.651L0.371,-0.196L0.471,-0.196L0.471,-0.165L0.371,-0.165L0.371,-0.078C0.371,-0.059 0.375,-0.047 0.383,-0.04C0.391,-0.034 0.412,-0.031 0.447,-0.031L0.468,-0.031L0.468,-0C0.44,-0.002 0.395,-0.003 0.332,-0.003C0.269,-0.003 0.224,-0.002 0.197,-0L0.197,-0.031L0.218,-0.031C0.252,-0.031 0.274,-0.034 0.282,-0.04C0.29,-0.046 0.294,-0.059 0.294,-0.078L0.294,-0.165L0.028,-0.165ZM0.056,-0.196L0.3,-0.196L0.3,-0.569L0.056,-0.196Z" style="fill:rgb(254,217,163);fill-rule:nonzero;"/>
            </g>
            <g transform="matrix(-29.7053,61.9715,-61.9715,-29.7053,813.904,606.941)">
                <path d="M0.042,-0.316C0.042,-0.421 0.069,-0.505 0.122,-0.57C0.175,-0.634 0.236,-0.666 0.305,-0.666C0.345,-0.666 0.376,-0.656 0.399,-0.636C0.421,-0.615 0.432,-0.59 0.432,-0.558C0.432,-0.541 0.427,-0.529 0.417,-0.521C0.407,-0.514 0.397,-0.51 0.386,-0.51C0.374,-0.51 0.363,-0.514 0.354,-0.522C0.345,-0.53 0.34,-0.542 0.34,-0.556C0.34,-0.587 0.358,-0.602 0.395,-0.602C0.378,-0.628 0.348,-0.641 0.307,-0.641C0.294,-0.641 0.282,-0.639 0.269,-0.635C0.256,-0.632 0.241,-0.624 0.224,-0.611C0.207,-0.599 0.192,-0.583 0.179,-0.563C0.166,-0.544 0.155,-0.516 0.146,-0.479C0.136,-0.442 0.132,-0.4 0.132,-0.352L0.132,-0.328C0.159,-0.394 0.201,-0.426 0.257,-0.426C0.313,-0.426 0.36,-0.405 0.399,-0.362C0.438,-0.32 0.457,-0.267 0.457,-0.204C0.457,-0.139 0.437,-0.086 0.396,-0.043C0.356,0 0.308,0.022 0.251,0.022C0.226,0.022 0.201,0.017 0.178,0.006C0.156,-0.004 0.133,-0.022 0.112,-0.046C0.091,-0.07 0.074,-0.105 0.061,-0.151C0.048,-0.198 0.042,-0.253 0.042,-0.316ZM0.134,-0.226C0.134,-0.161 0.14,-0.113 0.152,-0.081C0.154,-0.076 0.157,-0.07 0.161,-0.063C0.166,-0.056 0.172,-0.048 0.179,-0.038C0.187,-0.029 0.197,-0.021 0.21,-0.015C0.223,-0.009 0.236,-0.006 0.251,-0.006C0.296,-0.006 0.329,-0.028 0.35,-0.071C0.361,-0.095 0.367,-0.14 0.367,-0.205C0.367,-0.272 0.361,-0.317 0.349,-0.342C0.329,-0.383 0.298,-0.404 0.256,-0.404C0.228,-0.404 0.204,-0.394 0.185,-0.375C0.165,-0.356 0.152,-0.333 0.145,-0.308C0.137,-0.282 0.134,-0.255 0.134,-0.226Z" style="fill:rgb(254,217,163);fill-rule:nonzero;"/>
            </g>
            <g transform="matrix(-34.7856,59.2691,-59.2691,-34.7856,800.611,634.986)">
                <path d="M0.05,-0C0.05,-0.012 0.05,-0.02 0.052,-0.023C0.053,-0.027 0.056,-0.032 0.061,-0.037L0.253,-0.251C0.323,-0.33 0.358,-0.404 0.358,-0.473C0.358,-0.517 0.346,-0.555 0.323,-0.587C0.3,-0.619 0.267,-0.635 0.224,-0.635C0.195,-0.635 0.168,-0.626 0.143,-0.608C0.118,-0.59 0.1,-0.566 0.089,-0.534C0.091,-0.535 0.095,-0.535 0.102,-0.535C0.119,-0.535 0.132,-0.53 0.141,-0.519C0.15,-0.509 0.155,-0.497 0.155,-0.482C0.155,-0.464 0.149,-0.451 0.137,-0.442C0.126,-0.434 0.114,-0.429 0.103,-0.429C0.098,-0.429 0.093,-0.43 0.087,-0.431C0.081,-0.432 0.073,-0.437 0.064,-0.446C0.055,-0.456 0.05,-0.469 0.05,-0.485C0.05,-0.532 0.067,-0.574 0.103,-0.611C0.138,-0.648 0.183,-0.666 0.237,-0.666C0.298,-0.666 0.349,-0.648 0.389,-0.612C0.429,-0.575 0.449,-0.529 0.449,-0.473C0.449,-0.453 0.446,-0.434 0.44,-0.416C0.434,-0.398 0.427,-0.381 0.419,-0.367C0.411,-0.353 0.396,-0.335 0.375,-0.313C0.354,-0.29 0.334,-0.271 0.317,-0.255C0.3,-0.239 0.272,-0.214 0.233,-0.18L0.127,-0.077L0.307,-0.077C0.366,-0.077 0.397,-0.08 0.402,-0.085C0.408,-0.094 0.416,-0.124 0.424,-0.174L0.449,-0.174L0.421,-0L0.05,-0Z" style="fill:rgb(254,217,163);fill-rule:nonzero;"/>
            </g>
            <g transform="matrix(-39.5836,56.1783,-56.1783,-39.5836,785.088,661.712)">
                <path d="M0.042,-0.316C0.042,-0.421 0.069,-0.505 0.122,-0.57C0.175,-0.634 0.236,-0.666 0.305,-0.666C0.345,-0.666 0.376,-0.656 0.399,-0.636C0.421,-0.615 0.432,-0.59 0.432,-0.558C0.432,-0.541 0.427,-0.529 0.417,-0.521C0.407,-0.514 0.397,-0.51 0.386,-0.51C0.374,-0.51 0.363,-0.514 0.354,-0.522C0.345,-0.53 0.34,-0.542 0.34,-0.556C0.34,-0.587 0.358,-0.602 0.395,-0.602C0.378,-0.628 0.348,-0.641 0.307,-0.641C0.294,-0.641 0.282,-0.639 0.269,-0.635C0.256,-0.632 0.241,-0.624 0.224,-0.611C0.207,-0.599 0.192,-0.583 0.179,-0.563C0.166,-0.544 0.155,-0.516 0.146,-0.479C0.136,-0.442 0.132,-0.4 0.132,-0.352L0.132,-0.328C0.159,-0.394 0.201,-0.426 0.257,-0.426C0.313,-0.426 0.36,-0.405 0.399,-0.362C0.438,-0.32 0.457,-0.267 0.457,-0.204C0.457,-0.139 0.437,-0.086 0.396,-0.043C0.356,0 0.308,0.022 0.251,0.022C0.226,0.022 0.201,0.017 0.178,0.006C0.156,-0.004 0.133,-0.022 0.112,-0.046C0.091,-0.07 0.074,-0.105 0.061,-0.151C0.048,-0.198 0.042,-0.253 0.042,-0.316ZM0.134,-0.226C0.134,-0.161 0.14,-0.113 0.152,-0.081C0.154,-0.076 0.157,-0.07 0.161,-0.063C0.166,-0.056 0.172,-0.048 0.179,-0.038C0.187,-0.029 0.197,-0.021 0.21,-0.015C0.223,-0.009 0.236,-0.006 0.251,-0.006C0.296,-0.006 0.329,-0.028 0.35,-0.071C0.361,-0.095 0.367,-0.14 0.367,-0.205C0.367,-0.272 0.361,-0.317 0.349,-0.342C0.329,-0.383 0.298,-0.404 0.256,-0.404C0.228,-0.404 0.204,-0.394 0.185,-0.375C0.165,-0.356 0.152,-0.333 0.145,-0.308C0.137,-0.282 0.134,-0.255 0.134,-0.226Z" style="fill:rgb(254,217,163);fill-rule:nonzero;"/>
            </g>
            <g transform="matrix(-46.7712,50.352,-50.352,-46.7712,755.239,702.198)">
                <path d="M0.028,-0.165L0.028,-0.196L0.335,-0.666C0.34,-0.674 0.347,-0.678 0.355,-0.677C0.362,-0.677 0.367,-0.676 0.369,-0.673C0.37,-0.67 0.371,-0.663 0.371,-0.651L0.371,-0.196L0.471,-0.196L0.471,-0.165L0.371,-0.165L0.371,-0.078C0.371,-0.059 0.375,-0.047 0.383,-0.04C0.391,-0.034 0.412,-0.031 0.447,-0.031L0.468,-0.031L0.468,-0C0.44,-0.002 0.395,-0.003 0.332,-0.003C0.269,-0.003 0.224,-0.002 0.197,-0L0.197,-0.031L0.218,-0.031C0.252,-0.031 0.274,-0.034 0.282,-0.04C0.29,-0.046 0.294,-0.059 0.294,-0.078L0.294,-0.165L0.028,-0.165ZM0.056,-0.196L0.3,-0.196L0.3,-0.569L0.056,-0.196Z" style="fill:rgb(254,217,163);fill-rule:nonzero;"/>
            </g>
            <g transform="matrix(-50.7852,46.3005,-46.3005,-50.7852,734.204,725.042)">
                <path d="M0.042,-0.135C0.042,-0.155 0.048,-0.17 0.059,-0.18C0.07,-0.189 0.083,-0.194 0.098,-0.194C0.113,-0.194 0.127,-0.189 0.137,-0.179C0.148,-0.169 0.154,-0.155 0.154,-0.138C0.154,-0.119 0.147,-0.104 0.135,-0.094C0.122,-0.083 0.106,-0.079 0.088,-0.082C0.104,-0.056 0.127,-0.036 0.156,-0.024C0.185,-0.012 0.214,-0.006 0.241,-0.006C0.27,-0.006 0.296,-0.019 0.319,-0.044C0.342,-0.068 0.354,-0.111 0.354,-0.172C0.354,-0.223 0.344,-0.263 0.324,-0.293C0.304,-0.322 0.274,-0.337 0.235,-0.337L0.191,-0.337C0.181,-0.337 0.174,-0.337 0.171,-0.338C0.168,-0.339 0.167,-0.342 0.167,-0.348C0.167,-0.354 0.172,-0.358 0.182,-0.359C0.192,-0.359 0.205,-0.36 0.221,-0.362C0.26,-0.363 0.29,-0.381 0.31,-0.415C0.329,-0.446 0.338,-0.485 0.338,-0.53C0.338,-0.57 0.328,-0.599 0.309,-0.616C0.289,-0.633 0.267,-0.641 0.242,-0.641C0.219,-0.641 0.194,-0.636 0.168,-0.627C0.143,-0.617 0.123,-0.602 0.109,-0.581C0.15,-0.581 0.171,-0.564 0.171,-0.53C0.171,-0.515 0.166,-0.502 0.157,-0.493C0.148,-0.483 0.135,-0.478 0.12,-0.478C0.105,-0.478 0.093,-0.483 0.083,-0.492C0.074,-0.502 0.069,-0.515 0.069,-0.531C0.069,-0.569 0.086,-0.601 0.12,-0.627C0.154,-0.653 0.196,-0.666 0.246,-0.666C0.296,-0.666 0.339,-0.653 0.375,-0.627C0.412,-0.601 0.43,-0.569 0.43,-0.529C0.43,-0.489 0.417,-0.453 0.391,-0.42C0.365,-0.388 0.331,-0.365 0.29,-0.351C0.341,-0.341 0.381,-0.319 0.412,-0.285C0.442,-0.251 0.457,-0.213 0.457,-0.172C0.457,-0.119 0.437,-0.074 0.396,-0.036C0.354,0.003 0.304,0.022 0.244,0.022C0.189,0.022 0.141,0.007 0.102,-0.023C0.062,-0.053 0.042,-0.091 0.042,-0.135Z" style="fill:rgb(254,217,163);fill-rule:nonzero;"/>
            </g>
            <g transform="matrix(-54.4397,41.9426,-41.9426,-54.4397,711.437,745.987)">
                <path d="M0.042,-0.135C0.042,-0.155 0.048,-0.17 0.059,-0.18C0.07,-0.189 0.083,-0.194 0.098,-0.194C0.113,-0.194 0.127,-0.189 0.137,-0.179C0.148,-0.169 0.154,-0.155 0.154,-0.138C0.154,-0.119 0.147,-0.104 0.135,-0.094C0.122,-0.083 0.106,-0.079 0.088,-0.082C0.104,-0.056 0.127,-0.036 0.156,-0.024C0.185,-0.012 0.214,-0.006 0.241,-0.006C0.27,-0.006 0.296,-0.019 0.319,-0.044C0.342,-0.068 0.354,-0.111 0.354,-0.172C0.354,-0.223 0.344,-0.263 0.324,-0.293C0.304,-0.322 0.274,-0.337 0.235,-0.337L0.191,-0.337C0.181,-0.337 0.174,-0.337 0.171,-0.338C0.168,-0.339 0.167,-0.342 0.167,-0.348C0.167,-0.354 0.172,-0.358 0.182,-0.359C0.192,-0.359 0.205,-0.36 0.221,-0.362C0.26,-0.363 0.29,-0.381 0.31,-0.415C0.329,-0.446 0.338,-0.485 0.338,-0.53C0.338,-0.57 0.328,-0.599 0.309,-0.616C0.289,-0.633 0.267,-0.641 0.242,-0.641C0.219,-0.641 0.194,-0.636 0.168,-0.627C0.143,-0.617 0.123,-0.602 0.109,-0.581C0.15,-0.581 0.171,-0.564 0.171,-0.53C0.171,-0.515 0.166,-0.502 0.157,-0.493C0.148,-0.483 0.135,-0.478 0.12,-0.478C0.105,-0.478 0.093,-0.483 0.083,-0.492C0.074,-0.502 0.069,-0.515 0.069,-0.531C0.069,-0.569 0.086,-0.601 0.12,-0.627C0.154,-0.653 0.196,-0.666 0.246,-0.666C0.296,-0.666 0.339,-0.653 0.375,-0.627C0.412,-0.601 0.43,-0.569 0.43,-0.529C0.43,-0.489 0.417,-0.453 0.391,-0.42C0.365,-0.388 0.331,-0.365 0.29,-0.351C0.341,-0.341 0.381,-0.319 0.412,-0.285C0.442,-0.251 0.457,-0.213 0.457,-0.172C0.457,-0.119 0.437,-0.074 0.396,-0.036C0.354,0.003 0.304,0.022 0.244,0.022C0.189,0.022 0.141,0.007 0.102,-0.023C0.062,-0.053 0.042,-0.091 0.042,-0.135Z" style="fill:rgb(254,217,163);fill-rule:nonzero;"/>
            </g>
            <g transform="matrix(-57.7217,37.297,-37.297,-57.7217,687.08,764.933)">
                <path d="M0.042,-0.151C0.042,-0.226 0.09,-0.287 0.186,-0.335C0.145,-0.363 0.12,-0.381 0.113,-0.389C0.083,-0.422 0.069,-0.458 0.069,-0.499C0.069,-0.546 0.087,-0.585 0.122,-0.617C0.157,-0.65 0.2,-0.666 0.25,-0.666C0.298,-0.666 0.34,-0.652 0.376,-0.625C0.412,-0.597 0.43,-0.561 0.43,-0.517C0.43,-0.455 0.39,-0.404 0.309,-0.362C0.362,-0.329 0.396,-0.305 0.408,-0.291C0.441,-0.255 0.457,-0.214 0.457,-0.168C0.457,-0.115 0.437,-0.07 0.396,-0.033C0.354,0.004 0.306,0.022 0.249,0.022C0.194,0.022 0.145,0.006 0.104,-0.026C0.063,-0.059 0.042,-0.1 0.042,-0.151ZM0.092,-0.151C0.092,-0.11 0.107,-0.075 0.138,-0.048C0.17,-0.02 0.207,-0.006 0.25,-0.006C0.292,-0.006 0.329,-0.018 0.36,-0.042C0.392,-0.067 0.407,-0.096 0.407,-0.132C0.407,-0.146 0.405,-0.159 0.4,-0.171C0.395,-0.183 0.388,-0.194 0.379,-0.204C0.37,-0.213 0.362,-0.22 0.357,-0.225C0.351,-0.229 0.343,-0.235 0.332,-0.242L0.209,-0.32C0.131,-0.277 0.092,-0.221 0.092,-0.151ZM0.113,-0.538C0.113,-0.506 0.13,-0.479 0.163,-0.457L0.287,-0.377C0.353,-0.416 0.386,-0.463 0.386,-0.517C0.386,-0.553 0.373,-0.582 0.346,-0.606C0.319,-0.629 0.286,-0.641 0.249,-0.641C0.212,-0.641 0.18,-0.631 0.153,-0.612C0.126,-0.593 0.113,-0.568 0.113,-0.538Z" style="fill:rgb(254,217,163);fill-rule:nonzero;"/>
            </g>
            <g transform="matrix(-62.2405,29.1374,-29.1374,-62.2405,644.211,791.338)">
                <path d="M0.042,-0.135C0.042,-0.155 0.048,-0.17 0.059,-0.18C0.07,-0.189 0.083,-0.194 0.098,-0.194C0.113,-0.194 0.127,-0.189 0.137,-0.179C0.148,-0.169 0.154,-0.155 0.154,-0.138C0.154,-0.119 0.147,-0.104 0.135,-0.094C0.122,-0.083 0.106,-0.079 0.088,-0.082C0.104,-0.056 0.127,-0.036 0.156,-0.024C0.185,-0.012 0.214,-0.006 0.241,-0.006C0.27,-0.006 0.296,-0.019 0.319,-0.044C0.342,-0.068 0.354,-0.111 0.354,-0.172C0.354,-0.223 0.344,-0.263 0.324,-0.293C0.304,-0.322 0.274,-0.337 0.235,-0.337L0.191,-0.337C0.181,-0.337 0.174,-0.337 0.171,-0.338C0.168,-0.339 0.167,-0.342 0.167,-0.348C0.167,-0.354 0.172,-0.358 0.182,-0.359C0.192,-0.359 0.205,-0.36 0.221,-0.362C0.26,-0.363 0.29,-0.381 0.31,-0.415C0.329,-0.446 0.338,-0.485 0.338,-0.53C0.338,-0.57 0.328,-0.599 0.309,-0.616C0.289,-0.633 0.267,-0.641 0.242,-0.641C0.219,-0.641 0.194,-0.636 0.168,-0.627C0.143,-0.617 0.123,-0.602 0.109,-0.581C0.15,-0.581 0.171,-0.564 0.171,-0.53C0.171,-0.515 0.166,-0.502 0.157,-0.493C0.148,-0.483 0.135,-0.478 0.12,-0.478C0.105,-0.478 0.093,-0.483 0.083,-0.492C0.074,-0.502 0.069,-0.515 0.069,-0.531C0.069,-0.569 0.086,-0.601 0.12,-0.627C0.154,-0.653 0.196,-0.666 0.246,-0.666C0.296,-0.666 0.339,-0.653 0.375,-0.627C0.412,-0.601 0.43,-0.569 0.43,-0.529C0.43,-0.489 0.417,-0.453 0.391,-0.42C0.365,-0.388 0.331,-0.365 0.29,-0.351C0.341,-0.341 0.381,-0.319 0.412,-0.285C0.442,-0.251 0.457,-0.213 0.457,-0.172C0.457,-0.119 0.437,-0.074 0.396,-0.036C0.354,0.003 0.304,0.022 0.244,0.022C0.189,0.022 0.141,0.007 0.102,-0.023C0.062,-0.053 0.042,-0.091 0.042,-0.135Z" style="fill:rgb(254,217,163);fill-rule:nonzero;"/>
            </g>
            <g transform="matrix(-64.4631,23.8195,-23.8195,-64.4631,616.229,804.593)">
                <path d="M0.05,-0C0.05,-0.012 0.05,-0.02 0.052,-0.023C0.053,-0.027 0.056,-0.032 0.061,-0.037L0.253,-0.251C0.323,-0.33 0.358,-0.404 0.358,-0.473C0.358,-0.517 0.346,-0.555 0.323,-0.587C0.3,-0.619 0.267,-0.635 0.224,-0.635C0.195,-0.635 0.168,-0.626 0.143,-0.608C0.118,-0.59 0.1,-0.566 0.089,-0.534C0.091,-0.535 0.095,-0.535 0.102,-0.535C0.119,-0.535 0.132,-0.53 0.141,-0.519C0.15,-0.509 0.155,-0.497 0.155,-0.482C0.155,-0.464 0.149,-0.451 0.137,-0.442C0.126,-0.434 0.114,-0.429 0.103,-0.429C0.098,-0.429 0.093,-0.43 0.087,-0.431C0.081,-0.432 0.073,-0.437 0.064,-0.446C0.055,-0.456 0.05,-0.469 0.05,-0.485C0.05,-0.532 0.067,-0.574 0.103,-0.611C0.138,-0.648 0.183,-0.666 0.237,-0.666C0.298,-0.666 0.349,-0.648 0.389,-0.612C0.429,-0.575 0.449,-0.529 0.449,-0.473C0.449,-0.453 0.446,-0.434 0.44,-0.416C0.434,-0.398 0.427,-0.381 0.419,-0.367C0.411,-0.353 0.396,-0.335 0.375,-0.313C0.354,-0.29 0.334,-0.271 0.317,-0.255C0.3,-0.239 0.272,-0.214 0.233,-0.18L0.127,-0.077L0.307,-0.077C0.366,-0.077 0.397,-0.08 0.402,-0.085C0.408,-0.094 0.416,-0.124 0.424,-0.174L0.449,-0.174L0.421,-0L0.05,-0Z" style="fill:rgb(254,217,163);fill-rule:nonzero;"/>
            </g>
            <g transform="matrix(-66.3116,18.0453,-18.0453,-66.3116,587.16,815.554)">
                <path d="M0.056,-0.47L0.089,-0.676L0.114,-0.676C0.116,-0.668 0.118,-0.662 0.122,-0.658C0.125,-0.655 0.136,-0.651 0.156,-0.648C0.175,-0.646 0.203,-0.644 0.242,-0.644L0.485,-0.644C0.485,-0.629 0.482,-0.617 0.476,-0.609L0.341,-0.419C0.312,-0.379 0.292,-0.322 0.279,-0.248C0.271,-0.199 0.268,-0.144 0.268,-0.084L0.268,-0.033C0.268,0.004 0.253,0.022 0.222,0.022C0.191,0.022 0.176,0.004 0.176,-0.033C0.176,-0.16 0.217,-0.286 0.299,-0.409C0.308,-0.422 0.328,-0.451 0.361,-0.496C0.393,-0.541 0.41,-0.565 0.411,-0.567L0.204,-0.567C0.144,-0.567 0.111,-0.565 0.106,-0.561C0.099,-0.555 0.091,-0.525 0.081,-0.47L0.056,-0.47Z" style="fill:rgb(254,217,163);fill-rule:nonzero;"/>
            </g>
            <g transform="matrix(-67.5379,12.7079,-12.7079,-67.5379,557.463,823.838)">
                <path d="M0.042,-0.44C0.042,-0.476 0.047,-0.506 0.058,-0.53C0.068,-0.554 0.084,-0.579 0.106,-0.603C0.146,-0.645 0.195,-0.666 0.253,-0.666C0.278,-0.666 0.301,-0.661 0.323,-0.65C0.345,-0.64 0.366,-0.623 0.387,-0.599C0.408,-0.575 0.425,-0.54 0.438,-0.494C0.451,-0.447 0.457,-0.392 0.457,-0.328C0.457,-0.225 0.432,-0.141 0.382,-0.076C0.332,-0.011 0.273,0.022 0.206,0.022C0.163,0.022 0.13,0.012 0.104,-0.007C0.079,-0.026 0.067,-0.053 0.067,-0.086C0.067,-0.103 0.072,-0.115 0.082,-0.123C0.091,-0.13 0.102,-0.134 0.113,-0.134C0.125,-0.134 0.136,-0.13 0.145,-0.122C0.154,-0.114 0.159,-0.103 0.159,-0.088C0.159,-0.076 0.155,-0.065 0.148,-0.056C0.14,-0.047 0.126,-0.042 0.107,-0.042C0.126,-0.018 0.159,-0.006 0.205,-0.006C0.222,-0.006 0.238,-0.01 0.255,-0.018C0.271,-0.025 0.289,-0.038 0.307,-0.057C0.325,-0.076 0.34,-0.105 0.351,-0.144C0.362,-0.183 0.367,-0.23 0.367,-0.285L0.367,-0.317C0.34,-0.251 0.299,-0.218 0.242,-0.218C0.186,-0.218 0.139,-0.239 0.1,-0.282C0.061,-0.325 0.042,-0.378 0.042,-0.44ZM0.132,-0.439C0.132,-0.373 0.138,-0.327 0.15,-0.303C0.17,-0.261 0.201,-0.24 0.243,-0.24C0.284,-0.24 0.314,-0.258 0.335,-0.294C0.355,-0.331 0.365,-0.373 0.365,-0.42C0.365,-0.486 0.36,-0.533 0.349,-0.562C0.329,-0.615 0.297,-0.641 0.253,-0.641C0.209,-0.641 0.176,-0.62 0.153,-0.578C0.139,-0.553 0.132,-0.507 0.132,-0.439Z" style="fill:rgb(254,217,163);fill-rule:nonzero;"/>
            </g>
            <g transform="matrix(-68.6361,3.45677,-3.45677,-68.6361,507.747,832.071)">
                <path d="M0.05,-0.164C0.05,-0.185 0.055,-0.199 0.066,-0.207C0.077,-0.215 0.088,-0.219 0.099,-0.219C0.114,-0.219 0.127,-0.214 0.135,-0.204C0.144,-0.194 0.149,-0.182 0.149,-0.168C0.149,-0.154 0.144,-0.142 0.135,-0.131C0.127,-0.121 0.114,-0.116 0.099,-0.116C0.092,-0.116 0.086,-0.117 0.082,-0.118C0.091,-0.088 0.109,-0.061 0.135,-0.039C0.162,-0.017 0.194,-0.006 0.229,-0.006C0.274,-0.006 0.309,-0.028 0.336,-0.073C0.352,-0.101 0.36,-0.148 0.36,-0.213C0.36,-0.268 0.354,-0.308 0.342,-0.336C0.323,-0.377 0.295,-0.398 0.257,-0.398C0.203,-0.398 0.16,-0.375 0.128,-0.33C0.124,-0.324 0.12,-0.321 0.115,-0.321C0.109,-0.321 0.105,-0.323 0.103,-0.327C0.102,-0.33 0.101,-0.337 0.101,-0.347L0.101,-0.641C0.101,-0.657 0.104,-0.665 0.111,-0.665C0.113,-0.665 0.118,-0.664 0.123,-0.663C0.165,-0.65 0.209,-0.643 0.256,-0.643C0.304,-0.643 0.349,-0.652 0.392,-0.672C0.395,-0.674 0.398,-0.675 0.4,-0.675C0.406,-0.675 0.41,-0.671 0.41,-0.664C0.41,-0.661 0.407,-0.656 0.402,-0.648C0.397,-0.64 0.388,-0.631 0.377,-0.62C0.366,-0.609 0.353,-0.598 0.338,-0.587C0.323,-0.577 0.305,-0.568 0.284,-0.561C0.263,-0.554 0.24,-0.551 0.217,-0.551C0.189,-0.551 0.16,-0.555 0.132,-0.564L0.132,-0.37C0.166,-0.403 0.209,-0.42 0.259,-0.42C0.312,-0.42 0.357,-0.399 0.394,-0.357C0.431,-0.315 0.449,-0.264 0.449,-0.206C0.449,-0.142 0.427,-0.088 0.384,-0.044C0.341,0 0.29,0.022 0.231,0.022C0.178,0.022 0.134,0.003 0.1,-0.036C0.067,-0.075 0.05,-0.117 0.05,-0.164Z" style="fill:rgb(254,217,163);fill-rule:nonzero;"/>
            </g>
            <g transform="matrix(-68.6886,-2.17856,2.17856,-68.6886,476.872,833.764)">
                <path d="M0.039,-0.32C0.039,-0.418 0.051,-0.493 0.076,-0.547C0.111,-0.626 0.169,-0.666 0.25,-0.666C0.267,-0.666 0.285,-0.664 0.303,-0.659C0.321,-0.654 0.342,-0.643 0.365,-0.625C0.387,-0.607 0.406,-0.583 0.42,-0.554C0.447,-0.498 0.46,-0.419 0.46,-0.32C0.46,-0.222 0.448,-0.147 0.423,-0.094C0.387,-0.017 0.329,0.022 0.249,0.022C0.219,0.022 0.189,0.014 0.158,-0.001C0.128,-0.016 0.103,-0.042 0.084,-0.079C0.054,-0.134 0.039,-0.214 0.039,-0.32ZM0.122,-0.332C0.122,-0.231 0.126,-0.161 0.133,-0.121C0.141,-0.078 0.156,-0.047 0.178,-0.028C0.201,-0.009 0.224,-0 0.249,-0C0.276,-0 0.3,-0.01 0.323,-0.03C0.345,-0.05 0.359,-0.082 0.366,-0.125C0.374,-0.168 0.377,-0.237 0.377,-0.332C0.377,-0.425 0.374,-0.49 0.367,-0.527C0.358,-0.57 0.342,-0.601 0.319,-0.618C0.296,-0.635 0.272,-0.644 0.249,-0.644C0.24,-0.644 0.231,-0.643 0.222,-0.64C0.213,-0.638 0.201,-0.632 0.188,-0.625C0.175,-0.618 0.163,-0.604 0.153,-0.586C0.142,-0.567 0.135,-0.544 0.13,-0.516C0.125,-0.48 0.122,-0.419 0.122,-0.332Z" style="fill:rgb(254,217,163);fill-rule:nonzero;"/>
            </g>
            <g transform="matrix(-68.2711,-7.86939,7.86939,-68.2711,445.849,832.918)">
                <path d="M0.05,-0C0.05,-0.012 0.05,-0.02 0.052,-0.023C0.053,-0.027 0.056,-0.032 0.061,-0.037L0.253,-0.251C0.323,-0.33 0.358,-0.404 0.358,-0.473C0.358,-0.517 0.346,-0.555 0.323,-0.587C0.3,-0.619 0.267,-0.635 0.224,-0.635C0.195,-0.635 0.168,-0.626 0.143,-0.608C0.118,-0.59 0.1,-0.566 0.089,-0.534C0.091,-0.535 0.095,-0.535 0.102,-0.535C0.119,-0.535 0.132,-0.53 0.141,-0.519C0.15,-0.509 0.155,-0.497 0.155,-0.482C0.155,-0.464 0.149,-0.451 0.137,-0.442C0.126,-0.434 0.114,-0.429 0.103,-0.429C0.098,-0.429 0.093,-0.43 0.087,-0.431C0.081,-0.432 0.073,-0.437 0.064,-0.446C0.055,-0.456 0.05,-0.469 0.05,-0.485C0.05,-0.532 0.067,-0.574 0.103,-0.611C0.138,-0.648 0.183,-0.666 0.237,-0.666C0.298,-0.666 0.349,-0.648 0.389,-0.612C0.429,-0.575 0.449,-0.529 0.449,-0.473C0.449,-0.453 0.446,-0.434 0.44,-0.416C0.434,-0.398 0.427,-0.381 0.419,-0.367C0.411,-0.353 0.396,-0.335 0.375,-0.313C0.354,-0.29 0.334,-0.271 0.317,-0.255C0.3,-0.239 0.272,-0.214 0.233,-0.18L0.127,-0.077L0.307,-0.077C0.366,-0.077 0.397,-0.08 0.402,-0.085C0.408,-0.094 0.416,-0.124 0.424,-0.174L0.449,-0.174L0.421,-0L0.05,-0Z" style="fill:rgb(254,217,163);fill-rule:nonzero;"/>
            </g>
            <g transform="matrix(-67.3785,-13.5279,13.5279,-67.3785,415.175,829.528)">
                <path d="M0.042,-0.151C0.042,-0.226 0.09,-0.287 0.186,-0.335C0.145,-0.363 0.12,-0.381 0.113,-0.389C0.083,-0.422 0.069,-0.458 0.069,-0.499C0.069,-0.546 0.087,-0.585 0.122,-0.617C0.157,-0.65 0.2,-0.666 0.25,-0.666C0.298,-0.666 0.34,-0.652 0.376,-0.625C0.412,-0.597 0.43,-0.561 0.43,-0.517C0.43,-0.455 0.39,-0.404 0.309,-0.362C0.362,-0.329 0.396,-0.305 0.408,-0.291C0.441,-0.255 0.457,-0.214 0.457,-0.168C0.457,-0.115 0.437,-0.07 0.396,-0.033C0.354,0.004 0.306,0.022 0.249,0.022C0.194,0.022 0.145,0.006 0.104,-0.026C0.063,-0.059 0.042,-0.1 0.042,-0.151ZM0.092,-0.151C0.092,-0.11 0.107,-0.075 0.138,-0.048C0.17,-0.02 0.207,-0.006 0.25,-0.006C0.292,-0.006 0.329,-0.018 0.36,-0.042C0.392,-0.067 0.407,-0.096 0.407,-0.132C0.407,-0.146 0.405,-0.159 0.4,-0.171C0.395,-0.183 0.388,-0.194 0.379,-0.204C0.37,-0.213 0.362,-0.22 0.357,-0.225C0.351,-0.229 0.343,-0.235 0.332,-0.242L0.209,-0.32C0.131,-0.277 0.092,-0.221 0.092,-0.151ZM0.113,-0.538C0.113,-0.506 0.13,-0.479 0.163,-0.457L0.287,-0.377C0.353,-0.416 0.386,-0.463 0.386,-0.517C0.386,-0.553 0.373,-0.582 0.346,-0.606C0.319,-0.629 0.286,-0.641 0.249,-0.641C0.212,-0.641 0.18,-0.631 0.153,-0.612C0.126,-0.593 0.113,-0.568 0.113,-0.538Z" style="fill:rgb(254,217,163);fill-rule:nonzero;"/>
            </g>
            <g transform="matrix(-64.9015,-22.5978,22.5978,-64.9015,365.97,818.523)">
                <path d="M0.042,-0.151C0.042,-0.226 0.09,-0.287 0.186,-0.335C0.145,-0.363 0.12,-0.381 0.113,-0.389C0.083,-0.422 0.069,-0.458 0.069,-0.499C0.069,-0.546 0.087,-0.585 0.122,-0.617C0.157,-0.65 0.2,-0.666 0.25,-0.666C0.298,-0.666 0.34,-0.652 0.376,-0.625C0.412,-0.597 0.43,-0.561 0.43,-0.517C0.43,-0.455 0.39,-0.404 0.309,-0.362C0.362,-0.329 0.396,-0.305 0.408,-0.291C0.441,-0.255 0.457,-0.214 0.457,-0.168C0.457,-0.115 0.437,-0.07 0.396,-0.033C0.354,0.004 0.306,0.022 0.249,0.022C0.194,0.022 0.145,0.006 0.104,-0.026C0.063,-0.059 0.042,-0.1 0.042,-0.151ZM0.092,-0.151C0.092,-0.11 0.107,-0.075 0.138,-0.048C0.17,-0.02 0.207,-0.006 0.25,-0.006C0.292,-0.006 0.329,-0.018 0.36,-0.042C0.392,-0.067 0.407,-0.096 0.407,-0.132C0.407,-0.146 0.405,-0.159 0.4,-0.171C0.395,-0.183 0.388,-0.194 0.379,-0.204C0.37,-0.213 0.362,-0.22 0.357,-0.225C0.351,-0.229 0.343,-0.235 0.332,-0.242L0.209,-0.32C0.131,-0.277 0.092,-0.221 0.092,-0.151ZM0.113,-0.538C0.113,-0.506 0.13,-0.479 0.163,-0.457L0.287,-0.377C0.353,-0.416 0.386,-0.463 0.386,-0.517C0.386,-0.553 0.373,-0.582 0.346,-0.606C0.319,-0.629 0.286,-0.641 0.249,-0.641C0.212,-0.641 0.18,-0.631 0.153,-0.612C0.126,-0.593 0.113,-0.568 0.113,-0.538Z" style="fill:rgb(254,217,163);fill-rule:nonzero;"/>
            </g>
            <g transform="matrix(-62.785,-27.9447,27.9447,-62.785,336.768,808.507)">
                <path d="M0.028,-0.165L0.028,-0.196L0.335,-0.666C0.34,-0.674 0.347,-0.678 0.355,-0.677C0.362,-0.677 0.367,-0.676 0.369,-0.673C0.37,-0.67 0.371,-0.663 0.371,-0.651L0.371,-0.196L0.471,-0.196L0.471,-0.165L0.371,-0.165L0.371,-0.078C0.371,-0.059 0.375,-0.047 0.383,-0.04C0.391,-0.034 0.412,-0.031 0.447,-0.031L0.468,-0.031L0.468,-0C0.44,-0.002 0.395,-0.003 0.332,-0.003C0.269,-0.003 0.224,-0.002 0.197,-0L0.197,-0.031L0.218,-0.031C0.252,-0.031 0.274,-0.034 0.282,-0.04C0.29,-0.046 0.294,-0.059 0.294,-0.078L0.294,-0.165L0.028,-0.165ZM0.056,-0.196L0.3,-0.196L0.3,-0.569L0.056,-0.196Z" style="fill:rgb(254,217,163);fill-rule:nonzero;"/>
            </g>
            <g transform="matrix(-60.1934,-33.1605,33.1605,-60.1934,308.321,796.008)">
                <path d="M0.089,-0.571L0.089,-0.602C0.169,-0.602 0.23,-0.623 0.271,-0.666C0.282,-0.666 0.289,-0.665 0.291,-0.662C0.293,-0.66 0.294,-0.652 0.294,-0.64L0.294,-0.08C0.294,-0.06 0.299,-0.047 0.309,-0.041C0.318,-0.034 0.345,-0.031 0.387,-0.031L0.419,-0.031L0.419,-0C0.396,-0.002 0.341,-0.003 0.257,-0.003C0.172,-0.003 0.118,-0.002 0.095,-0L0.095,-0.031L0.127,-0.031C0.169,-0.031 0.195,-0.034 0.205,-0.04C0.215,-0.046 0.22,-0.059 0.22,-0.08L0.22,-0.597C0.185,-0.58 0.142,-0.571 0.089,-0.571Z" style="fill:rgb(254,217,163);fill-rule:nonzero;"/>
            </g>
            <g transform="matrix(-57.2693,-37.9881,37.9881,-57.2693,281.247,781.269)">
                <path d="M0.042,-0.44C0.042,-0.476 0.047,-0.506 0.058,-0.53C0.068,-0.554 0.084,-0.579 0.106,-0.603C0.146,-0.645 0.195,-0.666 0.253,-0.666C0.278,-0.666 0.301,-0.661 0.323,-0.65C0.345,-0.64 0.366,-0.623 0.387,-0.599C0.408,-0.575 0.425,-0.54 0.438,-0.494C0.451,-0.447 0.457,-0.392 0.457,-0.328C0.457,-0.225 0.432,-0.141 0.382,-0.076C0.332,-0.011 0.273,0.022 0.206,0.022C0.163,0.022 0.13,0.012 0.104,-0.007C0.079,-0.026 0.067,-0.053 0.067,-0.086C0.067,-0.103 0.072,-0.115 0.082,-0.123C0.091,-0.13 0.102,-0.134 0.113,-0.134C0.125,-0.134 0.136,-0.13 0.145,-0.122C0.154,-0.114 0.159,-0.103 0.159,-0.088C0.159,-0.076 0.155,-0.065 0.148,-0.056C0.14,-0.047 0.126,-0.042 0.107,-0.042C0.126,-0.018 0.159,-0.006 0.205,-0.006C0.222,-0.006 0.238,-0.01 0.255,-0.018C0.271,-0.025 0.289,-0.038 0.307,-0.057C0.325,-0.076 0.34,-0.105 0.351,-0.144C0.362,-0.183 0.367,-0.23 0.367,-0.285L0.367,-0.317C0.34,-0.251 0.299,-0.218 0.242,-0.218C0.186,-0.218 0.139,-0.239 0.1,-0.282C0.061,-0.325 0.042,-0.378 0.042,-0.44ZM0.132,-0.439C0.132,-0.373 0.138,-0.327 0.15,-0.303C0.17,-0.261 0.201,-0.24 0.243,-0.24C0.284,-0.24 0.314,-0.258 0.335,-0.294C0.355,-0.331 0.365,-0.373 0.365,-0.42C0.365,-0.486 0.36,-0.533 0.349,-0.562C0.329,-0.615 0.297,-0.641 0.253,-0.641C0.209,-0.641 0.176,-0.62 0.153,-0.578C0.139,-0.553 0.132,-0.507 0.132,-0.439Z" style="fill:rgb(254,217,163);fill-rule:nonzero;"/>
            </g>
            <g transform="matrix(-51.4523,-45.5579,45.5579,-51.4523,239.799,752.545)">
                <path d="M0.056,-0.47L0.089,-0.676L0.114,-0.676C0.116,-0.668 0.118,-0.662 0.122,-0.658C0.125,-0.655 0.136,-0.651 0.156,-0.648C0.175,-0.646 0.203,-0.644 0.242,-0.644L0.485,-0.644C0.485,-0.629 0.482,-0.617 0.476,-0.609L0.341,-0.419C0.312,-0.379 0.292,-0.322 0.279,-0.248C0.271,-0.199 0.268,-0.144 0.268,-0.084L0.268,-0.033C0.268,0.004 0.253,0.022 0.222,0.022C0.191,0.022 0.176,0.004 0.176,-0.033C0.176,-0.16 0.217,-0.286 0.299,-0.409C0.308,-0.422 0.328,-0.451 0.361,-0.496C0.393,-0.541 0.41,-0.565 0.411,-0.567L0.204,-0.567C0.144,-0.567 0.111,-0.565 0.106,-0.561C0.099,-0.555 0.091,-0.525 0.081,-0.47L0.056,-0.47Z" style="fill:rgb(254,217,163);fill-rule:nonzero;"/>
            </g>
            <g transform="matrix(-47.6634,-49.5082,49.5082,-47.6634,216.498,732.185)">
                <path d="M0.089,-0.571L0.089,-0.602C0.169,-0.602 0.23,-0.623 0.271,-0.666C0.282,-0.666 0.289,-0.665 0.291,-0.662C0.293,-0.66 0.294,-0.652 0.294,-0.64L0.294,-0.08C0.294,-0.06 0.299,-0.047 0.309,-0.041C0.318,-0.034 0.345,-0.031 0.387,-0.031L0.419,-0.031L0.419,-0C0.396,-0.002 0.341,-0.003 0.257,-0.003C0.172,-0.003 0.118,-0.002 0.095,-0L0.095,-0.031L0.127,-0.031C0.169,-0.031 0.195,-0.034 0.205,-0.04C0.215,-0.046 0.22,-0.059 0.22,-0.08L0.22,-0.597C0.185,-0.58 0.142,-0.571 0.089,-0.571Z" style="fill:rgb(254,217,163);fill-rule:nonzero;"/>
            </g>
            <g transform="matrix(-43.4502,-53.2442,53.2442,-43.4502,194.926,709.994)">
                <path d="M0.042,-0.316C0.042,-0.421 0.069,-0.505 0.122,-0.57C0.175,-0.634 0.236,-0.666 0.305,-0.666C0.345,-0.666 0.376,-0.656 0.399,-0.636C0.421,-0.615 0.432,-0.59 0.432,-0.558C0.432,-0.541 0.427,-0.529 0.417,-0.521C0.407,-0.514 0.397,-0.51 0.386,-0.51C0.374,-0.51 0.363,-0.514 0.354,-0.522C0.345,-0.53 0.34,-0.542 0.34,-0.556C0.34,-0.587 0.358,-0.602 0.395,-0.602C0.378,-0.628 0.348,-0.641 0.307,-0.641C0.294,-0.641 0.282,-0.639 0.269,-0.635C0.256,-0.632 0.241,-0.624 0.224,-0.611C0.207,-0.599 0.192,-0.583 0.179,-0.563C0.166,-0.544 0.155,-0.516 0.146,-0.479C0.136,-0.442 0.132,-0.4 0.132,-0.352L0.132,-0.328C0.159,-0.394 0.201,-0.426 0.257,-0.426C0.313,-0.426 0.36,-0.405 0.399,-0.362C0.438,-0.32 0.457,-0.267 0.457,-0.204C0.457,-0.139 0.437,-0.086 0.396,-0.043C0.356,0 0.308,0.022 0.251,0.022C0.226,0.022 0.201,0.017 0.178,0.006C0.156,-0.004 0.133,-0.022 0.112,-0.046C0.091,-0.07 0.074,-0.105 0.061,-0.151C0.048,-0.198 0.042,-0.253 0.042,-0.316ZM0.134,-0.226C0.134,-0.161 0.14,-0.113 0.152,-0.081C0.154,-0.076 0.157,-0.07 0.161,-0.063C0.166,-0.056 0.172,-0.048 0.179,-0.038C0.187,-0.029 0.197,-0.021 0.21,-0.015C0.223,-0.009 0.236,-0.006 0.251,-0.006C0.296,-0.006 0.329,-0.028 0.35,-0.071C0.361,-0.095 0.367,-0.14 0.367,-0.205C0.367,-0.272 0.361,-0.317 0.349,-0.342C0.329,-0.383 0.298,-0.404 0.256,-0.404C0.228,-0.404 0.204,-0.394 0.185,-0.375C0.165,-0.356 0.152,-0.333 0.145,-0.308C0.137,-0.282 0.134,-0.255 0.134,-0.226Z" style="fill:rgb(254,217,163);fill-rule:nonzero;"/>
            </g>
            <g transform="matrix(-38.8858,-56.6636,56.6636,-38.8858,175.237,686.086)">
                <path d="M0.042,-0.44C0.042,-0.476 0.047,-0.506 0.058,-0.53C0.068,-0.554 0.084,-0.579 0.106,-0.603C0.146,-0.645 0.195,-0.666 0.253,-0.666C0.278,-0.666 0.301,-0.661 0.323,-0.65C0.345,-0.64 0.366,-0.623 0.387,-0.599C0.408,-0.575 0.425,-0.54 0.438,-0.494C0.451,-0.447 0.457,-0.392 0.457,-0.328C0.457,-0.225 0.432,-0.141 0.382,-0.076C0.332,-0.011 0.273,0.022 0.206,0.022C0.163,0.022 0.13,0.012 0.104,-0.007C0.079,-0.026 0.067,-0.053 0.067,-0.086C0.067,-0.103 0.072,-0.115 0.082,-0.123C0.091,-0.13 0.102,-0.134 0.113,-0.134C0.125,-0.134 0.136,-0.13 0.145,-0.122C0.154,-0.114 0.159,-0.103 0.159,-0.088C0.159,-0.076 0.155,-0.065 0.148,-0.056C0.14,-0.047 0.126,-0.042 0.107,-0.042C0.126,-0.018 0.159,-0.006 0.205,-0.006C0.222,-0.006 0.238,-0.01 0.255,-0.018C0.271,-0.025 0.289,-0.038 0.307,-0.057C0.325,-0.076 0.34,-0.105 0.351,-0.144C0.362,-0.183 0.367,-0.23 0.367,-0.285L0.367,-0.317C0.34,-0.251 0.299,-0.218 0.242,-0.218C0.186,-0.218 0.139,-0.239 0.1,-0.282C0.061,-0.325 0.042,-0.378 0.042,-0.44ZM0.132,-0.439C0.132,-0.373 0.138,-0.327 0.15,-0.303C0.17,-0.261 0.201,-0.24 0.243,-0.24C0.284,-0.24 0.314,-0.258 0.335,-0.294C0.355,-0.331 0.365,-0.373 0.365,-0.42C0.365,-0.486 0.36,-0.533 0.349,-0.562C0.329,-0.615 0.297,-0.641 0.253,-0.641C0.209,-0.641 0.176,-0.62 0.153,-0.578C0.139,-0.553 0.132,-0.507 0.132,-0.439Z" style="fill:rgb(254,217,163);fill-rule:nonzero;"/>
            </g>
            <g transform="matrix(-30.8667,-61.4012,61.4012,-30.8667,147.652,643.971)">
                <path d="M0.042,-0.135C0.042,-0.155 0.048,-0.17 0.059,-0.18C0.07,-0.189 0.083,-0.194 0.098,-0.194C0.113,-0.194 0.127,-0.189 0.137,-0.179C0.148,-0.169 0.154,-0.155 0.154,-0.138C0.154,-0.119 0.147,-0.104 0.135,-0.094C0.122,-0.083 0.106,-0.079 0.088,-0.082C0.104,-0.056 0.127,-0.036 0.156,-0.024C0.185,-0.012 0.214,-0.006 0.241,-0.006C0.27,-0.006 0.296,-0.019 0.319,-0.044C0.342,-0.068 0.354,-0.111 0.354,-0.172C0.354,-0.223 0.344,-0.263 0.324,-0.293C0.304,-0.322 0.274,-0.337 0.235,-0.337L0.191,-0.337C0.181,-0.337 0.174,-0.337 0.171,-0.338C0.168,-0.339 0.167,-0.342 0.167,-0.348C0.167,-0.354 0.172,-0.358 0.182,-0.359C0.192,-0.359 0.205,-0.36 0.221,-0.362C0.26,-0.363 0.29,-0.381 0.31,-0.415C0.329,-0.446 0.338,-0.485 0.338,-0.53C0.338,-0.57 0.328,-0.599 0.309,-0.616C0.289,-0.633 0.267,-0.641 0.242,-0.641C0.219,-0.641 0.194,-0.636 0.168,-0.627C0.143,-0.617 0.123,-0.602 0.109,-0.581C0.15,-0.581 0.171,-0.564 0.171,-0.53C0.171,-0.515 0.166,-0.502 0.157,-0.493C0.148,-0.483 0.135,-0.478 0.12,-0.478C0.105,-0.478 0.093,-0.483 0.083,-0.492C0.074,-0.502 0.069,-0.515 0.069,-0.531C0.069,-0.569 0.086,-0.601 0.12,-0.627C0.154,-0.653 0.196,-0.666 0.246,-0.666C0.296,-0.666 0.339,-0.653 0.375,-0.627C0.412,-0.601 0.43,-0.569 0.43,-0.529C0.43,-0.489 0.417,-0.453 0.391,-0.42C0.365,-0.388 0.331,-0.365 0.29,-0.351C0.341,-0.341 0.381,-0.319 0.412,-0.285C0.442,-0.251 0.457,-0.213 0.457,-0.172C0.457,-0.119 0.437,-0.074 0.396,-0.036C0.354,0.003 0.304,0.022 0.244,0.022C0.189,0.022 0.141,0.007 0.102,-0.023C0.062,-0.053 0.042,-0.091 0.042,-0.135Z" style="fill:rgb(254,217,163);fill-rule:nonzero;"/>
            </g>
            <g transform="matrix(-25.6187,-63.7695,63.7695,-25.6187,133.62,616.37)">
                <path d="M0.042,-0.44C0.042,-0.476 0.047,-0.506 0.058,-0.53C0.068,-0.554 0.084,-0.579 0.106,-0.603C0.146,-0.645 0.195,-0.666 0.253,-0.666C0.278,-0.666 0.301,-0.661 0.323,-0.65C0.345,-0.64 0.366,-0.623 0.387,-0.599C0.408,-0.575 0.425,-0.54 0.438,-0.494C0.451,-0.447 0.457,-0.392 0.457,-0.328C0.457,-0.225 0.432,-0.141 0.382,-0.076C0.332,-0.011 0.273,0.022 0.206,0.022C0.163,0.022 0.13,0.012 0.104,-0.007C0.079,-0.026 0.067,-0.053 0.067,-0.086C0.067,-0.103 0.072,-0.115 0.082,-0.123C0.091,-0.13 0.102,-0.134 0.113,-0.134C0.125,-0.134 0.136,-0.13 0.145,-0.122C0.154,-0.114 0.159,-0.103 0.159,-0.088C0.159,-0.076 0.155,-0.065 0.148,-0.056C0.14,-0.047 0.126,-0.042 0.107,-0.042C0.126,-0.018 0.159,-0.006 0.205,-0.006C0.222,-0.006 0.238,-0.01 0.255,-0.018C0.271,-0.025 0.289,-0.038 0.307,-0.057C0.325,-0.076 0.34,-0.105 0.351,-0.144C0.362,-0.183 0.367,-0.23 0.367,-0.285L0.367,-0.317C0.34,-0.251 0.299,-0.218 0.242,-0.218C0.186,-0.218 0.139,-0.239 0.1,-0.282C0.061,-0.325 0.042,-0.378 0.042,-0.44ZM0.132,-0.439C0.132,-0.373 0.138,-0.327 0.15,-0.303C0.17,-0.261 0.201,-0.24 0.243,-0.24C0.284,-0.24 0.314,-0.258 0.335,-0.294C0.355,-0.331 0.365,-0.373 0.365,-0.42C0.365,-0.486 0.36,-0.533 0.349,-0.562C0.329,-0.615 0.297,-0.641 0.253,-0.641C0.209,-0.641 0.176,-0.62 0.153,-0.578C0.139,-0.553 0.132,-0.507 0.132,-0.439Z" style="fill:rgb(254,217,163);fill-rule:nonzero;"/>
            </g>
            <g transform="matrix(-20.173,-65.6956,65.6956,-20.173,121.941,587.675)">
                <path d="M0.042,-0.44C0.042,-0.476 0.047,-0.506 0.058,-0.53C0.068,-0.554 0.084,-0.579 0.106,-0.603C0.146,-0.645 0.195,-0.666 0.253,-0.666C0.278,-0.666 0.301,-0.661 0.323,-0.65C0.345,-0.64 0.366,-0.623 0.387,-0.599C0.408,-0.575 0.425,-0.54 0.438,-0.494C0.451,-0.447 0.457,-0.392 0.457,-0.328C0.457,-0.225 0.432,-0.141 0.382,-0.076C0.332,-0.011 0.273,0.022 0.206,0.022C0.163,0.022 0.13,0.012 0.104,-0.007C0.079,-0.026 0.067,-0.053 0.067,-0.086C0.067,-0.103 0.072,-0.115 0.082,-0.123C0.091,-0.13 0.102,-0.134 0.113,-0.134C0.125,-0.134 0.136,-0.13 0.145,-0.122C0.154,-0.114 0.159,-0.103 0.159,-0.088C0.159,-0.076 0.155,-0.065 0.148,-0.056C0.14,-0.047 0.126,-0.042 0.107,-0.042C0.126,-0.018 0.159,-0.006 0.205,-0.006C0.222,-0.006 0.238,-0.01 0.255,-0.018C0.271,-0.025 0.289,-0.038 0.307,-0.057C0.325,-0.076 0.34,-0.105 0.351,-0.144C0.362,-0.183 0.367,-0.23 0.367,-0.285L0.367,-0.317C0.34,-0.251 0.299,-0.218 0.242,-0.218C0.186,-0.218 0.139,-0.239 0.1,-0.282C0.061,-0.325 0.042,-0.378 0.042,-0.44ZM0.132,-0.439C0.132,-0.373 0.138,-0.327 0.15,-0.303C0.17,-0.261 0.201,-0.24 0.243,-0.24C0.284,-0.24 0.314,-0.258 0.335,-0.294C0.355,-0.331 0.365,-0.373 0.365,-0.42C0.365,-0.486 0.36,-0.533 0.349,-0.562C0.329,-0.615 0.297,-0.641 0.253,-0.641C0.209,-0.641 0.176,-0.62 0.153,-0.578C0.139,-0.553 0.132,-0.507 0.132,-0.439Z" style="fill:rgb(254,217,163);fill-rule:nonzero;"/>
            </g>
            <g transform="matrix(-14.6077,-67.1527,67.1527,-14.6077,112.749,558.23)">
                <path d="M0.042,-0.135C0.042,-0.155 0.048,-0.17 0.059,-0.18C0.07,-0.189 0.083,-0.194 0.098,-0.194C0.113,-0.194 0.127,-0.189 0.137,-0.179C0.148,-0.169 0.154,-0.155 0.154,-0.138C0.154,-0.119 0.147,-0.104 0.135,-0.094C0.122,-0.083 0.106,-0.079 0.088,-0.082C0.104,-0.056 0.127,-0.036 0.156,-0.024C0.185,-0.012 0.214,-0.006 0.241,-0.006C0.27,-0.006 0.296,-0.019 0.319,-0.044C0.342,-0.068 0.354,-0.111 0.354,-0.172C0.354,-0.223 0.344,-0.263 0.324,-0.293C0.304,-0.322 0.274,-0.337 0.235,-0.337L0.191,-0.337C0.181,-0.337 0.174,-0.337 0.171,-0.338C0.168,-0.339 0.167,-0.342 0.167,-0.348C0.167,-0.354 0.172,-0.358 0.182,-0.359C0.192,-0.359 0.205,-0.36 0.221,-0.362C0.26,-0.363 0.29,-0.381 0.31,-0.415C0.329,-0.446 0.338,-0.485 0.338,-0.53C0.338,-0.57 0.328,-0.599 0.309,-0.616C0.289,-0.633 0.267,-0.641 0.242,-0.641C0.219,-0.641 0.194,-0.636 0.168,-0.627C0.143,-0.617 0.123,-0.602 0.109,-0.581C0.15,-0.581 0.171,-0.564 0.171,-0.53C0.171,-0.515 0.166,-0.502 0.157,-0.493C0.148,-0.483 0.135,-0.478 0.12,-0.478C0.105,-0.478 0.093,-0.483 0.083,-0.492C0.074,-0.502 0.069,-0.515 0.069,-0.531C0.069,-0.569 0.086,-0.601 0.12,-0.627C0.154,-0.653 0.196,-0.666 0.246,-0.666C0.296,-0.666 0.339,-0.653 0.375,-0.627C0.412,-0.601 0.43,-0.569 0.43,-0.529C0.43,-0.489 0.417,-0.453 0.391,-0.42C0.365,-0.388 0.331,-0.365 0.29,-0.351C0.341,-0.341 0.381,-0.319 0.412,-0.285C0.442,-0.251 0.457,-0.213 0.457,-0.172C0.457,-0.119 0.437,-0.074 0.396,-0.036C0.354,0.003 0.304,0.022 0.244,0.022C0.189,0.022 0.141,0.007 0.102,-0.023C0.062,-0.053 0.042,-0.091 0.042,-0.135Z" style="fill:rgb(254,217,163);fill-rule:nonzero;"/>
            </g>
            <g transform="matrix(-5.08541,-68.5347,68.5347,-5.08541,103.039,508.692)">
                <path d="M0.056,-0.47L0.089,-0.676L0.114,-0.676C0.116,-0.668 0.118,-0.662 0.122,-0.658C0.125,-0.655 0.136,-0.651 0.156,-0.648C0.175,-0.646 0.203,-0.644 0.242,-0.644L0.485,-0.644C0.485,-0.629 0.482,-0.617 0.476,-0.609L0.341,-0.419C0.312,-0.379 0.292,-0.322 0.279,-0.248C0.271,-0.199 0.268,-0.144 0.268,-0.084L0.268,-0.033C0.268,0.004 0.253,0.022 0.222,0.022C0.191,0.022 0.176,0.004 0.176,-0.033C0.176,-0.16 0.217,-0.286 0.299,-0.409C0.308,-0.422 0.328,-0.451 0.361,-0.496C0.393,-0.541 0.41,-0.565 0.411,-0.567L0.204,-0.567C0.144,-0.567 0.111,-0.565 0.106,-0.561C0.099,-0.555 0.091,-0.525 0.081,-0.47L0.056,-0.47Z" style="fill:rgb(254,217,163);fill-rule:nonzero;"/>
            </g>
            <g transform="matrix(0.299669,-68.7224,68.7224,0.299669,100.564,477.855)">
                <path d="M0.05,-0.164C0.05,-0.185 0.055,-0.199 0.066,-0.207C0.077,-0.215 0.088,-0.219 0.099,-0.219C0.114,-0.219 0.127,-0.214 0.135,-0.204C0.144,-0.194 0.149,-0.182 0.149,-0.168C0.149,-0.154 0.144,-0.142 0.135,-0.131C0.127,-0.121 0.114,-0.116 0.099,-0.116C0.092,-0.116 0.086,-0.117 0.082,-0.118C0.091,-0.088 0.109,-0.061 0.135,-0.039C0.162,-0.017 0.194,-0.006 0.229,-0.006C0.274,-0.006 0.309,-0.028 0.336,-0.073C0.352,-0.101 0.36,-0.148 0.36,-0.213C0.36,-0.268 0.354,-0.308 0.342,-0.336C0.323,-0.377 0.295,-0.398 0.257,-0.398C0.203,-0.398 0.16,-0.375 0.128,-0.33C0.124,-0.324 0.12,-0.321 0.115,-0.321C0.109,-0.321 0.105,-0.323 0.103,-0.327C0.102,-0.33 0.101,-0.337 0.101,-0.347L0.101,-0.641C0.101,-0.657 0.104,-0.665 0.111,-0.665C0.113,-0.665 0.118,-0.664 0.123,-0.663C0.165,-0.65 0.209,-0.643 0.256,-0.643C0.304,-0.643 0.349,-0.652 0.392,-0.672C0.395,-0.674 0.398,-0.675 0.4,-0.675C0.406,-0.675 0.41,-0.671 0.41,-0.664C0.41,-0.661 0.407,-0.656 0.402,-0.648C0.397,-0.64 0.388,-0.631 0.377,-0.62C0.366,-0.609 0.353,-0.598 0.338,-0.587C0.323,-0.577 0.305,-0.568 0.284,-0.561C0.263,-0.554 0.24,-0.551 0.217,-0.551C0.189,-0.551 0.16,-0.555 0.132,-0.564L0.132,-0.37C0.166,-0.403 0.209,-0.42 0.259,-0.42C0.312,-0.42 0.357,-0.399 0.394,-0.357C0.431,-0.315 0.449,-0.264 0.449,-0.206C0.449,-0.142 0.427,-0.088 0.384,-0.044C0.341,0 0.29,0.022 0.231,0.022C0.178,0.022 0.134,0.003 0.1,-0.036C0.067,-0.075 0.05,-0.117 0.05,-0.164Z" style="fill:rgb(254,217,163);fill-rule:nonzero;"/>
            </g>
            <g transform="matrix(6.00628,-68.4601,68.4601,6.00628,100.543,446.948)">
                <path d="M0.089,-0.571L0.089,-0.602C0.169,-0.602 0.23,-0.623 0.271,-0.666C0.282,-0.666 0.289,-0.665 0.291,-0.662C0.293,-0.66 0.294,-0.652 0.294,-0.64L0.294,-0.08C0.294,-0.06 0.299,-0.047 0.309,-0.041C0.318,-0.034 0.345,-0.031 0.387,-0.031L0.419,-0.031L0.419,-0C0.396,-0.002 0.341,-0.003 0.257,-0.003C0.172,-0.003 0.118,-0.002 0.095,-0L0.095,-0.031L0.127,-0.031C0.169,-0.031 0.195,-0.034 0.205,-0.04C0.215,-0.046 0.22,-0.059 0.22,-0.08L0.22,-0.597C0.185,-0.58 0.142,-0.571 0.089,-0.571Z" style="fill:rgb(254,217,163);fill-rule:nonzero;"/>
            </g>
            <g transform="matrix(11.6325,-67.7315,67.7315,11.6325,103.095,416.111)">
                <path d="M0.039,-0.32C0.039,-0.418 0.051,-0.493 0.076,-0.547C0.111,-0.626 0.169,-0.666 0.25,-0.666C0.267,-0.666 0.285,-0.664 0.303,-0.659C0.321,-0.654 0.342,-0.643 0.365,-0.625C0.387,-0.607 0.406,-0.583 0.42,-0.554C0.447,-0.498 0.46,-0.419 0.46,-0.32C0.46,-0.222 0.448,-0.147 0.423,-0.094C0.387,-0.017 0.329,0.022 0.249,0.022C0.219,0.022 0.189,0.014 0.158,-0.001C0.128,-0.016 0.103,-0.042 0.084,-0.079C0.054,-0.134 0.039,-0.214 0.039,-0.32ZM0.122,-0.332C0.122,-0.231 0.126,-0.161 0.133,-0.121C0.141,-0.078 0.156,-0.047 0.178,-0.028C0.201,-0.009 0.224,-0 0.249,-0C0.276,-0 0.3,-0.01 0.323,-0.03C0.345,-0.05 0.359,-0.082 0.366,-0.125C0.374,-0.168 0.377,-0.237 0.377,-0.332C0.377,-0.425 0.374,-0.49 0.367,-0.527C0.358,-0.57 0.342,-0.601 0.319,-0.618C0.296,-0.635 0.272,-0.644 0.249,-0.644C0.24,-0.644 0.231,-0.643 0.222,-0.64C0.213,-0.638 0.201,-0.632 0.188,-0.625C0.175,-0.618 0.163,-0.604 0.153,-0.586C0.142,-0.567 0.135,-0.544 0.13,-0.516C0.125,-0.48 0.122,-0.419 0.122,-0.332Z" style="fill:rgb(254,217,163);fill-rule:nonzero;"/>
            </g>
            <g transform="matrix(20.7575,-65.5133,65.5133,20.7575,112.705,366.647)">
                <path d="M0.05,-0.164C0.05,-0.185 0.055,-0.199 0.066,-0.207C0.077,-0.215 0.088,-0.219 0.099,-0.219C0.114,-0.219 0.127,-0.214 0.135,-0.204C0.144,-0.194 0.149,-0.182 0.149,-0.168C0.149,-0.154 0.144,-0.142 0.135,-0.131C0.127,-0.121 0.114,-0.116 0.099,-0.116C0.092,-0.116 0.086,-0.117 0.082,-0.118C0.091,-0.088 0.109,-0.061 0.135,-0.039C0.162,-0.017 0.194,-0.006 0.229,-0.006C0.274,-0.006 0.309,-0.028 0.336,-0.073C0.352,-0.101 0.36,-0.148 0.36,-0.213C0.36,-0.268 0.354,-0.308 0.342,-0.336C0.323,-0.377 0.295,-0.398 0.257,-0.398C0.203,-0.398 0.16,-0.375 0.128,-0.33C0.124,-0.324 0.12,-0.321 0.115,-0.321C0.109,-0.321 0.105,-0.323 0.103,-0.327C0.102,-0.33 0.101,-0.337 0.101,-0.347L0.101,-0.641C0.101,-0.657 0.104,-0.665 0.111,-0.665C0.113,-0.665 0.118,-0.664 0.123,-0.663C0.165,-0.65 0.209,-0.643 0.256,-0.643C0.304,-0.643 0.349,-0.652 0.392,-0.672C0.395,-0.674 0.398,-0.675 0.4,-0.675C0.406,-0.675 0.41,-0.671 0.41,-0.664C0.41,-0.661 0.407,-0.656 0.402,-0.648C0.397,-0.64 0.388,-0.631 0.377,-0.62C0.366,-0.609 0.353,-0.598 0.338,-0.587C0.323,-0.577 0.305,-0.568 0.284,-0.561C0.263,-0.554 0.24,-0.551 0.217,-0.551C0.189,-0.551 0.16,-0.555 0.132,-0.564L0.132,-0.37C0.166,-0.403 0.209,-0.42 0.259,-0.42C0.312,-0.42 0.357,-0.399 0.394,-0.357C0.431,-0.315 0.449,-0.264 0.449,-0.206C0.449,-0.142 0.427,-0.088 0.384,-0.044C0.341,0 0.29,0.022 0.231,0.022C0.178,0.022 0.134,0.003 0.1,-0.036C0.067,-0.075 0.05,-0.117 0.05,-0.164Z" style="fill:rgb(254,217,163);fill-rule:nonzero;"/>
            </g>
            <g transform="matrix(26.1801,-63.541,63.541,26.1801,121.921,337.098)">
                <path d="M0.042,-0.151C0.042,-0.226 0.09,-0.287 0.186,-0.335C0.145,-0.363 0.12,-0.381 0.113,-0.389C0.083,-0.422 0.069,-0.458 0.069,-0.499C0.069,-0.546 0.087,-0.585 0.122,-0.617C0.157,-0.65 0.2,-0.666 0.25,-0.666C0.298,-0.666 0.34,-0.652 0.376,-0.625C0.412,-0.597 0.43,-0.561 0.43,-0.517C0.43,-0.455 0.39,-0.404 0.309,-0.362C0.362,-0.329 0.396,-0.305 0.408,-0.291C0.441,-0.255 0.457,-0.214 0.457,-0.168C0.457,-0.115 0.437,-0.07 0.396,-0.033C0.354,0.004 0.306,0.022 0.249,0.022C0.194,0.022 0.145,0.006 0.104,-0.026C0.063,-0.059 0.042,-0.1 0.042,-0.151ZM0.092,-0.151C0.092,-0.11 0.107,-0.075 0.138,-0.048C0.17,-0.02 0.207,-0.006 0.25,-0.006C0.292,-0.006 0.329,-0.018 0.36,-0.042C0.392,-0.067 0.407,-0.096 0.407,-0.132C0.407,-0.146 0.405,-0.159 0.4,-0.171C0.395,-0.183 0.388,-0.194 0.379,-0.204C0.37,-0.213 0.362,-0.22 0.357,-0.225C0.351,-0.229 0.343,-0.235 0.332,-0.242L0.209,-0.32C0.131,-0.277 0.092,-0.221 0.092,-0.151ZM0.113,-0.538C0.113,-0.506 0.13,-0.479 0.163,-0.457L0.287,-0.377C0.353,-0.416 0.386,-0.463 0.386,-0.517C0.386,-0.553 0.373,-0.582 0.346,-0.606C0.319,-0.629 0.286,-0.641 0.249,-0.641C0.212,-0.641 0.18,-0.631 0.153,-0.612C0.126,-0.593 0.113,-0.568 0.113,-0.538Z" style="fill:rgb(254,217,163);fill-rule:nonzero;"/>
            </g>
            <g transform="matrix(31.3902,-61.1353,61.1353,31.3902,133.55,308.5)">
                <path d="M0.05,-0C0.05,-0.012 0.05,-0.02 0.052,-0.023C0.053,-0.027 0.056,-0.032 0.061,-0.037L0.253,-0.251C0.323,-0.33 0.358,-0.404 0.358,-0.473C0.358,-0.517 0.346,-0.555 0.323,-0.587C0.3,-0.619 0.267,-0.635 0.224,-0.635C0.195,-0.635 0.168,-0.626 0.143,-0.608C0.118,-0.59 0.1,-0.566 0.089,-0.534C0.091,-0.535 0.095,-0.535 0.102,-0.535C0.119,-0.535 0.132,-0.53 0.141,-0.519C0.15,-0.509 0.155,-0.497 0.155,-0.482C0.155,-0.464 0.149,-0.451 0.137,-0.442C0.126,-0.434 0.114,-0.429 0.103,-0.429C0.098,-0.429 0.093,-0.43 0.087,-0.431C0.081,-0.432 0.073,-0.437 0.064,-0.446C0.055,-0.456 0.05,-0.469 0.05,-0.485C0.05,-0.532 0.067,-0.574 0.103,-0.611C0.138,-0.648 0.183,-0.666 0.237,-0.666C0.298,-0.666 0.349,-0.648 0.389,-0.612C0.429,-0.575 0.449,-0.529 0.449,-0.473C0.449,-0.453 0.446,-0.434 0.44,-0.416C0.434,-0.398 0.427,-0.381 0.419,-0.367C0.411,-0.353 0.396,-0.335 0.375,-0.313C0.354,-0.29 0.334,-0.271 0.317,-0.255C0.3,-0.239 0.272,-0.214 0.233,-0.18L0.127,-0.077L0.307,-0.077C0.366,-0.077 0.397,-0.08 0.402,-0.085C0.408,-0.094 0.416,-0.124 0.424,-0.174L0.449,-0.174L0.421,-0L0.05,-0Z" style="fill:rgb(254,217,163);fill-rule:nonzero;"/>
            </g>
            <g transform="matrix(36.3806,-58.3036,58.3036,36.3806,147.582,280.87)">
                <path d="M0.039,-0.32C0.039,-0.418 0.051,-0.493 0.076,-0.547C0.111,-0.626 0.169,-0.666 0.25,-0.666C0.267,-0.666 0.285,-0.664 0.303,-0.659C0.321,-0.654 0.342,-0.643 0.365,-0.625C0.387,-0.607 0.406,-0.583 0.42,-0.554C0.447,-0.498 0.46,-0.419 0.46,-0.32C0.46,-0.222 0.448,-0.147 0.423,-0.094C0.387,-0.017 0.329,0.022 0.249,0.022C0.219,0.022 0.189,0.014 0.158,-0.001C0.128,-0.016 0.103,-0.042 0.084,-0.079C0.054,-0.134 0.039,-0.214 0.039,-0.32ZM0.122,-0.332C0.122,-0.231 0.126,-0.161 0.133,-0.121C0.141,-0.078 0.156,-0.047 0.178,-0.028C0.201,-0.009 0.224,-0 0.249,-0C0.276,-0 0.3,-0.01 0.323,-0.03C0.345,-0.05 0.359,-0.082 0.366,-0.125C0.374,-0.168 0.377,-0.237 0.377,-0.332C0.377,-0.425 0.374,-0.49 0.367,-0.527C0.358,-0.57 0.342,-0.601 0.319,-0.618C0.296,-0.635 0.272,-0.644 0.249,-0.644C0.24,-0.644 0.231,-0.643 0.222,-0.64C0.213,-0.638 0.201,-0.632 0.188,-0.625C0.175,-0.618 0.163,-0.604 0.153,-0.586C0.142,-0.567 0.135,-0.544 0.13,-0.516C0.125,-0.48 0.122,-0.419 0.122,-0.332Z" style="fill:rgb(254,217,163);fill-rule:nonzero;"/>
            </g>
            <g transform="matrix(43.9054,-52.8695,52.8695,43.9054,175.166,238.724)">
                <path d="M0.028,-0.165L0.028,-0.196L0.335,-0.666C0.34,-0.674 0.347,-0.678 0.355,-0.677C0.362,-0.677 0.367,-0.676 0.369,-0.673C0.37,-0.67 0.371,-0.663 0.371,-0.651L0.371,-0.196L0.471,-0.196L0.471,-0.165L0.371,-0.165L0.371,-0.078C0.371,-0.059 0.375,-0.047 0.383,-0.04C0.391,-0.034 0.412,-0.031 0.447,-0.031L0.468,-0.031L0.468,-0C0.44,-0.002 0.395,-0.003 0.332,-0.003C0.269,-0.003 0.224,-0.002 0.197,-0L0.197,-0.031L0.218,-0.031C0.252,-0.031 0.274,-0.034 0.282,-0.04C0.29,-0.046 0.294,-0.059 0.294,-0.078L0.294,-0.165L0.028,-0.165ZM0.056,-0.196L0.3,-0.196L0.3,-0.569L0.056,-0.196Z" style="fill:rgb(254,217,163);fill-rule:nonzero;"/>
            </g>
            <g transform="matrix(48.3225,-48.8651,48.8651,48.3225,194.822,214.734)">
                <path d="M0.056,-0.47L0.089,-0.676L0.114,-0.676C0.116,-0.668 0.118,-0.662 0.122,-0.658C0.125,-0.655 0.136,-0.651 0.156,-0.648C0.175,-0.646 0.203,-0.644 0.242,-0.644L0.485,-0.644C0.485,-0.629 0.482,-0.617 0.476,-0.609L0.341,-0.419C0.312,-0.379 0.292,-0.322 0.279,-0.248C0.271,-0.199 0.268,-0.144 0.268,-0.084L0.268,-0.033C0.268,0.004 0.253,0.022 0.222,0.022C0.191,0.022 0.176,0.004 0.176,-0.033C0.176,-0.16 0.217,-0.286 0.299,-0.409C0.308,-0.422 0.328,-0.451 0.361,-0.496C0.393,-0.541 0.41,-0.565 0.411,-0.567L0.204,-0.567C0.144,-0.567 0.111,-0.565 0.106,-0.561C0.099,-0.555 0.091,-0.525 0.081,-0.47L0.056,-0.47Z" style="fill:rgb(254,217,163);fill-rule:nonzero;"/>
            </g>
            <g transform="matrix(52.0085,-44.9219,44.9219,52.0085,216.362,192.678)">
                <path d="M0.028,-0.165L0.028,-0.196L0.335,-0.666C0.34,-0.674 0.347,-0.678 0.355,-0.677C0.362,-0.677 0.367,-0.676 0.369,-0.673C0.37,-0.67 0.371,-0.663 0.371,-0.651L0.371,-0.196L0.471,-0.196L0.471,-0.165L0.371,-0.165L0.371,-0.078C0.371,-0.059 0.375,-0.047 0.383,-0.04C0.391,-0.034 0.412,-0.031 0.447,-0.031L0.468,-0.031L0.468,-0C0.44,-0.002 0.395,-0.003 0.332,-0.003C0.269,-0.003 0.224,-0.002 0.197,-0L0.197,-0.031L0.218,-0.031C0.252,-0.031 0.274,-0.034 0.282,-0.04C0.29,-0.046 0.294,-0.059 0.294,-0.078L0.294,-0.165L0.028,-0.165ZM0.056,-0.196L0.3,-0.196L0.3,-0.569L0.056,-0.196Z" style="fill:rgb(254,217,163);fill-rule:nonzero;"/>
            </g>
            <g transform="matrix(55.5489,-40.4621,40.4621,55.5489,239.694,172.341)">
                <path d="M0.042,-0.44C0.042,-0.476 0.047,-0.506 0.058,-0.53C0.068,-0.554 0.084,-0.579 0.106,-0.603C0.146,-0.645 0.195,-0.666 0.253,-0.666C0.278,-0.666 0.301,-0.661 0.323,-0.65C0.345,-0.64 0.366,-0.623 0.387,-0.599C0.408,-0.575 0.425,-0.54 0.438,-0.494C0.451,-0.447 0.457,-0.392 0.457,-0.328C0.457,-0.225 0.432,-0.141 0.382,-0.076C0.332,-0.011 0.273,0.022 0.206,0.022C0.163,0.022 0.13,0.012 0.104,-0.007C0.079,-0.026 0.067,-0.053 0.067,-0.086C0.067,-0.103 0.072,-0.115 0.082,-0.123C0.091,-0.13 0.102,-0.134 0.113,-0.134C0.125,-0.134 0.136,-0.13 0.145,-0.122C0.154,-0.114 0.159,-0.103 0.159,-0.088C0.159,-0.076 0.155,-0.065 0.148,-0.056C0.14,-0.047 0.126,-0.042 0.107,-0.042C0.126,-0.018 0.159,-0.006 0.205,-0.006C0.222,-0.006 0.238,-0.01 0.255,-0.018C0.271,-0.025 0.289,-0.038 0.307,-0.057C0.325,-0.076 0.34,-0.105 0.351,-0.144C0.362,-0.183 0.367,-0.23 0.367,-0.285L0.367,-0.317C0.34,-0.251 0.299,-0.218 0.242,-0.218C0.186,-0.218 0.139,-0.239 0.1,-0.282C0.061,-0.325 0.042,-0.378 0.042,-0.44ZM0.132,-0.439C0.132,-0.373 0.138,-0.327 0.15,-0.303C0.17,-0.261 0.201,-0.24 0.243,-0.24C0.284,-0.24 0.314,-0.258 0.335,-0.294C0.355,-0.331 0.365,-0.373 0.365,-0.42C0.365,-0.486 0.36,-0.533 0.349,-0.562C0.329,-0.615 0.297,-0.641 0.253,-0.641C0.209,-0.641 0.176,-0.62 0.153,-0.578C0.139,-0.553 0.132,-0.507 0.132,-0.439Z" style="fill:rgb(254,217,163);fill-rule:nonzero;"/>
            </g>
            <g transform="matrix(60.5045,-32.5894,32.5894,60.5045,281.02,143.581)">
                <path d="M0.028,-0.165L0.028,-0.196L0.335,-0.666C0.34,-0.674 0.347,-0.678 0.355,-0.677C0.362,-0.677 0.367,-0.676 0.369,-0.673C0.37,-0.67 0.371,-0.663 0.371,-0.651L0.371,-0.196L0.471,-0.196L0.471,-0.165L0.371,-0.165L0.371,-0.078C0.371,-0.059 0.375,-0.047 0.383,-0.04C0.391,-0.034 0.412,-0.031 0.447,-0.031L0.468,-0.031L0.468,-0C0.44,-0.002 0.395,-0.003 0.332,-0.003C0.269,-0.003 0.224,-0.002 0.197,-0L0.197,-0.031L0.218,-0.031C0.252,-0.031 0.274,-0.034 0.282,-0.04C0.29,-0.046 0.294,-0.059 0.294,-0.078L0.294,-0.165L0.028,-0.165ZM0.056,-0.196L0.3,-0.196L0.3,-0.569L0.056,-0.196Z" style="fill:rgb(254,217,163);fill-rule:nonzero;"/>
            </g>
            <g transform="matrix(63.0178,-27.4158,27.4158,63.0178,308.219,128.771)">
                <path d="M0.028,-0.165L0.028,-0.196L0.335,-0.666C0.34,-0.674 0.347,-0.678 0.355,-0.677C0.362,-0.677 0.367,-0.676 0.369,-0.673C0.37,-0.67 0.371,-0.663 0.371,-0.651L0.371,-0.196L0.471,-0.196L0.471,-0.165L0.371,-0.165L0.371,-0.078C0.371,-0.059 0.375,-0.047 0.383,-0.04C0.391,-0.034 0.412,-0.031 0.447,-0.031L0.468,-0.031L0.468,-0C0.44,-0.002 0.395,-0.003 0.332,-0.003C0.269,-0.003 0.224,-0.002 0.197,-0L0.197,-0.031L0.218,-0.031C0.252,-0.031 0.274,-0.034 0.282,-0.04C0.29,-0.046 0.294,-0.059 0.294,-0.078L0.294,-0.165L0.028,-0.165ZM0.056,-0.196L0.3,-0.196L0.3,-0.569L0.056,-0.196Z" style="fill:rgb(254,217,163);fill-rule:nonzero;"/>
            </g>
            <g transform="matrix(65.0996,-22.0205,22.0205,65.0996,336.625,116.263)">
                <path d="M0.05,-0.164C0.05,-0.185 0.055,-0.199 0.066,-0.207C0.077,-0.215 0.088,-0.219 0.099,-0.219C0.114,-0.219 0.127,-0.214 0.135,-0.204C0.144,-0.194 0.149,-0.182 0.149,-0.168C0.149,-0.154 0.144,-0.142 0.135,-0.131C0.127,-0.121 0.114,-0.116 0.099,-0.116C0.092,-0.116 0.086,-0.117 0.082,-0.118C0.091,-0.088 0.109,-0.061 0.135,-0.039C0.162,-0.017 0.194,-0.006 0.229,-0.006C0.274,-0.006 0.309,-0.028 0.336,-0.073C0.352,-0.101 0.36,-0.148 0.36,-0.213C0.36,-0.268 0.354,-0.308 0.342,-0.336C0.323,-0.377 0.295,-0.398 0.257,-0.398C0.203,-0.398 0.16,-0.375 0.128,-0.33C0.124,-0.324 0.12,-0.321 0.115,-0.321C0.109,-0.321 0.105,-0.323 0.103,-0.327C0.102,-0.33 0.101,-0.337 0.101,-0.347L0.101,-0.641C0.101,-0.657 0.104,-0.665 0.111,-0.665C0.113,-0.665 0.118,-0.664 0.123,-0.663C0.165,-0.65 0.209,-0.643 0.256,-0.643C0.304,-0.643 0.349,-0.652 0.392,-0.672C0.395,-0.674 0.398,-0.675 0.4,-0.675C0.406,-0.675 0.41,-0.671 0.41,-0.664C0.41,-0.661 0.407,-0.656 0.402,-0.648C0.397,-0.64 0.388,-0.631 0.377,-0.62C0.366,-0.609 0.353,-0.598 0.338,-0.587C0.323,-0.577 0.305,-0.568 0.284,-0.561C0.263,-0.554 0.24,-0.551 0.217,-0.551C0.189,-0.551 0.16,-0.555 0.132,-0.564L0.132,-0.37C0.166,-0.403 0.209,-0.42 0.259,-0.42C0.312,-0.42 0.357,-0.399 0.394,-0.357C0.431,-0.315 0.449,-0.264 0.449,-0.206C0.449,-0.142 0.427,-0.088 0.384,-0.044C0.341,0 0.29,0.022 0.231,0.022C0.178,0.022 0.134,0.003 0.1,-0.036C0.067,-0.075 0.05,-0.117 0.05,-0.164Z" style="fill:rgb(254,217,163);fill-rule:nonzero;"/>
            </g>
            <g transform="matrix(66.7153,-16.4905,16.4905,66.7153,365.834,106.232)">
                <path d="M0.042,-0.44C0.042,-0.476 0.047,-0.506 0.058,-0.53C0.068,-0.554 0.084,-0.579 0.106,-0.603C0.146,-0.645 0.195,-0.666 0.253,-0.666C0.278,-0.666 0.301,-0.661 0.323,-0.65C0.345,-0.64 0.366,-0.623 0.387,-0.599C0.408,-0.575 0.425,-0.54 0.438,-0.494C0.451,-0.447 0.457,-0.392 0.457,-0.328C0.457,-0.225 0.432,-0.141 0.382,-0.076C0.332,-0.011 0.273,0.022 0.206,0.022C0.163,0.022 0.13,0.012 0.104,-0.007C0.079,-0.026 0.067,-0.053 0.067,-0.086C0.067,-0.103 0.072,-0.115 0.082,-0.123C0.091,-0.13 0.102,-0.134 0.113,-0.134C0.125,-0.134 0.136,-0.13 0.145,-0.122C0.154,-0.114 0.159,-0.103 0.159,-0.088C0.159,-0.076 0.155,-0.065 0.148,-0.056C0.14,-0.047 0.126,-0.042 0.107,-0.042C0.126,-0.018 0.159,-0.006 0.205,-0.006C0.222,-0.006 0.238,-0.01 0.255,-0.018C0.271,-0.025 0.289,-0.038 0.307,-0.057C0.325,-0.076 0.34,-0.105 0.351,-0.144C0.362,-0.183 0.367,-0.23 0.367,-0.285L0.367,-0.317C0.34,-0.251 0.299,-0.218 0.242,-0.218C0.186,-0.218 0.139,-0.239 0.1,-0.282C0.061,-0.325 0.042,-0.378 0.042,-0.44ZM0.132,-0.439C0.132,-0.373 0.138,-0.327 0.15,-0.303C0.17,-0.261 0.201,-0.24 0.243,-0.24C0.284,-0.24 0.314,-0.258 0.335,-0.294C0.355,-0.331 0.365,-0.373 0.365,-0.42C0.365,-0.486 0.36,-0.533 0.349,-0.562C0.329,-0.615 0.297,-0.641 0.253,-0.641C0.209,-0.641 0.176,-0.62 0.153,-0.578C0.139,-0.553 0.132,-0.507 0.132,-0.439Z" style="fill:rgb(254,217,163);fill-rule:nonzero;"/>
            </g>
            <g transform="matrix(68.1629,-8.75729,8.75729,68.1629,395.698,97.9831)">
                <path d="M0.1,-0.016C0.09,-0.027 0.085,-0.039 0.085,-0.053C0.085,-0.067 0.09,-0.079 0.1,-0.09C0.11,-0.1 0.123,-0.105 0.138,-0.105C0.153,-0.105 0.165,-0.1 0.175,-0.091C0.185,-0.081 0.19,-0.068 0.19,-0.053C0.19,-0.038 0.185,-0.025 0.174,-0.015C0.163,-0.005 0.152,-0 0.138,-0C0.123,-0 0.11,-0.005 0.1,-0.016ZM0.378,-0.016C0.368,-0.027 0.363,-0.039 0.363,-0.053C0.363,-0.067 0.368,-0.079 0.378,-0.09C0.388,-0.1 0.401,-0.105 0.416,-0.105C0.431,-0.105 0.443,-0.1 0.453,-0.091C0.463,-0.081 0.468,-0.068 0.468,-0.053C0.468,-0.038 0.462,-0.025 0.452,-0.015C0.441,-0.005 0.429,-0 0.416,-0C0.401,-0 0.388,-0.005 0.378,-0.016ZM0.656,-0.016C0.646,-0.027 0.641,-0.039 0.641,-0.053C0.641,-0.067 0.646,-0.079 0.656,-0.09C0.666,-0.1 0.679,-0.105 0.694,-0.105C0.709,-0.105 0.721,-0.1 0.731,-0.091C0.741,-0.081 0.746,-0.068 0.746,-0.053C0.746,-0.038 0.741,-0.025 0.73,-0.015C0.72,-0.005 0.708,-0 0.694,-0C0.679,-0 0.666,-0.005 0.656,-0.016Z" style="fill:rgb(254,217,163);fill-rule:nonzero;"/>
            </g>
        </g>
        <g transform="matrix(0.775769,0,0,0.775769,307.761,319.34)">
            <path d="M10.5,177.038L31.175,178.57C52.616,154.321 52.375,95.925 187.388,96.635C182.793,403.956 48.021,436.372 56.445,499.419C59.508,535.154 87.84,557.106 118.47,558.382C215.21,555.064 210.871,424.631 240.99,95.869L365.808,95.869C359.171,211.752 341.048,327.636 339.006,441.222C340.538,516.776 386.483,557.106 446.977,557.616C546.525,560.934 577.92,444.796 577.92,395.277L556.479,395.277C554.437,436.117 534.783,465.471 492.922,467.258C378.825,468.789 426.288,272.629 442.383,97.4L577.92,98.166L577.155,11.636C13.807,8.908 85.312,-2.137 10.5,177.038Z" style="fill:rgb(254,217,163);fill-rule:nonzero;"/>
        </g>
    </g>
</svg>
