<svg width="400" height="100" viewBox="0 0 400 100" fill="none" xmlns="http://www.w3.org/2000/svg">
<g clip-path="url(#clip0_142_458)">
<rect width="401.087" height="100" fill="#C52929"/>
<path fill-rule="evenodd" clip-rule="evenodd" d="M376.816 78.883C377.375 78.909 377.898 78.6024 378.151 78.0997H378.16C378.425 77.5842 378.356 76.9585 377.983 76.5152L363.762 58.7122L376.745 46.072C377.19 45.6954 377.344 45.0735 377.127 44.5306C376.909 43.9878 376.37 43.6472 375.79 43.6864H366.786C366.126 43.7123 365.498 43.9779 365.018 44.4341L356.739 52.7125V21.2724C356.739 20.3186 355.971 19.5455 355.024 19.5455H348.62C348.164 19.5431 347.725 19.724 347.401 20.0481C347.078 20.3722 346.896 20.8128 346.896 21.2724V77.1561C346.896 77.6156 347.078 78.0562 347.401 78.3804C347.725 78.7045 348.164 78.8854 348.62 78.883H355.024C355.971 78.883 356.739 78.1098 356.739 77.1561V65.6464L366.362 77.9928C366.814 78.5392 367.478 78.8635 368.184 78.883H376.816ZM77.0927 52.2764C77.0971 58.9236 74.6117 65.3283 70.1323 70.2129L77.4111 77.4499C77.8626 77.8241 78.0196 78.4505 77.7985 78.9955C77.5775 79.5405 77.0298 79.8773 76.4471 79.8266H67.762C67.1001 79.8015 66.4705 79.5322 65.9932 79.0699L62.9773 75.9544C58.6662 78.5332 53.7351 79.8725 48.7203 79.8266C41.6928 79.8629 34.9052 77.2566 29.6875 72.5184C23.7414 67.3574 20.4079 59.7848 20.6044 51.8847C20.4393 44.1425 23.5595 36.6962 29.1833 31.4112C34.4281 26.2499 41.4916 23.3915 48.8264 23.4621C55.6201 23.4348 62.1888 25.9108 67.2933 30.4231C73.7938 35.9866 77.0927 43.3748 77.0927 52.2764ZM44.6682 56.7702C44.8855 56.2274 45.425 55.8868 46.0051 55.9259L55.0174 55.9705C55.6758 55.9963 56.3032 56.2584 56.7863 56.7093L63.0568 62.9403C65.6282 59.7893 66.9819 55.8093 66.8687 51.7333C66.9949 46.7835 65.1142 41.9952 61.6595 38.4701C58.273 34.9548 53.584 33.0193 48.7203 33.1292C43.8754 32.9943 39.2013 34.9356 35.8608 38.4701C32.4435 42.0973 30.612 46.951 30.7753 51.947C30.6066 56.8275 32.5031 61.5509 35.9934 64.9432C41.1804 70.1095 48.9689 71.5793 55.663 68.6551L45.0499 58.3116C44.6049 57.9349 44.4509 57.313 44.6682 56.7702ZM113.593 45.4222V63.8839C113.65 66.3208 113.31 68.7506 112.585 71.0764C111.848 73.0528 110.632 74.8124 109.047 76.1947C106.116 78.6674 102.38 79.961 98.5576 79.8265C94.7484 79.9572 91.0255 78.667 88.1037 76.2036C86.4937 74.8374 85.2449 73.0912 84.4687 71.1209C83.6651 68.7972 83.3021 66.3424 83.3986 63.8839V45.4222C83.4216 44.4767 84.1751 43.7145 85.1144 43.6864H91.5176C92.4775 43.6861 93.2625 44.4564 93.2865 45.4222V63.7237C93.2865 68.5038 94.958 70.7381 98.5488 70.7381C102.14 70.7381 103.855 68.5038 103.855 63.7237V45.4222C103.876 44.4996 104.594 43.7461 105.509 43.6864H111.912C112.838 43.7327 113.571 44.4899 113.593 45.4222ZM132.794 31.1976C132.823 29.5819 132.182 28.027 131.025 26.907L130.998 26.9515C129.865 25.8057 128.324 25.1615 126.718 25.1615C125.111 25.1615 123.571 25.8057 122.437 26.9515C121.289 28.063 120.649 29.6031 120.668 31.2065C120.634 32.8439 121.274 34.4226 122.437 35.5682C123.565 36.7331 125.12 37.3774 126.736 37.3485C128.358 37.3798 129.917 36.7165 131.025 35.5237C132.182 34.3891 132.823 32.8235 132.794 31.1976ZM131.662 45.4222V77.1561C131.662 78.1098 130.894 78.883 129.946 78.883H123.543C122.595 78.883 121.827 78.1098 121.827 77.1561V45.4222C121.85 44.4767 122.604 43.7145 123.543 43.6864H129.946C130.885 43.7145 131.639 44.4767 131.662 45.4222ZM176.281 46.0097C176.66 45.5916 176.758 44.987 176.529 44.4698C176.274 43.9686 175.752 43.6627 175.193 43.6864H144.733C143.794 43.7145 143.041 44.4768 143.018 45.4222V51.3239C143.018 52.2777 143.786 53.0508 144.733 53.0508H158.38L139.117 76.5152C138.676 76.9269 138.551 77.5789 138.808 78.1265C139.065 78.6742 139.644 78.9911 140.241 78.9097H173.486C174.434 78.9097 175.202 78.1366 175.202 77.1828V71.1743C175.216 70.7071 175.042 70.254 174.719 69.9185C174.395 69.583 173.951 69.3938 173.486 69.394H157.062L176.281 46.0097ZM222.634 76.5152C223.027 76.9271 223.128 77.5405 222.886 78.0577C222.645 78.5748 222.112 78.8889 221.546 78.8474H212.224C211.519 78.8245 210.856 78.5009 210.402 77.9573L192.908 56.2554L192.599 56.558C192.568 56.6175 192.544 56.6802 192.528 56.7449V77.1561C192.528 78.1099 191.76 78.883 190.812 78.883H184.144C183.218 78.8415 182.481 78.0882 182.454 77.1561V26.1682C182.482 25.2229 183.24 24.4646 184.179 24.4413H190.848C191.303 24.4413 191.739 24.6233 192.061 24.9471C192.383 25.271 192.563 25.7102 192.563 26.1682V43.5796L210.331 25.198C210.809 24.7364 211.439 24.4672 212.1 24.4413H221.387C221.966 24.3987 222.507 24.7351 222.728 25.2754C222.949 25.8156 222.8 26.4377 222.36 26.818L200.143 49.2677L222.634 76.5152ZM259.921 57.5372C259.921 52.6325 258.895 48.9918 256.879 46.7397V46.7753C254.535 44.1226 251.254 42.7785 247.132 42.7518C244.326 42.7518 241.596 43.6669 239.35 45.3599C239.321 44.4271 238.561 43.686 237.634 43.6864H231.195C230.256 43.7145 229.502 44.4768 229.479 45.4222V77.1562C229.479 78.1099 230.248 78.8831 231.195 78.8831H237.634C238.581 78.8831 239.35 78.1099 239.35 77.1562V61.8366C239.35 57.9556 239.889 55.1427 240.72 53.8253C241.552 52.5079 242.985 51.8669 245.089 51.8669C246.982 51.8669 248.273 52.3387 248.928 53.2823C249.432 53.9766 250.051 55.6145 250.051 59.3175V77.1206C250.051 78.0743 250.819 78.8475 251.767 78.8475H258.205C259.153 78.8475 259.921 78.0743 259.921 77.1206V57.5372ZM284.517 42.7785C279.595 42.6909 274.849 44.6184 271.366 48.1194C267.848 51.4893 265.886 56.1835 265.953 61.0711C265.828 66.0659 267.747 70.8931 271.26 74.4234C274.703 77.9801 279.46 79.9371 284.393 79.8266C289.356 79.9352 294.153 78.0296 297.704 74.5391C301.258 71.0839 303.22 66.293 303.117 61.3204C303.207 56.3677 301.261 51.5974 297.739 48.1372C294.234 44.6239 289.463 42.6905 284.517 42.7785ZM278.282 68.2368C281.771 71.5894 287.263 71.5894 290.752 68.2368C292.381 66.3407 293.22 63.8858 293.096 61.3826C293.232 58.8728 292.398 56.4073 290.77 54.5018C289.16 52.7787 286.882 51.8516 284.535 51.9648C282.201 51.8551 279.937 52.7827 278.344 54.5018C276.713 56.342 275.859 58.7498 275.965 61.2135C275.965 64.1866 276.743 66.5455 278.282 68.2368ZM319.54 57.911C318.763 60.0677 318.763 62.4305 319.54 64.5872C319.91 65.624 320.485 66.5748 321.23 67.3822C322 68.211 322.93 68.8741 323.962 69.3317C325.077 69.8247 326.283 70.0706 327.5 70.0527C328.564 70.0628 329.616 69.8316 330.578 69.3762C331.375 68.9905 332.085 68.4453 332.665 67.7739C332.982 67.4144 333.435 67.2073 333.912 67.2042C334.37 67.2029 334.807 67.397 335.115 67.7383L339.882 72.8389C340.192 73.1812 340.357 73.6313 340.342 74.094C340.328 74.5544 340.126 74.9888 339.785 75.2957C338.976 76.0314 338.086 76.6706 337.132 77.2006C336.03 77.8208 334.872 78.3335 333.673 78.7317C332.588 79.1182 331.473 79.4158 330.339 79.6218C329.415 79.7766 328.481 79.86 327.544 79.8711C325.015 79.8873 322.504 79.441 320.133 78.5536C315.568 76.8957 311.889 73.4089 309.971 68.9222C308.948 66.5124 308.435 63.9141 308.467 61.2936C308.435 58.6759 308.947 56.0803 309.971 53.6739C311.884 49.1819 315.565 45.6907 320.133 44.0335C322.489 43.1467 324.984 42.6915 327.5 42.6894C329.811 42.702 332.1 43.1363 334.257 43.9712C336.376 44.77 338.295 46.0246 339.882 47.6476C340.528 48.3341 340.528 49.4089 339.882 50.0955L334.982 55.018C334.666 55.3441 334.232 55.5272 333.78 55.5254C333.327 55.5213 332.894 55.3429 332.568 55.0269C331.845 54.3133 331.034 53.697 330.153 53.1932C329.349 52.7159 328.434 52.4582 327.5 52.4455C325.126 52.3869 322.841 53.3599 321.23 55.1159C320.487 55.9248 319.912 56.8752 319.54 57.911Z" fill="white"/>
</g>
<defs>
<clipPath id="clip0_142_458">
<rect width="400" height="100" fill="white"/>
</clipPath>
</defs>
</svg>
