<svg width="129" height="100" viewBox="0 0 129 100" fill="none" xmlns="http://www.w3.org/2000/svg">
<g id="quotes" clip-path="url(#clip0_106_352)">
<circle id="Ellipse 7" cx="76.6147" cy="71.4922" r="28.5078" fill="#E0E0E0"/>
<g id="Group 3">
<circle id="Ellipse 4" cx="99.7773" cy="28.5078" r="28.5078" fill="#424242"/>
<path id="Combined Shape" fill-rule="evenodd" clip-rule="evenodd" d="M95.5886 33.5948C93.6212 36.2911 91.7278 37.6392 89.9084 37.6392C89.3161 37.6392 89.0199 37.3654 89.0199 36.8177C89.0199 36.607 89.7921 35.6802 91.3364 34.0372C92.8807 32.3942 93.6529 30.9829 93.6529 29.8033C93.6529 29.4662 93.6212 29.1608 93.5577 28.887C93.4942 28.6131 93.3885 28.3603 93.2404 28.1286C93.0923 27.8969 92.9654 27.7073 92.8596 27.5599C92.7538 27.4124 92.5528 27.2439 92.2567 27.0544C91.9605 26.8648 91.7595 26.7279 91.6537 26.6436C91.548 26.5593 91.3047 26.4119 90.9239 26.2012C90.5431 25.9906 90.3104 25.8642 90.2258 25.8221C88.5757 24.9374 87.7506 23.8842 87.7506 22.6624C87.7506 21.6935 88.0997 20.9036 88.7978 20.2927C89.4959 19.6818 90.3315 19.3764 91.3047 19.3764C93.2933 19.3764 94.9963 20.061 96.4137 21.4302C97.8311 22.7993 98.5398 24.4318 98.5398 26.3276C98.5398 28.4762 97.556 30.8986 95.5886 33.5948ZM108.853 33.5948C106.885 36.2911 104.992 37.6392 103.173 37.6392C102.58 37.6392 102.284 37.3654 102.284 36.8177C102.284 36.607 103.056 35.6802 104.601 34.0372C106.145 32.3942 106.917 30.9829 106.917 29.8032C106.917 29.4662 106.885 29.1608 106.822 28.887C106.759 28.6131 106.653 28.3603 106.505 28.1286C106.357 27.8969 106.23 27.7073 106.124 27.5599C106.018 27.4124 105.817 27.2439 105.521 27.0543C105.225 26.8648 105.024 26.7279 104.918 26.6436C104.812 26.5593 104.569 26.4119 104.188 26.2012C103.807 25.9906 103.575 25.8642 103.49 25.8221C101.84 24.9374 101.015 23.8842 101.015 22.6624C101.015 21.6935 101.364 20.9036 102.062 20.2927C102.76 19.6818 103.596 19.3764 104.569 19.3764C106.558 19.3764 108.261 20.061 109.678 21.4302C111.095 22.7993 111.804 24.4318 111.804 26.3276C111.804 28.4762 110.82 30.8986 108.853 33.5948Z" fill="#E0E0E0"/>
</g>
<g id="Group 2">
<circle id="Ellipse 3" cx="52.1158" cy="28.5078" r="28.5078" fill="#E0E0E0"/>
<path id="&#226;&#128;&#156;&#226;&#128;&#157;&#226;&#128;&#152;&#226;&#128;&#153;" d="M53.9395 37.6392C54.9037 37.6392 55.7317 37.3338 56.4235 36.7229C57.1152 36.112 57.4611 35.3221 57.4611 34.3532C57.4611 33.1314 56.6436 32.0782 55.0085 31.1935C54.9247 31.1514 54.6941 31.025 54.3168 30.8143C53.9395 30.6037 53.6984 30.4562 53.5936 30.372C53.4888 30.2877 53.2897 30.1508 52.9962 29.9612C52.7028 29.7717 52.5036 29.6031 52.3988 29.4557C52.294 29.3082 52.1682 29.1187 52.0215 28.887C51.8748 28.6552 51.77 28.4025 51.7071 28.1286C51.6442 27.8548 51.6128 27.5494 51.6128 27.2123C51.6128 26.0327 52.3779 24.6214 53.9081 22.9784C55.4383 21.3354 56.2034 20.4085 56.2034 20.1979C56.2034 19.6502 55.9099 19.3764 55.323 19.3764C53.5203 19.3764 51.6442 20.7245 49.6948 23.4207C47.7453 26.117 46.7706 28.5394 46.7706 30.688C46.7706 32.5837 47.4728 34.2162 48.8773 35.5854C50.2817 36.9546 51.9691 37.6392 53.9395 37.6392Z" fill="#616161"/>
</g>
<g id="Group 4">
<circle id="Ellipse 5" cx="28.9532" cy="71.4922" r="28.5078" fill="#424242"/>
<path id="Combined Shape_2" fill-rule="evenodd" clip-rule="evenodd" d="M27.0863 79.7073C26.3902 80.3182 25.5569 80.6236 24.5865 80.6236C22.6036 80.6236 20.9054 79.939 19.492 78.5698C18.0786 77.2006 17.3719 75.5682 17.3719 73.6724C17.3719 71.5238 18.3529 69.1014 20.3147 66.4052C22.2766 63.7089 24.1646 62.3608 25.9788 62.3608C26.5695 62.3608 26.8648 62.6346 26.8648 63.1823C26.8648 63.3929 26.0948 64.3198 24.5549 65.9628C23.0149 67.6058 22.245 69.0171 22.245 70.1967C22.245 70.5338 22.2766 70.8392 22.3399 71.113C22.4032 71.3869 22.5086 71.6396 22.6563 71.8714C22.804 72.1031 22.9305 72.2926 23.036 72.4401C23.1415 72.5875 23.3419 72.7561 23.6372 72.9456C23.9326 73.1352 24.133 73.2721 24.2385 73.3564C24.3439 73.4407 24.5865 73.5881 24.9662 73.7987C25.346 74.0094 25.578 74.1358 25.6624 74.1779C27.3078 75.0626 28.1305 76.1158 28.1305 77.3376C28.1305 78.3065 27.7825 79.0964 27.0863 79.7073ZM39.4903 79.7073C38.7942 80.3182 37.9609 80.6236 36.9905 80.6236C35.0076 80.6236 33.3094 79.939 31.896 78.5698C30.4826 77.2006 29.776 75.5682 29.776 73.6724C29.776 71.5238 30.7569 69.1014 32.7187 66.4052C34.6806 63.7089 36.5686 62.3608 38.3828 62.3608C38.9735 62.3608 39.2688 62.6346 39.2688 63.1823C39.2688 63.3929 38.4988 64.3198 36.9589 65.9628C35.4189 67.6058 34.649 69.0171 34.649 70.1967C34.649 70.5338 34.6806 70.8392 34.7439 71.113C34.8072 71.3869 34.9126 71.6396 35.0603 71.8714C35.208 72.1031 35.3345 72.2926 35.44 72.4401C35.5455 72.5875 35.7459 72.7561 36.0412 72.9456C36.3366 73.1352 36.537 73.2721 36.6425 73.3564C36.7479 73.4407 36.9905 73.5881 37.3702 73.7987C37.75 74.0094 37.982 74.1358 38.0664 74.1779C39.7118 75.0626 40.5345 76.1158 40.5345 77.3376C40.5345 78.3065 40.1865 79.0964 39.4903 79.7073Z" fill="#E0E0E0"/>
</g>
<g id="Group 5">
<path id="Ellipse 6" d="M81.6258 65.8129L96.7727 91.6503C85.6398 102.783 67.5896 102.783 56.4566 91.6503C45.3237 80.5173 45.3237 62.4671 56.4566 51.3341L81.6258 65.8129Z" fill="#E0E0E0"/>
<path id="Path" fill-rule="evenodd" clip-rule="evenodd" d="M73.4076 80.6236C75.2103 80.6236 77.0864 79.2755 79.0358 76.5792C80.9852 73.883 81.96 71.4606 81.96 69.312C81.96 67.4162 81.2577 65.7838 79.8533 64.4146C78.4489 63.0454 76.7615 62.3608 74.7911 62.3608C73.8268 62.3608 72.9989 62.6662 72.3071 63.2771C71.6154 63.888 71.2695 64.6779 71.2695 65.6468C71.2695 66.8686 72.087 67.9218 73.722 68.8065C73.8059 68.8486 74.0365 68.975 74.4138 69.1856C74.7911 69.3963 75.0321 69.5437 75.1369 69.628C75.2418 69.7123 75.4409 69.8492 75.7344 70.0388C76.0278 70.2283 76.227 70.3969 76.3318 70.5443C76.4366 70.6918 76.5623 70.8813 76.7091 71.113C76.8558 71.3447 76.9606 71.5975 77.0235 71.8714C77.0864 72.1452 77.1178 72.4506 77.1178 72.7877C77.1178 73.9673 76.3527 75.3786 74.8225 77.0216C73.2923 78.6646 72.5272 79.5914 72.5272 79.8021C72.5272 80.3498 72.8207 80.6236 73.4076 80.6236Z" fill="#616161"/>
</g>
</g>
<defs>
<clipPath id="clip0_106_352">
<rect width="128.285" height="100" fill="white"/>
</clipPath>
</defs>
</svg>
