<svg width="100" height="90" viewBox="0 0 100 90" fill="none" xmlns="http://www.w3.org/2000/svg">
<g clip-path="url(#clip0_91_243)">
<path fill-rule="evenodd" clip-rule="evenodd" d="M69.3015 23.6581C67.1701 23.2759 65.0263 22.9645 62.8737 22.7245C61.592 20.9632 60.2507 19.2462 58.8524 17.5764C61.5162 15.4123 63.9428 13.9807 65.8767 13.2116C67.504 12.5644 68.3372 12.5473 68.6201 12.5566C68.7862 12.8109 69.2553 13.6202 69.5297 15.6039C69.8148 17.6646 69.7898 20.406 69.3015 23.6581ZM41.1793 17.5946C38.6041 15.546 36.2408 14.1553 34.3126 13.3736C32.4603 12.6226 31.5236 12.6233 31.2169 12.6405C31.0743 12.8688 30.6678 13.5916 30.4139 15.3433C30.1144 17.4091 30.1453 20.2388 30.696 23.6439C32.8341 23.2661 34.9842 22.9581 37.1428 22.7207C38.4311 20.9674 39.7773 19.2578 41.1793 17.5946ZM78.1352 38.9617C77.4036 40.9598 76.6056 42.9332 75.7424 44.8786C76.6536 46.8818 77.4954 48.9155 78.2664 50.9762C81.2393 49.7932 83.5638 48.4734 85.1735 47.2218C86.7607 45.9878 87.226 45.1743 87.362 44.9045C87.23 44.6583 86.8011 43.948 85.4284 42.8634C83.7956 41.5734 81.342 40.1872 78.1352 38.9617ZM81.6979 63.1094C82.5897 68.24 82.682 73.1159 81.8591 77.277C80.9828 81.7083 78.9171 85.9666 74.9545 88.2608L74.9515 88.2625C71.1016 90.4873 66.5851 90.2164 62.4622 88.8354C58.4097 87.478 54.1956 84.8916 50.141 81.4606C46.1265 84.812 41.9326 87.3396 37.9039 88.7099C33.6301 90.1636 28.9103 90.5036 24.9461 88.2164M81.6979 63.1094C86.4527 61.3459 90.5966 59.0917 93.7284 56.4364C97.2271 53.47 99.9704 49.5378 99.9704 44.8808C99.9704 40.3748 97.3752 36.5789 94.0524 33.7089C90.8307 30.9262 86.4834 28.601 81.5011 26.8173C82.3902 21.7196 82.5263 16.9076 81.7781 12.7956C80.9569 8.28224 78.9211 3.94012 74.8846 1.61231C70.9814 -0.638535 66.3964 -0.284648 62.2515 1.16018C58.2316 2.56141 54.0451 5.16598 50.0107 8.59051C46.0368 5.27666 41.9351 2.75897 37.9994 1.35517C33.6794 -0.185704 28.9028 -0.590868 24.8728 1.73689L24.8697 1.73866L24.8667 1.74043C20.9718 3.99859 18.9911 8.14777 18.1721 12.4577C17.3785 16.6343 17.5393 21.5548 18.4833 26.7526C13.4138 28.5495 9.00186 30.9208 5.76036 33.7794C2.49897 36.6555 0 40.4302 0 44.8808C0 49.4578 2.65338 53.3775 6.04873 56.3533C9.2499 59.159 13.5362 61.5281 18.446 63.3272C17.4961 68.5488 17.358 73.4896 18.2053 77.6782C19.0677 81.9416 21.091 85.9922 24.9461 88.2164M24.2955 44.9735C23.4167 42.9724 22.6053 40.9426 21.8625 38.8876C18.5658 40.1293 16.0812 41.545 14.4594 42.8551C13.2409 43.8394 12.8008 44.5122 12.6429 44.8044C12.8934 45.5869 13.3973 46.2708 14.0834 46.7425L14.2078 46.828L14.3259 46.9219C16.5914 48.7241 19.1135 50.1711 21.8052 51.2168C22.5646 49.1084 23.3951 47.0261 24.2955 44.9735ZM30.6517 66.4372C32.8362 66.8032 35.0329 67.0935 37.2379 67.3077C38.5448 69.0816 39.9103 70.8113 41.3321 72.494C39.0805 74.3031 36.5659 75.7645 33.8719 76.8258L33.7274 76.8827L33.5873 76.9499C32.8399 77.3082 32.0001 77.4052 31.2001 77.2357C31.0237 76.9489 30.6613 76.2285 30.4176 74.6849C30.097 72.6541 30.1058 69.8467 30.6517 66.4372ZM58.9327 72.4409C61.6145 74.6161 64.0427 76.0266 65.9623 76.7634C67.4244 77.3247 68.2277 77.369 68.5607 77.3593C68.9585 76.9188 69.2455 76.3897 69.3978 75.8168L69.5427 74.8407C69.963 72.0081 69.9566 69.1322 69.5269 66.3085C67.3385 66.6965 65.1369 67.0079 62.9263 67.2422C61.6545 69.0202 60.3225 70.7541 58.9327 72.4409Z" fill="#F9F9F9"/>
<path fill-rule="evenodd" clip-rule="evenodd" d="M76.4669 29.7382C77.4542 30.024 78.4336 30.3337 79.405 30.6672C89.2711 34.0618 95.6434 39.378 95.6434 44.8808C95.6434 50.6139 88.8344 56.2239 78.3647 59.694C77.8089 59.8766 77.2425 60.0526 76.6655 60.222C76.8719 61.0531 77.0546 61.8657 77.2134 62.6598C79.2819 73.0976 77.6898 81.6774 72.7865 84.5162C68.046 87.2557 60.3833 84.5638 52.6175 77.8858C51.7758 77.1579 50.9552 76.4062 50.1559 75.6307C49.5206 76.25 48.8854 76.835 48.2501 77.3855C40.2341 84.3891 32.0077 87.2954 27.1084 84.4685C22.3599 81.729 20.8671 73.7408 22.7808 63.6841C22.9872 62.5909 23.2255 61.5057 23.4954 60.4285C22.6643 60.1902 21.8411 59.9308 21.0259 59.6503C10.9573 56.216 4.3269 50.5385 4.3269 44.8808C4.3269 39.4018 10.5007 34.1214 20.1683 30.7466C21.2483 30.3694 22.3798 30.0161 23.5431 29.6826C23.2969 28.6794 23.0719 27.671 22.8681 26.6572C20.875 16.4218 22.2845 8.23909 27.0369 5.48371C31.9998 2.61717 40.2699 5.69811 48.5201 13.0153C49.031 13.4706 49.5339 13.9364 50.0288 14.4129C50.7673 13.6982 51.5243 13.0034 52.2998 12.3285C60.1689 5.47974 67.9586 2.6132 72.723 5.36063C77.6938 8.22718 79.1469 16.93 76.9235 27.7292C76.7832 28.4015 76.6311 29.0712 76.4669 29.7382ZM70.7894 8.74728C67.911 7.09564 61.6101 9.40635 54.8686 15.2744H54.8607C54.146 15.8991 53.4472 16.5396 52.7644 17.196C55.5522 20.2307 58.1321 23.45 60.4866 26.8319C64.5956 27.2048 68.6753 27.8494 72.6992 28.7615C72.8474 28.1606 72.9837 27.5558 73.1081 26.9471C75.0297 17.6209 73.8466 10.5101 70.7894 8.74728ZM31.2851 49.5539L31.2882 49.5599C30.1293 52.3066 29.137 55.0176 28.3273 57.6254C31.108 58.2192 33.9173 58.6697 36.7443 58.9753C35.7517 57.4322 34.7962 55.8666 33.8777 54.2785C32.9789 52.7294 32.1158 51.1565 31.2882 49.5599L31.2891 49.5578L31.2851 49.5539ZM31.2833 40.3783L31.2851 40.3825H31.2812L31.2833 40.3783ZM31.2833 40.3783C30.1486 37.6879 29.1805 35.0411 28.3868 32.4816C30.9874 31.898 33.7666 31.4216 36.6609 31.0603C35.6921 32.569 34.7591 34.1042 33.8618 35.6658C32.9627 37.2155 32.1032 38.7863 31.2833 40.3783ZM33.3576 44.9721L33.3586 44.9702C34.5653 47.4681 35.8646 49.9211 37.2564 52.3291C38.654 54.7457 40.1415 57.1053 41.719 59.4081C44.3791 59.5828 47.1424 59.6701 49.9852 59.6701C52.8398 59.6701 55.6388 59.5748 58.3466 59.3763C59.8844 57.0683 61.3455 54.7126 62.7298 52.3092C64.1273 49.89 65.4349 47.4258 66.6524 44.9166C65.419 42.4312 64.1061 39.9894 62.7139 37.5914C61.3296 35.196 59.8632 32.8535 58.3148 30.564C55.5991 30.3575 52.812 30.2464 49.9852 30.2464C47.1702 30.2464 44.3871 30.3575 41.6714 30.564C40.1045 32.8535 38.6301 35.2026 37.2485 37.6112C35.8566 40.0166 34.56 42.4696 33.3586 44.9702L33.3576 44.9682V44.9721ZM68.7567 49.4189C67.9097 51.052 67.0283 52.6666 66.1124 54.2626L66.1085 54.2586C65.2033 55.8256 64.2689 57.374 63.3055 58.9039C66.1675 58.5694 69.0101 58.0856 71.8217 57.4547C70.9398 54.7248 69.9168 52.0426 68.7567 49.4189ZM68.717 40.3865C67.8753 38.7878 67.0018 37.2049 66.0966 35.638C65.2019 34.0975 64.2755 32.5756 63.3174 31.0722C66.2276 31.4414 69.0187 31.9298 71.6431 32.5293C70.8005 35.1972 69.8239 37.8209 68.717 40.3904V40.3865ZM50.0268 19.9972L50.0249 19.9951H50.0288L50.0268 19.9972ZM50.0268 19.9972C51.9261 22.0672 53.7197 24.2317 55.4006 26.4825C51.8062 26.3105 48.2091 26.3105 44.6094 26.4825C46.3835 24.1409 48.2012 21.9659 50.0268 19.9972ZM28.9982 8.85845C32.0554 7.09168 38.8048 9.61281 45.9275 15.9375C46.3841 16.3424 46.8407 16.7633 47.2973 17.2C44.4933 20.2351 41.8937 23.4528 39.5155 26.8319C35.4186 27.1997 31.3499 27.8323 27.3347 28.7257C27.1018 27.7941 26.8927 26.8544 26.7074 25.9068V25.9148C24.9883 17.1405 26.1277 10.526 28.9982 8.86639V8.85845ZM22.2885 55.9698C23.0322 56.2213 23.7813 56.4555 24.5356 56.6726L24.5396 56.6686C25.7812 52.6749 27.2853 48.7676 29.0419 44.9721C27.3072 41.2311 25.8217 37.3795 24.5952 33.4424C23.5391 33.7389 22.4909 34.0697 21.4507 34.435C13.1846 37.3135 8.22969 41.5537 8.22969 44.8769C8.56432 47.0798 9.79602 49.0459 11.6322 50.3082C14.8068 52.8334 18.419 54.7526 22.2885 55.9698ZM45.6814 74.4594C42.6945 77.1992 39.2289 79.366 35.4579 80.8516C33.4501 81.8142 31.1336 81.9033 29.0578 81.0977C26.1793 79.4302 24.9803 73.0222 26.6121 64.4226C26.808 63.4035 27.0303 62.3924 27.2791 61.3893C31.3368 62.2599 35.4489 62.8542 39.587 63.168C41.9845 66.5653 44.6025 69.8014 47.4243 72.8554C46.8579 73.4033 46.2782 73.9367 45.6853 74.4555L45.6814 74.4594ZM44.6412 63.4697C46.4437 65.8439 48.2859 68.0514 50.136 70.0445C52.034 67.9406 53.823 65.7408 55.4959 63.4538C53.6828 63.5332 51.8459 63.5729 49.9852 63.5729C48.1694 63.5729 46.3881 63.5385 44.6412 63.4697ZM73.8267 75.4719C73.6568 77.6937 72.5745 79.7461 70.8371 81.1414C67.9586 82.8089 61.8047 80.6412 55.1664 74.9319C54.4067 74.2808 53.6418 73.5847 52.8716 72.8435C55.6391 69.7798 58.1965 66.5327 60.5263 63.1243C64.6876 62.7734 68.8198 62.1366 72.8937 61.2185C73.079 61.9702 73.2431 62.7061 73.386 63.426C74.2696 67.3818 74.4177 71.4665 73.8227 75.4758L73.8267 75.4719ZM75.5975 56.4661C76.1215 56.3152 76.6337 56.1564 77.1379 55.9897H77.1339C86.1743 52.9961 91.7446 48.4144 91.7446 44.8808C91.7446 41.5696 86.5912 37.2658 78.1345 34.3596C77.261 34.0618 76.3518 33.772 75.4228 33.506C74.1963 37.3991 72.7107 41.2059 70.976 44.9007C72.7772 48.6465 74.3213 52.5105 75.5975 56.4661Z" fill="#61DAFB"/>
<path d="M49.9852 36.7259C53.2843 36.7259 56.2584 38.7136 57.5201 41.7619C58.7819 44.8102 58.0827 48.3184 55.7488 50.6501C53.4148 52.9817 49.9059 53.6775 46.8589 52.4127C43.8118 51.148 41.827 48.172 41.8302 44.8729C41.8368 40.3737 45.486 36.7298 49.9852 36.7298" fill="#61DAFB"/>
</g>
<defs>
<clipPath id="clip0_91_243">
<rect width="100" height="89.9038" fill="white"/>
</clipPath>
</defs>
</svg>
