<?xml version="1.0" encoding="UTF-8" standalone="no"?>
<svg
   width="300"
   height="100"
   viewBox="0 0 300 100"
   fill="none"
   version="1.1"
   id="svg54"
   sodipodi:docname="regex.svg"
   inkscape:version="1.4 (86a8ad7, 2024-10-11)"
   xmlns:inkscape="http://www.inkscape.org/namespaces/inkscape"
   xmlns:sodipodi="http://sodipodi.sourceforge.net/DTD/sodipodi-0.dtd"
   xmlns="http://www.w3.org/2000/svg"
   xmlns:svg="http://www.w3.org/2000/svg">
  <defs
     id="defs54" />
  <sodipodi:namedview
     id="namedview54"
     pagecolor="#ffffff"
     bordercolor="#000000"
     borderopacity="0.25"
     inkscape:showpageshadow="2"
     inkscape:pageopacity="0.0"
     inkscape:pagecheckerboard="0"
     inkscape:deskcolor="#d1d1d1"
     inkscape:zoom="8"
     inkscape:cx="142.9375"
     inkscape:cy="55.9375"
     inkscape:window-width="3840"
     inkscape:window-height="2042"
     inkscape:window-x="-12"
     inkscape:window-y="-12"
     inkscape:window-maximized="1"
     inkscape:current-layer="svg54" />
  <path
     id="path1"
     d="m 126.24219,0.06054687 c -3.587,0 -6.49414,2.90787063 -6.49414,6.49414063 v 4.7011715 l -0.0508,-0.169921 c -0.82,-2.7514705 -3.35166,-4.6367193 -6.22266,-4.6367192 h -5.97656 c -2.195,0 -4.24146,1.1081156 -5.43946,2.9472656 l -2.810543,4.3124996 c -0.333481,-0.05278 -0.671206,-0.08789 -1.013672,-0.08789 H 81.947266 c -0.339813,-0.516789 -0.753849,-0.990765 -1.240235,-1.400391 -1.7723,-1.4926 -4.204965,-1.926625 -6.384765,-1.140625 L 60.675781,16 h -0.904297 c -0.511375,-2.577972 -1.804844,-4.972759 -4.042968,-6.8339844 -2.8437,-2.36474 -6.327982,-3.1289062 -9.613282,-3.1289062 -2.135681,0 -4.229162,0.2872167 -6.267578,0.8457031 -0.253598,-0.8100951 -0.659684,-1.5749113 -1.21875,-2.2402344 -1.2338,-1.4683 -3.052903,-2.3144531 -4.970703,-2.3144531 h -1.009765 c -2.9416,0 -5.793447,0.4400844 -8.498047,1.3964844 -2.8326,0.98755 -5.354344,2.54991 -7.527344,4.625 l -0.02148,0.019531 c -2.2265,2.1456506 -3.944159,4.7808436 -5.255859,7.7148436 -1.3414,3.0007 -2.2473593,6.415566 -2.8183592,10.134766 l -0.00391,0.02148 c -0.67988,4.5274 -0.7337631,8.817107 0.1230469,12.691407 l 0.00586,0.0293 c 0.89121,3.943999 2.7668403,7.533931 5.9941403,10.144531 0.689799,0.561 1.412805,1.045901 2.160157,1.46875 -0.26412,0.151536 -0.528503,0.300608 -0.78711,0.466797 -2.7043,1.7242 -4.918332,4.051762 -6.7011717,6.789062 l -0.015625,0.02539 c -1.76844,2.7429 -3.06807,5.836259 -3.96875,9.193359 l -0.00586,0.02148 C 4.424585,70.483612 4,74.099812 4,77.882812 c 0,4.8824 0.9959481,9.906507 4.3925781,13.566407 l 0.00195,0.002 c 3.4524999,3.718 8.2501529,4.960937 13.0019529,4.960937 1.9137,0 3.862203,-0.230109 5.720704,-0.849609 2.3319,-0.7773 4.025799,-2.803228 4.375,-5.236328 L 31.9082,87.427781 c 0.210712,-0.06981 0.41233,-0.159683 0.613281,-0.25 0.945546,1.542945 2.135993,2.943442 3.611328,4.136719 3.2887,2.6742 7.294397,3.716797 11.404297,3.716797 h 0.990235 c 3.1547,0 5.852984,-2.2675 6.396484,-5.375 l 0.802734,-4.595703 c 0.3304,-1.8891 -0.190028,-3.828575 -1.423828,-5.296875 -1.561935,-1.946948 -3.821392,-2.283655 -6.130859,-2.332036 -0.3558,-0.7645 -0.76405,-2.672566 -0.15625,-6.509766 l 0.002,-0.01563 c 0.4198,-2.6937 1.049269,-4.609481 1.730469,-5.925781 0.7223,-1.3687 1.402319,-2.027063 1.886719,-2.351563 0.480432,-0.313567 1.038638,-0.509108 1.863281,-0.511718 l 7.566406,27.914062 c 0.7671,2.8297 3.335678,4.792969 6.267578,4.792969 h 4.761719 c 2.0221,0 3.92765,-0.940775 5.15625,-2.546875 0.325728,-0.42575 0.590387,-0.887286 0.798828,-1.369141 h 3.533203 c 0.8246,0 1.626841,-0.154412 2.369141,-0.445312 0.7353,0.2887 1.534594,0.445312 2.371094,0.445312 h 3.730468 c 1.8751,0 3.659479,-0.810156 4.892578,-2.222656 0.611517,-0.700468 1.184404,-1.432547 1.734376,-2.183594 0.18391,0.726048 0.43669,1.451208 0.789062,2.166016 1.1171,2.2661 2.876726,4.001865 5.052726,5.134765 2.053,1.0687 4.25446,1.517578 6.43946,1.517578 1.051,0 2.1067,-0.04805 3.0957,-0.185546 0.749,-0.1024 1.48255,-0.229825 2.18555,-0.390625 2.0923,-0.478198 3.75312,-1.941135 4.54297,-3.835938 5.92836,-0.04746 11.85939,0.07044 17.78711,-0.0098 l -0.21289,0.761718 c -0.544,1.9554 -0.14402,4.053722 1.08398,5.669922 1.228,1.6162 3.14187,2.564453 5.17187,2.564453 h 4.74024 c 2.77,0 5.23467,-1.7562 6.13867,-4.375 l 2.35156,-6.822265 c 1.23133,1.400959 3.00324,2.210937 4.87305,2.210937 h 18.58984 c 1.49229,0 2.87995,-0.511156 3.98829,-1.375 2.60867,1.325318 5.54395,1.789063 8.36523,1.789063 2.12555,0 4.21286,-0.25428 6.19141,-0.81836 0.13049,0.383503 0.29311,0.757874 0.49609,1.115235 0.853,1.5036 2.27145,2.603693 3.93945,3.058593 0.761,0.2076 1.53274,0.355832 2.30274,0.457032 0.959,0.1388 1.96717,0.185546 2.95117,0.185546 2.529,0 5.03819,-0.50074 7.36719,-1.68164 1.5378,-0.766316 2.90444,-1.791698 4.04492,-3.0625 0.25566,0.772334 0.64778,1.501129 1.18359,2.138672 1.234,1.4683 3.05466,2.316406 4.97266,2.316406 h 0.92578 c 2.97,0 5.84917,-0.437972 8.57617,-1.388672 2.873,-0.9878 5.42719,-2.564881 7.61719,-4.675781 l 0.0215,-0.02148 c 2.231,-2.170799 3.94614,-4.823296 5.24414,-7.779296 1.05446,-2.386506 1.83333,-5.033899 2.38868,-7.88086 l 4.53906,16.746094 c 0.768,2.8297 3.33558,4.792969 6.26758,4.792969 h 4.75976 c 2.023,0 3.9292,-0.940775 5.15821,-2.546875 0.24844,-0.324924 0.45422,-0.674019 0.63476,-1.033203 0.74122,0.04556 1.48477,0.07813 2.23438,0.07813 3.115,0 6.13151,-0.526891 8.97851,-1.650391 2.756,-1.0873 5.23328,-2.637769 7.36328,-4.667969 2.148,-2.033 3.82386,-4.430831 5.00586,-7.144531 1.22,-2.801 1.79883,-5.780475 1.79883,-8.859375 0,-3.1652 -0.76784,-6.597209 -3.21484,-9.349609 -3.02862,-3.444159 -7.01706,-4.031669 -9.59571,-3.984329 -0.316,-1.6434 -0.96486,-3.2762 -2.13086,-4.75 -0.26698,-0.337488 -0.55205,-0.642704 -0.84375,-0.931641 1.57862,-0.873436 3.03643,-1.949626 4.35938,-3.224609 l 0.0215,-0.02148 c 2.232,-2.171 3.94614,-4.82485 5.24414,-7.78125 1.339,-3.0304 2.23797,-6.475109 2.79297,-10.224609 v -0.0059 c 0.665,-4.519099 0.69892,-8.805868 -0.20508,-12.667968 C 292.13673,12.133194 290.23205,8.57797 286.99805,6 283.70605,3.35082 279.70056,2.328125 275.60156,2.328125 h -0.90625 c -1.44834,0 -2.79711,0.4812605 -3.88867,1.2988281 -1.17119,-1.0125495 -2.67093,-1.5878906 -4.24219,-1.5878906 h -13.3125 c -3.141,0 -5.83262,2.2487937 -6.39062,5.3398437 l -0.84375,4.6777348 c -0.10925,0.604875 -0.12171,1.21369 -0.0606,1.8125 h -3.12109 c -0.644,0 -1.26652,0.09328 -1.85352,0.267578 -0.865,-0.35 -1.8029,-0.513597 -2.7539,-0.466797 l -4.1836,0.207031 c -0.391,0.0192 -0.77162,0.07175 -1.14062,0.15625 -0.756,-0.2683 -1.57478,-0.399134 -2.42578,-0.365234 l -5.17383,0.205078 c -1.63356,0.0651 -3.17221,0.750485 -4.32227,1.898437 l -2.28906,-8.443359 c -0.768,-2.82974 -3.33558,-4.7949219 -6.26758,-4.7949219 h -4.75976 c -2.023,0 -3.92921,0.9427582 -5.15821,2.5488281 -0.35419,0.4628654 -0.63238,0.9681188 -0.84765,1.4960938 -1.43779,-0.3689856 -2.90883,-0.5214844 -4.33008,-0.5214844 -3.393,0 -6.58455,0.9453138 -9.43555,2.7773438 -1.29771,0.8272308 -2.47831,1.7954336 -3.55664,2.8789066 -0.63394,-2.119743 -2.27174,-5.2636722 -6.41016,-5.2636722 h -5.97656 c -1.04786,0 -2.0607,0.2564211 -2.96484,0.7207031 -0.21874,-1.0182415 -0.67162,-1.9825168 -1.35547,-2.8007813 -1.234,-1.47656 -3.06038,-2.3300781 -4.98438,-2.3300781 h -13.31445 c -3.151,0 -5.84558,2.2620844 -6.39258,5.3652344 L 137.89453,36 h -0.17187 V 6.5546875 c 0,-3.58627 -2.90814,-6.49414063 -6.49414,-6.49414063 z"
     style="fill:#00161f;fill-opacity:1"
     sodipodi:nodetypes="ssccssccscsccccscssscccccccccccccccsccssccccssccscccccccssccscssscscscccccsssccsscsccccsccsssccccccssccsccssccsccccccccsscsscccsccccccccssscsccsscssscccsss" />
  <g
     id="g54">
    <path
       d="m 273.479,84.8278 c -0.921,0 -1.827,-0.0413 -2.72,-0.1237 -0.893,-0.0687 -1.8,-0.1649 -2.721,-0.2885 l 2.288,-4.8432 c 0.81,0.3435 2.143,0.5152 3.998,0.5152 1.511,0 2.913,-0.261 4.204,-0.7831 1.292,-0.5221 2.412,-1.2503 3.36,-2.1846 0.961,-0.9343 1.71,-2.0266 2.246,-3.2769 0.536,-1.2503 0.804,-2.6174 0.804,-4.1012 0,-0.9068 -0.241,-1.6075 -0.722,-2.1022 -0.467,-0.4946 -1.133,-0.7419 -1.999,-0.7419 -1.016,0 -2.033,0.3297 -3.05,0.9892 -1.003,0.6595 -1.91,1.69 -2.72,3.0914 -0.811,1.4015 -1.422,3.2151 -1.834,5.4409 l 0.803,-9.5009 h 1.793 l -0.803,1.319 c 0.425,-1.9373 1.312,-3.4349 2.658,-4.4928 1.347,-1.058 3.037,-1.5869 5.07,-1.5869 1.896,0 3.366,0.5976 4.41,1.793 1.058,1.1816 1.587,2.8647 1.587,5.0492 0,2.2533 -0.419,4.3417 -1.257,6.2653 -0.838,1.9235 -2.013,3.5997 -3.524,5.0286 -1.498,1.4289 -3.256,2.5418 -5.276,3.3387 -2.02,0.7969 -4.218,1.1954 -6.595,1.1954 z m -2.37,-31.7589 c 2.665,0 4.493,0.6251 5.482,1.8754 0.989,1.2503 1.23,3.2632 0.721,6.0385 l -4.122,23.4328 -5.172,-0.0206 4.08,-23.2061 c 0.22,-1.1816 0.172,-2.0403 -0.144,-2.5761 -0.302,-0.5496 -0.852,-0.8244 -1.649,-0.8244 -0.302,0 -0.604,0.0206 -0.907,0.0618 -0.288,0.0275 -0.584,0.0825 -0.886,0.1649 l -0.536,-4.6165 c 0.522,-0.1236 1.045,-0.2061 1.567,-0.2473 0.522,-0.0549 1.044,-0.0824 1.566,-0.0824 z"
       fill="#c56cf0"
       id="path29"
       style="display:inline" />
    <path
       d="M260.692 88.3313L250.634 51.2346H255.395L265.452 88.3313H260.692Z"
       fill="#C56CF0"
       id="path30" />
    <path
       d="M225.111 88.5374L225.914 83.9416H226.677C228.738 83.9416 230.579 83.4126 232.2 82.3547C233.821 81.2967 235.189 79.7098 236.301 77.5939C237.414 75.478 238.218 72.8332 238.713 69.6593C239.413 65.2215 239.159 61.7729 237.95 59.3135C236.755 56.8541 234.666 55.6244 231.685 55.6244H230.922L231.726 51.0286H232.633C235.669 51.0286 238.115 51.7774 239.97 53.275C241.838 54.7588 243.102 56.9159 243.762 59.7463C244.421 62.5629 244.456 65.9772 243.865 69.9891C243.37 73.3278 242.601 76.1787 241.557 78.5419C240.526 80.8914 239.249 82.8081 237.723 84.2919C236.198 85.7621 234.453 86.8337 232.489 87.507C230.524 88.194 228.374 88.5374 226.038 88.5374H225.111Z"
       fill="#43AE68"
       id="path31" />
    <path
       d="M207.542 88.826C206.718 88.826 206.031 88.7848 205.481 88.7023C204.945 88.6336 204.451 88.5374 203.997 88.4138L205.234 83.9828C205.646 84.0377 206.051 84.0858 206.45 84.1271C206.848 84.1683 207.212 84.1889 207.542 84.1889C208.201 84.1889 208.779 84.0584 209.273 83.7973C209.782 83.5225 210.159 83.1309 210.407 82.6226C210.668 82.1005 210.757 81.4753 210.675 80.7471C210.62 80.1014 210.523 79.4213 210.386 78.7068C210.262 77.9924 210.201 77.2573 210.201 76.5016C210.201 72.4347 212.55 70.3601 217.249 70.2776L217.373 69.4533C215.655 69.412 214.322 69.0479 213.374 68.361C212.44 67.674 211.973 66.7054 211.973 65.4551C211.973 64.6032 212.104 63.8681 212.365 63.2499C212.626 62.6178 212.935 62.027 213.292 61.4775C213.649 60.9141 213.986 60.3371 214.302 59.7463C214.618 59.1417 214.838 58.441 214.961 57.6441C215.058 56.9709 214.886 56.4488 214.446 56.0778C214.006 55.6931 213.416 55.5008 212.674 55.5008C212.344 55.5008 211.973 55.5214 211.561 55.5626C211.149 55.5901 210.723 55.6382 210.283 55.7069L210.407 51.3171C210.888 51.2072 211.423 51.111 212.014 51.0286C212.619 50.9461 213.361 50.9049 214.24 50.9049C215.545 50.9049 216.693 51.166 217.682 51.6881C218.685 52.2102 219.427 52.959 219.908 53.9345C220.402 54.91 220.526 56.0778 220.279 57.438C220.127 58.3174 219.88 59.073 219.537 59.7051C219.207 60.3371 218.856 60.9073 218.486 61.4156C218.115 61.924 217.799 62.4392 217.537 62.9613C217.29 63.4834 217.167 64.0811 217.167 64.7543C217.167 65.4001 217.455 65.9428 218.032 66.3825C218.623 66.8084 219.379 67.1313 220.299 67.3511C221.233 67.5572 222.216 67.6602 223.246 67.6602L222.442 72.0706C219.901 72.0706 218.066 72.4553 216.94 73.2248C215.813 73.9942 215.25 75.2788 215.25 77.0787C215.25 77.6695 215.298 78.3015 215.394 78.9747C215.49 79.6342 215.573 80.2663 215.641 80.8708C215.861 82.4921 215.635 83.8935 214.961 85.0751C214.288 86.2704 213.299 87.191 211.994 87.8367C210.702 88.4962 209.218 88.826 207.542 88.826Z"
       fill="#38D1C4"
       id="path32" />
    <path
       d="M191.663 84.8278C188.407 84.8278 186.01 84.0378 184.471 82.4577C182.946 80.8639 182.43 78.6519 182.925 75.8215H188.119C187.885 77.1955 188.139 78.2672 188.881 79.0366C189.623 79.806 190.777 80.1907 192.343 80.1907C194.253 80.1907 195.737 79.6617 196.795 78.6038C197.867 77.5458 198.403 76.0688 198.403 74.1728C198.403 72.8263 197.997 71.7752 197.187 71.0196C196.376 70.2639 195.242 69.8861 193.786 69.8861C191.78 69.8861 190.028 70.3463 188.531 71.2669L188.737 67.145C190.152 66.4031 191.43 65.9016 192.57 65.6405C193.711 65.3795 194.858 65.249 196.012 65.249C198.403 65.249 200.264 65.9703 201.597 67.4129C202.93 68.8556 203.596 70.8547 203.596 73.4102C203.596 76.9963 202.545 79.7991 200.443 81.8188C198.341 83.8248 195.414 84.8278 191.663 84.8278ZM185.46 71.2669L188.283 55.1504H193.436L191.231 67.8457L188.531 71.2669H185.46ZM189.705 59.6845L190.138 55.1504H204.977L204.173 59.6845H189.705Z"
       fill="#38D1C4"
       id="path33" />
    <path
       d="M167.871 84.4156L173.023 55.1504H178.093L172.941 84.4156H167.871ZM160.719 84.4156L161.502 79.964H169.045L168.303 84.4156H160.719ZM172.508 84.4156L173.27 79.964H180.092L179.309 84.4156H172.508ZM165.006 62.4049L165.851 57.6235L173.023 55.1504L172.26 60.0554L165.006 62.4049Z"
       fill="#38D1C4"
       id="path34" />
    <path
       d="M142.615 93.4012L146.572 79.1808H152.26L147.355 93.4012H142.615Z"
       fill="#38D1C4"
       id="path35" />
    <path
       d="M124.902 84.4156L130.054 55.1504H135.124L129.972 84.4156H124.902ZM117.751 84.4156L118.534 79.964H126.077L125.335 84.4156H117.751ZM129.539 84.4156L130.302 79.964H137.123L136.34 84.4156H129.539ZM122.037 62.4049L122.882 57.6235L130.054 55.1504L129.292 60.0554L122.037 62.4049Z"
       fill="#38D1C4"
       id="path36" />
    <path
       d="M108.961 88.826C107.67 88.826 106.523 88.5649 105.52 88.0428C104.517 87.5207 103.775 86.7719 103.294 85.7964C102.813 84.8209 102.689 83.653 102.923 82.2928C103.088 81.4135 103.335 80.6578 103.665 80.0258C103.995 79.3938 104.345 78.8236 104.716 78.3152C105.087 77.8069 105.396 77.2916 105.643 76.7695C105.904 76.2474 106.035 75.6498 106.035 74.9765C106.035 74.317 105.74 73.7743 105.149 73.3484C104.572 72.9225 103.823 72.6065 102.902 72.4004C101.982 72.1805 100.999 72.0706 99.9552 72.0706L100.759 67.6602C103.301 67.6602 105.135 67.2755 106.262 66.5061C107.388 65.7367 107.952 64.4521 107.952 62.6522C107.952 62.0477 107.904 61.4156 107.807 60.7561C107.711 60.0966 107.629 59.4646 107.56 58.8601C107.34 57.2251 107.567 55.8168 108.24 54.6352C108.913 53.4536 109.903 52.5399 111.208 51.8942C112.513 51.2347 113.997 50.9049 115.659 50.9049C116.498 50.9049 117.185 50.9461 117.72 51.0286C118.256 51.0973 118.751 51.1934 119.204 51.3171L117.968 55.7481C117.556 55.6794 117.15 55.6313 116.752 55.6038C116.353 55.5626 115.989 55.542 115.659 55.542C115 55.542 114.416 55.6794 113.908 55.9542C113.413 56.2152 113.035 56.5999 112.774 57.1083C112.527 57.6167 112.444 58.2418 112.527 58.9837C112.582 59.6295 112.671 60.3096 112.795 61.0241C112.932 61.7385 113.001 62.4736 113.001 63.2293C113.001 67.2961 110.651 69.3708 105.952 69.4533L105.829 70.2776C107.546 70.3188 108.872 70.6829 109.806 71.3699C110.754 72.0569 111.228 73.0255 111.228 74.2758C111.228 75.1277 111.098 75.8696 110.837 76.5016C110.576 77.1199 110.267 77.7107 109.909 78.274C109.552 78.8236 109.216 79.4007 108.9 80.0052C108.584 80.596 108.364 81.2898 108.24 82.0867C108.144 82.76 108.316 83.2889 108.755 83.6737C109.195 84.0446 109.786 84.2301 110.528 84.2301C110.858 84.2301 111.228 84.2095 111.641 84.1683C112.053 84.1271 112.479 84.079 112.918 84.024L112.795 88.4138C112.314 88.5237 111.771 88.6199 111.167 88.7023C110.576 88.7848 109.841 88.826 108.961 88.826Z"
       fill="#38D1C4"
       id="path37" />
    <path
       d="M86.323 84.4156L86.0344 74.1109L84.2826 74.8116L83.9735 62.5697L88.1572 62.3636L88.5282 79.696H88.8991C89.9296 77.5527 90.7608 75.0658 91.3928 72.2355C92.0386 69.3914 92.389 66.1695 92.4439 62.5697H97.555C97.4588 67.2687 96.7513 71.4386 95.4323 75.0796C94.1133 78.7068 92.3203 81.8188 90.0532 84.4156H86.323ZM86.4672 70.1127L87.0855 76.6871H85.107L85.952 76.0276L81.5828 84.4156H77.09L75.1733 62.5697L80.3463 62.3636L81.1912 79.696H81.5622L86.4672 70.1127Z"
       fill="#FD4E00"
       id="path38" />
    <path
       d="M67.3323 88.3313L57.275 51.2346H62.0357L72.093 88.3313H67.3323Z"
       fill="#FD4E00"
       id="path39" />
    <path
       d="M55.1427 51.0286L54.3389 55.6244H53.5146C51.4811 55.6244 49.6606 56.1534 48.0531 57.2113C46.4593 58.2693 45.106 59.8562 43.9931 61.9721C42.8939 64.088 42.097 66.7328 41.6024 69.9067C40.9017 74.3308 41.1421 77.7794 42.3237 80.2525C43.5053 82.7119 45.5663 83.9416 48.5065 83.9416H49.3309L48.5271 88.5374H47.5379C44.5152 88.5374 42.0764 87.7818 40.2216 86.2704C38.3667 84.7728 37.1164 82.5951 36.4707 79.7373C35.8387 76.8795 35.8249 73.4377 36.4295 69.412C36.9378 66.1008 37.7141 63.2773 38.7583 60.9416C39.8025 58.6059 41.0803 56.7099 42.5916 55.2535C44.1167 53.7971 45.8479 52.7323 47.7852 52.059C49.7225 51.3721 51.8383 51.0286 54.1328 51.0286H55.1427Z"
       fill="#43AE68"
       id="path40" />
    <path
       d="M21.3958 89.9182C17.6862 89.9182 14.9383 88.9565 13.1521 87.0329C11.3797 85.1231 10.4935 82.073 10.4935 77.8824C10.4935 74.5849 10.8645 71.5348 11.6064 68.7319C12.3621 65.9153 13.4132 63.4628 14.7596 61.3744C16.1199 59.286 17.7068 57.6647 19.5204 56.5106C21.334 55.3427 23.3125 54.7588 25.4559 54.7588C30.4433 54.7588 32.937 57.3075 32.937 62.4049C32.937 63.2018 32.7928 64.4383 32.5042 66.1145C32.2294 67.7908 31.7966 70.2913 31.2058 73.6163H26.8573C27.187 71.734 27.4481 70.1883 27.6404 68.9792C27.8328 67.7701 27.9771 66.8084 28.0732 66.0939C28.1694 65.3795 28.2381 64.823 28.2793 64.4246C28.3343 64.0124 28.3892 63.6758 28.4442 63.4147C28.4442 61.7522 28.1419 60.6393 27.5374 60.076C26.9329 59.499 26.0329 59.2104 24.8376 59.2104C23.4774 59.2104 22.1996 59.6982 21.0043 60.6737C19.8089 61.6354 18.751 62.9682 17.8304 64.6719C16.9236 66.3756 16.2092 68.3472 15.6871 70.5867C15.1787 72.8263 14.9245 75.217 14.9245 77.7588C14.9245 80.4242 15.4535 82.3752 16.5114 83.6118C17.5831 84.8484 19.225 85.4666 21.4371 85.4666C23.1957 85.4666 24.6178 85.2949 25.7032 84.9514L25.0643 89.403C24.0338 89.7465 22.811 89.9182 21.3958 89.9182ZM21.2928 81.6539C20.07 81.6539 19.1219 81.1524 18.4487 80.1494C17.7892 79.1327 17.4595 77.7176 17.4595 75.9039C17.4595 73.2934 17.9541 70.9989 18.9433 69.0204C19.9326 67.0282 21.2859 65.4276 23.0034 64.2185C24.7345 62.9957 26.6993 62.24 28.8976 61.9515L28.6297 66.4237C27.3244 66.4924 26.1428 66.9114 25.0849 67.6808C24.027 68.4365 23.182 69.4464 22.55 70.7104C21.9317 71.9744 21.6225 73.3965 21.6225 74.9765C21.6225 75.7871 21.7668 76.3986 22.0553 76.8107C22.3439 77.2229 22.7698 77.429 23.3331 77.429C23.9651 77.429 24.5284 77.1954 25.0231 76.7283C25.5177 76.2474 25.9711 75.4505 26.3833 74.3376C26.7955 73.2247 27.1802 71.7065 27.5374 69.783H31.886L29.8662 81.2623H26.0123L26.6512 74.8116L27.8259 76.8932H25.5589L26.3008 75.7803C25.8887 77.6489 25.236 79.0984 24.343 80.1288C23.4636 81.1456 22.4469 81.6539 21.2928 81.6539Z"
       fill="white"
       id="path41" />
    <path
       d="M268.079 46.3296L268.883 41.7338H269.646C271.707 41.7338 273.548 41.2048 275.169 40.1469C276.79 39.0889 278.157 37.502 279.27 35.3861C280.383 33.2702 281.187 30.6254 281.681 27.4516C282.382 23.0137 282.128 19.5651 280.919 17.1057C279.724 14.6463 277.635 13.4166 274.654 13.4166H273.891L274.695 8.82077H275.602C278.638 8.82077 281.084 9.56957 282.939 11.0672C284.807 12.551 286.071 14.7082 286.731 17.5385C287.39 20.3551 287.425 23.7694 286.834 27.7813C286.339 31.12 285.57 33.971 284.526 36.3342C283.495 38.6836 282.217 40.6003 280.692 42.0841C279.167 43.5543 277.422 44.6259 275.457 45.2992C273.493 45.9862 271.342 46.3296 269.007 46.3296H268.079Z"
       fill="#43AE68"
       id="path42" />
    <path
       d="M254.818 46.6182L261.537 8.53223H266.565L259.847 46.6182H254.818ZM246.533 46.6182L247.357 41.9399H256.055L255.23 46.6182H246.533ZM252.407 13.2105L253.252 8.53223H261.949L261.104 13.2105H252.407Z"
       fill="#FD4E00"
       id="path43" />
    <path
       d="M236.714 42.2078L236.425 31.9031L234.673 32.6039L234.364 20.3619L238.548 20.1559L238.919 37.4883H239.29C240.32 35.3449 241.151 32.858 241.783 30.0277C242.429 27.1836 242.78 23.9617 242.835 20.3619H247.946C247.849 25.0609 247.142 29.2308 245.823 32.8718C244.504 36.499 242.711 39.611 240.444 42.2078H236.714ZM236.858 27.9049L237.476 34.4793H235.498L236.343 33.8198L231.973 42.2078H227.481L225.564 20.3619L230.737 20.1559L231.582 37.4883H231.953L236.858 27.9049Z"
       fill="#FD4E00"
       id="path44" />
    <path
       d="M217.723 46.1235L207.666 9.02686H212.426L222.484 46.1235H217.723Z"
       fill="#FD4E00"
       id="path45" />
    <path
       d="M193.271 47.7104C189.561 47.7104 186.813 46.7487 185.027 44.8251C183.255 42.9154 182.369 39.8652 182.369 35.6746C182.369 32.3771 182.739 29.327 183.481 26.5241C184.237 23.7075 185.288 21.255 186.635 19.1666C187.995 17.0782 189.582 15.4569 191.395 14.3028C193.209 13.135 195.187 12.551 197.331 12.551C202.318 12.551 204.812 15.0997 204.812 20.1971C204.812 20.994 204.668 22.2305 204.379 23.9067C204.104 25.583 203.672 28.0835 203.081 31.4085H198.732C199.062 29.5262 199.323 27.9805 199.515 26.7714C199.708 25.5623 199.852 24.6006 199.948 23.8861C200.044 23.1717 200.113 22.6152 200.154 22.2168C200.209 21.8046 200.264 21.468 200.319 21.2069C200.319 19.5444 200.017 18.4315 199.412 17.8682C198.808 17.2912 197.908 17.0026 196.713 17.0026C195.352 17.0026 194.075 17.4904 192.879 18.4659C191.684 19.4277 190.626 20.7604 189.705 22.4641C188.799 24.1678 188.084 26.1394 187.562 28.3789C187.054 30.6185 186.8 33.0092 186.8 35.551C186.8 38.2164 187.328 40.1675 188.386 41.404C189.458 42.6406 191.1 43.2588 193.312 43.2588C195.071 43.2588 196.493 43.0871 197.578 42.7436L196.939 47.1952C195.909 47.5387 194.686 47.7104 193.271 47.7104ZM193.168 39.4461C191.945 39.4461 190.997 38.9446 190.324 37.9417C189.664 36.9249 189.334 35.5098 189.334 33.6961C189.334 31.0856 189.829 28.7911 190.818 26.8126C191.808 24.8204 193.161 23.2198 194.878 22.0107C196.61 20.7879 198.574 20.0322 200.773 19.7437L200.505 24.2159C199.199 24.2846 198.018 24.7036 196.96 25.473C195.902 26.2287 195.057 27.2386 194.425 28.5026C193.807 29.7666 193.498 31.1887 193.498 32.7687C193.498 33.5794 193.642 34.1908 193.93 34.6029C194.219 35.0151 194.645 35.2212 195.208 35.2212C195.84 35.2212 196.403 34.9877 196.898 34.5205C197.393 34.0396 197.846 33.2427 198.258 32.1298C198.67 31.0169 199.055 29.4987 199.412 27.5752H203.761L201.741 39.0546H197.887L198.526 32.6038L199.701 34.6854H197.434L198.176 33.5725C197.764 35.4411 197.111 36.8906 196.218 37.921C195.339 38.9378 194.322 39.4461 193.168 39.4461Z"
       fill="white"
       id="path46" />
    <path
       d="M163.893 25.3082L171.951 12.9426H177.928L181.617 25.3082H176.588L174.651 16.8584H174.28L169.355 25.3082H163.893Z"
       fill="#FD4E00"
       id="path47" />
    <path
       d="M142.615 46.6182L149.333 8.53223H154.362L147.644 46.6182H142.615ZM147.231 46.6182L148.076 41.9399H156.753L155.928 46.6182H147.231ZM153.126 13.2105L153.95 8.53223H162.647L161.802 13.2105H153.126Z"
       fill="#FD4E00"
       id="path48" />
    <path
       d="M126.242 48.5967V6.55374H131.229V48.5967H126.242Z"
       fill="#43AE68"
       id="path49" />
    <path
       d="M99.44 25.3082L107.498 12.9426H113.475L117.164 25.3082H112.135L110.198 16.8584H109.827L104.901 25.3082H99.44Z"
       fill="#C56CF0"
       id="path50" />
    <path
       d="M76.4099 24.7517L77.2137 20.1147H98.2352L97.4314 24.7517H76.4099ZM74.5963 35.077L75.4001 30.4399H96.4215L95.6178 35.077H74.5963Z"
       fill="#43AE68"
       id="path51" />
    <path
       d="M72.835 38.0035L53.7096 30.0895L54.5752 25.1021L76.5241 17.1881L75.576 22.5466L59.8718 27.5752L59.7893 27.9462L73.7212 33.0367L72.835 38.0035Z"
       fill="#43AE68"
       id="path52" />
    <path
       d="M39.0675 32.3978L39.1705 31.5116C39.2942 30.4124 39.6239 29.4369 40.1598 28.585C40.6956 27.7195 41.3963 26.8951 42.2619 26.1119C43.1413 25.315 44.1442 24.4975 45.2709 23.6594C45.8892 23.206 46.4044 22.7732 46.8166 22.361C47.2425 21.9489 47.5654 21.5229 47.7852 21.0833C48.005 20.6299 48.115 20.1352 48.115 19.5994C48.115 18.83 47.8539 18.2392 47.3318 17.827C46.8235 17.4011 46.1021 17.1881 45.1678 17.1881L46.1159 12.5304C48.4516 12.5304 50.2721 13.0731 51.5773 14.1586C52.8826 15.244 53.5352 16.7485 53.5352 18.672C53.5352 20.307 53.0887 21.7496 52.1956 22.9999C51.3163 24.2502 50.0179 25.5005 48.3004 26.7508C46.9677 27.7263 45.9647 28.6125 45.2915 29.4094C44.6183 30.2063 44.2061 31.0032 44.0549 31.8001L43.9519 32.3978H39.0675ZM37.7897 20.6505L34.9662 16.8378C36.2165 15.5325 37.8447 14.4883 39.8506 13.7052C41.8704 12.922 43.9588 12.5304 46.1159 12.5304L45.1678 17.1881C43.9313 17.1881 42.6466 17.5041 41.3139 18.1361C39.9949 18.7682 38.8202 19.6063 37.7897 20.6505ZM40.6338 42.62C39.672 42.62 38.8477 42.2833 38.1607 41.6101C37.4874 40.9231 37.1508 40.1056 37.1508 39.1576C37.1508 38.1821 37.4874 37.3577 38.1607 36.6845C38.8477 36.0113 39.672 35.6746 40.6338 35.6746C41.5956 35.6746 42.4131 36.0113 43.0863 36.6845C43.7595 37.3577 44.0962 38.1821 44.0962 39.1576C44.0962 40.1056 43.7595 40.9231 43.0863 41.6101C42.4131 42.2833 41.5956 42.62 40.6338 42.62Z"
       fill="#43AE68"
       id="path53" />
    <path
       d="M33.6583 8.82077L32.8546 13.4166H32.0302C29.9967 13.4166 28.1763 13.9456 26.5687 15.0036C24.9749 16.0615 23.6216 17.6484 22.5087 19.7643C21.4095 21.8802 20.6126 24.525 20.118 27.6989C19.4173 32.123 19.6578 35.5716 20.8394 38.0447C22.0209 40.5041 24.0819 41.7338 27.0221 41.7338H27.8465L27.0427 46.3296H26.0535C23.0308 46.3296 20.592 45.574 18.7372 44.0626C16.8824 42.565 15.6321 40.3873 14.9863 37.5295C14.3543 34.6717 14.3406 31.2299 14.9451 27.2042C15.4535 23.893 16.2297 21.0695 17.2739 18.7338C18.3181 16.3981 19.5959 14.5021 21.1073 13.0457C22.6324 11.5893 24.3635 10.5245 26.3008 9.85123C28.2381 9.16426 30.354 8.82077 32.6485 8.82077H33.6583Z"
       fill="#43AE68"
       id="path54" />
  </g>
</svg>
