<?xml version="1.0" encoding="UTF-8" standalone="no"?><!DOCTYPE svg PUBLIC "-//W3C//DTD SVG 1.1//EN" "http://www.w3.org/Graphics/SVG/1.1/DTD/svg11.dtd"><svg width="100%" height="100%" viewBox="0 0 243 236" version="1.1" xmlns="http://www.w3.org/2000/svg" xmlns:xlink="http://www.w3.org/1999/xlink" xml:space="preserve" xmlns:serif="http://www.serif.com/" style="fill-rule:evenodd;clip-rule:evenodd;stroke-linejoin:round;stroke-miterlimit:2;"><rect id="Artboard1" x="0" y="0" width="242.181" height="235.805" style="fill:none;"/><clipPath id="_clip1"><rect id="Artboard11" serif:id="Artboard1" x="0" y="0" width="242.181" height="235.805"/></clipPath><g clip-path="url(#_clip1)"><g><path d="M40.589,81.599c-0.339,-1.885 -0.036,-3.868 0.927,-5.608l5.678,-10.258l-12.876,2.299c-2.469,0.441 -5.006,-0.233 -6.93,-1.842c-1.924,-1.608 -3.038,-3.986 -3.042,-6.493l-0.04,-24.917c-0.007,-4.092 2.91,-7.606 6.934,-8.352l160.625,-26.3c2.469,-0.436 5.004,0.244 6.924,1.855c1.92,1.611 3.03,3.99 3.03,6.497l0,9.401l30.393,-5.297c2.466,-0.428 4.995,0.255 6.91,1.866c1.915,1.611 3.021,3.986 3.021,6.489c0,0 -0.178,52.92 -0.178,55.858c0,2.409 -1.687,4.812 -3.88,5.677c0.379,0.229 0.741,0.489 1.084,0.778c1.909,1.611 3.01,3.982 3.01,6.48l0,21.714c0,3.643 -2.314,6.813 -5.644,7.993l0,7.545c0.945,0.336 1.833,0.84 2.618,1.5c1.917,1.612 3.024,3.99 3.022,6.495l-0.004,8.485c-0.002,4.112 -2.953,7.629 -7.002,8.346l-4.019,0.711c1.587,1.584 2.489,3.741 2.489,6.002l0,8.159c1.186,0.033 2.372,0.315 3.479,0.854c2.915,1.421 4.765,4.38 4.765,7.623l0,11.159c-0,2.624 -1.215,5.1 -3.29,6.706l-10.639,8.235c-1.07,0.829 -60.014,11.616 -60.014,11.616c-2.464,0.424 -4.99,-0.262 -6.902,-1.873c-0.71,-0.599 -1.309,-1.302 -1.781,-2.078l-2.335,0.41c-1.224,0.215 -2.464,0.156 -3.637,-0.155c-0.148,0.207 -0.306,0.407 -0.473,0.601l-3.511,4.068c-1.272,1.474 -3.014,2.466 -4.931,2.808l-30.673,5.472c-2.471,0.441 -5.01,-0.235 -6.934,-1.847c-1.875,-1.57 -2.979,-3.871 -3.034,-6.31l-3.296,0.601l0.159,2.335c0.294,4.323 -2.717,8.172 -6.984,8.927l-12.658,2.239c-2.357,0.417 -4.78,-0.181 -6.672,-1.648c-1.892,-1.466 -3.076,-3.664 -3.261,-6.05l-0.508,-6.572l-0.124,0.033c-0.208,0.553 -0.474,1.086 -0.795,1.588l-8.44,13.197c-1.275,1.993 -3.323,3.363 -5.652,3.779l-18.275,3.267c-3.363,0.601 -6.759,-0.874 -8.614,-3.743c-1.855,-2.869 -1.808,-6.571 0.121,-9.391l1.89,-2.765c-1.018,-0.337 -1.974,-0.867 -2.811,-1.575c-1.912,-1.616 -3.012,-3.995 -3.006,-6.498l0.022,-19.352c0.006,-3.042 1.626,-5.756 4.108,-7.25c-5.405,-9.278 -7.23,-19.014 -6.886,-29.613c0.107,-3.309 2.131,-6.253 5.181,-7.539c1.885,-0.795 3.741,-1.517 5.581,-2.174l-10.665,-26.405l-2.263,0.392c-3.36,0.582 -6.742,-0.905 -8.584,-3.774l-9.957,-15.509c-1.533,-2.387 -1.77,-5.382 -0.633,-7.981c1.137,-2.599 3.498,-4.457 6.292,-4.951l33.586,-5.942Z" style="fill:#fff;"/><g><path d="M74.912,84.139l0.097,0.012l-2.887,35.725l-22.55,3.984l3.744,23.239l-9.948,2.157l-13.404,-33.184l23.276,-4.023l0.611,-11.237l-19.301,3.273l2.274,4.131l-18.387,3.186l-9.957,-15.509l66.431,-11.754Z" style="fill:#0064b8;fill-rule:nonzero;"/><path d="M228.057,86.067l0,4.627l5.644,-0.961l0,8.832l-5.644,0.858l0,3.587l5.644,-0.959l0,9.396l-5.644,0.886l0,16.008l-23.782,4.215l0.021,7.555l29.401,-5.136l-0.005,8.486l-38.592,6.832l-4.296,-2.806l0,-24.414l25.356,-4.415l0,-4.095l-25.356,4.627l0,-9.403l25.356,-4.521l0,-3.621l-25.356,4.593l0,-8.771l25.356,-4.566l0,-4.768l11.896,-2.067Z" style="fill:#0064b8;fill-rule:nonzero;"/><path d="M126.289,104.642l22.661,-3.957l-0.092,7.163l-2.277,7.836l3.717,-0.647l0,40.05l-3.732,4.155l-12.157,2.448l0.013,-13.519l5.339,-0.851l-0.012,-2.592l-9.404,1.74l-0.162,5.518l-2.878,10.881l-8.269,1.471l3.595,-11.407l-0.061,-33.034l14.684,-2.442l2.505,-8.094l-7.535,1.276l-1.35,4.478l-8.369,1.567l3.784,-12.04Z" style="fill:#0064b8;fill-rule:nonzero;"/><path d="M142.144,132.539c0.797,-0.17 1.295,-0.147 1.797,0c2.952,0.861 2.442,4.525 0.55,6.208c-0.562,0.501 -0.935,0.761 -1.853,0.893c-4.944,0.71 -4.29,-6.293 -0.494,-7.101Z" style="fill:#fff;fill-rule:nonzero;"/><path d="M130.641,123.185c0.797,-0.17 1.295,-0.147 1.797,0c2.952,0.861 2.442,4.525 0.55,6.208c-0.562,0.501 -0.935,0.761 -1.853,0.893c-4.944,0.71 -4.29,-6.293 -0.494,-7.101Z" style="fill:#fff;fill-rule:nonzero;"/><path d="M132.689,133.959l1.83,1.3l-2.31,2.519l2.321,1.701l-1.73,2.089l-2.117,-1.897l-1.97,2.517l-1.814,-1.185l2.193,-2.636l-2.203,-1.701l1.721,-1.937l2.059,1.814l2.019,-2.584Z" style="fill:#fff;fill-rule:nonzero;"/><path d="M144.384,120.287l1.778,1.415l-2.307,2.517l2.333,1.662l-1.737,2.014l-2.151,-1.894l-1.947,2.472l-1.779,-1.228l2.189,-2.494l-2.223,-1.661l1.675,-2.046l2.135,1.776l2.035,-2.532Z" style="fill:#fff;fill-rule:nonzero;"/><path d="M64.346,148.044c0.108,0.003 0.243,0.097 0.359,0.157c0.781,1.089 1.482,2.754 2.067,4.01c3.348,7.194 3.858,13.502 3.897,21.254c-11.326,4.782 -21.777,6.732 -33.878,7.774c-0.175,-0.069 -0.384,-0.17 -0.484,-0.341c-4.604,-7.869 -6.071,-16.147 -5.779,-25.14c11.391,-4.803 21.664,-6.711 33.818,-7.714Z" style="fill:#f74300;fill-rule:nonzero;"/><path d="M44.117,158.835c1.673,0.255 4.095,0.94 5.788,1.377l9.39,2.445l-5.584,4.701c-2.084,1.773 -4.179,3.533 -6.286,5.277c-1.228,-4.494 -2.113,-9.282 -3.308,-13.8Z" style="fill:#fff;fill-rule:nonzero;"/><path d="M107.873,20.72l0,17.293l23.823,0.735l0,13.22l-23.823,-0.873l0,18.63l-14.225,3.003l0,-49.073l14.225,-2.936Z" style="fill:#f74300;fill-rule:nonzero;"/><path d="M166.523,168.402l15.574,-2.712l0,2.665l5.648,-0.994l0,17.827l2.878,1.127l0,13.557l-8.528,-3.705l0,5.673l-15.588,2.68l0,-5.476l-11.048,1.941l0,-13.65l16.015,-2.736l0,-5.364l-16.015,2.807l0,-8.966l11.064,-1.928l0,-2.746Z" style="fill:#212121;fill-rule:nonzero;"/><path d="M33.31,192.365l34.919,-6.009l0,9.006l-5.779,0.952l0,3.171l5.779,-0.873l0,7.027l-5.779,1.062l0,4.158l-8.44,13.197l-18.275,3.267l9.382,-13.724l0,-3.907l-11.829,2.028l0.018,-7.119l11.811,-1.949l0,-3.345l-11.826,2.133l0.019,-9.077Z" style="fill:#212121;fill-rule:nonzero;"/><path d="M101.47,90.727l0,26.854l10.237,-1.767l0,7.464l-10.237,1.792l0,31.902l-11,1.87l0,-31.733l-10.3,1.702l0,-7.434l10.3,-1.675l0,-27.022l11,-1.954Z" style="fill:#0064b8;fill-rule:nonzero;"/><path d="M150.572,30.713l42.767,-7.415l0,11.643l-12.532,22.285l-15.828,2.875l12.63,-22.723l-27.038,4.876l0,-11.541Z" style="fill:#f74300;fill-rule:nonzero;"/><path d="M132.68,174.585l13.715,-2.313l0,31.971l-3.511,4.068l-30.673,5.472l0,-15.991l20.469,-3.594l0,-19.613Z" style="fill:#212121;fill-rule:nonzero;"/><path d="M62.516,29.564l14.694,-2.667l0,28.656l-12.088,21.801l-16.186,2.744l13.58,-24.534l0,-26.001Z" style="fill:#f74300;fill-rule:nonzero;"/><path d="M162.005,126.993l13.76,-2.349l0,2.037l5.359,-1.005l0,7.455l-5.359,0.935l0,4.858l5.359,-0.971l0,10.778l-5.359,0.946l0,4.374l-13.76,2.382l0,-4.371l-9.748,1.718l0,-10.686l9.748,-1.661l0,-4.893l-9.748,1.685l0,-9.555l7.192,-1.241l0,2.255l2.556,-0.5l0,-2.191Z" style="fill:#0064b8;fill-rule:nonzero;"/><path d="M204.562,25.993l29.101,-5.052l0,27.009l-7.358,1.296l0,-19.566l-4.901,0.769l0,19.429l-16.843,3.288l0,-27.174Z" style="fill:#212121;fill-rule:nonzero;"/><path d="M212.208,32.103l2.753,-0.484l0,12.312l-2.753,0.615l0,-12.443Z" style="fill:#fff;fill-rule:nonzero;"/><path d="M60.825,125.045l15.991,-2.861l-1.674,42.664l37.508,-6.617l0.004,7.531l-39.992,7.04c0.876,-8.825 -2.163,-18.972 -6.653,-26.536l0.854,-14.844l-6.128,1.034l0.089,-7.41Z" style="fill:#0064b8;fill-rule:nonzero;"/><path d="M225.162,158.526l0,23.085l8.244,-6.448l0,11.159l-10.639,8.235l-12.291,2.264l0,-35.8l14.686,-2.493Z" style="fill:#212121;fill-rule:nonzero;"/><path d="M181.124,94.958l0,22.322l-3.969,4.679l-11.402,2.024l0,-12.126l4.366,-0.608l0,-7.076l-4.366,0.74l-5.476,20.07l-7.764,1.379l5.274,-20.083l-5.239,0.951l0,-7.218l28.576,-5.052Z" style="fill:#0064b8;fill-rule:nonzero;"/><path d="M89.85,187.932l0.646,6.724l11.233,-2.052l4.745,-0.88l-3.185,13.713l-8.379,1.527l1.139,-5.664l-4.96,0.84l1.045,15.348l-12.658,2.239l-1.185,-15.333l-2.985,0.52l0,-7.669l2.443,-0.452l-0.519,-6.779l12.619,-2.083Z" style="fill:#212121;fill-rule:nonzero;"/><path d="M150.572,16.025l42.767,-7.545l0,9.401l-42.767,7.543l0,-9.4Z" style="fill:#f74300;fill-rule:nonzero;"/><path d="M32.788,34.767l13.661,-2.534l-0.132,25.042l-13.489,2.409l-0.04,-24.917Z" style="fill:#f74300;fill-rule:nonzero;"/><path d="M198.771,163.149l7.807,-1.382l-0.025,35.677l-7.782,1.366l0,-35.661Z" style="fill:#212121;fill-rule:nonzero;"/><path d="M160.547,69.109l3.579,2.617l0,11.845l-3.579,3.892l-11.863,2.199l0,-18.582l11.863,-1.971Z" style="fill:#212121;fill-rule:nonzero;"/><path d="M154.32,74.858l4.179,-0.69l0.066,8.316l-4.245,0.698l0,-8.324Z" style="fill:#fff;fill-rule:nonzero;"/><path d="M178.696,65.965l3.59,2.578l0,11.867l-3.59,3.783l-11.704,2.292l0.049,-18.608l11.654,-1.911Z" style="fill:#212121;fill-rule:nonzero;"/><path d="M172.415,71.708l4.197,-0.651l0,8.309l-4.197,0.745l0,-8.404Z" style="fill:#fff;fill-rule:nonzero;"/><path d="M217.808,58.961l15.762,-2.825l0,12.756l-2.693,0.524l4.098,5.17l-6.615,1.15l-5.058,-5.215l0,6.087l-5.494,1.078l0,-18.725Z" style="fill:#212121;fill-rule:nonzero;"/><path d="M223.302,62.545l4.554,-0.855l0,2.651l-4.554,0.783l0,-2.578Z" style="fill:#fff;fill-rule:nonzero;"/><path d="M119.425,76.231l15.501,-2.572l0,12.719l-2.706,0.409l4.232,5.294l-6.605,1l-4.834,-5.239l0,6.186l-5.588,0.909l0,-18.707Z" style="fill:#212121;fill-rule:nonzero;"/><path d="M129.248,79.181l0,2.577l-4.234,0.707l0,-2.689l4.234,-0.595Z" style="fill:#fff;fill-rule:nonzero;"/><path d="M201.173,61.84l13.748,-2.391l0,4.599l-8.187,1.425l0,2.421l5.471,-0.98l-0.054,4.015l-5.417,0.936l0,2.646l8.187,-1.4l0,4.817l-13.767,2.584l0.019,-18.673Z" style="fill:#212121;fill-rule:nonzero;"/><path d="M112.211,178.916l16.554,-2.857l0,9.612l-16.554,3.068l0,-9.822Z" style="fill:#212121;fill-rule:nonzero;"/><path d="M103.596,127.14l6.944,-1.035l2.457,19.521l-8.788,1.665l-0.613,-20.151Z" style="fill:#0064b8;fill-rule:nonzero;"/><path d="M104.169,94.247l8.485,-1.392l-2.123,20.425l-6.909,1.343l0.547,-20.377Z" style="fill:#0064b8;fill-rule:nonzero;"/><path d="M79.934,98.551l8.572,-1.426l0.428,20.009l-6.349,1.047l-2.651,-19.63Z" style="fill:#0064b8;fill-rule:nonzero;"/><path d="M185.164,64.851l5.393,-0.914l0,13.264l8.1,-1.406l0,5.189l-13.493,2.227l0,-18.36Z" style="fill:#212121;fill-rule:nonzero;"/><path d="M88.765,129.726l-0.442,20.387l-7.431,1.306l1.945,-20.551l5.928,-1.142Z" style="fill:#0064b8;fill-rule:nonzero;"/><path d="M114.148,22.341l5.981,-3.585l6.237,3.603l0,7.172l-6.183,3.427l-6.123,-3.478l0.087,-7.138Z" style="fill:#f74300;fill-rule:nonzero;"/><path d="M126.367,22.348l0,7.182l-6.183,3.427l0.03,-7.101l6.153,-3.508Z" style="fill:#212121;fill-rule:nonzero;"/><path d="M135.186,16.311l6.18,3.553l0,7.169l-6.268,3.418l-5.987,-3.357l0.032,-7.236l6.043,-3.547Z" style="fill:#0064b8;fill-rule:nonzero;"/><path d="M141.366,19.864l0,7.169l-6.268,3.418l0.033,-7.07l6.236,-3.518Z" style="fill:#212121;fill-rule:nonzero;"/><path d="M139.368,72.71l5.365,-0.747l0,18.493l-5.298,0.88l-0.067,-18.626Z" style="fill:#212121;fill-rule:nonzero;"/></g></g></g></svg>