<svg width="130" height="100" viewBox="0 0 130 100" fill="none" xmlns="http://www.w3.org/2000/svg">
<g clip-path="url(#clip0_140_437)">
<path d="M58.4719 0.00537717C53.0009 0.08898 47.2411 1.13554 41.558 3.15336L41.5568 3.15397C31.3388 6.78482 20.2944 12.3877 11.8629 20.2607L11.8611 20.2625C1.88617 29.5837 -0.977019 37.8983 0.276485 44.4862L0.278929 44.4999C1.78287 52.3064 7.30422 57.6053 12.4714 61.7094C14.3147 63.1734 16.1394 64.4841 17.883 65.7094C17.3451 66.0566 16.8181 66.3818 16.2684 66.7598C12.3183 69.476 8.02504 72.6398 5.64997 77.9079C3.45708 82.762 3.45885 87.6462 4.8564 91.3937C6.25453 95.1427 8.32605 98.0007 12.5598 99.1771L12.564 99.1777C23.0559 102.085 33.4387 96.9724 38.9725 88.7198C39.3926 88.0934 39.7035 87.4435 40.0527 86.8013C42.7219 89.2434 46.1444 89.3133 46.9834 89.3133C49.5735 89.3133 52.1098 88.0272 53.7529 86.5636C55.0045 87.25 56.4056 87.7107 57.8055 87.7107C61.3089 87.7107 63.1693 86.0027 64.4484 84.8027C64.5984 84.662 64.6841 84.5387 64.8216 84.4003C67.9739 86.742 70.0544 86.1227 71.6221 86.0346L71.7152 86.0286C74.5159 85.8284 76.5733 85.1621 77.8978 84.592C79.4119 84.0308 81.1506 83.2219 82.9117 81.9181C83.1896 81.7129 83.4508 81.4741 83.7166 81.2446C84.464 81.6456 85.2145 81.9601 85.9218 82.1074C89.7733 82.9224 91.3552 81.6847 92.7145 81.0983L92.1616 81.3061C93.9731 80.7244 95.9195 79.8046 97.8539 78.3927L97.8783 78.3748C100.734 76.2685 104.632 72.3766 104.692 66.6218C105.761 66.5652 106.915 66.5674 108.274 66.7263C108.274 66.7264 108.274 66.7263 108.274 66.7263C113.281 67.3159 114.411 69.1701 114.651 69.9872C114.58 70.0522 114.465 70.1638 114.279 70.2822C113.926 70.5065 113.576 70.5994 112.597 71.5403C111.623 72.4758 110.361 75.7668 110.689 77.5233C110.847 78.352 111.218 79.5069 112.139 80.5895C113.083 81.6991 114.505 82.4283 115.521 82.6824C117.553 83.1907 118.185 82.8328 118.576 82.7768L118.788 82.7427C120.396 82.4548 120.805 82.1543 121.75 81.6566C122.695 81.1588 123.749 80.4783 124.82 79.5105C126.955 77.5811 129.175 74.201 129.355 69.9281C129.862 59.5639 120.188 50.3798 106.963 50.4574C106.963 50.4574 106.963 50.4574 106.96 50.4574C106.96 50.4574 106.957 50.4574 106.957 50.4574V50.458C104.448 50.4714 102.078 50.7843 99.8696 51.3178C99.7951 50.8044 99.7677 50.426 99.8607 49.7128V49.7116C100.15 47.5047 101.542 46.0328 101.272 43.335C101.133 41.9442 100.306 39.8387 98.5441 38.4488C96.7802 37.0577 94.6791 36.6068 92.635 36.5882H92.6332C91.0342 36.5736 89.5687 36.6986 88.0969 37.039C87.3607 37.2093 86.6284 37.411 85.7031 37.8762C84.7778 38.3413 83.2473 38.9544 82.2428 41.5998C82.2419 41.6019 82.2413 41.6053 82.2404 41.6075C80.7981 40.6306 79.1776 40.2031 77.5506 40.0998C78.8122 38.7435 79.9691 37.3015 80.9984 35.7857C85.0042 29.886 87.2596 22.6124 85.417 15.3668C83.3822 7.28796 75.9121 2.60312 67.927 0.893341C64.9314 0.251927 61.7525 -0.0447204 58.4699 0.00544247L58.4719 0.00537717ZM64.7195 84.3316C64.7253 84.336 64.7303 84.3385 64.7362 84.3429C64.7399 84.3457 64.7438 84.3502 64.7475 84.3531L64.7195 84.3316Z" fill="#F3F3F3"/>
<path d="M106.996 56.5715C102.911 56.5926 99.3604 57.5757 96.3879 59.0289C95.2968 56.8703 94.2061 54.9473 94.0139 53.5367C93.7997 51.8914 93.5433 50.8869 93.7997 48.9208C94.0565 46.9547 95.2114 44.155 95.1899 43.9414C95.1688 43.7278 94.9331 42.7233 92.5806 42.7022C90.2282 42.6806 88.1963 43.1509 87.961 43.7705C87.7257 44.3901 87.2767 45.8007 86.9772 47.2535C86.5708 49.391 82.2723 57.0197 79.813 61.0161C79.0214 59.4565 78.3371 58.0885 78.1871 56.9987C77.9733 55.3534 77.7165 54.3488 77.9733 52.3827C78.2302 50.4166 79.3851 47.6174 79.3635 47.4034C79.342 47.1898 79.1067 46.1852 76.7542 46.1641C74.4013 46.1426 72.3695 46.6128 72.1347 47.2324C71.8994 47.8525 71.6425 49.3053 71.1508 50.7159C70.6587 52.1265 64.9484 64.8634 63.4514 68.154C62.8464 69.4859 62.2118 70.8041 61.548 72.1077C61.548 72.1077 61.5264 72.1719 61.4622 72.2786C61.2537 72.6874 61.0399 73.0935 60.821 73.4968V73.5179C60.4999 74.0953 60.1578 74.6292 59.9867 74.6292C59.8583 74.6292 59.623 73.0908 60.0294 70.9963C60.8847 66.5729 62.9166 59.6916 62.8955 59.4565C62.8955 59.3282 63.2803 58.1316 61.5695 57.5115C59.9009 56.8919 59.3024 57.9176 59.1524 57.9176C59.0029 57.9176 58.8956 58.281 58.8956 58.281C58.8956 58.281 60.7568 50.545 55.3456 50.545C51.9667 50.545 47.3039 54.242 44.9942 57.5757C42.3684 59.0034 39.7449 60.4353 37.1236 61.8712C35.8623 62.5766 34.5575 63.2819 33.3384 63.9441C33.2526 63.8589 33.1673 63.7516 33.0815 63.6664C26.5369 56.6783 14.4321 51.7416 14.9453 42.3603C15.138 38.941 16.314 29.9653 38.1932 19.0666C56.201 10.1977 70.5307 12.6551 73.0116 18.1046C76.5616 25.8837 65.3337 40.3301 46.7265 42.424C39.6261 43.215 35.9045 40.4795 34.9638 39.4538C33.98 38.3851 33.83 38.3209 33.4663 38.5349C32.8678 38.8557 33.2526 39.8172 33.4663 40.3727C34.0227 41.8255 36.3109 44.3901 40.1819 45.6513C43.604 46.7622 51.9235 47.3823 61.997 43.4927C73.268 39.133 82.0797 27.0162 79.4919 16.8654C76.9037 6.56481 59.7941 3.16701 43.604 8.91539C33.98 12.3352 23.5428 17.7201 16.036 24.7297C7.11748 33.0638 5.70574 40.3085 6.28319 43.3433C8.35815 54.1137 23.2222 61.1233 29.1678 66.3162C28.8683 66.4872 28.5899 66.637 28.3551 66.7654C25.3821 68.2397 14.0468 74.159 11.2238 80.4207C8.01598 87.5155 11.7375 92.6021 14.1968 93.2854C21.8321 95.4014 29.681 91.5976 33.8942 85.3144C38.1075 79.0316 37.5942 70.868 35.6481 67.1283C35.6266 67.0857 35.6055 67.0426 35.5624 67C36.3325 66.5513 37.1236 66.0811 37.8937 65.6325C39.3091 64.7964 40.7424 63.9912 42.1927 63.2172C41.4653 65.2049 40.9305 67.577 40.6741 70.9963C40.353 75.0142 41.9996 80.2282 44.1599 82.2795C45.1226 83.1778 46.2559 83.1989 46.9834 83.1989C49.5069 83.1989 50.6407 81.1045 51.9024 78.6255C53.4421 75.5912 54.8323 72.0651 54.8323 72.0651C54.8323 72.0651 53.1 81.5962 57.8053 81.5962C59.5161 81.5962 61.2485 79.3735 62.0185 78.241V78.2621C62.0185 78.2621 62.0612 78.198 62.147 78.0486C62.318 77.7708 62.4249 77.5994 62.4249 77.5994V77.5573C63.1092 76.3602 64.6494 73.6462 66.9376 69.137C69.8891 63.3245 72.7337 56.0587 72.7337 56.0587C72.7337 56.0587 72.9905 57.8323 73.867 60.7814C74.3807 62.5124 75.4493 64.4143 76.3052 66.2521C75.6209 67.2141 75.193 67.748 75.193 67.748L75.2145 67.7695C74.6582 68.4959 74.0596 69.2865 73.3964 70.0564C71.0651 72.8341 68.2851 76.0188 67.8999 76.9372C67.4504 78.027 67.5577 78.8181 68.4136 79.4592C69.0337 79.9294 70.1455 79.9931 71.2793 79.9294C73.3753 79.7796 74.8508 79.2667 75.5778 78.9464C76.7116 78.5403 78.0375 77.9203 79.2777 77.0014C81.5664 75.313 82.9562 72.8983 82.8282 69.7145C82.764 67.962 82.1865 66.2095 81.4807 64.5638C81.6949 64.2649 81.887 63.9657 82.1012 63.6664C85.7154 58.3878 88.5174 52.5963 88.5174 52.5963C88.5174 52.5963 88.7742 54.3699 89.6507 57.3195C90.0786 58.8154 90.9556 60.4396 91.7252 62.0207C88.3247 64.7778 86.2287 67.9831 85.4802 70.0775C84.1331 73.967 85.1806 75.7191 87.1698 76.1251C88.0679 76.3176 89.3512 75.89 90.2924 75.484C91.4899 75.0995 92.9016 74.4372 94.2492 73.4537C96.5379 71.7658 98.7403 69.4148 98.6119 66.231C98.5477 64.7778 98.1629 63.3456 97.6281 61.9565C100.515 60.7604 104.237 60.0977 108.984 60.6531C119.165 61.8497 121.175 68.1966 120.79 70.8685C120.405 73.5394 118.267 74.9927 117.561 75.4414C116.855 75.8905 116.62 76.0399 116.684 76.3602C116.77 76.8304 117.112 76.8094 117.711 76.7237C118.545 76.5743 123.058 74.5651 123.25 69.6499C123.571 63.3671 117.582 56.5074 106.996 56.5715ZM28.4619 83.0279C25.0826 86.7034 20.3777 88.0925 18.3458 86.9175C16.1645 85.6562 17.0199 80.2282 21.1689 76.3391C23.6924 73.967 26.9433 71.7653 29.1036 70.4193C29.5953 70.1201 30.3227 69.6929 31.1996 69.1586C31.3492 69.0729 31.4349 69.0302 31.4349 69.0302L31.9482 68.7094C33.4663 74.2658 32.0124 79.1599 28.4619 83.0279ZM53.0573 66.3162C51.8809 69.1801 49.4216 76.5101 47.9245 76.104C46.6412 75.7621 45.8496 70.2058 47.6677 64.7136C48.5873 61.9565 50.5334 58.6655 51.6671 57.3836C53.5064 55.3318 55.5382 54.6476 56.0299 55.4817C56.6504 56.5715 53.7843 64.5211 53.0573 66.3162ZM73.3538 76.0183C72.8616 76.275 72.3915 76.4459 72.1773 76.3176C72.0278 76.2319 72.3915 75.89 72.3915 75.89C72.3915 75.89 74.9366 73.1549 75.9415 71.9152C76.5194 71.1888 77.2032 70.3341 77.9307 69.3721V69.6499C77.9307 72.9198 74.765 75.121 73.3533 76.0183H73.3538ZM89.0091 72.4496C88.6453 72.1929 88.7095 71.3382 89.9286 68.6668C90.3992 67.6196 91.511 65.8676 93.4149 64.1792C93.6286 64.863 93.7786 65.5257 93.757 66.1453C93.7355 70.2699 90.7845 71.8084 89.0091 72.4496Z" fill="#CD6799"/>
</g>
<defs>
<clipPath id="clip0_140_437">
<rect width="130" height="100" fill="white"/>
</clipPath>
</defs>
</svg>
