<?xml version="1.0" encoding="UTF-8" standalone="no"?>
<svg
   width="292.25504"
   height="527.55969"
   viewBox="0 0 292.25504 527.55969"
   fill="none"
   version="1.1"
   id="svg3"
   sodipodi:docname="Combined Shape.svg"
   inkscape:version="1.4 (86a8ad7, 2024-10-11)"
   xmlns:inkscape="http://www.inkscape.org/namespaces/inkscape"
   xmlns:sodipodi="http://sodipodi.sourceforge.net/DTD/sodipodi-0.dtd"
   xmlns:xlink="http://www.w3.org/1999/xlink"
   xmlns="http://www.w3.org/2000/svg"
   xmlns:svg="http://www.w3.org/2000/svg">
  <sodipodi:namedview
     id="namedview3"
     pagecolor="#ffffff"
     bordercolor="#000000"
     borderopacity="0.25"
     inkscape:showpageshadow="2"
     inkscape:pageopacity="0.0"
     inkscape:pagecheckerboard="0"
     inkscape:deskcolor="#d1d1d1"
     inkscape:zoom="1"
     inkscape:cx="-168.5"
     inkscape:cy="246.5"
     inkscape:window-width="2194"
     inkscape:window-height="1166"
     inkscape:window-x="-8"
     inkscape:window-y="-8"
     inkscape:window-maximized="1"
     inkscape:current-layer="svg3" />
  <path
     style="clip-rule:evenodd;fill:url(#linearGradient6);fill-rule:evenodd;stroke-linecap:square;stroke-linejoin:round;paint-order:markers stroke fill"
     d="m 176.51667,0.449075 c -15.32069,-2.9435631 -29.56598,8.708444 -29.71875,24.308594 -13.84631,4.45564 -20.98112,19.744629 -15.50196,33.21875 l 2.00782,4.605469 c 1.22062,2.364755 2.81094,4.519475 4.71093,6.382812 -1.50114,1.244282 -3.06066,2.597651 -4.50585,3.769532 -10.6961,8.675604 -12.3623,24.367391 -3.72657,35.095708 l 0.5,0.62304 c 4.67057,5.73702 11.64198,9.11115 19.03906,9.21484 -0.35213,17.24431 -0.73,18.2929 -1.16603,25.0451 -13.35761,11.87951 -9.01764,30.98099 1.8125,40.29297 -27.96464,2.01891 -31.35747,27.00753 -21.3244,40.23045 -2.15212,4.34773 -2.99293,9.22765 -2.41992,14.04492 l -1.44922,-0.42578 c -9.99103,-2.58063 -20.54111,1.24172 -26.560549,9.62305 -2.452435,-0.58054 -4.944599,-1.02873 -7.488281,-1.32617 -1.281975,0.11276 -2.553332,0.32432 -3.802735,0.63281 -0.08875,-0.0452 -0.183148,-0.11232 -0.271484,-0.15625 -9.59523,-4.77201 -18.905752,-6.12722 -28.419922,-5.79688 -13.460686,0.46955 -24.130336,11.51746 -24.130859,24.98633 v 1.0586 c 0.154584,2.3 0.626502,4.56757 1.402344,6.73828 -3.233214,1.98082 -5.973553,4.67106 -8.013672,7.86719 l -0.396485,0.6621 c -5.923178,9.92412 -4.272565,22.61462 3.992188,30.69336 3.092366,3.02248 5.436667,6.25872 6.230469,7.48633 0.543038,0.84015 1.131852,1.76663 1.691406,2.66016 -7.45087,4.39904 -12.097663,12.33774 -12.285156,20.98828 v 0.79492 c 0.04009,7.64866 3.579021,14.8582 9.605468,19.56836 0.06522,1.02549 0.144532,1.21233 0.144532,2.81641 0,9.19972 0.144851,17.46232 7.013671,27.09765 0.819693,1.14984 1.759803,2.19247 2.763672,3.16211 -0.913521,7.32686 -3.018417,16.60251 -5.222656,23.33594 -2.62025,-0.0528 -8.368317,-0.12968 -13.970703,-0.5918 -19.1525453,-1.578 -32.8510237,18.14174 -24.6875,35.53907 l 2.2675781,4.83007 c 4.7405784,10.09737 15.4197999,13.71163 26.6093749,14.0586 4.016711,-0.12153 7.670049,-0.48633 11.507813,-0.48633 -3.689747,2.0499 -7.535697,3.99905 -11.648438,5.71094 -9.319777,3.88029 -15.39161,12.98463 -15.392378,23.07992 v 0.67187 c 0.0019,14.95795 13.049518,26.56727 27.90625,24.83008 16.183638,-1.89482 33.942324,-7.25439 50.027344,-18.48242 4.116154,-2.87325 8.098668,-6.22234 11.833988,-9.98828 12.12566,10.1392 25.87209,17.2274 39.46289,23.07617 10.85983,4.23063 23.20227,0.39681 29.7539,-9.24219 7.98662,-4.22509 13.07233,-12.43048 13.30274,-21.46289 v -0.66992 c -0.22409,-11.2159 -7.89118,-20.90956 -18.75391,-23.71094 5.30556,-4.96918 9.89649,-13.70226 9.89649,-20.28906 0,-6.38892 -3.04627,-13.14394 -5.75,-16.58985 -2.4139,-3.07651 -3.9887,-4.19987 -4.57422,-4.6289 l -2.98047,-2.5625 c 1.14344,-2.80069 1.96875,-5.57315 1.96875,-8.01172 0,-6.20233 -1.72543,-10.30981 -3.49609,-13.22852 0.84301,-0.46663 1.66657,-0.96519 2.47461,-1.48633 3.63951,2.06591 8.12246,3.45777 13.65039,3.62696 4.2935,2.97197 9.40977,4.52508 14.63086,4.4414 13.08018,-0.76179 25.53171,-4.90725 34.63085,-13.61328 9.09915,-8.70602 13.04493,-20.92758 13.04493,-31.09179 0,-12.79952 -6.40895,-24.34627 -15.74805,-32.47852 3.70806,-5.03848 7.33606,-10.64355 10.875,-16.86719 1.01458,-0.62262 2.09076,-1.31145 3.44141,-2.34961 6.4449,-4.95377 10.32226,-16.94828 10.32226,-21.26562 0,-4.71046 -3.65822,-14.16387 -6.28711,-17.37695 -1.59571,-1.79791 -9.89645,-10.87637 -17.66211,-14.17188 -3.2264,-1.36919 -8.1249,-2.11328 -10.39843,-2.11328 -1.20017,0 -2.00526,0.0885 -2.91407,0.1543 -0.51985,-0.45854 -1.02529,-0.88827 -1.51367,-1.27539 0.96717,-3.03731 1.32813,-5.43238 1.32813,-8.57422 0,-2.96991 -0.49395,-5.81381 -1.26954,-8.51953 1.38329,-2.03306 2.52304,-4.0425 3.27149,-6.19727 6.66589,1.10942 13.24098,-0.0539 19.27344,-3.03711 7.42389,-3.84083 15.625,-16.23284 15.625,-26.05469 -0.0326,-5.34624 -0.37274,-10.68374 -0.56443,-16.02548 13.95727,-4.38842 18.89649,-20.17463 18.89649,-24.97461 0,-3.08626 -0.8202,-6.46023 -1.98438,-9.51172 5.35236,-4.25273 10.33977,-9.84115 13.5586,-16.73437 3.4075,-7.26391 3.583,-11.19886 4.37109,-16.51758 0.79043,-5.33453 1.35547,-11.18764 1.80859,-17.47265 0.90625,-12.570016 1.31836,-26.738638 1.31836,-39.136721 0,-1.64765 -0.0849,-2.346664 -0.0976,-3.787109 2.13372,-3.145574 3.86328,-7.76145 3.86328,-15.13086 0,-13.539661 -15.91648,-33.337928 -34.91408,-33.337928 -8.84699,0 -12.32701,4.629457 -14.99024,4.757812 -1.34183,0.06466 -26.53851,-0.301091 -33.98667,-0.419963 C 204.25115,8.9957194 197.84664,5.2206893 191.34256,3.7867968 Z M 75.71979,247.22251 l 0.421875,0.37305 0.01172,0.0273 c -0.142951,-0.13516 -0.287492,-0.26864 -0.433594,-0.40039 z m 0.697266,0.61719 0.0098,0.008 0.06836,0.0664 -0.0039,0.004 c -0.01283,-0.0118 -0.0618,-0.0668 -0.07422,-0.0781 z"
     id="path3"
     sodipodi:nodetypes="cccccccccccccccccccsccccccccccssccccscccsscsccccccssccsccccssccsssssccsccsscsccssscssscccccccccccccc" />
  <path
     style="clip-rule:evenodd;fill:#ffffff;fill-rule:evenodd;stroke-linecap:square;stroke-linejoin:round;paint-order:markers stroke fill;filter:url(#filter0_d_217_1576)"
     d="m 171.526,116.003 c 0,3.609 -1.506,6.845 -6.902,6.845 -4.138,0 -4.262,-1.991 -4.266,-3.36 v -0.136 c 0.002,-0.131 0.028,-0.56 0.068,-1.21 0.048,-0.776 0.116,-1.866 0.183,-3.135 0.684,-10.666 0.711,-20.6144 0.748,-34.7893 v -0.0012 -10e-4 -0.001 -9e-4 -9e-4 -8e-4 c 0.011,-4.0172 0.023,-8.3738 0.05,-13.1824 -4.506,3.8312 -12.031,6.8764 -20.55,10.3243 -1.444,0.5842 -2.916,1.1799 -4.407,1.793 l -0.501,-0.6223 c 17.19,-13.939 38.839,-33.2126 41.976,-40.431 h -21.331 c -7.78,0 -10.415,0.2489 -13.678,0.8712 l -2.007,-4.6049 c 7.654,0.6223 16.563,0.7468 17.943,0.7468 h 2.259 c -0.126,-8.0897 -0.377,-16.3037 -3.388,-23.8955 l 14.932,3.3603 c 1.129,0.2489 1.882,1.1201 1.882,1.9913 0,0.8622 -0.753,1.5378 -2.829,3.4008 -0.321,0.2883 -0.674,0.6049 -1.061,0.9551 -0.235,2.8052 -0.25,3.9639 -0.355,12.4452 v 0.001 8e-4 7e-4 l -0.021,1.7403 h 6.901 l 4.015,-3.2359 c 0.628,-0.4978 1.255,-0.9956 1.883,-0.9956 0.627,0 1.505,0.6222 2.007,1.1201 l 7.404,6.2228 c 0.627,0.4978 0.878,1.369 0.878,1.9913 0,1.369 -0.753,1.8668 -5.145,3.2358 -3.448,5.5053 -7.009,8.808 -11.135,12.6358 -2.031,1.8834 -4.199,3.8939 -6.557,6.3565 v 9.1701 c 1.589,0.616 1.754,0.5974 1.974,0.5725 0.046,-0.0052 0.095,-0.0107 0.159,-0.0107 0.097,-0.2575 1.038,-1.0452 2.393,-2.1793 v -10e-5 c 3.884,-3.2513 11.169,-9.3492 11.727,-13.9627 l 6.792,4.4966 0.088,0.0575 c 0.731,0.4826 1.544,1.0183 1.544,1.8561 0,1.369 -0.334,1.7491 -2.718,2.3714 -3.492,3.0303 -9.149,5.3633 -13.029,6.9636 -1.698,0.7001 -3.055,1.2599 -3.743,1.6766 0.68,0.3699 1.607,0.8074 2.674,1.311 v 10e-5 c 5.034,2.3766 13.181,6.2227 13.181,11.3576 0,4.8537 -3.129,6.8608 -5.011,6.8608 -3.262,0 -6.746,-1.4834 -8.879,-7.2084 -2.76,-7.3429 -5.646,-10.8276 -7.152,-12.3211 0.062,1.9601 0.123,5.8172 0.185,9.6742 0.064,3.9796 0.128,7.9593 0.191,9.8553 0,1.8539 0.166,7.0245 0.327,12.0535 0.152,4.762 0.301,9.397 0.301,10.971 z m 46.157,-45.9961 c -1.281,9.7695 -6.504,27.8212 -23.501,40.2491 v 15.814 h 14.825 l 3.333,-3.951 c 0.83,-0.997 0.875,-1.051 1.249,-1.053 l 0.086,-0.001 c 0.339,0.004 0.528,0.103 1.648,0.878 l 5.614,3.951 c 0.526,0.351 0.965,0.702 0.965,1.405 0,0.79 -0.702,0.878 -1.316,0.878 h -50.965 c -5.351,0 -7.281,0.263 -9.474,0.614 l -1.403,-3.248 c 4.122,0.439 8.245,0.527 12.456,0.527 h 15.438 v -11.123 c -2.823,1.481 -5.894,2.817 -9.234,3.971 v -0.996 c 29.362,-22.0283 31.119,-42.3146 31.495,-88.2388 h -22.738 c -4.399,0.1282 -6.682,0.5529 -8.325,0.8586 l -0.068,0.0126 -2.008,-4.6049 c 2.521,0.25 17.575,0.4714 27.279,0.6141 3.984,0.0587 7.067,0.104 8.008,0.1326 h 1.731 l 25.611,10e-5 3.639,-3.2359 c 0.16,-0.1272 0.329,-0.2789 0.502,-0.4342 v -10e-5 c 0.502,-0.452 1.039,-0.9347 1.506,-0.9347 0.523,0 1.045,0.4321 1.568,0.8643 0.105,0.0864 0.209,0.1728 0.314,0.2558 l 6.525,5.1027 0.056,0.0465 0.054,0.0437 0.117,0.0952 c 0.67,0.5425 1.279,1.0353 1.279,1.9303 0,1.3691 -2.51,2.8625 -4.141,3.7337 0.251,3.4848 0.376,8.0896 0.376,15.1836 0,23.6466 -1.631,55.0758 -5.144,62.5428 -5.396,11.574 -15.685,12.197 -20.83,12.321 -0.627,-7.716 -5.27,-11.948 -10.289,-16.304 v -0.622 c 6.776,2.738 13.426,3.485 15.434,3.485 4.015,0 5.646,-2.738 7.403,-9.21 0.878,-3.1113 3.137,-20.2276 3.137,-39.8917 0,-9.8231 -0.325,-19.7535 -0.672,-29.6916 l -0.081,-2.2935 h -19.577 c 0,13.3168 -0.251,27.3803 -1.882,40.3237 z m -64.949,80.1851 -0.131,0.021 -1.491,-3.248 c 4.123,0.439 8.333,0.526 12.544,0.526 h 31.93 c 4.123,-9.569 4.386,-16.417 4.473,-19.227 l 8.685,4.478 c 0.701,0.351 1.315,0.966 1.315,1.668 0,0.875 -1.007,1.245 -2.24,1.699 v 0 c -0.128,0.047 -0.259,0.095 -0.391,0.145 -3.509,5.267 -6.93,9.13 -9.035,11.237 h 18.947 l 3.948,-4.214 0.063,-0.064 0.065,-0.066 0.095,-0.097 0.079,-0.081 0.003,-0.003 h 0.001 v 0 c 0.458,-0.471 0.807,-0.83 1.097,-0.83 0.253,0 0.587,0.243 1.468,0.885 l 0.111,0.081 5.965,4.214 c 0.438,0.351 0.877,0.702 0.877,1.404 0,0.791 -0.702,0.878 -1.316,0.878 h -67.719 c -5.33,0 -7.206,0.253 -9.343,0.594 z m 26.097,-3.227 c 2.457,0 4.474,-1.756 4.474,-4.654 0,-0.965 -0.526,-7.374 -10.526,-12.027 l -0.79,0.614 c 2.369,3.336 2.456,4.917 2.632,10.36 0.088,3.248 1.052,5.707 4.21,5.707 z m -2.543,42.755 c 0,1.581 0,5.356 -5,5.356 -3.064,0 -3.156,-2.313 -3.158,-3.494 v -0.106 c 0,-0.494 0.092,-1.793 0.181,-3.062 v 0 c 0.086,-1.21 0.169,-2.392 0.169,-2.82 0.264,-4.917 0.351,-16.593 0.351,-22.036 0,-4.917 -0.175,-6.76 -0.614,-9.745 l 9.035,5.443 h 26.93 l 2.369,-2.81 c 0.701,-0.878 1.14,-1.229 1.754,-1.229 0.702,0 1.579,0.615 2.193,1.142 l 2.982,2.282 c 0.527,0.439 1.229,1.054 1.229,1.668 0,0.966 -1.316,1.668 -2.895,2.459 0,2.208 0.254,8.236 0.502,14.102 0.234,5.558 0.463,10.971 0.463,12.85 0,4.302 -3.96,4.473 -5.026,4.478 h -0.062 c -2.807,0 -2.807,-0.79 -2.719,-4.478 z m 28.684,-16.505 h -28.684 v -11.852 h 28.684 z m -28.684,14.398 h 28.684 v -12.291 h -28.684 z m 3.017,21.65 c 0,1.517 -1.285,4.117 -3.855,4.117 -1.381,0 -2.235,-0.64 -5.073,-2.767 l -0.066,-0.05 c -1.499,-1.083 -6.21,-4.441 -14.347,-8.233 -8.854,-4.181 -15.629,-6.166 -20.076,-7.47 -0.392,-0.115 -0.767,-0.224 -1.123,-0.33 0.685,-0.046 1.364,-0.097 2.054,-0.149 2.545,-0.191 5.221,-0.393 8.76,-0.393 9.85,0 33.726,4.225 33.726,15.275 z m -3.426,24.267 c 0,0.65 -0.322,4.225 -3.212,4.225 -1.245,0 -1.384,-0.102 -5.578,-3.161 l -0.418,-0.306 c -3.855,-2.816 -12.848,-8.666 -29.229,-14.083 2.462,-0.325 3.961,-0.433 6.959,-0.433 1.499,0 11.67,0 20.557,2.816 2.569,0.759 10.921,3.359 10.921,10.942 z m -4.725,36.86 c 0.415,-0.712 0.786,-1.373 1.115,-1.986 -0.388,-0.379 -0.811,-0.796 -1.276,-1.254 l -0.011,-0.011 -0.136,-0.134 c -5.032,-4.875 -9.1,-8.775 -24.625,-15.275 -4.629,-1.995 -8.023,-3.226 -11.61,-4.527 l -0.008,-0.003 -0.011,-0.004 c -0.886,-0.322 -1.785,-0.648 -2.718,-0.991 19.887,-0.523 33.971,4.392 42.02,10.11 3.613,1.401 12.633,5.378 12.633,8.816 0,1.134 -0.207,1.444 -3.012,3.816 -1.28,1.173 -1.72,1.697 -3.533,3.857 l -0.31,0.371 c 2.596,0.206 15.373,-0.619 17.762,-1.444 0.459,-0.166 1.436,-0.763 2.509,-1.419 l 0.002,-0.001 v 0 c 1.6,-0.979 3.412,-2.086 4.034,-2.086 0.831,0 1.35,0.412 5.817,4.331 3.012,2.681 3.531,3.3 3.531,4.331 0,1.444 -0.623,1.65 -2.597,2.269 -3.012,0.928 -4.258,2.475 -6.44,6.496 -12.569,22.996 -23.58,33.515 -36.564,41.455 -3.947,2.372 -12.777,7.425 -20.983,8.972 l -0.416,-0.722 c 22.749,-13.818 41.759,-34.133 52.458,-58.676 -2.389,0.309 -10.699,1.443 -15.166,2.165 -0.173,0.035 -0.471,0.126 -0.82,0.232 l -0.002,0.001 h -0.001 -0.001 c -0.7,0.214 -1.6,0.489 -2.085,0.489 -1.038,0 -2.804,-0.619 -4.778,-1.753 -9.349,11.24 -13.815,15.056 -27.735,23.202 l -0.727,-0.721 c 14.127,-15.159 17.971,-20.109 23.684,-29.906 z m 9.153,99.205 c 17.96,-1.046 24.129,-10.287 24.129,-19.748 0,-11.441 -8.735,-19.252 -20.362,-19.252 -6.06,0 -11.683,1.925 -16.105,5.885 -4.913,4.291 -7.533,10.287 -7.533,15.677 0,6.931 3.876,13.037 7.752,13.037 5.896,0 12.174,-10.506 14.466,-17.217 1.147,-3.191 1.747,-6.436 1.747,-9.131 0,-2.256 -1.31,-4.401 -2.729,-6.161 l 0.152,-0.012 v 0 c 0.652,-0.051 1.26,-0.098 1.868,-0.098 9.007,0 15.995,6.326 15.995,16.172 0,9.901 -6.115,16.997 -19.598,19.637 z m -11.792,-9.517 c -2.238,0 -4.476,-4.015 -4.476,-9.021 0,-4.73 2.02,-8.966 5.404,-12.431 2.73,-2.806 6.388,-4.731 10.1,-5.556 0.928,1.485 1.583,3.025 1.583,4.951 0,2.64 -0.928,6.105 -2.075,8.911 -2.129,4.785 -7.096,13.146 -10.536,13.146 z m -23.376,-6.626 c 0,5.695 0,13.246 -15.811,15.763 -1.318,-7.153 -6.983,-12.187 -10.936,-14.836 l 0.132,-0.795 c 0.501,0 4.921,0.266 8.156,0.461 h 0.003 l 0.007,10e-4 0.021,0.001 c 1.853,0.111 3.311,0.199 3.407,0.199 3.426,0 4.085,-0.132 4.085,-5.961 0,-1.143 -0.034,-4.367 -0.068,-7.543 v -0.002 c -0.031,-2.955 -0.061,-5.868 -0.064,-7.021 v -0.137 H 94.2805 c 0,2.19 0.1055,8.093 0.2075,13.8 0.0954,5.337 0.1878,10.503 0.1878,12.295 l -10e-5,0.179 c -0.0032,2.977 -0.1633,8.829 -8.1689,8.829 -3.2939,0 -4.0844,-1.987 -4.0844,-5.431 0,-6.839 0.2979,-15.707 0.595,-24.553 l 1e-4,-0.001 v 0 c 0.2957,-8.804 0.5907,-17.586 0.5907,-24.326 0,-10.862 0,-23.578 -2.5034,-33.778 l 14.2297,6.756 h 11.8585 c 0,-25.566 0,-28.348 -2.767,-40.137 l 14.888,4.371 0.03,0.012 c 0.697,0.28 3.001,1.205 3.001,2.902 0,1.325 -0.791,1.987 -3.953,3.312 v 29.54 h 13.966 l 4.216,-4.239 c 1.186,-1.192 2.24,-1.325 2.504,-1.325 0.922,0 1.976,0.662 2.635,1.192 l 5.138,4.372 c 0.791,0.662 1.845,1.722 1.845,2.914 0,1.248 -0.468,1.555 -3.39,3.472 -0.179,0.117 -0.366,0.24 -0.563,0.369 v 32.984 c 0,2.171 0.104,8.027 0.205,13.738 v 0.002 10e-4 0.001 0.005 c 0.097,5.436 0.191,10.741 0.191,12.614 z M 70.0372,264.833 c 0,3.311 -2.5033,6.49 -6.5878,6.49 -3.5268,0 -4.5931,-1.822 -7.1789,-6.242 l -0.0677,-0.116 c -4.1434,-6.984 -8.0614,-10.568 -9.9816,-12.324 l -0.004,-0.004 -0.0106,-0.009 c -0.1502,-0.138 -0.288,-0.264 -0.4126,-0.38 v -1.059 c 11.4628,-0.398 24.2432,4.371 24.2432,13.644 z m 55.6018,19.339 c 6.587,-4.238 10.408,-7.55 22.53,-18.677 2.24,-0.397 4.084,-0.795 4.084,-2.914 0,-1.299 -0.76,-1.834 -2.032,-2.729 l -0.076,-0.053 -11.99,-8.213 c -0.922,9.935 -7.641,22.652 -13.175,32.057 z M 97.5744,273.84 c 0,3.709 -1.9763,7.021 -6.0608,7.021 -4.7432,0 -6.5878,-3.974 -7.7737,-6.623 -6.4138,-13.818 -6.8459,-14.301 -9.1766,-16.904 l -0.0463,-0.052 v -0.927 c 11.3311,1.325 23.0574,8.345 23.0574,17.485 z m -41.8986,93.52 c 6.456,0 6.8513,-5.431 6.8513,-7.55 0,-3.312 -0.527,-6.358 -1.1858,-9.273 -0.1166,-0.586 -0.4284,-1.842 -0.8099,-3.378 l -2e-4,-10e-4 h -10e-5 c -0.9112,-3.67 -2.2202,-8.942 -2.2202,-10.53 0,-2.781 0.6588,-5.033 2.7669,-11.921 5.1385,-16.691 10.1453,-33.381 14.7567,-50.204 h -0.527 c -0.7564,1.448 -2.3007,4.451 -4.2128,8.169 l -0.0078,0.016 c -5.082,9.882 -12.7555,24.804 -15.1476,29.037 -8.5642,15.366 -9.75,16.161 -17.5237,17.618 v 0.795 c 9.6183,7.285 9.75,7.418 9.75,22.386 0,13.777 3.821,14.836 7.5102,14.836 z m 3.4256,-74.312 c 0,4.106 -3.6892,6.093 -6.1925,6.093 -3.294,0 -4.4798,-1.722 -7.9054,-7.021 -1.7129,-2.649 -5.0068,-7.153 -9.75,-11.789 l 0.3952,-0.662 c 18.7095,-0.133 23.4527,6.888 23.4527,13.379 z m 74.9696,16.955 H 94.2805 v -19.472 h 39.7905 z m -39.7905,20.4 H 134.071 V 313.182 H 94.2805 Z m 53.5075,147.662 c -2.17,0.327 -3.518,0.531 -6.268,7.339 -24.938,-10.732 -47.7024,-25.449 -51.1697,-47.717 -6.1344,33.537 -37.74,48.293 -62.9445,51.244 v -0.671 c 15.4694,-6.439 30.4054,-15.426 41.074,-28.17 8.5348,-10.195 10.2685,-19.317 11.3353,-25.622 H 28.1174 c -8.0778,0.005 -10.8555,0.273 -14.1561,0.805 l -2.2671,-4.83 c 8.1348,0.671 17.6031,0.805 19.0701,0.805 h 49.4509 c 1.4669,-10.463 1.867,-21.195 1.7336,-28.573 H 63.0696 c -1.6808,2.995 -2.7564,4.912 -3.926,6.769 -2.0782,3.3 -4.4535,6.413 -11.0492,15.058 l -0.4001,-0.939 c 6.545,-12.68 11.508,-34.437 10.7078,-49.327 l 13.8692,6.037 c 0.9335,0.402 2.5337,1.341 2.5337,2.682 0,0.94 -0.5334,1.342 -0.9334,1.61 -0.2001,0.134 -0.7667,0.403 -1.3335,0.671 -0.5668,0.268 -1.1336,0.537 -1.3337,0.671 -2.2671,5.231 -3.8673,8.853 -6.4011,13.548 h 17.1455 c -0.8001,-20.256 -2.1337,-26.426 -3.6006,-31.524 l 15.4694,3.89 c 0.5334,0.134 2.5338,0.671 2.5338,2.013 0,0.67 -0.5334,1.341 -0.8001,1.609 -0.2001,0.134 -0.7335,0.57 -1.2669,1.006 -0.5335,0.436 -1.0669,0.872 -1.2669,1.006 0,1.281 -0.0211,3.857 -0.0465,6.959 -0.0385,4.696 -0.0869,10.598 -0.0869,15.041 h 15.0119 l 5.734,-7.646 c 1.149,-1.541 1.565,-1.607 1.949,-1.609 0.44794,0.12014 1.02251,-0.0733 2.585,1.341 l 10.002,7.646 c 0.534,0.403 1.334,1.208 1.334,2.012 0,1.342 -1.2,1.476 -2.001,1.476 H 92.8841 l -0.0233,1.518 c -0.2446,15.938 -0.2834,18.467 -1.577,27.055 h 26.7472 l 6.801,-8.719 c 1.067,-1.342 1.334,-1.61 2.134,-1.61 0.4,0 0.934,0.134 2.4,1.341 l 10.136,8.72 c 0.666,0.536 1.333,1.073 1.333,2.012 0,1.207 -1.067,1.476 -2,1.476 H 92.084 c 7.2013,23.073 29.872,38.231 57.61,42.524 v 0.671 c -0.718,0.222 -1.34,0.316 -1.906,0.402 z"
     id="path4"
     transform="translate(13.305728,13.628763)"
     sodipodi:nodetypes="ssccccscccccscccccsccscccsccsccccccsccsccccsccccccscccccssccsccscccccccccsssccsccccccccccccccccsccccccscsccccscscccccccscccsssccccccccccsscccssscsscccscscssscsccccsccsccscsccccccccccccsscccsccsssscccscsccccccccsccsccccccsscscccccccccccscccccsscsscsccsssccssccscsscccccccsssscccsccssscsscccccssccccsccsccssccccssscccccccsccscccccssccccssscsccsccccccccsssscccscccccccccccccccsccccsccccccccssscccccscscsccccccsscscccsccsscccc" />
  <defs
     id="defs3">
    <linearGradient
       id="linearGradient5"
       inkscape:collect="always">
      <stop
         style="stop-color:#00b79e;stop-opacity:1;"
         offset="0"
         id="stop5" />
      <stop
         style="stop-color:#00cce2;stop-opacity:1;"
         offset="1"
         id="stop6" />
    </linearGradient>
    <filter
       id="filter0_d_217_1576"
       x="0.69421399"
       y="0"
       width="264.254"
       height="499.72"
       filterUnits="userSpaceOnUse"
       color-interpolation-filters="sRGB">
      <feFlood
         flood-opacity="0"
         result="BackgroundImageFix"
         id="feFlood1" />
      <feColorMatrix
         in="SourceAlpha"
         type="matrix"
         values="0 0 0 0 0 0 0 0 0 0 0 0 0 0 0 0 0 0 127 0"
         result="hardAlpha"
         id="feColorMatrix1" />
      <feOffset
         id="feOffset1" />
      <feGaussianBlur
         stdDeviation="5.5"
         id="feGaussianBlur1" />
      <feColorMatrix
         type="matrix"
         values="0 0 0 0 0 0 0 0 0 0 0 0 0 0 0 0 0 0 0.524967 0"
         id="feColorMatrix2" />
      <feBlend
         mode="normal"
         in2="BackgroundImageFix"
         result="effect1_dropShadow_217_1576"
         id="feBlend2" />
      <feBlend
         mode="normal"
         in="SourceGraphic"
         in2="effect1_dropShadow_217_1576"
         result="shape"
         id="feBlend3" />
    </filter>
    <linearGradient
       inkscape:collect="always"
       xlink:href="#linearGradient5"
       id="linearGradient6"
       x1="255.96187"
       y1="-17.222412"
       x2="-34.744965"
       y2="519.77759"
       gradientUnits="userSpaceOnUse" />
  </defs>
</svg>
