<svg width="400" height="400" viewBox="0 0 400 400" fill="none" xmlns="http://www.w3.org/2000/svg">
<g id="shs" clip-path="url(#clip0_314_88)">
<rect width="100" height="100" transform="scale(4)" fill="white"/>
<rect id="Rectangle" x="200" y="200" width="200" height="200" fill="#FF859A" stroke="white" stroke-width="0.195312"/>
<rect id="Rectangle Copy" x="200" width="200" height="200" fill="#C4B498" stroke="white" stroke-width="0.195312"/>
<rect id="Rectangle Copy 2" width="200" height="200" fill="#FFCBE2" stroke="white" stroke-width="0.195312"/>
<rect id="Rectangle Copy 4" y="252.344" width="200" height="147.656" fill="#808184" stroke="white" stroke-width="0.195312"/>
<path id="&#234;&#176;&#128;" fill-rule="evenodd" clip-rule="evenodd" d="M152.84 96.2031V189.039H138.297V10.9375H152.84V84.0508H182.125V96.2031H152.84ZM107.219 30.2617C107.219 80.4648 83.3125 126.285 26.1367 154.973L17.9688 143.418C64.1875 120.309 89.2891 85.0469 92.6758 42.4141H26.1367V30.2617H107.219Z" fill="black"/>
<path id="&#230;&#128;&#157;&#230;&#186;&#144;&#233;&#187;&#145;&#228;&#189;&#147;" fill-rule="evenodd" clip-rule="evenodd" d="M175.126 245.391V236.541H183.238V234.466H175.126V216.352C178.076 224.925 183.1 233.314 188.447 237.693C188.908 237.14 189.645 236.31 190.152 235.895C184.898 232.023 179.781 224.003 176.97 215.891H189.507V213.77H175.126V203.906H172.959V213.77H159.177V215.891H171.208C168.212 224.003 163.049 232.162 157.795 236.172C158.348 236.541 159.085 237.278 159.408 237.785C164.755 233.36 169.871 225.017 172.959 216.398V234.466H164.478V236.541H172.959V245.391H175.126ZM67.0359 209.576L65.6992 211.373C64.132 209.622 60.8132 207.363 58.0015 205.934L59.3382 204.367C62.0578 205.75 65.4687 207.916 67.0359 209.576ZM46.2477 205.888V225.985H14.4891V205.888H46.2477ZM31.5437 214.923H44.0812V207.963H31.5437V214.923ZM29.4234 214.923H16.6554V207.963H29.4234V214.923ZM31.5437 223.957H44.0812V216.905H31.5437V223.957ZM29.4234 223.957H16.6554V216.905H29.4234V223.957ZM36.5219 234.236L35.0008 235.803C32.8805 233.775 28.6398 230.825 25.0445 228.935L26.5195 227.552C30.1148 229.396 34.3555 232.162 36.5219 234.236ZM48.6907 242.948L50.811 241.98C49.6586 238.891 46.7547 234.098 43.9891 230.548L42.0071 231.378C44.7727 234.927 47.5844 239.813 48.6907 242.948ZM41.7766 237.002C41.4078 243.132 40.6242 244.561 36.7063 244.561L26.236 244.56C22.0967 244.535 20.9422 243.816 20.9422 240.966V230.871H23.1547V240.966C23.1547 242.21 23.6617 242.487 26.4735 242.487L36.7365 242.486C39.0695 242.457 39.4297 241.563 39.6563 236.126C40.2555 236.541 41.1313 236.863 41.7766 237.002ZM12.1383 243.409C14.4891 240.412 16.1484 235.527 17.2547 231.885L15.3187 231.194C14.3047 234.697 12.5531 239.445 10.1562 242.348L12.1383 243.409ZM84.5516 245.206C85.6117 244.884 85.8883 244.238 85.8883 242.948V229.212H95.1531V213.77H84.736C84.9782 212.978 85.231 212.09 85.4892 211.183C85.7715 210.192 86.0604 209.178 86.3492 208.239L85.6117 208.055H97.1813V205.98H69.4328V218.518C69.4328 226.123 68.9258 236.541 63.6711 244.1C64.1781 244.284 65.1 244.884 65.4688 245.206C70.9078 237.509 71.5992 226.446 71.5992 218.518V208.055H83.9063C83.6297 209.76 83.1227 212.065 82.6156 213.77H74.918V229.212H83.768V242.948C83.768 243.409 83.5836 243.593 82.9383 243.639C82.8289 243.639 82.6702 243.641 82.4688 243.643C81.5675 243.651 79.8102 243.668 77.7758 243.593L77.8143 243.693C78.0409 244.282 78.3365 245.05 78.4672 245.529C81.6477 245.575 83.5375 245.575 84.5516 245.206ZM76.9922 220.5H93.0329V215.66H76.9922V220.5ZM63.625 223.266L64.8695 221.468C63.2102 219.947 59.7992 217.919 56.9875 216.674L55.6969 218.241C58.6008 219.578 61.9656 221.698 63.625 223.266ZM76.9922 227.322H93.0329V222.39H76.9922V227.322ZM58.8313 244.884C61.136 240.735 63.9477 234.789 65.9758 229.949L64.2243 228.705C62.0578 233.821 59.0157 239.998 56.8954 243.547L58.8313 244.884ZM97.9187 241.196L95.8906 242.164C94.9226 239.629 92.4336 235.665 90.0367 232.761L91.9265 231.931C94.3234 234.743 96.9046 238.615 97.9187 241.196ZM72.8898 242.763C75.1945 240.228 77.5453 236.402 79.1125 232.761L77.0383 232.208C75.6094 235.619 73.443 239.076 71 241.519C71.5531 241.795 72.475 242.441 72.8898 242.763ZM143.137 232.346V234.374H102.436V232.346H121.611V227.091H106.308V225.155H121.611V220.408H107.184V205.704H138.066V220.408H123.777V225.155H139.127V227.091H123.777V232.346H143.137ZM121.611 218.426H109.304V207.64H121.611V218.426ZM123.777 218.426H135.854V207.64H123.777V218.426ZM128.064 217.55C129.447 215.568 131.152 212.48 132.535 209.898L130.691 209.115C129.723 211.42 127.926 214.784 126.589 216.812L128.064 217.55ZM117.785 216.213L116.034 216.951C115.573 214.969 114.236 211.973 112.807 209.714L114.42 209.115C115.895 211.373 117.324 214.323 117.785 216.213ZM104.695 245.759C106.953 243.731 108.843 240.413 110.041 237.555L108.013 237.002C106.861 239.859 104.879 242.948 102.759 244.745L104.695 245.759ZM143.183 244.653L141.155 245.575C139.91 243.501 137.237 240.182 134.886 237.785L136.868 237.048C139.219 239.306 141.892 242.533 143.183 244.653ZM128.064 245.298L130.23 244.745C129.723 242.902 128.571 239.813 127.465 237.555L125.391 237.923C126.497 240.274 127.603 243.409 128.064 245.298ZM118.938 244.976L116.771 245.298C116.771 243.455 116.402 240.274 115.803 237.877L117.877 237.785C118.477 240.09 118.938 243.224 118.938 244.976ZM155.905 214.83V245.529H153.784V218.564C152.355 220.961 150.742 223.127 149.175 224.971C148.944 224.51 148.207 223.496 147.792 222.989C151.987 218.334 155.812 211.189 158.209 203.998L160.284 204.552C159.085 208.101 157.564 211.604 155.905 214.83Z" fill="black"/>
<path id="SourceHanSans&#230;&#186;&#144;&#227;&#131;&#142;&#232;&#167;&#146;&#227;&#130;&#180;&#227;&#130;&#183;&#227;&#131;&#131;&#227;&#130;&#175;&#230;&#128;&#157;&#230;&#186;&#144;&#233;&#187;&#145;&#233;&#171;&#148;&#235;&#179;&#184;&#234;&#179;&#160;&#235;&#148;&#149;" fill-rule="evenodd" clip-rule="evenodd" d="M15.4172 284.147C18.4844 284.147 20.4141 282.319 20.4141 279.983C20.4141 277.769 19.0328 276.753 17.3266 276.002L15.1734 275.088L15.1605 275.082C14.0258 274.596 12.6953 274.025 12.6953 272.508C12.6953 271.106 13.8531 270.233 15.5797 270.233C17.0016 270.233 18.0984 270.781 19.0125 271.655L19.9063 270.578C18.8906 269.502 17.3672 268.75 15.5797 268.75C12.9391 268.75 10.9891 270.375 10.9891 272.63C10.9891 274.803 12.6344 275.819 14.0156 276.408L16.1688 277.363C17.5906 277.992 18.7078 278.5 18.7078 280.105C18.7078 281.628 17.4688 282.664 15.4375 282.664C13.8531 282.664 12.35 281.933 11.2734 280.775L10.2578 281.933C11.5375 283.294 13.3047 284.147 15.4172 284.147ZM27.4219 284.147C30.1031 284.147 32.4797 282.034 32.4797 278.398C32.4797 274.742 30.1031 272.63 27.4219 272.63C24.7406 272.63 22.3844 274.742 22.3844 278.398C22.3844 282.034 24.7406 284.147 27.4219 284.147ZM24.0907 278.398C24.0907 281.019 25.4516 282.766 27.4219 282.766C29.3922 282.766 30.7735 281.019 30.7735 278.398C30.7735 275.798 29.3922 274.031 27.4219 274.031C25.4516 274.031 24.0907 275.798 24.0907 278.398ZM38.6344 284.147C40.1578 284.147 41.2547 283.334 42.2906 282.136H42.3516L42.4937 283.883H43.8547V272.914H42.2094V280.775C41.1125 282.116 40.2797 282.705 39.1219 282.705C37.5781 282.705 36.9484 281.77 36.9484 279.678V272.914H35.3031V279.881C35.3031 282.684 36.3391 284.147 38.6344 284.147ZM49.339 276.733V283.883H47.6937V272.914H49.0344L49.1969 274.925H49.2578C50.0094 273.544 51.1265 272.63 52.3656 272.63C52.8328 272.63 53.1578 272.691 53.5234 272.873L53.1984 274.316C52.8328 274.194 52.589 274.133 52.1625 274.133C51.2281 274.133 50.0906 274.823 49.339 276.733ZM59.4141 284.147C60.7547 284.147 61.9735 283.619 62.9485 282.745L62.2172 281.648C61.5266 282.258 60.5922 282.766 59.5563 282.766C57.4438 282.766 56.0219 281.019 56.0219 278.398C56.0219 275.798 57.5453 274.031 59.5969 274.031C60.511 274.031 61.2219 274.438 61.8719 275.027L62.7453 273.95C61.9735 273.239 60.9782 272.63 59.536 272.63C56.7532 272.63 54.3157 274.742 54.3157 278.398C54.3157 282.034 56.5297 284.147 59.4141 284.147ZM72.9219 283.03C71.9672 283.639 70.85 284.147 69.3266 284.147C66.4422 284.147 64.1266 282.014 64.1266 278.398C64.1266 274.844 66.5032 272.63 69.0219 272.63C71.7641 272.63 73.3485 274.6 73.3485 277.769C73.3485 278.134 73.3281 278.5 73.2672 278.764H65.7719C65.8735 281.202 67.336 282.827 69.5297 282.827C70.6063 282.827 71.5 282.481 72.3125 281.933L72.9219 283.03ZM71.8859 277.545H65.7516C65.975 275.291 67.4172 273.97 69.0422 273.97C70.8297 273.97 71.8859 275.209 71.8859 277.545ZM82.489 276.773V283.883H80.8031V269.014H82.489V275.311H89.6594V269.014H91.3453V283.883H89.6594V276.773H82.489ZM97.8047 284.147C99.186 284.147 100.445 283.436 101.502 282.542H101.563L101.705 283.883H103.066V277.078C103.066 274.438 102.009 272.63 99.3485 272.63C97.5813 272.63 96.0375 273.442 95.0828 274.072L95.7531 275.23C96.586 274.641 97.7641 274.011 99.0844 274.011C100.973 274.011 101.441 275.473 101.42 276.956C96.7078 277.484 94.6156 278.663 94.6156 281.059C94.6156 283.05 95.9969 284.147 97.8047 284.147ZM96.2203 280.958C96.2203 282.278 97.1344 282.806 98.2516 282.806C99.3687 282.806 100.303 282.278 101.42 281.283V278.073C97.5406 278.52 96.2203 279.455 96.2203 280.958ZM108.327 283.883V275.859C109.464 274.681 110.297 274.072 111.455 274.072C112.978 274.072 113.628 275.006 113.628 277.119V283.883H115.294V276.916C115.294 274.113 114.238 272.63 111.942 272.63C110.439 272.63 109.302 273.483 108.245 274.519H108.184L108.022 272.914H106.681V283.883H108.327ZM132.702 279.983C132.702 282.319 130.772 284.147 127.705 284.147C125.592 284.147 123.825 283.294 122.545 281.933L123.561 280.775C124.638 281.933 126.141 282.664 127.725 282.664C129.756 282.664 130.995 281.628 130.995 280.105C130.995 278.5 129.878 277.992 128.456 277.363L126.303 276.408C124.922 275.819 123.277 274.803 123.277 272.63C123.277 270.375 125.227 268.75 127.867 268.75C129.655 268.75 131.178 269.502 132.194 270.578L131.3 271.655C130.386 270.781 129.289 270.233 127.867 270.233C126.141 270.233 124.983 271.106 124.983 272.508C124.983 274.025 126.313 274.596 127.448 275.082L127.461 275.088L129.614 276.002C131.32 276.753 132.702 277.769 132.702 279.983ZM138.003 284.147C139.384 284.147 140.644 283.436 141.7 282.542H141.761L141.903 283.883H143.264V277.078C143.264 274.438 142.208 272.63 139.547 272.63C137.78 272.63 136.236 273.442 135.281 274.072L135.952 275.23C136.784 274.641 137.963 274.011 139.283 274.011C141.172 274.011 141.639 275.473 141.619 276.956C136.906 277.484 134.814 278.663 134.814 281.059C134.814 283.05 136.195 284.147 138.003 284.147ZM136.419 280.958C136.419 282.278 137.333 282.806 138.45 282.806C139.567 282.806 140.502 282.278 141.619 281.283V278.073C137.739 278.52 136.419 279.455 136.419 280.958ZM148.525 283.883V275.859C149.662 274.681 150.495 274.072 151.653 274.072C153.177 274.072 153.827 275.006 153.827 277.119V283.883H155.492V276.916C155.492 274.113 154.436 272.63 152.141 272.63C150.637 272.63 149.5 273.483 148.444 274.519H148.383L148.22 272.914H146.88V283.883H148.525ZM165.892 280.938C165.892 282.684 164.511 284.147 161.972 284.147C160.408 284.147 158.925 283.497 157.889 282.644L158.722 281.527C159.677 282.298 160.652 282.847 162.033 282.847C163.556 282.847 164.308 282.034 164.308 281.019C164.308 279.841 162.988 279.313 161.748 278.866C160.184 278.297 158.498 277.566 158.498 275.697C158.498 273.991 159.859 272.63 162.236 272.63C163.556 272.63 164.734 273.178 165.567 273.848L164.755 274.925C164.003 274.377 163.231 273.95 162.236 273.95C160.773 273.95 160.103 274.722 160.103 275.616C160.103 276.713 161.241 277.139 162.5 277.586L162.655 277.646C164.217 278.257 165.892 278.912 165.892 280.938ZM14.5032 303.208L15.3157 302.152C14.6047 301.42 13.1219 300.506 11.9235 299.937L11.1313 300.892C12.35 301.502 13.8125 302.497 14.5032 303.208ZM23.786 316.777C23.786 317.467 23.6438 317.833 23.1157 318.016C22.5875 318.219 21.7344 318.219 20.3735 318.198C20.3125 317.873 20.15 317.386 19.9672 317.041C20.6655 317.055 21.3157 317.059 21.7331 317.06L22.1407 317.061C22.4047 317.041 22.486 316.98 22.486 316.756V311.15H18.7891V304.223H22.0594C22.2422 303.513 22.4453 302.619 22.5266 301.928H17.5094V306.234C17.5094 309.748 17.1844 314.745 14.8078 318.117C14.5641 317.894 13.975 317.548 13.6703 317.406C15.986 314.136 16.2094 309.566 16.2094 306.234V300.689H28.5188V301.928H23.725L24.0094 301.989L23.9713 302.126C23.7785 302.821 23.569 303.576 23.3594 304.223H27.7063V311.15H23.786V316.777ZM26.4469 307.169H19.9875V305.28H26.4469V307.169ZM14.3609 307.412L13.5687 308.489C12.8781 307.798 11.3953 306.905 10.1562 306.316L10.9078 305.341C12.1266 305.869 13.6297 306.742 14.3609 307.412ZM26.4469 310.094H19.9875V308.184H26.4469V310.094ZM14.8078 311.394C13.9547 313.527 12.7766 316.045 11.8016 317.934L10.6031 317.163C11.5172 315.598 12.8172 312.917 13.7313 310.642L14.8078 311.394ZM27.6656 316.797L28.8844 316.228C28.4578 315.111 27.4016 313.425 26.4062 312.186L25.2687 312.673C26.2437 313.953 27.2594 315.68 27.6656 316.797ZM20.7797 312.653C20.1093 314.258 19.0937 315.944 18.1187 317.02C17.875 316.838 17.3468 316.492 17.0422 316.33C18.0578 315.294 18.9718 313.811 19.5609 312.348L20.7797 312.653ZM33.8203 316.959C36.6844 315.761 39.6094 313.547 41.4578 311.191C43.1844 308.977 44.3828 306.011 45.1547 303.817C45.1931 303.707 45.235 303.582 45.2794 303.451L45.2795 303.45C45.423 303.025 45.5935 302.519 45.764 302.131L44.0578 301.664C43.4687 304.589 42.0875 307.88 40.2187 310.236C38.3703 312.552 35.5469 314.603 32.5406 315.639L33.8203 316.959ZM54.6 313.75C54.1125 315.416 53.1984 317.041 51.5937 318.3C51.4312 318.036 50.9437 317.548 50.6594 317.345C53.5234 315.091 53.8687 311.942 53.8687 309.342V305.645C53.3406 306.133 52.7516 306.6 52.1422 307.047C51.8984 306.742 51.4719 306.295 51.1469 306.092C53.8891 304.244 55.8594 301.705 56.8953 299.673L58.3578 299.938C58.2437 300.14 58.1216 300.343 57.9966 300.551C57.9213 300.676 57.845 300.803 57.7687 300.933H62.8266L63.0703 300.852L63.9641 301.441C63.4766 302.416 62.7859 303.472 62.075 304.345H67.4984V316.431C67.4984 317.366 67.2344 317.813 66.5234 318.016C65.8618 318.218 64.7346 318.254 63.0065 318.259L62.4406 318.259C62.3594 317.894 62.1156 317.305 61.8922 316.959C63.5781 317 65.1422 317 65.5891 316.98C66.0359 316.959 66.1578 316.838 66.1578 316.431V313.75H54.6ZM60.5922 304.345H55.1687C55.8593 303.614 56.4687 302.842 56.9968 302.091H62.0953C61.6687 302.863 61.1203 303.695 60.5922 304.345ZM55.1687 308.388H59.8406V305.544H55.1687V308.388ZM66.1578 308.388H61.1406V305.544H66.1578V308.388ZM61.1406 312.552H66.1578V309.566H61.1406V312.552ZM59.8406 312.552H54.9047C55.0875 311.516 55.1687 310.5 55.1687 309.566H59.8406V312.552ZM89.3141 302.07L88.2781 302.538C87.8313 301.705 87.1609 300.527 86.6125 299.836L87.6281 299.409C88.1156 300.08 88.8672 301.298 89.3141 302.07ZM85.7188 303.127L86.7344 302.68C86.3281 301.908 85.5766 300.648 85.0891 299.978L84.0938 300.405C84.5813 301.095 85.3125 302.294 85.7188 303.127ZM86.9381 315.696C86.9432 316.393 86.9796 317.181 86.9984 317.427H85.3734C85.3854 317.319 85.3903 317.12 85.3964 316.871C85.4007 316.697 85.4057 316.498 85.414 316.289H75.3797C74.5265 316.289 73.6531 316.309 73.125 316.35V314.705C73.6125 314.745 74.5062 314.806 75.339 314.806H85.414V305.016H75.5828C74.8312 305.016 73.8562 305.056 73.389 305.077V303.452C74.0594 303.533 74.9125 303.573 75.5625 303.573H85.5156C86.0031 303.573 86.5719 303.553 86.9781 303.533C86.9578 303.98 86.9375 304.609 86.9375 305.056L86.9381 315.696ZM100.141 305.28L100.994 304.041C100.141 303.411 97.7844 301.827 96.6062 301.177L95.814 302.395C96.9719 303.066 99.1859 304.548 100.141 305.28ZM97.9875 308.448L97.1546 309.728C96.1796 309.017 93.9656 307.575 92.7671 306.966L93.5796 305.727C94.7375 306.377 97.1343 307.839 97.9875 308.448ZM94.5344 317.183C96.4234 316.777 99.2062 315.863 101.258 314.664C104.487 312.755 107.291 310.114 109.017 307.413L108.144 305.93C106.498 308.773 103.858 311.414 100.486 313.344C98.4547 314.502 95.9156 315.334 93.7016 315.72L94.5344 317.183ZM122.159 309.423L120.819 309.911C120.616 308.997 119.661 306.397 119.255 305.523L120.595 305.056C120.92 305.869 121.916 308.55 122.159 309.423ZM118.138 318.138C120.392 317.284 122.85 315.741 124.739 313.364C126.202 311.516 127.075 309.322 127.623 307.067C127.66 306.958 127.697 306.836 127.737 306.702L127.737 306.701L127.737 306.701L127.737 306.701C127.786 306.536 127.841 306.354 127.908 306.153L126.364 305.645C126.019 308.245 124.983 310.825 123.52 312.613C121.855 314.684 119.316 316.228 116.939 316.919L118.138 318.138ZM117.711 310.642L116.33 311.17C116.025 310.114 114.908 307.27 114.522 306.6L115.863 306.072C116.248 306.905 117.325 309.606 117.711 310.642ZM136.642 317.528C140.461 316.127 142.878 314.258 144.727 312.023C146.514 309.83 147.773 307.088 148.322 304.995C148.423 304.711 148.606 304.244 148.769 303.98L147.55 303.248C147.245 303.37 146.839 303.431 146.291 303.431H140.542C140.745 303.086 140.928 302.761 141.091 302.436C141.153 302.324 141.227 302.185 141.308 302.033L141.308 302.032C141.491 301.687 141.712 301.271 141.923 300.933L140.258 300.384C140.136 300.872 139.852 301.563 139.669 301.908C138.795 303.736 136.764 306.742 133.27 308.814L134.53 309.748C136.784 308.266 138.47 306.438 139.689 304.731H146.758C146.311 306.641 145.052 309.322 143.447 311.231C141.578 313.405 138.998 315.273 135.342 316.33L136.642 317.528ZM26.4062 333.441V342.459H12.3094V333.441H26.4062ZM25.0656 337.361H20.0484V334.639H25.0656V337.361ZM13.5891 337.361H18.7282V334.639H13.5891V337.361ZM25.0656 341.261H20.0484V338.498H25.0656V341.261ZM13.5891 341.261H18.7282V338.498H13.5891V341.261ZM21.2875 346.745L22.2015 345.831C21.3078 344.917 19.439 343.719 17.9156 342.947L17.0422 343.759C18.5656 344.592 20.414 345.872 21.2875 346.745ZM28.4781 349.264L27.1578 349.853C26.7312 348.492 25.5328 346.359 24.3546 344.775L25.5531 344.287C26.7515 345.831 27.9906 347.883 28.4781 349.264ZM11.5781 350.016C12.5938 348.716 13.3047 346.603 13.7922 344.938L12.5938 344.531C12.1672 346.095 11.375 348.127 10.3797 349.386L11.5781 350.016ZM24.4766 347.212C24.2937 349.955 23.8672 350.605 22.0594 350.605H17.8344C15.7422 350.605 15.1734 350.198 15.1734 348.695V344.552H16.5141V348.695C16.5141 349.244 16.7375 349.366 17.9156 349.366H21.9375C22.9531 349.366 23.1359 349.02 23.2375 346.705C23.5422 346.908 24.1109 347.131 24.4766 347.212ZM34.8157 336.02L35.6282 334.964C34.9172 334.233 33.4344 333.319 32.236 332.75L31.4438 333.705C32.6625 334.314 34.125 335.309 34.8157 336.02ZM44.0985 349.589C44.0985 350.28 43.9563 350.645 43.4282 350.828C42.9 351.031 42.0469 351.031 40.686 351.011C40.625 350.686 40.4625 350.198 40.2797 349.853C40.978 349.867 41.6282 349.871 42.0456 349.873L42.4532 349.873C42.7172 349.853 42.7985 349.792 42.7985 349.569V343.962H39.1016V337.036H42.3719C42.5547 336.325 42.7579 335.431 42.8391 334.741H37.8219V339.047C37.8219 342.561 37.4969 347.558 35.1203 350.93C34.8766 350.706 34.2875 350.361 33.9828 350.219C36.2985 346.948 36.5219 342.378 36.5219 339.047V333.502H48.8313V334.741H44.0375L44.3219 334.802L44.2838 334.939C44.091 335.633 43.8815 336.388 43.6719 337.036H48.0188V343.962H44.0985V349.589ZM46.7594 339.981H40.3V338.092H46.7594V339.981ZM34.6734 340.225L33.8813 341.302C33.1906 340.611 31.7078 339.717 30.4688 339.128L31.2203 338.153C32.4391 338.681 33.9422 339.555 34.6734 340.225ZM46.7594 342.906H40.3V340.997H46.7594V342.906ZM35.1203 344.206C34.2672 346.339 33.0891 348.858 32.1141 350.747L30.9156 349.975C31.8297 348.411 33.1297 345.73 34.0438 343.455L35.1203 344.206ZM47.9781 349.609L49.1969 349.041C48.7703 347.923 47.7141 346.238 46.7187 344.998L45.5812 345.486C46.5562 346.766 47.5719 348.492 47.9781 349.609ZM41.0922 345.466C40.4218 347.07 39.4062 348.756 38.4312 349.833C38.1875 349.65 37.6593 349.305 37.3547 349.142C38.3703 348.106 39.2843 346.623 39.8734 345.161L41.0922 345.466ZM69.0422 346.237V345.019H60.7141V343.048H67.3156V341.911H60.7141V340.123H66.9094V333.319H53.1375V340.123H59.3735V341.911H52.7719V343.048H59.3735V345.019H51.1063V346.237H69.0422ZM54.4375 338.986H59.3735V334.477H54.4375V338.986ZM65.5484 338.986H60.7141V334.477H65.5484V338.986ZM64.3907 335.431C63.8422 336.528 63.1313 337.828 62.6032 338.641L61.7094 338.275C62.2578 337.402 62.9688 335.98 63.3547 335.025L64.3907 335.431ZM56.9969 338.417L57.9719 338.052C57.7891 337.219 57.2 335.98 56.5906 335.025L55.6766 335.35C56.2656 336.305 56.8141 337.605 56.9969 338.417ZM54.7219 347.456C54.2141 348.756 53.3813 350.219 52.386 351.133L51.1672 350.523C52.0813 349.752 52.9344 348.391 53.4422 347.152L54.7219 347.456ZM67.8234 351.072L69.1234 350.544C68.5547 349.589 67.4172 348.147 66.3812 347.152L65.1828 347.578C66.1781 348.655 67.3359 350.138 67.8234 351.072ZM63.4969 350.584L62.1766 350.909C61.9938 350.077 61.5266 348.695 61.0797 347.659L62.3188 347.395C62.7859 348.411 63.2938 349.772 63.4969 350.584ZM57.2813 350.93L58.5813 350.747C58.5813 349.955 58.3985 348.573 58.1344 347.517L56.8954 347.619C57.1188 348.695 57.261 350.097 57.2813 350.93ZM88.8062 334.436V340.245H80.214V334.436H82.6515V332.547H83.6875V334.436H85.2312V332.547H86.2671V334.436H88.8062ZM72.6375 341.708V339.88H78.386V341.708H79.4828V338.864H78.3047V333.258H72.7391V338.864H71.5813V341.708H72.6375ZM73.7953 338.864H74.9125V335.716H77.2078V334.314H73.7953V338.864ZM87.7094 336.873H86.1047V335.391H87.7094V336.873ZM81.2906 336.873H82.8141V335.391H81.2906V336.873ZM85.2312 336.873H83.6875V335.391H85.2312V336.873ZM75.8062 338.864H77.2078V336.609H75.8062V338.864ZM87.7094 339.27H86.1047V337.808H87.7094V339.27ZM81.2906 339.27H82.8141V337.808H81.2906V339.27ZM85.2312 339.27H83.6875V337.808H85.2312V339.27ZM73.8968 347.456V351.031H72.739V341.302H78.2843V349.731C78.2843 350.32 78.1625 350.645 77.7562 350.828C77.3297 351.011 76.6797 351.031 75.5828 351.031C75.5218 350.727 75.3593 350.28 75.1968 349.975C75.9687 349.995 76.6187 349.995 76.8218 349.975C77.025 349.955 77.0859 349.894 77.0859 349.711V347.456H73.8968ZM89.5375 342.337V341.322H79.5641V342.337H89.5375ZM73.8969 343.861H77.0859V342.297H73.8969V343.861ZM88.4203 347.091V343.373H80.6406V347.091H88.4203ZM81.7781 346.156H87.2219V344.287H81.7781V346.156ZM77.0859 346.441H73.8969V344.836H77.0859V346.441ZM89.6797 349.589V350.645H79.2188V349.589H82.4078C82.2656 348.959 81.9813 348.127 81.636 347.497L82.611 347.172C83.0375 347.863 83.3828 348.838 83.5047 349.488L83.2203 349.589H85.5563L85.3328 349.508C85.6781 348.858 86.0844 347.822 86.2875 347.131L87.425 347.477C87.3016 347.723 87.1781 347.975 87.0562 348.223L87.056 348.224C86.8169 348.711 86.5839 349.186 86.3688 349.589H89.6797ZM26.8125 376.836V375.597H19.3375V373.606H24.6391V366.355H23.1766V368.731H14.0359V366.355H12.5734V373.606H17.875V375.597H10.3797V376.836H26.8125ZM14.0359 372.388H23.1765V369.93H14.0359V372.388ZM24.9844 383.397V382.158H13.9953V378.38H12.5125V383.397H24.9844ZM43.4685 369.857C43.4648 371.946 43.4172 374.331 42.7985 377.669L41.3156 377.466C41.986 374.033 41.986 371.494 41.986 369.341V368.752H30.8547V367.513H43.4688L43.4685 369.857ZM45.5 381.183V379.944H37.05V373.403H35.5672V379.944H29.0875V381.183H45.5ZM62.6234 365.644V376.43H61.1406V365.644H62.6234ZM50.3547 375.191C54.3969 375.191 56.7125 375.048 59.4141 374.541L59.2719 373.322C56.611 373.83 54.336 373.952 50.3547 373.952V368.325H57.4031V367.086H48.8719V375.191H50.3547ZM62.6234 377.466V383.803H61.1406V378.684H50.5375V377.466H62.6234Z" fill="white"/>
<path id="&#233;&#178;&#156;" fill-rule="evenodd" clip-rule="evenodd" d="M290.473 144.859V59.793H271.348C277.125 51.0273 283.301 40.4688 287.684 30.707L280.312 25.3281L277.723 26.125H246.445C248.265 22.0296 249.739 17.8188 251.13 13.8442L251.13 13.844L251.13 13.8437C251.566 12.5982 251.994 11.3758 252.422 10.1875L240.469 8.59375C234.891 26.5234 224.531 49.4336 208.594 66.7656C211.582 68.3594 215.566 71.7461 217.559 74.3359L219.352 72.3438V144.859H290.473ZM350.437 190.68V144.461H390.879V132.309H350.437V102.227H383.707V90.6719H350.437V60.1914H387.293V48.4375H362.59C368.367 38.4766 374.742 25.7266 379.723 14.7695L367.371 11.582C363.586 22.5391 356.414 38.0781 350.238 48.4375H299.039V60.1914H337.887V90.6719H303.422V102.227H337.887V132.309H296.449V144.461H337.887V190.68H350.437ZM330.516 39.8711L320.156 44.0547C317.965 36.4844 312.785 24.9297 307.406 16.3633L317.168 12.5781C322.547 21.1445 328.125 32.3008 330.516 39.8711ZM259.793 59.793H228.914C234.094 52.4219 238.277 44.6524 241.863 36.8828H271.746C268.359 44.6524 263.977 53.418 259.793 59.793ZM259.594 96.8476H279.715V70.5508H259.594V96.8476ZM249.832 96.8476H229.91V70.5508H249.832V96.8476ZM259.594 134.102H279.715V107.207H259.594V134.102ZM249.832 134.102H229.91V107.207H249.832V134.102ZM275.393 172.687C252.321 175.511 229.973 178.245 212.777 180.121L210.586 167.969C224.994 166.597 244.599 164.563 265.562 162.388C275.035 161.406 284.785 160.394 294.457 159.402V170.359C288.109 171.131 281.724 171.913 275.393 172.687Z" fill="white"/>
<path id="&#227;&#129;&#174;" fill-rule="evenodd" clip-rule="evenodd" d="M380.715 298.879C380.715 340.715 352.824 368.207 306.008 374.184L297.84 361.035C304.016 360.438 310.191 359.641 314.773 358.645C340.273 352.867 366.371 333.742 366.371 298.281C366.371 268 346.25 242.102 310.988 239.512C308.398 258.438 304.613 279.156 299.035 297.684C286.883 338.723 271.145 359.043 253.414 359.043C236.48 359.043 218.75 339.52 218.75 306.648C218.75 264.016 257 226.562 305.012 226.562C351.23 226.562 380.715 259.234 380.715 298.879ZM232.496 305.652C232.496 331.551 244.648 342.906 254.012 342.906C263.375 342.906 274.73 329.559 285.09 294.496C290.27 277.563 294.254 258.238 296.246 239.711C257.199 244.094 232.496 277.563 232.496 305.652Z" fill="black"/>
</g>
<defs>
<clipPath id="clip0_314_88">
<rect width="100" height="100" fill="white" transform="scale(4)"/>
</clipPath>
</defs>
</svg>
