<svg width="100" height="100" viewBox="0 0 100 100" fill="none" xmlns="http://www.w3.org/2000/svg">
<g clip-path="url(#clip0_168_678)">
<circle cx="50" cy="50" r="50" fill="#F9F9F9"/>
<path d="M50 48.9474L70.5263 6.31579C64.1218 3.23634 57.1064 1.63739 50 1.63739C42.8936 1.63739 35.8782 3.23634 29.4737 6.31579" fill="#FFAA00"/>
<path d="M50.8238 49.3447L96.9656 38.87C95.3886 31.9408 92.2728 25.4551 87.849 19.8936C83.4251 14.332 77.8066 9.83715 71.4097 6.7419" fill="#CC1133"/>
<path d="M51.0257 50.2368L87.9472 79.827C92.3884 74.2793 95.5245 67.8035 97.1231 60.8792C98.7217 53.9549 98.7419 46.7597 97.182 39.8266" fill="#AA3388"/>
<path d="M50.4565 50.9485L50.4483 98.2642C57.5547 98.2617 64.5695 96.6602 70.9729 93.5784C77.3763 90.4967 83.0043 86.0136 87.4399 80.4614" fill="#442288"/>
<path d="M49.5436 50.9485L12.5602 80.4614C16.9958 86.0136 22.6237 90.4967 29.0272 93.5784C35.4306 96.6602 42.4454 98.2617 49.5518 98.2643" fill="#1155AA"/>
<path d="M48.9743 50.2368L2.81798 39.8266C1.25817 46.7597 1.27831 53.9549 2.87691 60.8792C4.4755 67.8035 7.61159 74.2794 12.0528 79.827" fill="#66AA33"/>
<path d="M49.1762 49.3447L28.5903 6.74189C22.1934 9.83714 16.5749 14.332 12.151 19.8936C7.72719 25.4551 4.61138 31.9408 3.03446 38.87" fill="#EE6622"/>
<path opacity="0.5" d="M50 78.9473C65.9872 78.9473 78.9473 65.9872 78.9473 50C78.9473 34.0128 65.9872 21.0526 50 21.0526C34.0128 21.0526 21.0526 34.0128 21.0526 50C21.0526 65.9872 34.0128 78.9473 50 78.9473Z" fill="white"/>
<path d="M50 60.5263C55.8135 60.5263 60.5263 55.8135 60.5263 50C60.5263 44.1865 55.8135 39.4737 50 39.4737C44.1865 39.4737 39.4737 44.1865 39.4737 50C39.4737 55.8135 44.1865 60.5263 50 60.5263Z" fill="white"/>
<path d="M52.493 9.75477L51.7006 9.97905C51.6507 9.84697 51.5772 9.71863 51.48 9.59403C51.3853 9.46694 51.2557 9.36227 51.0913 9.28004C50.9268 9.1978 50.7162 9.15668 50.4595 9.15668C50.1081 9.15668 49.8153 9.23767 49.5811 9.39966C49.3493 9.55914 49.2334 9.76224 49.2334 10.009C49.2334 10.2283 49.3132 10.4014 49.4727 10.5285C49.6322 10.6556 49.8814 10.7615 50.2203 10.8463L51.0726 11.0556C51.5859 11.1802 51.9684 11.3708 52.2201 11.6275C52.4718 11.8817 52.5977 12.2094 52.5977 12.6106C52.5977 12.9396 52.503 13.2336 52.3136 13.4928C52.1267 13.752 51.865 13.9563 51.5286 14.1058C51.1922 14.2554 50.8009 14.3301 50.3549 14.3301C49.7692 14.3301 49.2845 14.203 48.9008 13.9488C48.517 13.6947 48.274 13.3233 48.1718 12.8349L49.0092 12.6256C49.0889 12.9346 49.2397 13.1664 49.4615 13.3209C49.6857 13.4754 49.9786 13.5526 50.3399 13.5526C50.7511 13.5526 51.0775 13.4654 51.3193 13.291C51.5635 13.114 51.6856 12.9022 51.6856 12.6555C51.6856 12.4561 51.6158 12.2892 51.4763 12.1546C51.3367 12.0175 51.1224 11.9154 50.8333 11.8481L49.8764 11.6238C49.3506 11.4992 48.9643 11.3061 48.7176 11.0444C48.4734 10.7802 48.3513 10.45 48.3513 10.0538C48.3513 9.72985 48.4422 9.44327 48.6241 9.19406C48.8086 8.94486 49.059 8.74924 49.3755 8.60719C49.6945 8.46515 50.0558 8.39412 50.4595 8.39412C51.0277 8.39412 51.4738 8.51872 51.7977 8.76793C52.1242 9.01713 52.356 9.34608 52.493 9.75477Z" fill="white"/>
<path d="M74.8358 26.3278L74.8208 25.2363H75.0003L77.5122 22.6795H78.6037L75.9273 25.3858H75.8525L74.8358 26.3278ZM74.0134 28.4211V20.7656H74.8956V28.4211H74.0134ZM77.6617 28.4211L75.4189 25.5802L76.0469 24.9671L78.7832 28.4211H77.6617ZM81.8203 30.6938C81.3942 30.6938 81.0279 30.639 80.7213 30.5293C80.4148 30.4222 80.1594 30.2801 79.955 30.1032C79.7532 29.9288 79.5924 29.7419 79.4728 29.5425L80.1756 29.0491C80.2553 29.1537 80.3563 29.2734 80.4784 29.4079C80.6005 29.545 80.7674 29.6634 80.9793 29.763C81.1936 29.8652 81.4739 29.9163 81.8203 29.9163C82.2838 29.9163 82.6664 29.8042 82.9679 29.5799C83.2694 29.3556 83.4202 29.0042 83.4202 28.5257V27.3595H83.3454C83.2806 27.4641 83.1884 27.5937 83.0688 27.7482C82.9517 27.9002 82.7822 28.0361 82.5604 28.1557C82.3411 28.2728 82.0446 28.3314 81.6708 28.3314C81.2073 28.3314 80.7911 28.2217 80.4223 28.0024C80.056 27.7831 79.7656 27.4641 79.5513 27.0455C79.3395 26.6268 79.2336 26.1184 79.2336 25.5204C79.2336 24.9322 79.337 24.4201 79.5439 23.984C79.7507 23.5454 80.0385 23.2065 80.4073 22.9673C80.7762 22.7256 81.2023 22.6047 81.6857 22.6047C82.0596 22.6047 82.3561 22.667 82.5754 22.7916C82.7972 22.9137 82.9666 23.0533 83.0838 23.2103C83.2034 23.3648 83.2956 23.4919 83.3604 23.5915H83.4501V22.6795H84.3024V28.5856C84.3024 29.079 84.1902 29.4802 83.9659 29.7892C83.7442 30.1007 83.4451 30.3287 83.0688 30.4733C82.695 30.6203 82.2788 30.6938 81.8203 30.6938ZM81.7904 27.5389C82.1443 27.5389 82.4433 27.4579 82.6875 27.2959C82.9318 27.134 83.1174 26.9009 83.2445 26.5969C83.3716 26.2929 83.4351 25.9291 83.4351 25.5054C83.4351 25.0917 83.3728 24.7267 83.2482 24.4102C83.1236 24.0937 82.9392 23.8457 82.695 23.6663C82.4508 23.4869 82.1493 23.3972 81.7904 23.3972C81.4166 23.3972 81.1051 23.4919 80.8559 23.6812C80.6092 23.8706 80.4235 24.1248 80.2989 24.4438C80.1768 24.7628 80.1158 25.1167 80.1158 25.5054C80.1158 25.9041 80.1781 26.2568 80.3027 26.5633C80.4298 26.8673 80.6167 27.1065 80.8634 27.281C81.1126 27.4529 81.4216 27.5389 81.7904 27.5389Z" fill="white"/>
<path d="M79.791 60V54.2584H80.6433V55.1555H80.718C80.8376 54.849 81.0308 54.611 81.2974 54.4415C81.5641 54.2696 81.8843 54.1836 82.2581 54.1836C82.6369 54.1836 82.9521 54.2696 83.2038 54.4415C83.458 54.611 83.6561 54.849 83.7982 55.1555H83.858C84.005 54.859 84.2255 54.6235 84.5196 54.449C84.8137 54.2721 85.1663 54.1836 85.5775 54.1836C86.0908 54.1836 86.5107 54.3443 86.8372 54.6658C87.1636 54.9848 87.3269 55.482 87.3269 56.1573V60H86.4447V56.1573C86.4447 55.7337 86.3288 55.4309 86.0971 55.249C85.8653 55.067 85.5924 54.9761 85.2784 54.9761C84.8747 54.9761 84.562 55.0982 84.3402 55.3424C84.1184 55.5841 84.0075 55.8906 84.0075 56.262V60H83.1104V56.0676C83.1104 55.7411 83.0045 55.4782 82.7926 55.2789C82.5808 55.077 82.3079 54.9761 81.974 54.9761C81.7447 54.9761 81.5304 55.0371 81.3311 55.1592C81.1342 55.2813 80.9747 55.4508 80.8526 55.6676C80.733 55.8819 80.6732 56.1299 80.6732 56.4115V60H79.791ZM91.2724 60.1196C90.754 60.1196 90.2992 59.9963 89.908 59.7496C89.5192 59.5028 89.2152 59.1577 88.9959 58.7141C88.7791 58.2705 88.6707 57.7522 88.6707 57.1591C88.6707 56.561 88.7791 56.0389 88.9959 55.5929C89.2152 55.1468 89.5192 54.8004 89.908 54.5537C90.2992 54.307 90.754 54.1836 91.2724 54.1836C91.7907 54.1836 92.2443 54.307 92.633 54.5537C93.0243 54.8004 93.3283 55.1468 93.5451 55.5929C93.7644 56.0389 93.874 56.561 93.874 57.1591C93.874 57.7522 93.7644 58.2705 93.5451 58.7141C93.3283 59.1577 93.0243 59.5028 92.633 59.7496C92.2443 59.9963 91.7907 60.1196 91.2724 60.1196ZM91.2724 59.3272C91.6661 59.3272 91.9901 59.2262 92.2443 59.0244C92.4984 58.8225 92.6866 58.5571 92.8087 58.2282C92.9308 57.8992 92.9919 57.5429 92.9919 57.1591C92.9919 56.7753 92.9308 56.4177 92.8087 56.0863C92.6866 55.7548 92.4984 55.4869 92.2443 55.2826C91.9901 55.0782 91.6661 54.9761 91.2724 54.9761C90.8786 54.9761 90.5547 55.0782 90.3005 55.2826C90.0463 55.4869 89.8581 55.7548 89.736 56.0863C89.6139 56.4177 89.5529 56.7753 89.5529 57.1591C89.5529 57.5429 89.6139 57.8992 89.736 58.2282C89.8581 58.5571 90.0463 58.8225 90.3005 59.0244C90.5547 59.2262 90.8786 59.3272 91.2724 59.3272ZM96.1029 52.3445V60H95.2207V52.3445H96.1029Z" fill="white"/>
<path d="M62.9048 87.488C62.3665 87.488 61.903 87.3609 61.5142 87.1067C61.1255 86.8526 60.8264 86.5024 60.6171 86.0564C60.4078 85.6103 60.3031 85.1007 60.3031 84.5275C60.3031 83.9444 60.4102 83.4298 60.6246 82.9837C60.8414 82.5351 61.1429 82.185 61.5292 81.9333C61.9179 81.6791 62.3715 81.552 62.8898 81.552C63.2935 81.552 63.6574 81.6268 63.9813 81.7763C64.3053 81.9258 64.5707 82.1352 64.7775 82.4043C64.9844 82.6734 65.1127 82.9874 65.1625 83.3463H64.2804C64.2131 83.0846 64.0636 82.8529 63.8318 82.651C63.6025 82.4467 63.2935 82.3445 62.9048 82.3445C62.5609 82.3445 62.2593 82.4342 62.0002 82.6136C61.7435 82.7906 61.5429 83.041 61.3983 83.365C61.2563 83.6864 61.1853 84.064 61.1853 84.4976C61.1853 84.9412 61.255 85.3274 61.3946 85.6564C61.5366 85.9853 61.736 86.2408 61.9927 86.4227C62.2519 86.6046 62.5559 86.6956 62.9048 86.6956C63.134 86.6956 63.3421 86.6557 63.529 86.5759C63.7159 86.4962 63.8742 86.3816 64.0037 86.232C64.1333 86.0825 64.2255 85.9031 64.2804 85.6938H65.1625C65.1127 86.0327 64.9893 86.338 64.7925 86.6096C64.5981 86.8787 64.3402 87.093 64.0187 87.2525C63.6997 87.4095 63.3284 87.488 62.9048 87.488ZM68.6202 87.488C68.1418 87.488 67.7194 87.3672 67.353 87.1254C66.9867 86.8812 66.7001 86.5373 66.4933 86.0937C66.2864 85.6477 66.183 85.1206 66.183 84.5125C66.183 83.9095 66.2864 83.3862 66.4933 82.9426C66.7001 82.499 66.9879 82.1563 67.3568 81.9146C67.7256 81.6729 68.1517 81.552 68.6352 81.552C69.009 81.552 69.3043 81.6143 69.5211 81.7389C69.7404 81.861 69.9074 82.0006 70.022 82.1576C70.1391 82.3121 70.2301 82.4392 70.2949 82.5389H70.3696V79.7129H71.2518V87.3684H70.3995V86.4862H70.2949C70.2301 86.5909 70.1379 86.723 70.0183 86.8825C69.8986 87.0395 69.7279 87.1803 69.5061 87.3049C69.2844 87.427 68.989 87.488 68.6202 87.488ZM68.7398 86.6956C69.0937 86.6956 69.3928 86.6034 69.637 86.4189C69.8812 86.232 70.0668 85.9741 70.1939 85.6452C70.321 85.3137 70.3846 84.9312 70.3846 84.4976C70.3846 84.069 70.3223 83.6939 70.1977 83.3724C70.0731 83.0485 69.8887 82.7968 69.6444 82.6174C69.4002 82.4354 69.0987 82.3445 68.7398 82.3445C68.366 82.3445 68.0545 82.4404 67.8053 82.6323C67.5586 82.8217 67.373 83.0796 67.2484 83.4061C67.1263 83.7301 67.0652 84.0939 67.0652 84.4976C67.0652 84.9063 67.1275 85.2776 67.2521 85.6115C67.3792 85.943 67.5661 86.2071 67.8128 86.404C68.062 86.5984 68.371 86.6956 68.7398 86.6956Z" fill="white"/>
<path d="M31.52 87.3684V79.7129H32.447V83.5108H32.5367L35.9757 79.7129H37.1868L33.9721 83.1669L37.1868 87.3684H36.0654L33.4039 83.8098L32.447 84.8864V87.3684H31.52Z" fill="white"/>
<path d="M11.158 62.6316H10.1861L12.9971 54.9761H13.954L16.765 62.6316H15.7931L13.5055 56.1872H13.4457L11.158 62.6316ZM11.5168 59.6412H15.4343V60.4635H11.5168V59.6412Z" fill="white"/>
<path d="M17.5488 28.4211V22.6795H18.4011V23.5766H18.4758C18.5954 23.2701 18.7886 23.0321 19.0552 22.8626C19.3219 22.6907 19.6421 22.6047 20.0159 22.6047C20.3947 22.6047 20.7099 22.6907 20.9616 22.8626C21.2158 23.0321 21.4139 23.2701 21.556 23.5766H21.6158C21.7628 23.28 21.9833 23.0445 22.2774 22.8701C22.5715 22.6932 22.9241 22.6047 23.3353 22.6047C23.8486 22.6047 24.2685 22.7654 24.595 23.0869C24.9214 23.4059 25.0847 23.903 25.0847 24.5784V28.4211H24.2025V24.5784C24.2025 24.1547 24.0866 23.852 23.8549 23.67C23.6231 23.4881 23.3502 23.3972 23.0362 23.3972C22.6325 23.3972 22.3198 23.5193 22.098 23.7635C21.8762 24.0052 21.7653 24.3117 21.7653 24.683V28.4211H20.8682V24.4887C20.8682 24.1622 20.7623 23.8993 20.5504 23.6999C20.3386 23.4981 20.0657 23.3972 19.7318 23.3972C19.5025 23.3972 19.2882 23.4582 19.0889 23.5803C18.892 23.7024 18.7325 23.8719 18.6104 24.0887C18.4908 24.303 18.431 24.551 18.431 24.8326V28.4211H17.5488Z" fill="white"/>
<path d="M45.7607 50.7371L46.7012 50.6548C46.7458 51.0317 46.8486 51.3418 47.0096 51.5851C47.1741 51.825 47.4277 52.0203 47.7703 52.1711C48.113 52.3184 48.4985 52.3921 48.9268 52.3921C49.3071 52.3921 49.6429 52.3355 49.9342 52.2225C50.2254 52.1094 50.4413 51.9552 50.5818 51.7599C50.7257 51.5611 50.7977 51.3453 50.7977 51.1123C50.7977 50.8758 50.7291 50.6702 50.5921 50.4955C50.455 50.3173 50.2289 50.1682 49.9136 50.0483C49.7115 49.9695 49.2643 49.8479 48.5721 49.6834C47.88 49.5155 47.3951 49.3579 47.1176 49.2105C46.7578 49.0221 46.4888 48.7891 46.3106 48.5115C46.1359 48.2305 46.0485 47.917 46.0485 47.5709C46.0485 47.1906 46.1564 46.8359 46.3723 46.507C46.5882 46.1746 46.9034 45.9228 47.318 45.7514C47.7326 45.5801 48.1935 45.4945 48.7006 45.4945C49.2591 45.4945 49.7509 45.5853 50.1757 45.7669C50.6041 45.945 50.933 46.2089 51.1626 46.5584C51.3922 46.9079 51.5155 47.3037 51.5327 47.7457L50.5767 47.8176C50.5253 47.3414 50.3505 46.9816 50.0524 46.7383C49.7577 46.495 49.3208 46.3734 48.7417 46.3734C48.1387 46.3734 47.6984 46.4847 47.4208 46.7074C47.1467 46.9267 47.0096 47.1923 47.0096 47.5041C47.0096 47.7748 47.1073 47.9975 47.3026 48.1723C47.4945 48.347 47.9948 48.5269 48.8034 48.712C49.6155 48.8936 50.1723 49.0529 50.4739 49.19C50.9125 49.3921 51.2363 49.6491 51.4453 49.9609C51.6543 50.2693 51.7588 50.6257 51.7588 51.03C51.7588 51.4309 51.644 51.8096 51.4144 52.1659C51.1849 52.5188 50.8542 52.7947 50.4225 52.9934C49.9941 53.1887 49.511 53.2864 48.973 53.2864C48.2912 53.2864 47.7189 53.187 47.2563 52.9883C46.7972 52.7895 46.4357 52.4914 46.1718 52.094C45.9114 51.6931 45.7744 51.2408 45.7607 50.7371ZM53.2905 53.1579V45.6229H54.2876V53.1579H53.2905Z" fill="black"/>
<path d="M44.4194 33.1053L47.3131 25.5703H48.3873L51.4712 33.1053H44.4194ZM45.802 32.2161H49.9909L48.3616 27.9244C48.1183 27.2802 47.9402 26.7593 47.8271 26.3619C47.7346 26.8279 47.5992 27.3076 47.421 27.801L45.802 32.2161ZM53.2188 33.1053C53.1978 32.579 53.1697 32.0632 53.1346 31.5579C53.0995 31.0527 53.0644 30.586 53.0293 30.1579C53.0013 29.7228 52.9767 29.3544 52.9557 29.0527C52.9486 28.9053 52.9311 28.7895 52.903 28.7053C52.875 28.6141 52.8293 28.5509 52.7662 28.5158C52.71 28.4737 52.6364 28.4527 52.5451 28.4527C52.4399 28.4527 52.3276 28.4772 52.2083 28.5263C52.096 28.5684 51.9732 28.6351 51.8399 28.7263L51.6188 28.4C51.8083 28.2035 52.0048 28.0386 52.2083 27.9053C52.4118 27.772 52.6399 27.7053 52.8925 27.7053C53.089 27.7053 53.2539 27.7439 53.3872 27.8211C53.5276 27.8913 53.6364 28.0035 53.7136 28.1579C53.7907 28.3053 53.8434 28.4983 53.8714 28.7369C53.8995 28.9895 53.9241 29.3158 53.9451 29.7158C53.9732 30.1088 53.9943 30.5439 54.0083 31.0211C54.0293 31.4983 54.0399 31.9825 54.0399 32.4737H54.1767C54.3381 32.2772 54.4855 32.0737 54.6188 31.8632C54.7592 31.6456 54.8925 31.4281 55.0188 31.2105C55.1451 30.986 55.2679 30.7614 55.3872 30.5369C55.5065 30.3123 55.6223 30.0877 55.7346 29.8632C55.8118 29.7088 55.875 29.5579 55.9241 29.4105C55.9802 29.2632 56.0258 29.1158 56.0609 28.9684L56.0399 29.5158L55.9451 29.2632C55.875 29.1509 55.8153 29.0316 55.7662 28.9053C55.7241 28.779 55.703 28.6351 55.703 28.4737C55.703 28.2211 55.7662 28.0281 55.8925 27.8948C56.0258 27.7544 56.2013 27.6842 56.4188 27.6842C56.5241 27.6842 56.6083 27.6948 56.6714 27.7158C56.7416 27.7369 56.7978 27.7614 56.8399 27.7895C56.8539 27.8246 56.8644 27.8702 56.8714 27.9263C56.8785 27.9825 56.882 28.0562 56.882 28.1474C56.882 28.407 56.8258 28.6913 56.7136 29C56.6013 29.3088 56.4434 29.6491 56.2399 30.0211C56.1136 30.2456 55.9697 30.4877 55.8083 30.7474C55.6469 31 55.4714 31.2632 55.282 31.5369C55.0925 31.8035 54.889 32.0737 54.6714 32.3474C54.4609 32.6141 54.2399 32.8807 54.0083 33.1474L53.3241 33.2211L53.2188 33.1053Z" fill="black"/>
<path d="M63.0513 40L64.6241 32.465H65.5544L64.9531 35.3588C65.2992 35.023 65.6213 34.7831 65.9194 34.6392C66.2175 34.4918 66.5241 34.4182 66.8394 34.4182C67.2917 34.4182 67.6429 34.5381 67.893 34.778C68.1432 35.0144 68.2682 35.3279 68.2682 35.7185C68.2682 35.9104 68.2134 36.2634 68.1038 36.7773L67.4305 40H66.5002L67.194 36.6951C67.2934 36.2154 67.3431 35.9139 67.3431 35.7905C67.3431 35.6123 67.2814 35.4667 67.1581 35.3536C67.0347 35.2405 66.8565 35.184 66.6235 35.184C66.2877 35.184 65.9673 35.2731 65.6624 35.4513C65.3574 35.626 65.1176 35.8676 64.9428 36.176C64.7715 36.4809 64.6138 36.9744 64.4699 37.6563L63.9817 40H63.0513Z" fill="black"/>
<path d="M64.3947 57.8947L65.9726 50.3598H66.9492L68.2187 53.1867C68.6059 54.0501 68.9126 54.7766 69.1388 55.3659C69.269 55.7086 69.4197 56.1712 69.5911 56.7537C69.6836 56.1198 69.8001 55.4653 69.9406 54.7903L70.8657 50.3598H71.8474L70.2747 57.8947H69.2775L67.4067 53.5413C67.0743 52.7738 66.8156 52.097 66.6305 51.5111C66.5791 52.0011 66.4798 52.6024 66.3324 53.3152L65.3764 57.8947H64.3947Z" fill="black"/>
<path d="M70.5582 60.1579L72.5838 54.8834H73.3357L75.4944 60.1579H74.6993L74.0841 58.5604H71.8786L71.2993 60.1579H70.5582ZM72.0801 57.992H73.8682L73.3177 56.5313C73.1498 56.0875 73.0251 55.7229 72.9436 55.4375C72.8764 55.7757 72.7817 56.1115 72.6593 56.4449L72.0801 57.992Z" fill="black"/>
<path d="M53.5888 71.5789L55.1615 64.044H56.1689L55.4134 67.6727L59.5047 64.044H60.9233L57.4231 67.1124L59.9878 71.5789H58.8622L56.6881 67.76L55.1101 69.1324L54.5962 71.5789H53.5888Z" fill="black"/>
<path d="M63.0861 70.8636L63.7229 70.9463C63.6533 71.3852 63.4747 71.7294 63.1868 71.9789C62.9014 72.2259 62.55 72.3495 62.1326 72.3495C61.6098 72.3495 61.1888 72.1792 60.8698 71.8386C60.5532 71.4956 60.3949 71.0051 60.3949 70.367C60.3949 69.9545 60.4632 69.5935 60.6 69.2841C60.7367 68.9747 60.9442 68.7432 61.2224 68.5897C61.503 68.4338 61.8076 68.3558 62.1362 68.3558C62.5512 68.3558 62.8906 68.4614 63.1544 68.6725C63.4183 68.8811 63.5874 69.1786 63.6617 69.5647L63.0321 69.6619C62.9721 69.4052 62.8654 69.2121 62.7119 69.0826C62.5608 68.9531 62.3773 68.8883 62.1614 68.8883C61.8352 68.8883 61.5702 69.0059 61.3663 69.2409C61.1624 69.4736 61.0605 69.843 61.0605 70.3491C61.0605 70.8624 61.1588 71.2353 61.3555 71.468C61.5522 71.7007 61.8088 71.817 62.1255 71.817C62.3797 71.817 62.592 71.739 62.7623 71.5831C62.9326 71.4272 63.0405 71.1874 63.0861 70.8636ZM66.7559 72.2631V71.781C66.5136 72.16 66.1575 72.3495 65.6873 72.3495C65.3827 72.3495 65.1021 72.2655 64.8454 72.0976C64.5912 71.9297 64.3933 71.6959 64.2518 71.396C64.1127 71.0938 64.0431 70.7472 64.0431 70.3563C64.0431 69.9749 64.1067 69.6295 64.2338 69.3201C64.3609 69.0083 64.5516 68.7696 64.8059 68.6041C65.0601 68.4386 65.3443 68.3558 65.6586 68.3558C65.8888 68.3558 66.0939 68.405 66.2738 68.5034C66.4537 68.5993 66.6 68.7252 66.7127 68.8811V66.9887H67.3567V72.2631H66.7559ZM64.7087 70.3563C64.7087 70.8456 64.8119 71.2113 65.0181 71.4536C65.2244 71.6959 65.4679 71.817 65.7485 71.817C66.0315 71.817 66.2714 71.7019 66.4681 71.4716C66.6672 71.2389 66.7667 70.8851 66.7667 70.4102C66.7667 69.8873 66.666 69.5036 66.4645 69.2589C66.263 69.0143 66.0147 68.8919 65.7197 68.8919C65.4319 68.8919 65.1908 69.0095 64.9965 69.2445C64.8047 69.4796 64.7087 69.8502 64.7087 70.3563Z" fill="black"/>
<path d="M39.6755 70.5263L41.2535 62.9914H42.1786L41.2021 67.6634L43.9159 65.0678H45.1443L42.816 67.1032L44.2243 70.5263H43.2066L42.1169 67.7251L40.9862 68.7017L40.6058 70.5263H39.6755Z" fill="black"/>
<path d="M32.3236 55.5129L33.2282 55.6055C33.098 56.0543 32.7982 56.4809 32.3287 56.8853C31.8627 57.2896 31.3059 57.4918 30.6583 57.4918C30.254 57.4918 29.8822 57.3992 29.5429 57.2142C29.2071 57.0258 28.9502 56.7533 28.772 56.397C28.5972 56.0406 28.5098 55.6346 28.5098 55.1789C28.5098 54.5826 28.6469 54.0053 28.921 53.4467C29.1986 52.8848 29.5567 52.4685 29.9952 52.1978C30.4338 51.9236 30.9084 51.7866 31.419 51.7866C32.07 51.7866 32.5891 51.9887 32.9763 52.3931C33.367 52.7974 33.5623 53.3491 33.5623 54.0481C33.5623 54.3154 33.5383 54.5895 33.4903 54.8705H29.471C29.4573 54.9767 29.4504 55.0726 29.4504 55.1583C29.4504 55.6688 29.5669 56.0595 29.7999 56.3302C30.0364 56.5974 30.3242 56.7311 30.6634 56.7311C30.9821 56.7311 31.2956 56.6266 31.604 56.4175C31.9124 56.2085 32.1523 55.907 32.3236 55.5129ZM29.62 54.1612H32.6834C32.6868 54.0652 32.6885 53.9967 32.6885 53.9556C32.6885 53.4896 32.572 53.1332 32.339 52.8865C32.106 52.6364 31.8062 52.5113 31.4395 52.5113C31.0421 52.5113 30.6788 52.6484 30.3499 52.9225C30.0244 53.1966 29.7811 53.6095 29.62 54.1612Z" fill="black"/>
<path d="M36.0643 38.0109L36.9946 38.1086C36.7616 38.7904 36.4292 39.2976 35.9975 39.6299C35.5692 39.9589 35.0809 40.1234 34.5327 40.1234C33.9399 40.1234 33.4584 39.9315 33.0884 39.5477C32.7217 39.1639 32.5384 38.6277 32.5384 37.9389C32.5384 37.3427 32.6566 36.7568 32.8931 36.1811C33.1295 35.6055 33.467 35.1686 33.9056 34.8705C34.3476 34.5689 34.8513 34.4182 35.4167 34.4182C36.0026 34.4182 36.4669 34.5844 36.8096 34.9167C37.1522 35.2457 37.3236 35.6826 37.3236 36.2274L36.4087 36.2891C36.4053 35.943 36.3042 35.6723 36.1054 35.477C35.9101 35.2817 35.6514 35.184 35.3293 35.184C34.9558 35.184 34.632 35.3022 34.3579 35.5387C34.0838 35.7751 33.8679 36.1349 33.7103 36.618C33.5561 37.0977 33.479 37.5603 33.479 38.0058C33.479 38.4718 33.5818 38.8213 33.7874 39.0543C33.993 39.2873 34.2465 39.4038 34.5481 39.4038C34.8496 39.4038 35.1374 39.289 35.4116 39.0594C35.6891 38.8298 35.9067 38.4803 36.0643 38.0109Z" fill="black"/>
</g>
<defs>
<clipPath id="clip0_168_678">
<rect width="100" height="100" fill="white"/>
</clipPath>
</defs>
</svg>
