<svg width="180" height="100" viewBox="0 0 180 100" fill="none" xmlns="http://www.w3.org/2000/svg">
<g clip-path="url(#clip0_329_117)">
<rect width="179.805" height="100" rx="9.77199" fill="#002C37"/>
<rect x="26.7361" y="15.3094" width="125.407" height="26.3844" fill="white" fill-opacity="0.1"/>
<rect x="26.7361" y="57.9805" width="125.407" height="26.3844" fill="white" fill-opacity="0.1"/>
<path d="M18.3974 35.7915C20.013 35.7915 21.3767 35.4527 22.4886 34.7752C23.6004 34.0977 24.1563 33.0727 24.1563 31.7003C24.1563 30.519 23.7872 29.62 23.0488 29.0032C22.3105 28.3865 21.1943 27.8784 19.7003 27.4788C18.7101 27.2008 17.9674 26.962 17.4723 26.7622C16.9772 26.5624 16.621 26.3322 16.4039 26.0716C16.1867 25.8111 16.0782 25.4723 16.0782 25.0554C16.0782 23.8567 17.0684 23.2573 19.0488 23.2573C19.8653 23.2573 20.5863 23.3659 21.2117 23.583C21.8371 23.8002 22.4365 24.1086 23.0098 24.5081V24.5081L24 22.9967C22.5754 21.9891 20.9077 21.4853 18.9967 21.4853C17.4332 21.4853 16.1737 21.8241 15.2182 22.5016C14.2627 23.1791 13.785 24.0912 13.785 25.2378C13.785 26.3496 14.1672 27.1878 14.9316 27.7524C15.696 28.317 16.8773 28.7991 18.4756 29.1987C19.431 29.4419 20.1433 29.6808 20.6124 29.9153C21.0814 30.1498 21.3941 30.4104 21.5505 30.697C21.7068 30.9837 21.785 31.3529 21.785 31.8045C21.785 32.4647 21.481 32.9946 20.8729 33.3941C20.2649 33.7937 19.4397 33.9935 18.3974 33.9935C17.6156 33.9935 16.8686 33.8588 16.1563 33.5896C15.4441 33.3203 14.81 32.9598 14.2541 32.5081V32.5081L13.0293 33.9413C14.4538 35.1748 16.2432 35.7915 18.3974 35.7915Z" fill="white"/>
<path fill-rule="evenodd" clip-rule="evenodd" d="M51.8045 29.8762C51.3702 30.3192 50.8229 30.5407 50.1628 30.5407C49.52 30.5407 48.9771 30.3192 48.5341 29.8762C48.0911 29.4332 47.8696 28.8816 47.8696 28.2215C47.8696 27.5787 48.0911 27.0402 48.5341 26.6058C48.9771 26.1715 49.52 25.9544 50.1628 25.9544C50.8229 25.9544 51.3702 26.1715 51.8045 26.6058C52.2388 27.0402 52.456 27.5787 52.456 28.2215C52.456 28.8816 52.2388 29.4332 51.8045 29.8762ZM36.1694 29.8762C35.735 30.3192 35.1878 30.5407 34.5277 30.5407C33.8849 30.5407 33.342 30.3192 32.899 29.8762C32.456 29.4332 32.2345 28.8816 32.2345 28.2215C32.2345 27.5787 32.456 27.0402 32.899 26.6058C33.342 26.1715 33.8849 25.9544 34.5277 25.9544C35.1878 25.9544 35.735 26.1715 36.1694 26.6058C36.6037 27.0402 36.8208 27.5787 36.8208 28.2215C36.8208 28.8816 36.6037 29.4332 36.1694 29.8762ZM65.798 30.5407C66.4581 30.5407 67.0054 30.3192 67.4397 29.8762C67.874 29.4332 68.0911 28.8816 68.0911 28.2215C68.0911 27.5787 67.874 27.0402 67.4397 26.6058C67.0054 26.1715 66.4581 25.9544 65.798 25.9544C65.1552 25.9544 64.6123 26.1715 64.1693 26.6058C63.7263 27.0402 63.5048 27.5787 63.5048 28.2215C63.5048 28.8816 63.7263 29.4332 64.1693 29.8762C64.6123 30.3192 65.1552 30.5407 65.798 30.5407ZM83.0748 29.8762C82.6405 30.3192 82.0933 30.5407 81.4332 30.5407C80.7904 30.5407 80.2475 30.3192 79.8045 29.8762C79.3615 29.4332 79.14 28.8816 79.14 28.2215C79.14 27.5787 79.3615 27.0402 79.8045 26.6058C80.2475 26.1715 80.7904 25.9544 81.4332 25.9544C82.0933 25.9544 82.6405 26.1715 83.0748 26.6058C83.5092 27.0402 83.7263 27.5787 83.7263 28.2215C83.7263 28.8816 83.5092 29.4332 83.0748 29.8762ZM97.0683 30.5407C97.7285 30.5407 98.2757 30.3192 98.71 29.8762C99.1443 29.4332 99.3615 28.8816 99.3615 28.2215C99.3615 27.5787 99.1443 27.0402 98.71 26.6058C98.2757 26.1715 97.7285 25.9544 97.0683 25.9544C96.4256 25.9544 95.8827 26.1715 95.4397 26.6058C94.9967 27.0402 94.7752 27.5787 94.7752 28.2215C94.7752 28.8816 94.9967 29.4332 95.4397 29.8762C95.8827 30.3192 96.4256 30.5407 97.0683 30.5407ZM114.345 29.8762C113.911 30.3192 113.364 30.5407 112.704 30.5407C112.061 30.5407 111.518 30.3192 111.075 29.8762C110.632 29.4332 110.41 28.8816 110.41 28.2215C110.41 27.5787 110.632 27.0402 111.075 26.6058C111.518 26.1715 112.061 25.9544 112.704 25.9544C113.364 25.9544 113.911 26.1715 114.345 26.6058C114.78 27.0402 114.997 27.5787 114.997 28.2215C114.997 28.8816 114.78 29.4332 114.345 29.8762ZM128.339 30.5407C128.999 30.5407 129.546 30.3192 129.98 29.8762C130.415 29.4332 130.632 28.8816 130.632 28.2215C130.632 27.5787 130.415 27.0402 129.98 26.6058C129.546 26.1715 128.999 25.9544 128.339 25.9544C127.696 25.9544 127.153 26.1715 126.71 26.6058C126.267 27.0402 126.046 27.5787 126.046 28.2215C126.046 28.8816 126.267 29.4332 126.71 29.8762C127.153 30.3192 127.696 30.5407 128.339 30.5407ZM145.616 29.8762C145.181 30.3192 144.634 30.5407 143.974 30.5407C143.331 30.5407 142.788 30.3192 142.345 29.8762C141.902 29.4332 141.681 28.8816 141.681 28.2215C141.681 27.5787 141.902 27.0402 142.345 26.6058C142.788 26.1715 143.331 25.9544 143.974 25.9544C144.634 25.9544 145.181 26.1715 145.616 26.6058C146.05 27.0402 146.267 27.5787 146.267 28.2215C146.267 28.8816 146.05 29.4332 145.616 29.8762Z" fill="white" fill-opacity="0.15"/>
<path fill-rule="evenodd" clip-rule="evenodd" d="M156.612 40.7687L154.423 41.0293V21.772H156.3L156.482 23.7003C156.986 22.988 157.59 22.4408 158.293 22.0586C158.997 21.6764 159.757 21.4853 160.573 21.4853C163.891 21.4853 165.55 23.8653 165.55 28.6254C165.55 30.7969 165.099 32.5342 164.195 33.8371C163.292 35.14 161.98 35.7915 160.261 35.7915C158.767 35.7915 157.55 35.2703 156.612 34.228V40.7687ZM157.98 33.5114C158.528 33.8154 159.123 33.9674 159.765 33.9674C160.912 33.9674 161.768 33.5287 162.332 32.6514C162.897 31.7741 163.179 30.4321 163.179 28.6254C163.179 26.8186 162.927 25.4723 162.423 24.5863C161.92 23.7003 161.129 23.2573 160.052 23.2573C159.357 23.2573 158.719 23.4658 158.137 23.8827C157.555 24.2996 157.047 24.8208 156.612 25.4462V32.2475C156.977 32.7861 157.433 33.2074 157.98 33.5114Z" fill="white"/>
<path d="M20.9251 81.0684C21.5853 81.0684 22.2498 80.9816 22.9186 80.8078C23.5875 80.6341 24.1564 80.3909 24.6255 80.0782V80.0782L23.7655 78.5929C22.949 79.0272 22.0717 79.2443 21.1336 79.2443C20.2129 79.2443 19.544 79.0532 19.1271 78.671C18.7102 78.2888 18.5017 77.7069 18.5017 76.9251V76.9251V68.7688H22.9838L23.2704 67.0489H18.5017V63.6873L16.3128 63.9479V67.0489H13.1597V68.7688H16.3128V76.9512C16.3128 78.1846 16.721 79.1792 17.5375 79.9349C18.354 80.6906 19.4832 81.0684 20.9251 81.0684Z" fill="white"/>
<path fill-rule="evenodd" clip-rule="evenodd" d="M88.6776 72.2085L81.6157 80.1564L79.974 78.7492L83.7004 74.684C84.3084 74.0065 84.8643 73.5027 85.3681 73.1726H74.2411V73.114H74.2932V71.2443H85.3681C85.0207 71.0358 84.7644 70.8491 84.5994 70.684C84.4344 70.519 84.1347 70.202 83.7004 69.7329L79.974 65.6678L81.6157 64.2606L88.6776 72.2085ZM74.2932 71.2443V71.2378H58.0066H42.3714H26.7362V73.114H42.3714H58.0066H74.2411V71.2443H74.2932ZM104.912 73.114V71.2378H89.2769V73.114H104.912ZM104.912 71.2378H120.547H136.834V71.2443H136.782V73.114H120.547H104.912V71.2378ZM136.782 73.114V73.1726H147.909C147.405 73.5027 146.849 74.0065 146.241 74.684L142.515 78.7492L144.156 80.1564L151.218 72.2085L144.156 64.2606L142.515 65.6678L146.241 69.7329C146.675 70.202 146.975 70.519 147.14 70.684C147.305 70.8491 147.561 71.0358 147.909 71.2443H136.834V73.114H136.782Z" fill="white" fill-opacity="0.15"/>
<path fill-rule="evenodd" clip-rule="evenodd" d="M164.248 79.101C163.292 80.4126 161.954 81.0684 160.235 81.0684C158.654 81.0684 157.412 80.4951 156.508 79.3485L156.352 80.7818H154.423V61.5244L156.612 61.2639V68.8469C157.672 67.4571 158.984 66.7622 160.547 66.7622C162.302 66.7622 163.596 67.3876 164.43 68.6384C165.264 69.8893 165.681 71.6439 165.681 73.9023C165.681 76.0565 165.203 77.7894 164.248 79.101ZM157.967 78.8274C158.506 79.1401 159.097 79.2964 159.739 79.2964C160.886 79.2964 161.768 78.8447 162.384 77.9414C163.001 77.038 163.309 75.6917 163.309 73.9023C163.309 72.1303 163.036 70.7926 162.489 69.8893C161.941 68.9859 161.129 68.5342 160.052 68.5342C159.357 68.5342 158.719 68.7427 158.137 69.1596C157.555 69.5766 157.047 70.0977 156.612 70.7231V77.5244C156.977 78.0804 157.429 78.5147 157.967 78.8274Z" fill="white"/>
</g>
<defs>
<clipPath id="clip0_329_117">
<rect width="180" height="100" fill="white"/>
</clipPath>
</defs>
</svg>
