<svg width="100" height="109" viewBox="0 0 100 109" fill="none" xmlns="http://www.w3.org/2000/svg">
<g clip-path="url(#clip0_220_1660)">
<path d="M100 58.4014C100 36.0909 85.3875 17.1933 65.2109 10.7572C64.8891 4.76208 59.926 0 53.8506 0H45.916C39.8149 0 34.8354 4.80255 34.5518 10.8335C14.4981 17.3416 0 36.1784 0 58.4014C0 86.0156 22.3858 108.401 50 108.401C77.6142 108.401 100 86.0156 100 58.4014Z" fill="#F9F9F9"/>
<circle cx="50" cy="58.4014" r="34.3641" fill="#71DDF7"/>
<path fill-rule="evenodd" clip-rule="evenodd" d="M43.2906 11.3769C43.2906 9.92691 44.466 8.75146 45.916 8.75146H53.8507C55.3006 8.75146 56.4761 9.92691 56.4761 11.3769C56.4761 12.8269 55.3006 14.0023 53.8507 14.0023H45.916C44.466 14.0023 43.2906 12.8269 43.2906 11.3769ZM50 99.6499C72.781 99.6499 91.2486 81.1823 91.2486 58.4014C91.2486 35.6205 72.781 17.1529 50 17.1529C27.2191 17.1529 8.75146 35.6205 8.75146 58.4014C8.75146 81.1823 27.2191 99.6499 50 99.6499ZM82.6731 69.0782C83.7707 65.7174 84.3641 62.1287 84.3641 58.4014C84.3641 49.7678 81.1802 41.8779 75.9226 35.8417L72.2182 39.5461C71.1929 40.5714 69.5306 40.5714 68.5053 39.5461C67.48 38.5208 67.48 36.8585 68.5053 35.8332L72.183 32.1554C66.8083 27.6081 60.0181 24.682 52.5671 24.1318V29.6383C52.5671 31.0883 51.3917 32.2637 49.9417 32.2637C48.4917 32.2637 47.3162 31.0883 47.3162 29.6383V24.1406C30.5553 25.4354 17.1643 38.7548 15.758 55.4843H21.4703C22.9202 55.4843 24.0957 56.6597 24.0957 58.1097C24.0957 59.5597 22.9202 60.7351 21.4703 60.7351H15.7139C15.908 63.6289 16.4603 66.4246 17.3269 69.0782H82.6731ZM56.0428 60.7351C55.1063 63.1586 52.7539 64.8775 50 64.8775C46.4234 64.8775 43.5239 61.978 43.5239 58.4014C43.5239 57.4481 43.7299 56.5428 44.0999 55.7278L27.9586 38.5542C26.9655 37.4976 27.017 35.8361 28.0736 34.8431C29.1301 33.85 30.7917 33.9015 31.7847 34.9581L48.0214 52.2331C48.6451 52.0333 49.31 51.9253 50 51.9253C52.5273 51.9253 54.7164 53.373 55.7834 55.4843H79.2299C80.6799 55.4843 81.8553 56.6597 81.8553 58.1097C81.8553 59.5597 80.6799 60.7351 79.2299 60.7351H56.0428Z" fill="url(#paint0_linear_220_1660)"/>
<path d="M39.5639 87.1366C38.5748 87.1366 37.7133 86.9558 36.9795 86.5942C36.2457 86.2273 35.6767 85.7194 35.2725 85.0707C34.8737 84.4166 34.6743 83.6615 34.6743 82.8053V75.06H37.0752V82.6059C37.0752 83.3025 37.3012 83.8795 37.7532 84.3368C38.2052 84.7888 38.8088 85.0148 39.5639 85.0148C40.3243 85.0148 40.9306 84.7888 41.3826 84.3368C41.8346 83.8848 42.0606 83.3078 42.0606 82.6059V75.06H44.4615V82.8053C44.4615 83.6615 44.2595 84.4166 43.8553 85.0707C43.4512 85.7194 42.8822 86.2273 42.1483 86.5942C41.4145 86.9558 40.553 87.1366 39.5639 87.1366ZM45.674 77.1659V75.06H55.3336V77.1659H51.7362V86.9452H49.2794V77.1659H45.674ZM61.2124 87.1366C60.1222 87.1366 59.1518 86.8893 58.3009 86.3948C57.4501 85.8949 56.7801 85.1877 56.2908 84.273C55.8069 83.353 55.565 82.2656 55.565 81.0106C55.565 79.745 55.8069 78.6548 56.2908 77.7402C56.7801 76.8202 57.4501 76.113 58.3009 75.6184C59.1518 75.1185 60.1222 74.8686 61.2124 74.8686C62.143 74.8686 62.9779 75.0494 63.717 75.411C64.4615 75.7726 65.0704 76.2831 65.5437 76.9425C66.0169 77.5966 66.3174 78.365 66.445 79.2478H63.9643C63.8207 78.5458 63.507 78.0034 63.0231 77.6205C62.5445 77.2323 61.9515 77.0382 61.2443 77.0382C60.2339 77.0382 59.4469 77.3972 58.8832 78.1151C58.3195 78.8277 58.0377 79.7928 58.0377 81.0106C58.0377 82.2177 58.3195 83.1802 58.8832 83.8981C59.4469 84.6107 60.2339 84.967 61.2443 84.967C61.9462 84.967 62.5365 84.7755 63.0151 84.3927C63.499 84.0098 63.8181 83.47 63.9723 82.7734H66.445C66.3174 83.6561 66.0169 84.4246 65.5437 85.0786C65.0704 85.7327 64.4615 86.2406 63.717 86.6022C62.9779 86.9585 62.143 87.1366 61.2124 87.1366Z" fill="#71DDF7"/>
</g>
<defs>
<linearGradient id="paint0_linear_220_1660" x1="50" y1="8.75146" x2="50" y2="99.6499" gradientUnits="userSpaceOnUse">
<stop stop-color="#474B56"/>
<stop offset="1" stop-color="#2D3037"/>
</linearGradient>
<clipPath id="clip0_220_1660">
<rect width="100" height="108.401" fill="white"/>
</clipPath>
</defs>
</svg>
