<svg width="88" height="100" viewBox="0 0 88 100" fill="none" xmlns="http://www.w3.org/2000/svg">
<g clip-path="url(#clip0_91_246)">
<path fill-rule="evenodd" clip-rule="evenodd" d="M2.20223 5.8713C4.64143 2.20413 8.75365 0.000549316 13.1579 0.000549316H23.3789C28.5456 0.000549316 33.2341 3.02438 35.3653 7.73108L43.9246 26.6344L52.2801 7.81834C54.3911 3.0646 59.1043 0.000549316 64.3057 0.000549316H74.7369C79.1361 0.000549316 83.2443 2.19907 85.6846 5.85935C88.125 9.51962 88.5747 14.1573 86.883 18.2183L56.188 91.9019C54.1472 96.8008 49.3632 99.9942 44.0562 100C38.7492 100.006 33.9583 96.8229 31.9068 91.9284L1.02289 18.2448C-0.679635 14.1828 -0.23697 9.53847 2.20223 5.8713Z" fill="black"/>
<path fill-rule="evenodd" clip-rule="evenodd" d="M13.1579 13.1584L44.0418 86.8421L74.7368 13.1584H64.3056L44.0414 58.792L23.3788 13.1584H13.1579Z" fill="white"/>
</g>
<defs>
<clipPath id="clip0_91_246">
<rect width="87.8947" height="100" fill="white"/>
</clipPath>
</defs>
</svg>
