<svg width="101" height="100" viewBox="0 0 101 100" fill="none" xmlns="http://www.w3.org/2000/svg">
<g clip-path="url(#clip0_342_340)">
<path fill-rule="evenodd" clip-rule="evenodd" d="M67.434 99.2876L67.4348 99.2878C70.0678 100.314 73.077 100.251 75.7407 98.9676L94.438 89.9589L94.4382 89.9587C98.0557 88.2159 100.35 84.5538 100.35 80.5423V19.4582C100.35 15.4467 98.0557 11.7845 94.4385 10.0416L75.741 1.03285L75.7407 1.03272C72.2454 -0.651528 68.1567 -0.237106 65.091 1.99434L65.0891 1.99574C64.6858 2.28958 64.3003 2.61475 63.9365 2.97032L31.1461 32.9247L18.7198 23.4799C15.4369 20.9847 10.8433 21.1899 7.79549 23.9658L2.79487 28.5206C-0.927993 31.9115 -0.932185 37.7717 2.78568 41.1681L12.454 50.0001L2.78556 58.8323C-0.932155 62.2287 -0.927948 68.0888 2.79496 71.4798L7.79523 76.034L7.79555 76.0343C10.8437 78.8108 15.4371 79.015 18.7194 76.5207L18.7198 76.5204L31.1461 67.0754L63.9361 97.0296C64.9581 98.0291 66.1525 98.7877 67.434 99.2876ZM68.126 38.9682L53.6116 50.0001L68.126 61.032V38.9682Z" fill="white"/>
<mask id="mask0_342_340" style="mask-type:luminance" maskUnits="userSpaceOnUse" x="4" y="4" width="92" height="92">
<path fill-rule="evenodd" clip-rule="evenodd" d="M69.1663 94.8463C70.5967 95.4043 72.2278 95.3685 73.6717 94.673L92.3691 85.6644C94.3337 84.7178 95.5832 82.7265 95.5832 80.5423V19.4582C95.5832 17.274 94.3337 15.283 92.3691 14.3363L73.6717 5.32744C71.7769 4.41457 69.5594 4.63817 67.8967 5.84867C67.659 6.02159 67.4327 6.21467 67.2205 6.42744L31.4262 39.1257L15.835 27.2753C14.3836 26.1721 12.3535 26.2625 11.0056 27.4903L6.00494 32.045C4.3561 33.5468 4.35421 36.1442 6.00086 37.6484L19.5221 50.0001L6.00086 62.3519C4.35421 63.8562 4.3561 66.4535 6.00494 67.9553L11.0056 72.5099C12.3535 73.7378 14.3836 73.8281 15.835 72.7251L31.4262 60.8745L67.2205 93.5729C67.7867 94.1401 68.4515 94.5675 69.1663 94.8463ZM72.893 29.357L45.7333 50.0001L72.893 70.6432V29.357Z" fill="white"/>
</mask>
<g mask="url(#mask0_342_340)">
<path d="M92.4246 14.3504L73.7125 5.32908C71.5468 4.28487 68.9582 4.72534 67.2582 6.42738L6.00161 62.3519C4.35396 63.8562 4.35585 66.4535 6.00569 67.9553L11.0093 72.5099C12.3582 73.7378 14.3895 73.8281 15.8417 72.7251L89.6089 16.6907C92.0836 14.8109 95.6382 16.5783 95.6382 19.6886V19.4711C95.6382 17.2878 94.3892 15.2975 92.4246 14.3504Z" fill="#0065A9"/>
</g>
<mask id="mask1_342_340" style="mask-type:luminance" maskUnits="userSpaceOnUse" x="4" y="4" width="92" height="92">
<path fill-rule="evenodd" clip-rule="evenodd" d="M69.1663 94.8463C70.5967 95.4043 72.2278 95.3685 73.6717 94.673L92.3691 85.6644C94.3337 84.7178 95.5832 82.7265 95.5832 80.5423V19.4582C95.5832 17.274 94.3337 15.283 92.3691 14.3363L73.6717 5.32744C71.7769 4.41457 69.5594 4.63817 67.8967 5.84867C67.659 6.02159 67.4327 6.21467 67.2205 6.42744L31.4262 39.1257L15.835 27.2753C14.3836 26.1721 12.3535 26.2625 11.0056 27.4903L6.00494 32.045C4.3561 33.5468 4.35421 36.1442 6.00086 37.6484L19.5221 50.0001L6.00086 62.3519C4.35421 63.8562 4.3561 66.4535 6.00494 67.9553L11.0056 72.5099C12.3535 73.7378 14.3836 73.8281 15.835 72.7251L31.4262 60.8745L67.2205 93.5729C67.7867 94.1401 68.4515 94.5675 69.1663 94.8463ZM72.893 29.357L45.7333 50.0001L72.893 70.6432V29.357Z" fill="white"/>
</mask>
<g mask="url(#mask1_342_340)">
<path d="M92.4246 85.6499L73.7125 94.6712C71.5468 95.7152 68.9582 95.2747 67.2582 93.5729L6.00161 37.6484C4.35396 36.1441 4.35585 33.5467 6.00569 32.0449L11.0093 27.4902C12.3582 26.2624 14.3895 26.172 15.8417 27.2752L89.6089 83.3094C92.0836 85.1892 95.6382 83.422 95.6382 80.3114V80.5292C95.6382 82.7123 94.3892 84.7025 92.4246 85.6499Z" fill="#007ACC"/>
</g>
<mask id="mask2_342_340" style="mask-type:luminance" maskUnits="userSpaceOnUse" x="4" y="4" width="92" height="92">
<path fill-rule="evenodd" clip-rule="evenodd" d="M69.1663 94.8463C70.5967 95.4043 72.2278 95.3685 73.6717 94.673L92.3691 85.6644C94.3337 84.7178 95.5832 82.7265 95.5832 80.5423V19.4582C95.5832 17.274 94.3337 15.283 92.3691 14.3363L73.6717 5.32744C71.7769 4.41457 69.5594 4.63817 67.8967 5.84867C67.659 6.02159 67.4327 6.21467 67.2205 6.42744L31.4262 39.1257L15.835 27.2753C14.3836 26.1721 12.3535 26.2625 11.0056 27.4903L6.00494 32.045C4.3561 33.5468 4.35421 36.1442 6.00086 37.6484L19.5221 50.0001L6.00086 62.3519C4.35421 63.8562 4.3561 66.4535 6.00494 67.9553L11.0056 72.5099C12.3535 73.7378 14.3836 73.8281 15.835 72.7251L31.4262 60.8745L67.2205 93.5729C67.7867 94.1401 68.4515 94.5675 69.1663 94.8463ZM72.893 29.357L45.7333 50.0001L72.893 70.6432V29.357Z" fill="white"/>
</mask>
<g mask="url(#mask2_342_340)">
<path d="M73.6539 94.6784C71.4874 95.7217 68.8988 95.2809 67.1989 93.5787C69.2933 95.6759 72.8749 94.1904 72.8749 91.2244V8.78728C72.8749 5.82124 69.2933 4.33584 67.1989 6.43315C68.8988 4.73095 71.4874 4.28986 73.6539 5.33315L92.3627 14.342C94.3287 15.2887 95.5789 17.2797 95.5789 19.464V80.5481C95.5789 82.7323 94.3287 84.7233 92.3627 85.6699L73.6539 94.6784Z" fill="#1F9CF0"/>
</g>
<mask id="mask3_342_340" style="mask-type:luminance" maskUnits="userSpaceOnUse" x="4" y="4" width="92" height="92">
<path fill-rule="evenodd" clip-rule="evenodd" d="M69.1663 94.8463C70.5967 95.4043 72.2278 95.3685 73.6717 94.673L92.3691 85.6644C94.3337 84.7178 95.5832 82.7265 95.5832 80.5423V19.4582C95.5832 17.274 94.3337 15.283 92.3691 14.3363L73.6717 5.32744C71.7769 4.41457 69.5594 4.63817 67.8967 5.84867C67.659 6.02159 67.4327 6.21467 67.2205 6.42744L31.4262 39.1257L15.835 27.2753C14.3836 26.1721 12.3535 26.2625 11.0056 27.4903L6.00494 32.045C4.3561 33.5468 4.35421 36.1442 6.00086 37.6484L19.5221 50.0001L6.00086 62.3519C4.35421 63.8562 4.3561 66.4535 6.00494 67.9553L11.0056 72.5099C12.3535 73.7378 14.3836 73.8281 15.835 72.7251L31.4262 60.8745L67.2205 93.5729C67.7867 94.1401 68.4515 94.5675 69.1663 94.8463ZM72.893 29.357L45.7333 50.0001L72.893 70.6432V29.357Z" fill="white"/>
</mask>
<g mask="url(#mask3_342_340)">
<path fill-rule="evenodd" clip-rule="evenodd" d="M73.6714 94.6728C72.2279 95.3683 70.5968 95.4038 69.1664 94.8461C68.4516 94.5673 67.7864 94.14 67.2203 93.5727L31.4262 60.8743L15.835 72.7249C14.3836 73.8279 12.3535 73.7376 11.0055 72.5097L6.00494 67.9551C4.3561 66.4533 4.35421 63.856 6.00086 62.3517L19.5221 49.9999L6.00086 37.6482C4.35421 36.1439 4.3561 33.5466 6.00494 32.0447L11.0055 27.49C12.3535 26.2623 14.3836 26.1719 15.835 27.275L31.4262 39.1254L67.2203 6.42719C67.4328 6.21442 67.6591 6.02135 67.8964 5.84842C69.5595 4.63792 71.777 4.41432 73.6714 5.3272L92.3692 14.3361C94.3338 15.2827 95.5833 17.2737 95.5833 19.458V80.5421C95.5833 82.7263 94.3338 84.7172 92.3689 85.6639L73.6714 94.6728ZM45.7334 50.0001L72.8931 29.357V70.6432L45.7334 50.0001Z" fill="url(#paint0_linear_342_340)" fill-opacity="0.25"/>
</g>
</g>
<defs>
<linearGradient id="paint0_linear_342_340" x1="4.76717" y1="4.76715" x2="4.76717" y2="95.2326" gradientUnits="userSpaceOnUse">
<stop stop-color="white"/>
<stop offset="1" stop-color="white" stop-opacity="0.01"/>
</linearGradient>
<clipPath id="clip0_342_340">
<rect width="101" height="100" fill="white"/>
</clipPath>
</defs>
</svg>
