<svg width="1171" height="194" viewBox="0 0 1171 194" fill="none" xmlns="http://www.w3.org/2000/svg">
<style>svg {color-scheme: dark;} @media (prefers-color-scheme: light) { svg {color-scheme: light;} }</style>
<rect x="1" y="1" width="1169" height="192" rx="41" fill="url(#paint0_linear_372_458)"/>
<rect x="1" y="1" width="1169" height="192" rx="41" stroke="light-dark(#B4B4B4, black)" stroke-width="2"/>
<rect x="27.75" y="27.75" width="138.5" height="138.5" rx="16.25" stroke="light-dark(#8B8B8B, black)" stroke-opacity="0.95" stroke-width="2.5"/>
<rect x="30" y="30" width="134" height="134" rx="14" fill="url(#paint1_linear_372_458)" stroke="url(#paint2_linear_372_458)" stroke-width="2"/>
<path d="M93.612 76.788L97.044 75.732C98.364 77.844 99.904 80.704 100.52 82.508L96.868 83.696C96.34 81.892 94.932 78.944 93.612 76.788ZM77.2 83.784H116.976V87.04H110.024C107.472 93.992 104.084 99.624 99.64 104.156C104.524 108.292 110.508 111.416 117.548 113.176C116.8 113.88 115.832 115.288 115.26 116.212C108.044 114.232 102.06 110.976 97.088 106.576C92.116 110.888 86 114.056 78.652 116.432C78.3 115.64 77.244 114.1 76.584 113.308C83.888 111.24 89.828 108.248 94.668 104.2C90.136 99.492 86.66 93.728 84.064 87.04H77.2V83.784ZM97.176 101.868C101.048 97.864 104.084 92.98 106.284 87.04H87.496C89.784 92.672 93.04 97.688 97.176 101.868Z" fill="light-dark(#848484, #8C8C8C)"/>
<path d="M205.666 112L203.26 109.625L213.166 99.7188H187.51V96.2812H213.166L203.26 86.4063L205.666 84L219.666 98L205.666 112Z" fill="light-dark(#848484, #8C8C8C)"/>
<rect x="239.75" y="27.75" width="138.5" height="138.5" rx="16.25" stroke="light-dark(#8B8B8B, black)" stroke-opacity="0.95" stroke-width="2.5"/>
<rect x="242" y="30" width="134" height="134" rx="14" fill="url(#paint3_linear_372_458)" stroke="url(#paint4_linear_372_458)" stroke-width="2"/>
<path d="M268.688 145L259.938 113H263.875L270.563 139.062H270.875L277.688 113H282.063L288.875 139.062H289.188L295.875 113H299.813L291.063 145H287.063L280 119.5H279.75L272.688 145H268.688Z" fill="light-dark(#848484, #8C8C8C)"/>
<path d="M268.773 69.3636C267.091 69.3636 265.64 68.9924 264.42 68.25C263.208 67.5 262.273 66.4545 261.614 65.1136C260.962 63.7652 260.636 62.197 260.636 60.4091C260.636 58.6212 260.962 57.0455 261.614 55.6818C262.273 54.3106 263.189 53.2424 264.364 52.4773C265.545 51.7045 266.924 51.3182 268.5 51.3182C269.409 51.3182 270.307 51.4697 271.193 51.7727C272.08 52.0758 272.886 52.5682 273.614 53.25C274.341 53.9242 274.92 54.8182 275.352 55.9318C275.784 57.0455 276 58.4167 276 60.0455V61.1818H262.545V58.8636H273.273C273.273 57.8788 273.076 57 272.682 56.2273C272.295 55.4545 271.742 54.8447 271.023 54.3977C270.311 53.9508 269.47 53.7273 268.5 53.7273C267.432 53.7273 266.508 53.9924 265.727 54.5227C264.955 55.0455 264.36 55.7273 263.943 56.5682C263.527 57.4091 263.318 58.3106 263.318 59.2727V60.8182C263.318 62.1364 263.545 63.2538 264 64.1705C264.462 65.0795 265.102 65.7727 265.92 66.25C266.739 66.7197 267.689 66.9545 268.773 66.9545C269.477 66.9545 270.114 66.8561 270.682 66.6591C271.258 66.4545 271.754 66.1515 272.17 65.75C272.587 65.3409 272.909 64.8333 273.136 64.2273L275.727 64.9545C275.455 65.8333 274.996 66.6061 274.352 67.2727C273.708 67.9318 272.913 68.447 271.966 68.8182C271.019 69.1818 269.955 69.3636 268.773 69.3636ZM280.08 69V51.5455H282.761V69H280.08ZM281.443 48.6364C280.92 48.6364 280.47 48.4583 280.091 48.1023C279.72 47.7462 279.534 47.3182 279.534 46.8182C279.534 46.3182 279.72 45.8902 280.091 45.5341C280.47 45.178 280.92 45 281.443 45C281.966 45 282.413 45.178 282.784 45.5341C283.163 45.8902 283.352 46.3182 283.352 46.8182C283.352 47.3182 283.163 47.7462 282.784 48.1023C282.413 48.4583 281.966 48.6364 281.443 48.6364Z" fill="light-dark(#848484, #8C8C8C)" fill-opacity="0.25"/>
<path d="M340.142 61.8636V51.5455H342.824V69H340.142V66.0455H339.96C339.551 66.9318 338.915 67.6856 338.051 68.3068C337.188 68.9205 336.097 69.2273 334.778 69.2273C333.688 69.2273 332.718 68.9886 331.869 68.5114C331.021 68.0265 330.354 67.2992 329.869 66.3295C329.384 65.3523 329.142 64.1212 329.142 62.6364V51.5455H331.824V62.4545C331.824 63.7273 332.18 64.7424 332.892 65.5C333.612 66.2576 334.528 66.6364 335.642 66.6364C336.309 66.6364 336.987 66.4659 337.676 66.125C338.373 65.7841 338.956 65.2614 339.426 64.5568C339.903 63.8523 340.142 62.9545 340.142 61.8636ZM350.418 58.5V69H347.736V51.5455H350.327V54.2727H350.554C350.963 53.3864 351.584 52.6742 352.418 52.1364C353.251 51.5909 354.327 51.3182 355.645 51.3182C356.827 51.3182 357.861 51.5606 358.747 52.0455C359.634 52.5227 360.323 53.25 360.815 54.2273C361.308 55.197 361.554 56.4242 361.554 57.9091V69H358.872V58.0909C358.872 56.7197 358.516 55.6515 357.804 54.8864C357.092 54.1136 356.115 53.7273 354.872 53.7273C354.016 53.7273 353.251 53.9129 352.577 54.2841C351.91 54.6553 351.384 55.197 350.997 55.9091C350.611 56.6212 350.418 57.4848 350.418 58.5Z" fill="light-dark(#848484, #8C8C8C)" fill-opacity="0.25"/>
<rect x="392.75" y="27.75" width="138.5" height="138.5" rx="16.25" stroke="light-dark(#8B8B8B, black)" stroke-opacity="0.95" stroke-width="2.5"/>
<rect x="395" y="30" width="134" height="134" rx="14" fill="url(#paint5_linear_372_458)" stroke="url(#paint6_linear_372_458)" stroke-width="2"/>
<path d="M415.875 145V113H435.187V116.437H419.75V127.25H434.188V130.687H419.75V141.562H435.438V145H415.875Z" fill="light-dark(#848484, #8C8C8C)" fill-opacity="0.25"/>
<path d="M421.773 69.3636C420.091 69.3636 418.64 68.9924 417.42 68.25C416.208 67.5 415.273 66.4545 414.614 65.1136C413.962 63.7652 413.636 62.197 413.636 60.4091C413.636 58.6212 413.962 57.0455 414.614 55.6818C415.273 54.3106 416.189 53.2424 417.364 52.4773C418.545 51.7045 419.924 51.3182 421.5 51.3182C422.409 51.3182 423.307 51.4697 424.193 51.7727C425.08 52.0758 425.886 52.5682 426.614 53.25C427.341 53.9242 427.92 54.8182 428.352 55.9318C428.784 57.0455 429 58.4167 429 60.0455V61.1818H415.545V58.8636H426.273C426.273 57.8788 426.076 57 425.682 56.2273C425.295 55.4545 424.742 54.8447 424.023 54.3977C423.311 53.9508 422.47 53.7273 421.5 53.7273C420.432 53.7273 419.508 53.9924 418.727 54.5227C417.955 55.0455 417.36 55.7273 416.943 56.5682C416.527 57.4091 416.318 58.3106 416.318 59.2727V60.8182C416.318 62.1364 416.545 63.2538 417 64.1705C417.462 65.0795 418.102 65.7727 418.92 66.25C419.739 66.7197 420.689 66.9545 421.773 66.9545C422.477 66.9545 423.114 66.8561 423.682 66.6591C424.258 66.4545 424.754 66.1515 425.17 65.75C425.587 65.3409 425.909 64.8333 426.136 64.2273L428.727 64.9545C428.455 65.8333 427.996 66.6061 427.352 67.2727C426.708 67.9318 425.913 68.447 424.966 68.8182C424.019 69.1818 422.955 69.3636 421.773 69.3636ZM435.761 58.5V69H433.08V51.5455H435.67V54.2727H435.898C436.307 53.3864 436.928 52.6742 437.761 52.1364C438.595 51.5909 439.67 51.3182 440.989 51.3182C442.17 51.3182 443.205 51.5606 444.091 52.0455C444.977 52.5227 445.667 53.25 446.159 54.2273C446.652 55.197 446.898 56.4242 446.898 57.9091V69H444.216V58.0909C444.216 56.7197 443.86 55.6515 443.148 54.8864C442.436 54.1136 441.458 53.7273 440.216 53.7273C439.36 53.7273 438.595 53.9129 437.92 54.2841C437.254 54.6553 436.727 55.197 436.341 55.9091C435.955 56.6212 435.761 57.4848 435.761 58.5Z" fill="light-dark(#848484, #8C8C8C)"/>
<rect x="545.75" y="27.75" width="138.5" height="138.5" rx="16.25" stroke="light-dark(#8B8B8B, black)" stroke-opacity="0.95" stroke-width="2.5"/>
<rect x="548" y="30" width="134" height="134" rx="14" fill="url(#paint7_linear_372_458)" stroke="url(#paint8_linear_372_458)" stroke-width="2"/>
<path d="M595.875 129C595.875 132.375 595.266 135.292 594.047 137.75C592.828 140.208 591.156 142.104 589.031 143.438C586.906 144.771 584.479 145.437 581.75 145.437C579.021 145.437 576.594 144.771 574.469 143.438C572.344 142.104 570.672 140.208 569.453 137.75C568.234 135.292 567.625 132.375 567.625 129C567.625 125.625 568.234 122.708 569.453 120.25C570.672 117.792 572.344 115.896 574.469 114.562C576.594 113.229 579.021 112.562 581.75 112.562C584.479 112.562 586.906 113.229 589.031 114.562C591.156 115.896 592.828 117.792 594.047 120.25C595.266 122.708 595.875 125.625 595.875 129ZM592.125 129C592.125 126.229 591.661 123.891 590.734 121.984C589.818 120.078 588.573 118.635 587 117.656C585.438 116.677 583.688 116.187 581.75 116.187C579.813 116.187 578.057 116.677 576.484 117.656C574.922 118.635 573.677 120.078 572.75 121.984C571.833 123.891 571.375 126.229 571.375 129C571.375 131.771 571.833 134.109 572.75 136.016C573.677 137.922 574.922 139.365 576.484 140.344C578.057 141.323 579.813 141.812 581.75 141.812C583.688 141.812 585.438 141.323 587 140.344C588.573 139.365 589.818 137.922 590.734 136.016C591.661 134.109 592.125 131.771 592.125 129Z" fill="light-dark(#848484, #8C8C8C)" fill-opacity="0.25"/>
<path d="M573.48 56.952L575.432 55.288C579.944 58.424 585.448 63.032 588.04 66.264L585.864 68.248C583.432 65.016 578.056 60.216 573.48 56.952Z" fill="light-dark(#848484, #8C8C8C)"/>
<path d="M642.064 51.48H666.032V76.632H663.472V74.04H644.56V76.76H642.064V51.48ZM644.56 71.576H663.472V53.88H644.56V71.576Z" fill="light-dark(#848484, #8C8C8C)" fill-opacity="0.25"/>
<path d="M637.284 131.736V140.728H653.252V131.736H637.284ZM637.284 129.368H653.252V120.696H637.284V129.368ZM634.82 118.296H655.812V145.048H653.252V143.128H637.284V145.208H634.82V118.296ZM664.132 143V125.624H667.076V143H664.132ZM665.604 122.04C664.452 122.04 663.684 121.272 663.684 120.088C663.684 118.968 664.452 118.2 665.604 118.2C666.756 118.2 667.556 118.968 667.556 120.088C667.556 121.272 666.756 122.04 665.604 122.04Z" fill="light-dark(#848484, #8C8C8C)" fill-opacity="0.25"/>
<rect x="698.75" y="27.75" width="138.5" height="138.5" rx="16.25" stroke="light-dark(#8B8B8B, black)" stroke-opacity="0.95" stroke-width="2.5" stroke-dasharray="5 5"/>
<rect x="701" y="30" width="134" height="134" rx="14" fill="url(#paint9_linear_372_458)" fill-opacity="0.7" stroke="url(#paint10_linear_372_458)" stroke-width="2" stroke-dasharray="4 4"/>
<path d="M723.188 113L732.688 139.937H733.063L742.562 113H746.625L734.875 145H730.875L719.125 113H723.188Z" fill="light-dark(#848484, #8C8C8C)" fill-opacity="0.25"/>
<path d="M719.408 61.208H748.72V63.832H719.408V61.208Z" fill="light-dark(#848484, #8C8C8C)"/>
<path d="M805.72 48.152H808.248V55.992H820.92V58.392H809.304C812.216 63.832 817.208 69.304 822.04 71.992C821.464 72.472 820.632 73.4 820.216 74.072C815.8 71.288 811.384 66.264 808.248 60.952V77.56H805.72V60.984C802.648 66.456 798.232 71.384 793.688 74.136C793.272 73.528 792.472 72.6 791.896 72.12C796.824 69.432 801.72 63.96 804.6 58.392H793.144V55.992H805.72V48.152Z" fill="light-dark(#848484, #8C8C8C)" fill-opacity="0.25"/>
<path d="M771.437 124.912H773.357V132.568H781.685V134.32H773.357V144.088H783.221V145.84H761.693V144.088H771.437V134.32H763.229V132.568H771.437V124.912ZM795.437 124.912H797.357V132.472H807.245V134.248H797.357V143.8H805.949V145.576H787.061V143.8H795.437V134.248H785.717V132.472H795.437V124.912ZM815.717 145.312C812.525 145.312 809.693 142.816 809.693 138.496C809.693 134.152 812.525 131.632 815.717 131.632C818.909 131.632 821.741 134.152 821.741 138.496C821.741 142.816 818.909 145.312 815.717 145.312ZM815.717 143.488C817.973 143.488 819.509 141.496 819.509 138.496C819.509 135.496 817.973 133.48 815.717 133.48C813.461 133.48 811.949 135.496 811.949 138.496C811.949 141.496 813.461 143.488 815.717 143.488Z" fill="light-dark(#848484, #8C8C8C)" fill-opacity="0.25"/>
<rect x="851.75" y="27.75" width="138.5" height="138.5" rx="16.25" stroke="light-dark(#8B8B8B, black)" stroke-opacity="0.95" stroke-width="2.5" stroke-dasharray="5 5"/>
<rect x="854" y="30" width="134" height="134" rx="14" fill="url(#paint11_linear_372_458)" fill-opacity="0.7" stroke="url(#paint12_linear_372_458)" stroke-width="2" stroke-dasharray="4 4"/>
<path d="M874.875 145V113H894.187V116.437H878.75V127.25H893.188V130.687H878.75V141.562H894.438V145H874.875Z" fill="light-dark(#848484, #8C8C8C)" fill-opacity="0.25"/>
<path d="M887.224 48.92H889.816V58.904C889.816 65.624 888.856 72.568 880.12 77.272C879.64 76.728 878.68 75.832 878.04 75.416C886.392 71.096 887.224 64.984 887.224 58.872V48.92Z" fill="light-dark(#848484, #8C8C8C)"/>
<path d="M950.624 49.816H970.272V74.008C970.272 75.736 969.792 76.536 968.608 76.952C967.36 77.4 965.216 77.432 961.792 77.432C961.632 76.696 961.184 75.576 960.768 74.904C963.424 75 966.016 74.968 966.752 74.936C967.52 74.904 967.744 74.68 967.744 73.976V67.576H952.288C951.488 71.224 949.888 74.84 946.752 77.592C946.4 77.08 945.472 76.184 944.928 75.864C950.112 71.32 950.624 64.824 950.624 59.672V49.816ZM953.056 52.152V57.528H967.744V52.152H953.056ZM953.056 59.8C953.056 61.496 952.96 63.352 952.704 65.24H967.744V59.8H953.056Z" fill="light-dark(#848484, #8C8C8C)" fill-opacity="0.25"/>
<path d="M939.346 116.152H941.938V128.088H955.058V130.552H941.938V145.56H939.346V130.552H926.354V128.088H939.346V116.152ZM966.29 143.416C962.034 143.416 958.258 140.088 958.258 134.328C958.258 128.536 962.034 125.176 966.29 125.176C970.546 125.176 974.322 128.536 974.322 134.328C974.322 140.088 970.546 143.416 966.29 143.416ZM966.29 140.984C969.298 140.984 971.346 138.328 971.346 134.328C971.346 130.328 969.298 127.64 966.29 127.64C963.282 127.64 961.266 130.328 961.266 134.328C961.266 138.328 963.282 140.984 966.29 140.984Z" fill="light-dark(#848484, #8C8C8C)" fill-opacity="0.25"/>
<rect x="1004.75" y="27.75" width="138.5" height="138.5" rx="16.25" stroke="light-dark(#8B8B8B, black)" stroke-opacity="0.95" stroke-width="2.5" stroke-dasharray="5 5"/>
<rect x="1007" y="30" width="134" height="134" rx="14" fill="url(#paint13_linear_372_458)" fill-opacity="0.7" stroke="url(#paint14_linear_372_458)" stroke-width="2" stroke-dasharray="4 4"/>
<path d="M1054.88 129C1054.88 132.375 1054.27 135.292 1053.05 137.75C1051.83 140.208 1050.16 142.104 1048.03 143.438C1045.91 144.771 1043.48 145.437 1040.75 145.437C1038.02 145.437 1035.59 144.771 1033.47 143.438C1031.34 142.104 1029.67 140.208 1028.45 137.75C1027.23 135.292 1026.63 132.375 1026.63 129C1026.63 125.625 1027.23 122.708 1028.45 120.25C1029.67 117.792 1031.34 115.896 1033.47 114.562C1035.59 113.229 1038.02 112.562 1040.75 112.562C1043.48 112.562 1045.91 113.229 1048.03 114.562C1050.16 115.896 1051.83 117.792 1053.05 120.25C1054.27 122.708 1054.88 125.625 1054.88 129ZM1051.13 129C1051.13 126.229 1050.66 123.891 1049.73 121.984C1048.82 120.078 1047.57 118.635 1046 117.656C1044.44 116.677 1042.69 116.187 1040.75 116.187C1038.81 116.187 1037.06 116.677 1035.48 117.656C1033.92 118.635 1032.68 120.078 1031.75 121.984C1030.83 123.891 1030.38 126.229 1030.38 129C1030.38 131.771 1030.83 134.109 1031.75 136.016C1032.68 137.922 1033.92 139.365 1035.48 140.344C1037.06 141.323 1038.81 141.812 1040.75 141.812C1042.69 141.812 1044.44 141.323 1046 140.344C1047.57 139.365 1048.82 137.922 1049.73 136.016C1050.66 134.109 1051.13 131.771 1051.13 129Z" fill="light-dark(#848484, #8C8C8C)" fill-opacity="0.25"/>
<path d="M1032.48 56.952L1034.43 55.288C1038.94 58.424 1044.45 63.032 1047.04 66.264L1044.86 68.248C1042.43 65.016 1037.06 60.216 1032.48 56.952Z" fill="light-dark(#848484, #8C8C8C)"/>
<path d="M1101.06 51.48H1125.03V76.632H1122.47V74.04H1103.56V76.76H1101.06V51.48ZM1103.56 71.576H1122.47V53.88H1103.56V71.576Z" fill="light-dark(#848484, #8C8C8C)" fill-opacity="0.25"/>
<path d="M1096.28 131.736V140.728H1112.25V131.736H1096.28ZM1096.28 129.368H1112.25V120.696H1096.28V129.368ZM1093.82 118.296H1114.81V145.048H1112.25V143.128H1096.28V145.208H1093.82V118.296ZM1123.13 143V125.624H1126.08V143H1123.13ZM1124.6 122.04C1123.45 122.04 1122.68 121.272 1122.68 120.088C1122.68 118.968 1123.45 118.2 1124.6 118.2C1125.76 118.2 1126.56 118.968 1126.56 120.088C1126.56 121.272 1125.76 122.04 1124.6 122.04Z" fill="light-dark(#848484, #8C8C8C)" fill-opacity="0.25"/>
<defs>
<linearGradient id="paint0_linear_372_458" x1="585.5" y1="2" x2="585.5" y2="192" gradientUnits="userSpaceOnUse">
<stop stop-color="light-dark(#DEDEDE, #363636)"/>
<stop offset="1" stop-color="light-dark(#CDCECF, #242424)"/>
</linearGradient>
<linearGradient id="paint1_linear_372_458" x1="97" y1="29" x2="97" y2="165" gradientUnits="userSpaceOnUse">
<stop stop-color="light-dark(#fff, #1A1A1A)"/>
<stop offset="1" stop-color="light-dark(#fff, #131318)"/>
</linearGradient>
<linearGradient id="paint2_linear_372_458" x1="97" y1="29" x2="97" y2="165" gradientUnits="userSpaceOnUse">
<stop stop-color="light-dark(#fff, #383838)" stop-opacity="0.5"/>
<stop offset="0.0698358" stop-color="light-dark(#B1B1B1, #141414)"/>
<stop offset="0.93129" stop-color="light-dark(#B1B1B1, #141414)"/>
<stop offset="1" stop-color="light-dark(#fff, #212121)"/>
</linearGradient>
<linearGradient id="paint3_linear_372_458" x1="309" y1="29" x2="309" y2="165" gradientUnits="userSpaceOnUse">
<stop stop-color="light-dark(#fff, #1A1A1A)"/>
<stop offset="1" stop-color="light-dark(#fff, #131318)"/>
</linearGradient>
<linearGradient id="paint4_linear_372_458" x1="309" y1="29" x2="309" y2="165" gradientUnits="userSpaceOnUse">
<stop stop-color="light-dark(#fff, #383838)" stop-opacity="0.5"/>
<stop offset="0.0698358" stop-color="light-dark(#B1B1B1, #141414)"/>
<stop offset="0.93129" stop-color="light-dark(#B1B1B1, #141414)"/>
<stop offset="1" stop-color="light-dark(#fff, #212121)"/>
</linearGradient>
<linearGradient id="paint5_linear_372_458" x1="462" y1="29" x2="462" y2="165" gradientUnits="userSpaceOnUse">
<stop stop-color="light-dark(#fff, #1A1A1A)"/>
<stop offset="1" stop-color="light-dark(#fff, #131318)"/>
</linearGradient>
<linearGradient id="paint6_linear_372_458" x1="462" y1="29" x2="462" y2="165" gradientUnits="userSpaceOnUse">
<stop stop-color="light-dark(#fff, #383838)" stop-opacity="0.5"/>
<stop offset="0.0698358" stop-color="light-dark(#B1B1B1, #141414)"/>
<stop offset="0.93129" stop-color="light-dark(#B1B1B1, #141414)"/>
<stop offset="1" stop-color="light-dark(#fff, #212121)"/>
</linearGradient>
<linearGradient id="paint7_linear_372_458" x1="615" y1="29" x2="615" y2="165" gradientUnits="userSpaceOnUse">
<stop stop-color="light-dark(#fff, #1A1A1A)"/>
<stop offset="1" stop-color="light-dark(#fff, #131318)"/>
</linearGradient>
<linearGradient id="paint8_linear_372_458" x1="615" y1="29" x2="615" y2="165" gradientUnits="userSpaceOnUse">
<stop stop-color="light-dark(#fff, #383838)" stop-opacity="0.5"/>
<stop offset="0.0698358" stop-color="light-dark(#B1B1B1, #141414)"/>
<stop offset="0.93129" stop-color="light-dark(#B1B1B1, #141414)"/>
<stop offset="1" stop-color="light-dark(#fff, #212121)"/>
</linearGradient>
<linearGradient id="paint9_linear_372_458" x1="768" y1="29" x2="768" y2="165" gradientUnits="userSpaceOnUse">
<stop stop-color="light-dark(#fff, #1A1A1A)"/>
<stop offset="1" stop-color="light-dark(#fff, #131318)"/>
</linearGradient>
<linearGradient id="paint10_linear_372_458" x1="768" y1="29" x2="768" y2="165" gradientUnits="userSpaceOnUse">
<stop stop-color="light-dark(#fff, #383838)" stop-opacity="0.5"/>
<stop offset="0.0698358" stop-color="light-dark(#B1B1B1, #141414)"/>
<stop offset="0.93129" stop-color="light-dark(#B1B1B1, #141414)"/>
<stop offset="1" stop-color="light-dark(#fff, #212121)"/>
</linearGradient>
<linearGradient id="paint11_linear_372_458" x1="921" y1="29" x2="921" y2="165" gradientUnits="userSpaceOnUse">
<stop stop-color="light-dark(#fff, #1A1A1A)"/>
<stop offset="1" stop-color="light-dark(#fff, #131318)"/>
</linearGradient>
<linearGradient id="paint12_linear_372_458" x1="921" y1="29" x2="921" y2="165" gradientUnits="userSpaceOnUse">
<stop stop-color="light-dark(#fff, #383838)" stop-opacity="0.5"/>
<stop offset="0.0698358" stop-color="light-dark(#B1B1B1, #141414)"/>
<stop offset="0.93129" stop-color="light-dark(#B1B1B1, #141414)"/>
<stop offset="1" stop-color="light-dark(#fff, #212121)"/>
</linearGradient>
<linearGradient id="paint13_linear_372_458" x1="1074" y1="29" x2="1074" y2="165" gradientUnits="userSpaceOnUse">
<stop stop-color="light-dark(#fff, #1A1A1A)"/>
<stop offset="1" stop-color="light-dark(#fff, #131318)"/>
</linearGradient>
<linearGradient id="paint14_linear_372_458" x1="1074" y1="29" x2="1074" y2="165" gradientUnits="userSpaceOnUse">
<stop stop-color="light-dark(#fff, #383838)" stop-opacity="0.5"/>
<stop offset="0.0698358" stop-color="light-dark(#B1B1B1, #141414)"/>
<stop offset="0.93129" stop-color="light-dark(#B1B1B1, #141414)"/>
<stop offset="1" stop-color="light-dark(#fff, #212121)"/>
</linearGradient>
</defs>
</svg>
