<svg width="108" height="100" viewBox="0 0 108 100" fill="none" xmlns="http://www.w3.org/2000/svg">
<g clip-path="url(#clip0_280_40)">
<path fill-rule="evenodd" clip-rule="evenodd" d="M15.8717 48.1225C15.8717 48.9189 15.8716 50.4051 15.8716 50.4051C15.8716 50.4051 15.8716 51.8915 15.8716 52.6881V92.5873C15.8716 96.6812 19.1904 100 23.2843 100H31.8449C35.9388 100 39.2576 96.6812 39.2576 92.5873V90.8142C39.7598 90.9213 40.2776 90.977 40.804 90.977H47.5423C48.1764 90.977 48.7979 90.8962 49.3948 90.7421V92.5792C49.3948 96.6731 52.7136 99.9919 56.8075 99.9919H65.0199C66.0345 99.9919 67.7826 99.8191 67.7826 99.8191C67.7826 99.8191 69.4474 99.8191 70.2905 99.8191H100.071C104.165 99.8191 107.484 96.5003 107.484 92.4064V83.9165C107.484 79.8226 104.165 76.5039 100.071 76.5039H86.4254V52.6787C86.4254 51.9002 86.4254 51.3306 86.4254 50.3816C86.4254 48.3104 86.5374 47.0433 85.8788 45.4245L69.3179 4.71464C68.1817 1.92163 65.4669 0.0951808 62.4517 0.0951808H54.1021C53.472 0.0951808 52.2606 0 52.2606 0C52.2606 0 50.8343 0 50.085 0H39.127C36.5887 0 34.2269 1.29882 32.8673 3.44235L28.9774 9.57533L25.1336 3.46544C23.7768 1.3087 21.4073 0 18.8593 0H7.41268C4.70657 0 2.21549 1.47466 0.913845 3.84716C-0.387802 6.21967 -0.293154 9.11295 1.16077 11.3953L15.8717 34.4885V48.1225Z" fill="white"/>
<path d="M50.085 7.41269L33.4689 32.328V48.1225H23.2845V32.328L7.41272 7.41269H18.8593L28.9518 23.4553L39.1271 7.41269H50.085Z" fill="black"/>
<path d="M67.1872 39.1647H48.753L45.0038 48.2177H36.8408L54.1021 7.50787H62.4517L79.0125 48.2177H70.2896L67.187 39.1647H67.1872ZM64.1251 31.037L58.474 16.0976L52.1695 31.037H64.1251Z" fill="#CB171E"/>
<path d="M23.2843 52.6881V92.5873H31.8449V65.0652L40.804 83.5643H47.5424L56.8075 64.415V92.5792H65.0199V52.6881H53.8068L43.8574 70.7322L34.3816 52.6881H23.2843Z" fill="black"/>
<path d="M100.071 83.9165H79.0127V52.6787H70.2905V92.4064H100.071V83.9169V83.9165Z" fill="black"/>
</g>
<defs>
<clipPath id="clip0_280_40">
<rect width="108" height="100" fill="white"/>
</clipPath>
</defs>
</svg>
