<svg width="101" height="101" viewBox="0 0 101 101" fill="none" xmlns="http://www.w3.org/2000/svg">
<g clip-path="url(#clip0_46_75)">
<path d="M46.7674 99.8717C33.405 97.8294 21.1363 90.5281 12.3112 80.6934C0.260408 67.2638 -2.89443 48.5726 4.26778 33.0389C8.55458 23.7416 18.4598 13.0055 27.3246 8.048C45.1469 -1.9188 65.5619 -2.01363 78.8897 7.80848C92.9283 18.1545 100.506 35.8997 100.477 58.364C100.459 72.0773 97.5555 80.8512 90.5998 88.2059C84.0396 95.1423 75.7283 99.0957 63.172 100.181C54.7289 100.911 53.224 100.858 46.7674 99.8717Z" fill="#407A28"/>
<path d="M24.568 30.8H77.496V62.928H69.432V38.352H32.312V63.248H24.568V30.8ZM28.6 52.112H73.912V59.664H28.6V52.112ZM46.776 19.664H54.904V79.76H46.776V19.664Z" fill="white"/>
<mask id="path-3-outside-1_46_75" maskUnits="userSpaceOnUse" x="63" y="58" width="24" height="28" fill="black">
<rect fill="white" x="63" y="58" width="24" height="28"/>
<path d="M66.9204 78.3979V75.4526L76.3794 61.9014H78.7441V65.7246H77.3989L70.7012 75.3252V75.3818H83.8701V78.3979H66.9204ZM77.4272 83V77.5059L77.4414 76.1748V61.9014H80.9956V83H77.4272Z"/>
</mask>
<path d="M66.9204 78.3979V75.4526L76.3794 61.9014H78.7441V65.7246H77.3989L70.7012 75.3252V75.3818H83.8701V78.3979H66.9204ZM77.4272 83V77.5059L77.4414 76.1748V61.9014H80.9956V83H77.4272Z" fill="white"/>
<path d="M66.9204 78.3979H63.9204V81.3979H66.9204V78.3979ZM66.9204 75.4526L64.4604 73.7355L63.9204 74.5092V75.4526H66.9204ZM76.3794 61.9014V58.9014H74.8149L73.9194 60.1843L76.3794 61.9014ZM78.7441 61.9014H81.7441V58.9014H78.7441V61.9014ZM78.7441 65.7246V68.7246H81.7441V65.7246H78.7441ZM77.3989 65.7246V62.7246H75.8339L74.9385 64.0081L77.3989 65.7246ZM70.7012 75.3252L68.2408 73.6087L67.7012 74.3821V75.3252H70.7012ZM70.7012 75.3818H67.7012V78.3818H70.7012V75.3818ZM83.8701 75.3818H86.8701V72.3818H83.8701V75.3818ZM83.8701 78.3979V81.3979H86.8701V78.3979H83.8701ZM77.4272 83H74.4272V86H77.4272V83ZM77.4272 77.5059L74.4274 77.4739L74.4272 77.4899V77.5059H77.4272ZM77.4414 76.1748L80.4412 76.2067L80.4414 76.1908V76.1748H77.4414ZM77.4414 61.9014V58.9014H74.4414V61.9014H77.4414ZM80.9956 61.9014H83.9956V58.9014H80.9956V61.9014ZM80.9956 83V86H83.9956V83H80.9956ZM69.9204 78.3979V75.4526H63.9204V78.3979H69.9204ZM69.3804 77.1697L78.8394 63.6185L73.9194 60.1843L64.4604 73.7355L69.3804 77.1697ZM76.3794 64.9014H78.7441V58.9014H76.3794V64.9014ZM75.7441 61.9014V65.7246H81.7441V61.9014H75.7441ZM78.7441 62.7246H77.3989V68.7246H78.7441V62.7246ZM74.9385 64.0081L68.2408 73.6087L73.1616 77.0417L79.8593 67.4411L74.9385 64.0081ZM67.7012 75.3252V75.3818H73.7012V75.3252H67.7012ZM70.7012 78.3818H83.8701V72.3818H70.7012V78.3818ZM80.8701 75.3818V78.3979H86.8701V75.3818H80.8701ZM83.8701 75.3979H66.9204V81.3979H83.8701V75.3979ZM80.4272 83V77.5059H74.4272V83H80.4272ZM80.4271 77.5378L80.4412 76.2067L74.4416 76.1429L74.4274 77.4739L80.4271 77.5378ZM80.4414 76.1748V61.9014H74.4414V76.1748H80.4414ZM77.4414 64.9014H80.9956V58.9014H77.4414V64.9014ZM77.9956 61.9014V83H83.9956V61.9014H77.9956ZM80.9956 80H77.4272V86H80.9956V80Z" fill="#407A28" mask="url(#path-3-outside-1_46_75)"/>
</g>
<defs>
<clipPath id="clip0_46_75">
<rect width="101" height="101" fill="white"/>
</clipPath>
</defs>
</svg>
